<?xml version="1.0" encoding="UTF-8" standalone="no"?>
<!-- Created with Inkscape (http://www.inkscape.org/) -->

<svg
   xmlns:dc="http://purl.org/dc/elements/1.1/"
   xmlns:cc="http://creativecommons.org/ns#"
   xmlns:rdf="http://www.w3.org/1999/02/22-rdf-syntax-ns#"
   xmlns:svg="http://www.w3.org/2000/svg"
   xmlns="http://www.w3.org/2000/svg"
   xmlns:sodipodi="http://sodipodi.sourceforge.net/DTD/sodipodi-0.dtd"
   xmlns:inkscape="http://www.inkscape.org/namespaces/inkscape"
   version="1.1"
   width="3201.4771"
   height="3841.1213"
   id="svg2"
   xml:space="preserve"
   inkscape:version="0.48.5 r10040"
   sodipodi:docname="Notebook.svg"><sodipodi:namedview
     pagecolor="#ffffff"
     bordercolor="#666666"
     borderopacity="1"
     objecttolerance="10"
     gridtolerance="10"
     guidetolerance="10"
     inkscape:pageopacity="0"
     inkscape:pageshadow="2"
     inkscape:window-width="1920"
     inkscape:window-height="1178"
     id="namedview29"
     showgrid="false"
     inkscape:zoom="0.30208"
     inkscape:cx="1988.682"
     inkscape:cy="2773.3891"
     inkscape:window-x="-8"
     inkscape:window-y="-8"
     inkscape:window-maximized="1"
     inkscape:current-layer="svg2"
     fit-margin-top="0"
     fit-margin-left="0"
     fit-margin-right="0"
     fit-margin-bottom="0" /><metadata
     id="metadata8"><rdf:RDF><cc:Work
         rdf:about=""><dc:format>image/svg+xml</dc:format><dc:type
           rdf:resource="http://purl.org/dc/dcmitype/StillImage" /></cc:Work></rdf:RDF></metadata><defs
     id="defs6"><clipPath
       id="clipPath18"><path
         d="m 1602.723,3542.167 c -49.536,0 -97.611,-8.877 -142.891,-26.384 l 0,0 c -43.714,-16.903 -82.964,-41.092 -116.663,-71.897 l 0,0 c -33.697,-30.806 -60.159,-66.687 -78.649,-106.651 l 0,0 c -11.024,-23.826 -18.913,-48.5 -23.629,-73.787 l 0,0 c -3.884,0.183 -7.786,0.28 -11.704,0.28 l 0,0 c -59.533,0 -115.502,-21.193 -157.598,-59.676 l 0,0 c -42.096,-38.484 -65.28,-89.648 -65.28,-144.071 l 0,0 c 0,-40.547 12.875,-79.28 36.847,-112.314 l 0,0 c -23.972,-33.031 -36.847,-71.765 -36.847,-112.311 l 0,0 c 0,-40.546 12.875,-79.281 36.847,-112.313 l 0,0 c -23.972,-33.032 -36.847,-71.768 -36.847,-112.313 l 0,0 c 0,-40.546 12.875,-79.28 36.847,-112.303 l 0,0 c -23.972,-33.031 -36.847,-71.766 -36.847,-112.311 l 0,0 c 0,-40.547 12.875,-79.28 36.847,-112.314 l 0,0 c -23.972,-33.032 -36.847,-71.768 -36.847,-112.33 l 0,0 c 0,-40.568 12.875,-79.302 36.845,-112.333 l 0,0 c -23.97,-33.033 -36.845,-71.768 -36.845,-112.313 l 0,0 c 0,-40.546 12.875,-79.281 36.845,-112.314 l 0,0 c -23.97,-33.031 -36.845,-71.764 -36.845,-112.312 l 0,0 c 0,-40.545 12.875,-79.28 36.847,-112.312 l 0,0 c -23.972,-33.032 -36.847,-71.766 -36.847,-112.311 l 0,0 c 0,-54.425 23.184,-105.592 65.28,-144.073 l 0,0 c 42.096,-38.482 98.065,-59.676 157.598,-59.676 l 0,0 c 1.829,0 3.658,0.025 5.484,0.069 l 0,0 c 0,0 0.388,-221.026 1.099,-223.737 l 0,0 c 1.136,-42.302 10.793,-83.363 28.75,-122.175 l 0,0 c 18.488,-39.962 44.952,-75.843 78.649,-106.651 l 0,0 c 33.697,-30.803 72.949,-54.994 116.663,-71.897 l 0,0 c 45.28,-17.506 93.356,-26.384 142.891,-26.384 l 0,0 1406.115,0 c 49.537,0 97.611,8.878 142.888,26.384 l 0,0 c 43.715,16.903 82.967,41.094 116.665,71.897 l 0,0 c 33.698,30.808 60.16,66.689 78.65,106.651 l 0,0 c 19.153,41.392 28.862,85.342 28.862,130.625 l 0,0 0,272.191 0,0.144 0,1865.665 c 0,45.285 -9.709,89.233 -28.862,130.625 l 0,0 c -18.49,39.964 -44.952,75.845 -78.649,106.651 l 0,0 c -33.697,30.805 -72.949,54.994 -116.663,71.897 l 0,0 c -45.28,17.507 -93.353,26.384 -142.89,26.384 l 0,0 -1406.116,0 z m -537.251,-482.186 c 0,82.525 73.443,149.663 163.715,149.663 l 0,0 c 2.175,0 4.337,-0.045 6.49,-0.123 l 0,0 c -0.01,-0.968 -0.02,-1.938 -0.02,-2.911 l 0,0 0,-167.599 c -2.152,0.056 -4.308,0.091 -6.47,0.091 l 0,0 c -53.693,0 -104.485,-17.245 -144.816,-48.861 l 0,0 c -12.058,20.84 -18.899,44.571 -18.899,69.74 m 55.636,-112.314 c 28.855,23.234 66.696,37.352 108.079,37.352 l 0,0 c 2.167,0 4.323,-0.045 6.47,-0.122 l 0,0 0,-74.45 c -2.153,-0.077 -4.31,-0.128 -6.47,-0.128 l 0,0 c -41.383,0 -79.224,14.115 -108.079,37.348 m -55.636,-112.311 c 0,25.168 6.841,48.901 18.899,69.74 l 0,0 c 40.331,-31.616 91.123,-48.862 144.816,-48.862 l 0,0 c 2.159,0 4.316,0.031 6.47,0.088 l 0,0 0,-41.937 c -2.152,0.055 -4.308,0.093 -6.47,0.093 l 0,0 c -53.693,0 -104.485,-17.248 -144.816,-48.862 l 0,0 c -12.058,20.839 -18.899,44.571 -18.899,69.74 m 55.636,-112.313 c 28.855,23.233 66.696,37.35 108.079,37.35 l 0,0 c 2.167,0 4.323,-0.044 6.47,-0.12 l 0,0 0,-74.452 c -2.153,-0.077 -4.31,-0.129 -6.47,-0.129 l 0,0 c -41.383,0 -79.224,14.118 -108.079,37.351 m -55.636,-112.313 c 0,25.169 6.841,48.903 18.899,69.74 l 0,0 c 40.331,-31.615 91.123,-48.862 144.816,-48.862 l 0,0 c 2.159,0 4.316,0.03 6.47,0.088 l 0,0 0,-41.936 c -2.152,0.056 -4.308,0.093 -6.47,0.093 l 0,0 c -53.693,0 -104.485,-17.247 -144.816,-48.863 l 0,0 c -12.058,20.84 -18.899,44.571 -18.899,69.74 m 55.636,-112.303 c 28.855,23.223 66.696,37.341 108.079,37.341 l 0,0 c 2.167,0 4.323,-0.044 6.47,-0.121 l 0,0 0,-74.441 c -2.153,-0.076 -4.31,-0.128 -6.47,-0.128 l 0,0 c -41.383,0 -79.224,14.117 -108.079,37.349 m -55.636,-112.311 c 0,25.168 6.841,48.9 18.899,69.739 l 0,0 c 40.331,-31.615 91.123,-48.862 144.816,-48.862 l 0,0 c 2.159,0 4.316,0.031 6.47,0.089 l 0,0 0,-41.936 c -2.152,0.055 -4.308,0.091 -6.47,0.091 l 0,0 c -53.693,0 -104.484,-17.246 -144.816,-48.861 l 0,0 c -12.058,20.838 -18.899,44.571 -18.899,69.74 m 55.636,-112.314 c 28.855,23.234 66.696,37.352 108.079,37.352 l 0,0 c 2.167,0 4.323,-0.046 6.47,-0.122 l 0,0 0,-74.451 c -2.153,-0.076 -4.31,-0.128 -6.47,-0.128 l 0,0 c -41.383,0 -79.224,14.116 -108.079,37.349 m -55.636,-112.33 c 0,25.181 6.841,48.918 18.899,69.757 l 0,0 c 40.332,-31.614 91.123,-48.869 144.816,-48.869 l 0,0 c 2.159,0 4.316,0.03 6.47,0.088 l 0,0 0,-41.963 c -2.152,0.056 -4.308,0.091 -6.47,0.091 l 0,0 c -53.693,0 -104.485,-17.25 -144.816,-48.865 l 0,0 c -12.058,20.839 -18.899,44.57 -18.899,69.761 m 55.636,-112.333 c 28.855,23.232 66.696,37.349 108.079,37.349 l 0,0 c 2.167,0 4.323,-0.045 6.47,-0.12 l 0,0 0,-74.45 c -2.153,-0.079 -4.31,-0.132 -6.47,-0.132 l 0,0 c -41.383,0 -79.224,14.119 -108.079,37.353 m -55.636,-112.313 c 0,25.169 6.841,48.901 18.899,69.738 l 0,0 c 40.331,-31.614 91.123,-48.861 144.816,-48.861 l 0,0 c 2.159,0 4.316,0.03 6.47,0.089 l 0,0 0,-41.936 c -2.152,0.055 -4.308,0.091 -6.47,0.091 l 0,0 c -53.693,0 -104.485,-17.246 -144.816,-48.861 l 0,0 c -12.058,20.838 -18.899,44.571 -18.899,69.74 m 55.636,-112.314 c 28.855,23.235 66.696,37.352 108.079,37.352 l 0,0 c 2.167,0 4.323,-0.045 6.47,-0.122 l 0,0 0,-74.45 c -2.153,-0.076 -4.31,-0.129 -6.47,-0.129 l 0,0 c -41.383,0 -79.224,14.117 -108.079,37.349 M 1065.472,1712.2 c 0,25.17 6.841,48.901 18.899,69.741 l 0,0 c 40.331,-31.616 91.123,-48.863 144.816,-48.863 l 0,0 c 2.159,0 4.316,0.031 6.47,0.087 l 0,0 0,-41.936 c -2.152,0.058 -4.308,0.093 -6.47,0.093 l 0,0 c -53.693,0 -104.484,-17.245 -144.816,-48.861 l 0,0 c -12.058,20.839 -18.899,44.572 -18.899,69.739 m 55.636,-112.312 c 28.855,23.233 66.696,37.349 108.079,37.349 l 0,0 c 1.836,0 3.663,-0.036 5.484,-0.093 l 0,0 0,-74.506 c -1.826,-0.057 -3.653,-0.101 -5.484,-0.101 l 0,0 c -41.383,0 -79.224,14.118 -108.079,37.351 m -55.636,-112.311 c 0,25.167 6.841,48.899 18.899,69.737 l 0,0 c 40.331,-31.615 91.123,-48.861 144.816,-48.861 l 0,0 c 1.83,0 3.658,0.032 5.484,0.074 l 0,0 0,-170.513 c -1.826,-0.058 -3.654,-0.102 -5.484,-0.102 l 0,0 c -90.272,0 -163.715,67.139 -163.715,149.665"
         inkscape:connector-curvature="0"
         id="path20" /></clipPath><linearGradient
       x1="0"
       y1="0"
       x2="1"
       y2="0"
       id="linearGradient26"
       gradientUnits="userSpaceOnUse"
       gradientTransform="matrix(2369.5938,0,0,-2369.5938,1006.3086,2137.6106)"
       spreadMethod="pad"><stop
         id="stop28"
         style="stop-color:#e6e7e8;stop-opacity:1"
         offset="0" /><stop
         id="stop30"
         style="stop-color:#a7a9ac;stop-opacity:1"
         offset="1" /></linearGradient><clipPath
       id="clipPath38"><path
         d="m 0,5000 5000,0 L 5000,0 0,0 0,5000 z"
         inkscape:connector-curvature="0"
         id="path40" /></clipPath><clipPath
       clipPathUnits="userSpaceOnUse"
       id="clipPath3835"><rect
         style="fill:none;stroke:#000000;stroke-width:0.792;stroke-miterlimit:4;stroke-opacity:1;stroke-dasharray:none"
         id="rect3837"
         width="1955.0305"
         height="704.11053"
         x="-1684.3198"
         y="2225.4331"
         transform="scale(1,-1)" /></clipPath><clipPath
       clipPathUnits="userSpaceOnUse"
       id="clipPath3877"><rect
         style="fill:none;stroke:#000000;stroke-width:1.01405978;stroke-miterlimit:4;stroke-opacity:1;stroke-dasharray:none"
         id="rect3879"
         width="2721.1335"
         height="434.15497"
         x="1964.0531"
         y="4186.3267" /></clipPath><clipPath
       clipPathUnits="userSpaceOnUse"
       id="clipPath3901"><rect
         style="fill:none;stroke:#000000;stroke-width:0.80000001;stroke-opacity:1"
         id="rect3903"
         width="2026.1904"
         height="318.34784"
         x="-1659.0347"
         y="2220.8879"
         transform="scale(1,-1)" /></clipPath></defs><g
     id="g42"
     transform="matrix(1.25,0,0,-1.25,2863.3888,2558.6187)"><path
       style="fill:#414042;fill-opacity:1;fill-rule:nonzero;stroke:none"
       id="path44"
       inkscape:connector-curvature="0"
       d="M 0,0 0,-0.038 0,-361.106 C -0.043,-519.975 -129.303,-649.21 -288.18,-649.21 l -1406.117,0 c -158.904,0 -288.182,129.276 -288.182,288.18 l 0,300.051 c 36.759,-22.552 63.981,-59.198 74.075,-102.361 -9.622,-9.504 -15.59,-22.698 -15.59,-37.292 0,-28.949 23.47,-52.419 52.419,-52.419 28.951,0 52.42,23.47 52.42,52.419 0,21.285 -12.695,39.595 -30.919,47.805 -8.978,41.285 -29.569,79.205 -60.159,109.795 -21.044,21.043 -45.555,37.361 -72.246,48.419 l 0,179.351 c 36.759,-22.551 63.981,-59.197 74.075,-102.361 -9.622,-9.503 -15.59,-22.698 -15.59,-37.292 0,-28.95 23.47,-52.42 52.419,-52.42 28.951,0 52.42,23.47 52.42,52.42 0,21.286 -12.695,39.595 -30.918,47.805 -8.979,41.286 -29.57,79.205 -60.16,109.795 -21.044,21.044 -45.555,37.361 -72.246,48.419 l 0,179.35 c 36.759,-22.551 63.981,-59.195 74.075,-102.359 -9.622,-9.504 -15.59,-22.7 -15.59,-37.292 0,-28.95 23.47,-52.419 52.419,-52.419 28.951,0 52.42,23.469 52.42,52.419 0,21.285 -12.695,39.594 -30.918,47.803 -8.979,41.286 -29.57,79.206 -60.16,109.796 -21.044,21.044 -45.555,37.362 -72.246,48.418 l 0,179.395 c 36.759,-22.551 63.981,-59.197 74.075,-102.362 -9.622,-9.509 -15.59,-22.709 -15.59,-37.31 0,-28.974 23.47,-52.442 52.419,-52.442 28.951,0 52.42,23.468 52.42,52.442 0,21.296 -12.695,39.613 -30.919,47.825 -8.978,41.284 -29.569,79.204 -60.159,109.793 -21.044,21.045 -45.555,37.361 -72.246,48.419 l 0,179.351 c 36.759,-22.549 63.981,-59.196 74.075,-102.359 -9.622,-9.505 -15.59,-22.7 -15.59,-37.292 0,-28.951 23.47,-52.42 52.419,-52.42 28.951,0 52.42,23.469 52.42,52.42 0,21.285 -12.695,39.594 -30.919,47.804 -8.978,41.286 -29.569,79.206 -60.159,109.795 -21.044,21.044 -45.555,37.361 -72.246,48.42 l 0,179.35 c 36.759,-22.551 63.981,-59.197 74.075,-102.36 -9.622,-9.504 -15.59,-22.699 -15.59,-37.292 0,-28.95 23.47,-52.42 52.419,-52.42 28.951,0 52.42,23.47 52.42,52.42 0,21.286 -12.695,39.595 -30.919,47.806 -8.978,41.284 -29.569,79.203 -60.159,109.793 -21.044,21.045 -45.555,37.361 -72.246,48.42 l 0,179.35 c 36.759,-22.55 63.981,-59.196 74.075,-102.36 -9.622,-9.504 -15.59,-22.699 -15.59,-37.291 0,-28.951 23.47,-52.42 52.419,-52.42 28.951,0 52.42,23.469 52.42,52.42 0,21.285 -12.695,39.594 -30.919,47.804 -8.978,41.286 -29.569,79.206 -60.159,109.794 -21.044,21.044 -45.555,37.362 -72.246,48.42 l 0,179.351 c 36.759,-22.551 63.981,-59.197 74.075,-102.36 -9.622,-9.504 -15.59,-22.7 -15.59,-37.292 0,-28.951 23.47,-52.42 52.419,-52.42 28.951,0 52.42,23.469 52.42,52.42 0,21.286 -12.695,39.593 -30.919,47.803 -8.978,41.286 -29.569,79.205 -60.159,109.795 -20.15,20.151 -43.484,35.954 -68.861,46.969 21.318,138.012 140.91,244.012 284.797,244.012 l 1406.117,0 C -129.277,1968.011 0,1838.733 0,1679.829 L 0,0 z m -2061.362,1679.829 0,-183.337 c -2.152,0.062 -4.307,0.101 -6.47,0.101 -53.693,0 -104.485,-18.864 -144.817,-53.449 -12.058,22.795 -18.899,48.755 -18.899,76.288 0,90.273 73.443,163.715 163.716,163.715 2.174,0 4.337,-0.048 6.49,-0.133 -0.01,-1.06 -0.02,-2.121 -0.02,-3.185 m 0,-323.973 c -2.154,-0.084 -4.311,-0.14 -6.47,-0.14 -41.384,0 -79.224,15.441 -108.079,40.856 28.855,25.415 66.695,40.859 108.079,40.859 2.167,0 4.323,-0.049 6.47,-0.133 l 0,-81.442 z m 0,-105.082 c -2.152,0.062 -4.307,0.102 -6.47,0.102 -53.693,0 -104.485,-18.866 -144.817,-53.449 -12.058,22.795 -18.899,48.756 -18.899,76.288 0,27.532 6.842,53.492 18.899,76.288 40.332,-34.585 91.124,-53.45 144.817,-53.45 2.158,0 4.315,0.034 6.47,0.095 l 0,-45.874 z m 0,-140.634 c -2.154,-0.084 -4.311,-0.142 -6.47,-0.142 -41.384,0 -79.224,15.442 -108.079,40.858 28.855,25.415 66.695,40.857 108.079,40.857 2.167,0 4.323,-0.048 6.47,-0.132 l 0,-81.441 z m 0,-105.082 c -2.152,0.061 -4.307,0.101 -6.47,0.101 -53.693,0 -104.485,-18.866 -144.817,-53.45 -12.058,22.796 -18.899,48.756 -18.899,76.288 0,27.532 6.841,53.493 18.899,76.288 40.332,-34.584 91.124,-53.449 144.817,-53.449 2.158,0 4.315,0.033 6.47,0.096 l 0,-45.874 z m 0,-140.636 c -2.154,-0.084 -4.311,-0.141 -6.47,-0.141 -41.384,0 -79.224,15.442 -108.079,40.857 28.855,25.415 66.695,40.858 108.079,40.858 2.167,0 4.323,-0.049 6.47,-0.133 l 0,-81.441 z m 0,-105.081 c -2.152,0.06 -4.307,0.1 -6.47,0.1 -53.693,0 -104.484,-18.866 -144.817,-53.449 -12.057,22.795 -18.899,48.756 -18.899,76.288 0,27.532 6.841,53.492 18.899,76.288 40.332,-34.585 91.124,-53.45 144.817,-53.45 2.158,0 4.315,0.034 6.47,0.097 l 0,-45.874 z m 0,-140.636 c -2.154,-0.084 -4.311,-0.141 -6.47,-0.141 -41.384,0 -79.224,15.443 -108.079,40.857 28.855,25.415 66.695,40.858 108.079,40.858 2.167,0 4.323,-0.049 6.47,-0.133 l 0,-81.441 z m 0,-105.12 c -2.152,0.061 -4.307,0.101 -6.47,0.101 -53.693,0 -104.485,-18.871 -144.817,-53.455 -12.058,22.796 -18.899,48.756 -18.899,76.312 0,27.544 6.842,53.513 18.899,76.308 40.333,-34.583 91.124,-53.458 144.817,-53.458 2.158,0 4.315,0.033 6.47,0.095 l 0,-45.903 z m 0,-140.64 c -2.154,-0.085 -4.311,-0.142 -6.47,-0.142 -41.384,0 -79.224,15.443 -108.08,40.859 28.856,25.413 66.696,40.857 108.08,40.857 2.167,0 4.323,-0.049 6.47,-0.133 l 0,-81.441 z m 0,-105.082 c -2.152,0.062 -4.307,0.101 -6.47,0.101 -53.693,0 -104.485,-18.865 -144.817,-53.449 -12.058,22.795 -18.899,48.756 -18.899,76.288 0,27.532 6.841,53.493 18.899,76.287 40.332,-34.584 91.124,-53.45 144.817,-53.45 2.158,0 4.315,0.034 6.47,0.097 l 0,-45.874 z m 0,-140.635 c -2.154,-0.083 -4.311,-0.141 -6.47,-0.141 -41.384,0 -79.224,15.442 -108.08,40.856 28.856,25.416 66.696,40.859 108.08,40.859 2.167,0 4.323,-0.049 6.47,-0.133 l 0,-81.441 z m 0,-105.082 c -2.152,0.062 -4.307,0.101 -6.47,0.101 -53.693,0 -104.484,-18.866 -144.817,-53.45 -12.057,22.796 -18.899,48.757 -18.899,76.288 0,27.533 6.841,53.492 18.899,76.289 40.332,-34.584 91.124,-53.45 144.817,-53.45 2.158,0 4.315,0.034 6.47,0.096 l 0,-45.874 z m -0.986,-140.667 c -1.826,-0.062 -3.654,-0.11 -5.484,-0.11 -41.383,0 -79.224,15.443 -108.079,40.858 28.855,25.415 66.696,40.857 108.079,40.857 1.836,0 3.663,-0.041 5.484,-0.103 l 0,-81.502 z m 0,-245.716 c -1.826,-0.064 -3.654,-0.111 -5.484,-0.111 -90.273,0 -163.716,73.443 -163.716,163.716 0,27.532 6.842,53.492 18.899,76.288 40.332,-34.584 91.123,-53.45 144.817,-53.45 1.83,0 3.657,0.036 5.484,0.082 l 0,-186.525 z M -28.627,1939.384 c -33.697,33.698 -72.949,60.159 -116.664,78.648 -45.279,19.152 -93.352,28.863 -142.889,28.863 l -1406.117,0 c -49.536,0 -97.611,-9.711 -142.89,-28.863 -43.714,-18.489 -82.965,-44.95 -116.663,-78.648 -33.698,-33.698 -60.159,-72.948 -78.65,-116.664 -11.023,-26.064 -18.913,-53.054 -23.628,-80.716 -3.884,0.2 -7.787,0.307 -11.704,0.307 -59.533,0 -115.503,-23.184 -157.599,-65.281 -42.096,-42.095 -65.28,-98.065 -65.28,-157.598 0,-44.354 12.876,-86.725 36.847,-122.86 -23.971,-36.133 -36.847,-78.504 -36.847,-122.857 0,-44.354 12.876,-86.725 36.847,-122.859 -23.971,-36.134 -36.847,-78.506 -36.847,-122.859 0,-44.353 12.876,-86.725 36.847,-122.859 -23.971,-36.134 -36.847,-78.505 -36.847,-122.858 0,-44.353 12.876,-86.724 36.847,-122.859 -23.971,-36.134 -36.847,-78.506 -36.847,-122.878 0,-44.378 12.876,-86.749 36.846,-122.881 -23.97,-36.136 -36.846,-78.507 -36.846,-122.859 0,-44.353 12.876,-86.725 36.846,-122.86 -23.97,-36.131 -36.846,-78.503 -36.846,-122.858 0,-44.354 12.876,-86.725 36.847,-122.858 -23.971,-36.134 -36.847,-78.505 -36.847,-122.859 0,-59.533 23.184,-115.504 65.28,-157.599 42.096,-42.096 98.066,-65.28 157.599,-65.28 1.829,0 3.657,0.029 5.484,0.076 0,0 0.388,-241.779 1.099,-244.746 1.135,-46.273 10.792,-91.19 28.749,-133.646 18.489,-43.716 44.952,-82.966 78.65,-116.665 33.697,-33.697 72.949,-60.159 116.663,-78.649 45.279,-19.15 93.355,-28.861 142.89,-28.861 l 1406.115,0 c 49.537,0 97.612,9.711 142.889,28.861 43.715,18.49 82.967,44.952 116.664,78.649 33.699,33.699 60.16,72.949 78.65,116.665 19.153,45.277 28.862,93.353 28.862,142.889 l 0,297.751 0,0.157 0,2040.859 c 0,49.537 -9.709,97.611 -28.862,142.891 -18.49,43.716 -44.951,82.966 -78.648,116.664" /></g><path
     inkscape:connector-curvature="0"
     style="fill:#ffffff;fill-opacity:1;stroke:none"
     d="m 745.52735,98.59205 c -179.8586,0 -329.3523,132.5163 -356,305.0313 31.7212,13.7675 60.8749,33.5314 86.0626,58.7187 38.2374,38.2376 63.9962,85.6113 75.2187,137.2188 22.78,10.2625 38.625,33.1738 38.625,59.7812 0,36.1877 -29.3113,65.5 -65.5,65.5 -36.1863,0 -65.5313,-29.3123 -65.5313,-65.5 0,-18.2411 7.4413,-34.7448 19.4688,-46.625 -12.6175,-53.9536 -46.6451,-99.7501 -92.5938,-127.9374 l 0,224.1874 c 33.3637,13.8238 64.0075,34.1951 90.3126,60.5 38.2374,38.2364 63.9962,85.6425 75.2187,137.25 22.78,10.2626 38.625,33.1439 38.625,59.75 0,36.18885 -29.3113,65.53135 -65.5,65.53135 -36.1863,0 -65.5313,-29.3425 -65.5313,-65.53135 0,-18.2399 7.4413,-34.7137 19.4688,-46.5937 -12.6175,-53.955 -46.6451,-99.7814 -92.5938,-127.9687 l 0,224.18745 c 33.3637,13.824 64.0075,34.2251 90.3126,60.5313 38.2374,38.2375 63.9962,85.645 75.2187,137.25 22.78,10.2637 38.625,33.1425 38.625,59.75 0,36.1888 -29.3113,65.5313 -65.5,65.5313 -36.1863,0 -65.5313,-29.3425 -65.5313,-65.5313 0,-18.24 7.4413,-34.745 19.4688,-46.625 -12.6175,-53.9537 -46.6451,-99.7475 -92.5938,-127.9375 l 0,224.1875 c 33.3637,13.8225 64.0075,34.2261 90.3126,60.5313 38.2374,38.2361 63.9962,85.6412 75.2187,137.25 22.78,10.2624 38.625,33.1437 38.625,59.75 0,36.1886 -29.3113,65.5 -65.5,65.5 -36.1863,0 -65.5313,-29.3114 -65.5313,-65.5 0,-18.2401 7.4413,-34.7439 19.4688,-46.625 -12.6175,-53.9539 -46.6451,-99.7512 -92.5938,-127.9376 l 0,224.1876 c 33.3637,13.8224 64.0075,34.1938 90.3126,60.5 38.2374,38.2363 63.9962,85.6448 75.2187,137.25 22.78,10.2649 38.625,33.1612 38.625,59.7812 0,36.2162 -29.3113,65.5625 -65.5,65.5625 -36.1863,0 -65.5313,-29.3463 -65.5313,-65.5625 0,-18.2513 7.4413,-34.7388 19.4688,-46.625 -12.6175,-53.9563 -46.6451,-99.7811 -92.5938,-127.9688 l 0,224.25 c 33.3637,13.8213 64.0075,34.2263 90.3126,60.5313 38.2374,38.2387 63.9949,85.6437 75.2187,137.25 22.7787,10.2612 38.625,33.1437 38.625,59.75 0,36.1875 -29.3113,65.5313 -65.5,65.5313 -36.1863,0 -65.5313,-29.3438 -65.5313,-65.5313 0,-18.24 7.4413,-34.745 19.4688,-46.625 -12.6175,-53.955 -46.6448,-99.7488 -92.5938,-127.9375 l 0,224.1875 c 33.364,13.8237 64.0073,34.1937 90.3126,60.5 38.2372,38.2375 63.9949,85.6425 75.2187,137.25 22.7787,10.2625 38.625,33.1412 38.625,59.75 0,36.1875 -29.3112,65.5313 -65.5,65.5313 -36.1862,0 -65.5313,-29.3438 -65.5313,-65.5313 0,-18.2425 7.4413,-34.7151 19.4688,-46.5937 -12.6175,-53.955 -46.6448,-99.7801 -92.5938,-127.9688 l 0,224.1875 c 33.364,13.8212 64.0075,34.2274 90.3126,60.5313 38.2374,38.2374 63.9962,85.6435 75.2187,137.25 22.78,10.2624 38.625,33.1437 38.625,59.75 0,36.1873 -29.3112,65.5312 -65.5,65.5312 -36.1862,0 -65.5313,-29.3439 -65.5313,-65.5312 0,-18.2414 7.4413,-34.7452 19.4688,-46.625 -12.6175,-53.9539 -46.6448,-99.7475 -92.5938,-127.9376 l 0,375.0626 c 0,6.376 0.1712,12.7043 0.5,19 l 0,329.5312 -0.4687,0 0,32.7812 c 0,198.6289 161.5887,360.2187 360.2187,360.2187 l 1757.65635,0 c 198.5964,0 360.1651,-161.54 360.2187,-360.125 l 0,-32.875 -0.5,0 0,-329.9375 c 0.3135,-6.1296 0.4984,-12.2941 0.5,-18.5 l 0,-451.3436 0,-0.031 0,-2099.78135 c 0,-198.6299 -161.6211,-360.25 -360.25,-360.25 l -1757.62505,0 z m 0,100 1757.62505,0 c 143.4876,0 260.25,116.76 260.25,260.25 l 0,2551.15635 c 0,4.44 -0.1215,8.8639 -0.3437,13.25 l -2277.43755,0 c -0.2242,-4.4188 -0.3438,-8.8702 -0.3438,-13.3437 l 0,-39.5 c 12.5814,3.0186 25.5263,4.5312 38.6563,4.5312 22.3025,0 43.9663,-4.4037 64.4375,-13.0625 19.7225,-8.3425 37.4236,-20.2675 52.5938,-35.4375 15.1686,-15.17 27.095,-32.8413 35.4374,-52.5625 8.6587,-20.4725 13.0313,-42.1663 13.0313,-64.4687 0,-46.1126 -19.2761,-89.3376 -51.6563,-120.0938 -5.7424,-17.2113 -12.7025,-33.9387 -20.8437,-50.0938 8.58,-5.8323 16.6024,-12.4775 24.0313,-19.9062 15.1675,-15.1675 27.0961,-32.8712 35.4374,-52.5938 8.6587,-20.4712 13.0313,-42.1687 13.0313,-64.4687 0,-46.1125 -19.2761,-89.3374 -51.6563,-120.0937 -5.7424,-17.2113 -12.7037,-33.9388 -20.8437,-50.0938 8.5787,-5.8313 16.6026,-12.4775 24.0313,-19.9062 15.1686,-15.1688 27.0951,-32.8701 35.4374,-52.5938 8.6587,-20.47 13.0313,-42.1362 13.0313,-64.4375 0,-46.115 -19.2749,-89.3389 -51.6563,-120.0937 -5.7424,-17.2127 -12.7024,-33.9401 -20.8437,-50.0938 8.585,-5.8363 16.5999,-12.5038 24.0313,-19.9375 15.1686,-15.1738 27.0975,-32.8652 35.4374,-52.5937 8.654,-20.4701 13.0313,-42.1675 13.0313,-64.4688 0,-46.1237 -19.2737,-89.3637 -51.6563,-120.125 -5.7412,-17.2075 -12.705,-33.9425 -20.8437,-50.0938 8.58,-5.8312 16.6024,-12.4787 24.0313,-19.9062 15.1686,-15.17 27.0961,-32.8712 35.4374,-52.5938 8.6587,-20.4699 13.0313,-42.1361 13.0313,-64.4374 0,-46.1113 -19.2761,-89.3388 -51.6563,-120.0938 -5.7424,-17.2087 -12.705,-33.9737 -20.8437,-50.125 8.58,-5.8312 16.6024,-12.4776 24.0313,-19.9062 15.1675,-15.1702 27.0961,-32.8399 35.4374,-52.5626 8.6587,-20.4712 13.0313,-42.1662 13.0313,-64.4687 0,-46.1138 -19.2737,-89.3364 -51.6563,-120.0937 -5.7435,-17.2102 -12.7037,-33.9401 -20.8437,-50.0938 8.5787,-5.8325 16.6024,-12.4775 24.0313,-19.9062 15.1686,-15.1688 27.0961,-32.8713 35.4374,-52.5938 8.6587,-20.47 13.0313,-42.16735 13.0313,-64.46885 0,-46.1124 -19.2761,-89.3387 -51.6563,-120.0937 -5.741,-17.2075 -12.705,-33.9426 -20.8437,-50.0937 8.5812,-5.8326 16.6011,-12.4776 24.0313,-19.9063 15.1675,-15.17 27.0961,-32.8713 35.4374,-52.5937 8.6587,-20.4713 12.4988,-42.1425 13.0313,-64.4376 2.8012,-117.5187 -101.29,-225.885 -143.125,-267.7187 -12.625,-12.625 -26,-24.26 -40.0625,-34.875 40.3,-93.4 134.1049,-158.1563 239.2812,-158.1563 z m -260.2187,3166.40635 199.5,0 c 19.743,3.3649 40.0318,5.125 60.7187,5.125 l 1757.62505,0 c 20.6836,0 40.979,-1.7611 60.7188,-5.125 l 199.5312,0 0,26.3125 c -0.039,143.4237 -116.7687,260.125 -260.2187,260.125 l -1757.65635,0 c -143.4899,0 -260.2187,-116.7299 -260.2187,-260.2188 l 0,-26.2187 z"
     id="rect3955" /><path
     inkscape:connector-curvature="0"
     style="fill:#cccccc;fill-opacity:1;fill-rule:nonzero;stroke:none"
     d="m 745.52735,198.59205 c -105.1761,0 -198.9813,64.7563 -239.2812,158.1563 14.0625,10.615 27.4375,22.2488 40.0625,34.875 41.8338,41.8325 145.9275,150.2 143.125,267.7187 -0.5313,22.2962 -4.3713,43.9676 -13.0313,64.4376 -8.34,19.7225 -20.2699,37.4237 -35.4374,52.5937 -7.4287,7.4287 -15.45,14.0738 -24.0313,19.9063 8.1388,16.15 15.1026,32.8862 20.8437,50.0937 32.3801,30.7562 51.6563,73.9813 51.6563,120.0937 0,22.3014 -4.3726,43.99895 -13.0313,64.46885 -8.3413,19.7238 -20.2688,37.4251 -35.4374,52.5938 -7.4275,7.4288 -15.4513,14.0737 -24.0313,19.9062 8.1412,16.1537 15.1012,32.8837 20.8437,50.0938 32.3839,30.7573 51.6563,73.9787 51.6563,120.0937 0,22.3013 -4.3713,43.9988 -13.0313,64.4687 -8.34,19.7225 -20.2699,37.3925 -35.4374,52.5626 -7.4287,7.4287 -15.4513,14.0749 -24.0313,19.9061 8.1388,16.1525 15.1026,32.9175 20.8437,50.125 32.3801,30.7551 51.6563,73.9826 51.6563,120.0939 0,22.301 -4.3726,43.9674 -13.0313,64.4374 -8.3413,19.7225 -20.2688,37.4237 -35.4374,52.5937 -7.4275,7.4287 -15.4513,14.075 -24.0313,19.9062 8.1388,16.1512 15.1026,32.8863 20.8437,50.0938 32.3826,30.7614 51.6563,74.0013 51.6563,120.125 0,22.3025 -4.3776,43.9988 -13.0313,64.4689 -8.34,19.7287 -20.2687,37.4212 -35.4374,52.5936 -7.4312,7.435 -15.4463,14.1013 -24.0313,19.9375 8.1412,16.1551 15.1024,32.8812 20.8437,50.0939 32.3826,30.755 51.6563,73.9787 51.6563,120.0936 0,22.3014 -4.3724,43.9676 -13.0313,64.4375 -8.3411,19.7237 -20.2687,37.4251 -35.4374,52.5939 -7.4289,7.4288 -15.4513,14.0736 -24.0313,19.9061 8.1412,16.1538 15.1013,32.8813 20.8437,50.0939 32.3788,30.755 51.6563,73.9812 51.6563,120.0936 0,22.3014 -4.3713,43.9975 -13.0313,64.4687 -8.34,19.7225 -20.2699,37.4251 -35.4374,52.5938 -7.4287,7.4275 -15.4513,14.0739 -24.0313,19.9062 8.1413,16.1551 15.1013,32.8826 20.8437,50.0938 32.3801,30.7562 51.6563,73.98 51.6563,120.0939 0,22.3011 -4.3724,43.9962 -13.0313,64.4686 -8.3411,19.7212 -20.2687,37.3938 -35.4374,52.5625 -15.1688,15.1701 -32.8713,27.095 -52.5938,35.4375 -20.4713,8.6589 -42.135,13.0625 -64.4375,13.0625 -13.1299,0 -26.075,-1.5126 -38.6563,-4.5311 l 0,9.9061 0,29.5939 0,428.2811 3.7813,0 c 21.034,122.5262 128.0305,216.0312 256.4687,216.0312 l 1757.65635,0 c 128.4238,0 235.4001,-93.5267 256.4375,-216.0312 l 3.7812,0 0,-44.0938 0,-29.0623 0,-355.0314 0,-29.6875 0,-2521.46875 c 0,-143.49 -116.7624,-260.25 -260.25,-260.25 l -1757.62505,0 z"
     id="path52" /><path
     style="fill:#ef514a;fill-opacity:1;fill-rule:nonzero;stroke:none"
     id="path54"
     inkscape:connector-curvature="0"
     d="m 3201.4772,1266.4791 -315.1275,0 0,-395.02135 315.1275,0 0,395.02125 z" /><path
     style="fill:#64b6ff;fill-opacity:1;fill-rule:nonzero;stroke:none"
     id="path56"
     inkscape:connector-curvature="0"
     d="m 3142.8439,834.65875 -315.1275,0 0,-395.02116 315.1275,0 0,395.02116 z" /></svg>