<?xml version="1.0" encoding="UTF-8" standalone="no"?>
<!-- Created with Inkscape (http://www.inkscape.org/) -->

<svg
   xmlns:dc="http://purl.org/dc/elements/1.1/"
   xmlns:cc="http://creativecommons.org/ns#"
   xmlns:rdf="http://www.w3.org/1999/02/22-rdf-syntax-ns#"
   xmlns:svg="http://www.w3.org/2000/svg"
   xmlns="http://www.w3.org/2000/svg"
   xmlns:sodipodi="http://sodipodi.sourceforge.net/DTD/sodipodi-0.dtd"
   xmlns:inkscape="http://www.inkscape.org/namespaces/inkscape"
   width="30.78462"
   height="8.5612497"
   id="svg176787"
   version="1.1"
   inkscape:version="0.48.5 r10040"
   sodipodi:docname="SpineElement.svg">
  <defs
     id="defs176789" />
  <sodipodi:namedview
     id="base"
     pagecolor="#ffffff"
     bordercolor="#666666"
     borderopacity="1.0"
     inkscape:pageopacity="0.0"
     inkscape:pageshadow="2"
     inkscape:zoom="31.678384"
     inkscape:cx="12.535675"
     inkscape:cy="3.848448"
     inkscape:document-units="px"
     inkscape:current-layer="layer1"
     showgrid="false"
     fit-margin-top="1"
     fit-margin-left="0"
     fit-margin-right="0"
     fit-margin-bottom="1"
     inkscape:window-width="1920"
     inkscape:window-height="1178"
     inkscape:window-x="-8"
     inkscape:window-y="-8"
     inkscape:window-maximized="1" />
  <metadata
     id="metadata176792">
    <rdf:RDF>
      <cc:Work
         rdf:about="">
        <dc:format>image/svg+xml</dc:format>
        <dc:type
           rdf:resource="http://purl.org/dc/dcmitype/StillImage" />
        <dc:title></dc:title>
      </cc:Work>
    </rdf:RDF>
  </metadata>
  <g
     inkscape:label="Layer 1"
     inkscape:groupmode="layer"
     id="layer1"
     transform="translate(-359.60769,-528.08156)">
    <g
       transform="translate(-222.14286,-15.037502)"
       id="g176738">
      <path
         style="fill:#323232;fill-opacity:1;fill-rule:nonzero;stroke:none"
         id="path6488-4"
         inkscape:connector-curvature="0"
         d="m 585.84091,546.52156 c 7.28251,0.1025 15.04875,0.1025 22.33,0 0.4325,-0.006 0.78125,-0.36875 0.78125,-0.81125 -7.76625,0.135 -16.1275,0.135 -23.8925,0 0,0.4425 0.34875,0.805 0.78125,0.81125" />
      <path
         style="fill:#c8c8c8;fill-opacity:1;fill-rule:nonzero;stroke:none"
         id="path6492-8"
         inkscape:connector-curvature="0"
         d="m 608.17129,544.92606 c -7.2825,0.1325 -15.04875,0.1325 -22.33,0 -0.4325,-0.009 -0.78125,0.3425 -0.78125,0.78375 7.765,0.135 16.12625,0.135 23.8925,0 0,-0.44 -0.34875,-0.7925 -0.78125,-0.78375" />
      <path
         style="fill:#323232;fill-opacity:1;fill-rule:nonzero;stroke:none"
         id="path6496-6"
         inkscape:connector-curvature="0"
         d="m 585.84091,548.92932 c 7.28251,0.055 15.04875,0.055 22.33,0 0.4325,-0.004 0.78125,-0.365 0.78125,-0.80625 -7.76625,0.08 -16.1275,0.08 -23.8925,0 0,0.44125 0.34875,0.8025 0.78125,0.80625" />
      <path
         style="fill:#c8c8c8;fill-opacity:1;fill-rule:nonzero;stroke:none"
         id="path6500-4"
         inkscape:connector-curvature="0"
         d="m 608.17129,547.33269 c -7.2825,0.0863 -15.04875,0.0863 -22.33,0 -0.4325,-0.004 -0.78125,0.34875 -0.78125,0.79125 7.765,0.08 16.12625,0.08 23.8925,0 0,-0.4425 -0.34875,-0.795 -0.78125,-0.79125" />
      <path
         style="fill:#958e71;fill-opacity:1;fill-rule:nonzero;stroke:none"
         id="path7052-4"
         inkscape:connector-curvature="0"
         d="m 589.02879,546.98656 c 0,1.5825 -1.28125,2.8675 -2.86624,2.8675 -1.58375,0 -2.865,-1.285 -2.865,-2.8675 0,-1.58375 1.28125,-2.8675 2.865,-2.8675 1.58499,0 2.86624,1.28375 2.86624,2.8675" />
      <path
         style="fill:#c2b59b;fill-opacity:1;fill-rule:nonzero;stroke:none"
         id="path7056-6"
         inkscape:connector-curvature="0"
         d="m 585.97091,544.83632 c -0.10125,0 -0.19625,0.0162 -0.29125,0.0288 l 10e-4,0 c -0.0975,-0.0125 -0.19125,-0.0288 -0.28875,-0.0288 -0.10125,0 -0.19625,0.0162 -0.2925,0.0288 l 10e-4,0 c -0.095,-0.0125 -0.19,-0.0288 -0.29,-0.0288 -1.18625,0 -2.14875,0.9625 -2.14875,2.15 0,1.1875 0.9625,2.15 2.14875,2.15 0.1,0 0.195,-0.0162 0.29,-0.0287 l -10e-4,0 c 0.0963,0.0125 0.19125,0.0287 0.2925,0.0287 0.0975,0 0.19126,-0.0162 0.28875,-0.0287 l -10e-4,0 c 0.095,0.0125 0.19,0.0287 0.29125,0.0287 1.18625,0 2.14875,-0.9625 2.14875,-2.15 0,-1.1875 -0.96249,-2.15 -2.14875,-2.15" />
      <path
         style="fill:#958e71;fill-opacity:1;fill-rule:nonzero;stroke:none"
         id="path7060-6"
         inkscape:connector-curvature="0"
         d="m 582.52429,546.98656 c 0,-1.4525 1.08126,-2.63875 2.48001,-2.82875 -0.12626,-0.0175 -0.25376,-0.0387 -0.385,-0.0387 -1.5825,0 -2.86875,1.28375 -2.86875,2.8675 0,1.5825 1.28625,2.8675 2.86875,2.8675 0.13125,0 0.25875,-0.0225 0.385,-0.04 -1.39875,-0.19 -2.48001,-1.3775 -2.48001,-2.8275" />
      <path
         style="fill:#6d6649;fill-opacity:1;fill-rule:nonzero;stroke:none"
         id="path7064-6"
         inkscape:connector-curvature="0"
         d="m 583.29704,546.98656 c 0,-1.4525 1.08125,-2.63875 2.48,-2.82875 -0.1275,-0.0175 -0.255,-0.0387 -0.385,-0.0387 -1.58375,0 -2.8675,1.28375 -2.8675,2.8675 0,1.5825 1.28375,2.8675 2.8675,2.8675 0.13,0 0.2575,-0.0225 0.385,-0.04 -1.39875,-0.19 -2.48,-1.3775 -2.48,-2.8275" />
      <path
         style="fill:#f9f2d5;fill-opacity:1;fill-rule:nonzero;stroke:none"
         id="path7068-2"
         inkscape:connector-curvature="0"
         d="m 586.16266,549.85406 c -0.13375,0 -0.25999,-0.0225 -0.38749,-0.04 -0.12626,0.0175 -0.2525,0.04 -0.38376,0.04 -0.13375,0 -0.26,-0.0225 -0.38875,-0.04 l 0.002,0 c -0.1275,0.0175 -0.25375,0.04 -0.38625,0.04 -1.44125,0 -2.6225,-1.06875 -2.825,-2.455 -0.02,0.1375 -0.0425,0.2725 -0.0425,0.4125 0,1.585 1.285,2.86875 2.8675,2.86875 0.1325,0 0.25875,-0.02 0.38625,-0.0387 l -0.002,0 c 0.12875,0.0188 0.255,0.0387 0.38875,0.0387 0.13126,0 0.2575,-0.02 0.38626,-0.0387 l -0.003,0 c 0.1275,0.0188 0.25375,0.0387 0.3875,0.0387 1.58499,0 2.86624,-1.28375 2.86624,-2.86875 0,-0.14 -0.0213,-0.275 -0.0412,-0.4125 -0.20125,1.38625 -1.38375,2.455 -2.825,2.455" />
      <path
         style="fill:#958e71;fill-opacity:1;fill-rule:nonzero;stroke:none"
         id="path7532-4"
         inkscape:connector-curvature="0"
         d="m 605.25629,546.98656 c 0,1.5825 1.285,2.8675 2.87,2.8675 1.5825,0 2.8675,-1.285 2.8675,-2.8675 0,-1.58375 -1.285,-2.8675 -2.8675,-2.8675 -1.585,0 -2.87,1.28375 -2.87,2.8675" />
      <path
         style="fill:#c2b59b;fill-opacity:1;fill-rule:nonzero;stroke:none"
         id="path7536-1"
         inkscape:connector-curvature="0"
         d="m 608.31779,544.83632 c 0.10001,0 0.195,0.0162 0.29001,0.0288 0.095,-0.0125 0.19125,-0.0288 0.2875,-0.0288 0.10125,0 0.19625,0.0162 0.29125,0.0288 0.095,-0.0125 0.19,-0.0288 0.29,-0.0288 1.1875,0 2.14875,0.9625 2.14875,2.15 0,1.1875 -0.96125,2.15 -2.14875,2.15 -0.1,0 -0.195,-0.0162 -0.29,-0.0287 -0.095,0.0125 -0.19,0.0287 -0.29125,0.0287 -0.0962,0 -0.1925,-0.0162 -0.2875,-0.0287 -0.095,0.0125 -0.19,0.0287 -0.29001,0.0287 -1.18624,0 -2.15125,-0.9625 -2.15125,-2.15 0,-1.1875 0.965,-2.15 2.15125,-2.15" />
      <path
         style="fill:#958e71;fill-opacity:1;fill-rule:nonzero;stroke:none"
         id="path7540-2"
         inkscape:connector-curvature="0"
         d="m 611.76504,546.98656 c 0,-1.4525 -1.08125,-2.63875 -2.48,-2.82875 0.125,-0.0175 0.2525,-0.0387 0.3825,-0.0387 1.585,0 2.8675,1.28375 2.8675,2.8675 0,1.5825 -1.2825,2.8675 -2.8675,2.8675 -0.13,0 -0.2575,-0.0225 -0.3825,-0.04 1.39875,-0.19 2.48,-1.3775 2.48,-2.8275" />
      <path
         style="fill:#6d6649;fill-opacity:1;fill-rule:nonzero;stroke:none"
         id="path7544-2"
         inkscape:connector-curvature="0"
         d="m 610.99354,546.98656 c 0,-1.4525 -1.0825,-2.63875 -2.48125,-2.82875 0.125,-0.0175 0.2525,-0.0387 0.3825,-0.0387 1.58625,0 2.87,1.28375 2.87,2.8675 0,1.5825 -1.28375,2.8675 -2.87,2.8675 -0.13,0 -0.2575,-0.0225 -0.3825,-0.04 1.39875,-0.19 2.48125,-1.3775 2.48125,-2.8275" />
      <path
         style="fill:#f9f2d5;fill-opacity:1;fill-rule:nonzero;stroke:none"
         id="path7548-9"
         inkscape:connector-curvature="0"
         d="m 608.12617,549.85406 c 0.13126,0 0.25876,-0.0225 0.3875,-0.04 l -0.001,0 c 0.125,0.0175 0.2525,0.04 0.3825,0.04 0.13626,0 0.26126,-0.0225 0.39,-0.04 0.125,0.0175 0.2525,0.04 0.3825,0.04 1.44375,0 2.625,-1.06875 2.8275,-2.455 0.0188,0.1375 0.04,0.2725 0.04,0.4125 0,1.585 -1.2825,2.86875 -2.8675,2.86875 -0.13,0 -0.2575,-0.02 -0.3825,-0.0387 -0.12875,0.0188 -0.25375,0.0387 -0.39,0.0387 -0.13,0 -0.2575,-0.02 -0.3825,-0.0387 l 0.001,0 c -0.12875,0.0188 -0.25625,0.0387 -0.3875,0.0387 -1.58499,0 -2.87,-1.28375 -2.87,-2.86875 0,-0.14 0.0238,-0.275 0.0425,-0.4125 0.2025,1.38625 1.38626,2.455 2.8275,2.455" />
      <path
         style="fill:#32281a;fill-opacity:1;fill-rule:nonzero;stroke:none"
         id="path7968-7"
         inkscape:connector-curvature="0"
         d="m 585.85991,546.65219 22.29251,0 c 0.44125,0 0.8,-0.35875 0.8,-0.8 l -23.8925,0 c 0,0.44125 0.35875,0.8 0.8,0.8" />
      <path
         style="fill:#c8a066;fill-opacity:1;fill-rule:nonzero;stroke:none"
         id="path7972-6"
         inkscape:connector-curvature="0"
         d="m 608.15304,545.05306 -22.2925,0 c -0.44125,0 -0.80125,0.35875 -0.80125,0.8 l 23.89375,0 c 0,-0.44125 -0.35875,-0.8 -0.8,-0.8" />
      <path
         style="fill:#32281a;fill-opacity:1;fill-rule:nonzero;stroke:none"
         id="path7976-1"
         inkscape:connector-curvature="0"
         d="m 585.85991,548.91782 22.29251,0 c 0.44125,0 0.8,-0.3575 0.8,-0.79875 l -23.8925,0 c 0,0.44125 0.35875,0.79875 0.8,0.79875" />
      <path
         style="fill:#c8a066;fill-opacity:1;fill-rule:nonzero;stroke:none"
         id="path7980-7"
         inkscape:connector-curvature="0"
         d="m 608.15304,547.31981 -22.2925,0 c -0.44125,0 -0.80125,0.3575 -0.80125,0.8 l 23.89375,0 c 0,-0.4425 -0.35875,-0.8 -0.8,-0.8" />
    </g>
  </g>
</svg>
