<?xml version="1.0" encoding="UTF-8" standalone="no"?>
<!-- Created with Inkscape (http://www.inkscape.org/) -->

<svg
   xmlns:dc="http://purl.org/dc/elements/1.1/"
   xmlns:cc="http://creativecommons.org/ns#"
   xmlns:rdf="http://www.w3.org/1999/02/22-rdf-syntax-ns#"
   xmlns:svg="http://www.w3.org/2000/svg"
   xmlns="http://www.w3.org/2000/svg"
   xmlns:xlink="http://www.w3.org/1999/xlink"
   xmlns:sodipodi="http://sodipodi.sourceforge.net/DTD/sodipodi-0.dtd"
   xmlns:inkscape="http://www.inkscape.org/namespaces/inkscape"
   width="1062.5"
   height="765"
   id="svg48208"
   version="1.1"
   inkscape:version="0.48.5 r10040"
   sodipodi:docname="bridge.svg">
  <defs
     id="defs48210">
    <clipPath
       id="clipPath38-8">
      <path
         id="path40-8"
         inkscape:connector-curvature="0"
         d="M 0,612 850,612 850,0 0,0 0,612 z" />
    </clipPath>
    <linearGradient
       spreadMethod="pad"
       gradientTransform="matrix(850,0,0,-850,0,306)"
       gradientUnits="userSpaceOnUse"
       id="linearGradient24-4"
       y2="0"
       x2="1"
       y1="0"
       x1="0">
      <stop
         offset="0"
         style="stop-color:#efe8b6;stop-opacity:1"
         id="stop26-0" />
      <stop
         offset="0.99438202"
         style="stop-color:#efe6b5;stop-opacity:1"
         id="stop28-9" />
      <stop
         offset="1"
         style="stop-color:#efe6b5;stop-opacity:1"
         id="stop30-4" />
    </linearGradient>
    <clipPath
       id="clipPath16-1">
      <path
         id="path18-7"
         inkscape:connector-curvature="0"
         d="M 0,0 850,0 850,612 0,612 0,0 z" />
    </clipPath>
    <clipPath
       id="clipPath38">
      <path
         id="path40"
         inkscape:connector-curvature="0"
         d="M 0,612 850,612 850,0 0,0 0,612 z" />
    </clipPath>
    <linearGradient
       spreadMethod="pad"
       gradientTransform="matrix(850,0,0,-850,0,306)"
       gradientUnits="userSpaceOnUse"
       id="linearGradient24"
       y2="0"
       x2="1"
       y1="0"
       x1="0">
      <stop
         offset="0"
         style="stop-color:#efe8b6;stop-opacity:1"
         id="stop26" />
      <stop
         offset="0.99438202"
         style="stop-color:#efe6b5;stop-opacity:1"
         id="stop28" />
      <stop
         offset="1"
         style="stop-color:#efe6b5;stop-opacity:1"
         id="stop30" />
    </linearGradient>
    <clipPath
       id="clipPath16">
      <path
         id="path18"
         inkscape:connector-curvature="0"
         d="M 0,0 850,0 850,612 0,612 0,0 z" />
    </clipPath>
    <linearGradient
       inkscape:collect="always"
       xlink:href="#linearGradient24"
       id="linearGradient49862"
       gradientUnits="userSpaceOnUse"
       gradientTransform="matrix(850,0,0,-850,0,306)"
       spreadMethod="pad"
       x1="0"
       y1="0"
       x2="1"
       y2="0" />
    <linearGradient
       inkscape:collect="always"
       xlink:href="#linearGradient24"
       id="linearGradient49868"
       gradientUnits="userSpaceOnUse"
       gradientTransform="matrix(850,0,0,-850,0,306)"
       spreadMethod="pad"
       x1="0"
       y1="0"
       x2="1"
       y2="0" />
    <linearGradient
       inkscape:collect="always"
       xlink:href="#linearGradient24"
       id="linearGradient50043"
       gradientUnits="userSpaceOnUse"
       gradientTransform="matrix(850,0,0,-850,0,306)"
       spreadMethod="pad"
       x1="0"
       y1="0"
       x2="1"
       y2="0" />
    <linearGradient
       inkscape:collect="always"
       xlink:href="#linearGradient24"
       id="linearGradient50047"
       gradientUnits="userSpaceOnUse"
       gradientTransform="matrix(850,0,0,-850,0,306)"
       spreadMethod="pad"
       x1="0"
       y1="0"
       x2="1"
       y2="0" />
    <linearGradient
       inkscape:collect="always"
       xlink:href="#linearGradient24"
       id="linearGradient50050"
       gradientUnits="userSpaceOnUse"
       gradientTransform="matrix(1062.5,0,0,1062.5,-579.82143,160.93361)"
       spreadMethod="pad"
       x1="0"
       y1="0"
       x2="1"
       y2="0" />
  </defs>
  <sodipodi:namedview
     id="base"
     pagecolor="#ffffff"
     bordercolor="#666666"
     borderopacity="1.0"
     inkscape:pageopacity="0.0"
     inkscape:pageshadow="2"
     inkscape:zoom="0.49497475"
     inkscape:cx="1257.4951"
     inkscape:cy="6.5796578"
     inkscape:document-units="px"
     inkscape:current-layer="layer1"
     showgrid="false"
     fit-margin-top="0"
     fit-margin-left="0"
     fit-margin-right="0"
     fit-margin-bottom="0"
     inkscape:window-width="1920"
     inkscape:window-height="1178"
     inkscape:window-x="-8"
     inkscape:window-y="-8"
     inkscape:window-maximized="1" />
  <metadata
     id="metadata48213">
    <rdf:RDF>
      <cc:Work
         rdf:about="">
        <dc:format>image/svg+xml</dc:format>
        <dc:type
           rdf:resource="http://purl.org/dc/dcmitype/StillImage" />
        <dc:title></dc:title>
      </cc:Work>
    </rdf:RDF>
  </metadata>
  <g
     inkscape:label="Layer 1"
     inkscape:groupmode="layer"
     id="layer1"
     transform="translate(579.82143,221.56639)">
    <g
       id="g6809"
       transform="matrix(2.125688,0,0,2.125688,-794.92034,-204.15454)">
      <path
         d="m 123.82107,256.90343 -1.25,0 0,-41.41625 1.25,0 0,41.41625 z"
         inkscape:connector-curvature="0"
         id="path1996"
         style="fill:#008b83;fill-opacity:1;fill-rule:nonzero;stroke:none" />
      <path
         d="m 158.27982,236.76968 -1.25,0 0,-21.28375 1.25,0 0,21.28375 z"
         inkscape:connector-curvature="0"
         id="path1998"
         style="fill:#008b83;fill-opacity:1;fill-rule:nonzero;stroke:none" />
      <path
         d="m 192.73857,227.68468 -1.25,0 0,-12.1975 1.25,0 0,12.1975 z"
         inkscape:connector-curvature="0"
         id="path2000"
         style="fill:#008b83;fill-opacity:1;fill-rule:nonzero;stroke:none" />
      <path
         d="m 227.19732,224.94843 -1.25,0 0,-9.4625 1.25,0 0,9.4625 z"
         inkscape:connector-curvature="0"
         id="path2002"
         style="fill:#008b83;fill-opacity:1;fill-rule:nonzero;stroke:none" />
      <path
         d="m 261.65607,227.68468 -1.25,0 0,-12.1975 1.25,0 0,12.1975 z"
         inkscape:connector-curvature="0"
         id="path2004"
         style="fill:#008b83;fill-opacity:1;fill-rule:nonzero;stroke:none" />
      <path
         d="m 296.11607,236.77093 -1.25,0 0,-21.285 1.25,0 0,21.285 z"
         inkscape:connector-curvature="0"
         id="path2006"
         style="fill:#008b83;fill-opacity:1;fill-rule:nonzero;stroke:none" />
      <path
         d="m 330.57357,256.90343 -1.25,0 0,-41.41625 1.25,0 0,41.41625 z"
         inkscape:connector-curvature="0"
         id="path2008"
         style="fill:#008b83;fill-opacity:1;fill-rule:nonzero;stroke:none" />
      <path
         d="m 373.52107,256.90218 -1.25,0 0,-41.415 1.25,0 0,41.415 z"
         inkscape:connector-curvature="0"
         id="path2010"
         style="fill:#008b83;fill-opacity:1;fill-rule:nonzero;stroke:none" />
      <path
         d="m 407.97982,236.76968 -1.25,0 0,-21.28375 1.25,0 0,21.28375 z"
         inkscape:connector-curvature="0"
         id="path2012"
         style="fill:#008b83;fill-opacity:1;fill-rule:nonzero;stroke:none" />
      <path
         d="m 442.43857,227.68468 -1.25,0 0,-12.1975 1.25,0 0,12.1975 z"
         inkscape:connector-curvature="0"
         id="path2014"
         style="fill:#008b83;fill-opacity:1;fill-rule:nonzero;stroke:none" />
      <path
         d="m 476.89732,224.94843 -1.25,0 0,-9.4625 1.25,0 0,9.4625 z"
         inkscape:connector-curvature="0"
         id="path2016"
         style="fill:#008b83;fill-opacity:1;fill-rule:nonzero;stroke:none" />
      <path
         d="m 511.35607,227.68093 -1.25,0 0,-12.195 1.25,0 0,12.195 z"
         inkscape:connector-curvature="0"
         id="path2018"
         style="fill:#008b83;fill-opacity:1;fill-rule:nonzero;stroke:none" />
      <path
         d="m 545.81482,236.76843 -1.25,0 0,-21.28125 1.25,0 0,21.28125 z"
         inkscape:connector-curvature="0"
         id="path2020"
         style="fill:#008b83;fill-opacity:1;fill-rule:nonzero;stroke:none" />
      <path
         d="m 580.27482,256.89843 -1.25,0 0,-41.41125 1.25,0 0,41.41125 z"
         inkscape:connector-curvature="0"
         id="path2022"
         style="fill:#008b83;fill-opacity:1;fill-rule:nonzero;stroke:none" />
      <path
         d="m 359.65357,310.48718 -16.4625,0 0,-5.625 16.4625,0 0,5.625 z"
         inkscape:connector-curvature="0"
         id="path2024"
         style="fill:#636316;fill-opacity:1;fill-rule:nonzero;stroke:none" />
      <path
         d="m 109.95357,310.48718 -16.462499,0 0,-5.625 16.462499,0 0,5.625 z"
         inkscape:connector-curvature="0"
         id="path2026"
         style="fill:#636316;fill-opacity:1;fill-rule:nonzero;stroke:none" />
      <path
         d="m 609.36607,310.48718 -16.4625,0 0,-5.625 16.4625,0 0,5.625 z"
         inkscape:connector-curvature="0"
         id="path2028"
         style="fill:#636316;fill-opacity:1;fill-rule:nonzero;stroke:none" />
      <path
         style="fill:#23515e;fill-opacity:1;fill-rule:nonzero;stroke:none"
         id="path2032"
         inkscape:connector-curvature="0"
         d="m 313.96957,242.66293 0,-27.17625 -2.5,0 0,25.87 c -9.41,-4.79 -20.18,-8.79625 -31.95875,-11.825 l 0,-14.045 -2.5,0 0,13.41875 c -10.02875,-2.4325 -20.75125,-4.16375 -31.95875,-5.07875 l 0,-8.34 -2.5,0 0,8.14875 c -5.25375,-0.37 -10.60625,-0.56125 -16.04125,-0.56125 -5.3925,0 -10.705,0.1875 -15.9175,0.55125 l 0,-8.13875 -2.5,0 0,8.33 c -11.2075,0.90875 -21.92875,2.635 -31.95875,5.06125 l 0,-13.39125 -2.5,0 0,14.015 c -11.77625,3.02 -22.54625,7.01625 -31.95875,11.79625 l 0,-25.81125 -2.5,0 0,27.115 c -22.93125,12.305 -37.17125,29.39875 -37.17125,48.2725 l 3.8125,0 c 0,-35.3175 54.1425,-64.05 120.69375,-64.05 66.55875,0 120.7075,28.7325 120.7075,64.05 l 3.81125,0 c 0,-18.8425 -14.19375,-35.91125 -37.06,-48.21125" />
      <path
         style="fill:#23515e;fill-opacity:1;fill-rule:nonzero;stroke:none"
         id="path2036"
         inkscape:connector-curvature="0"
         d="m 563.66994,242.64793 0,-27.16125 -2.5,0 0,25.855 c -9.41125,-4.79 -20.18125,-8.795 -31.95875,-11.8225 l 0,-14.0325 -2.5,0 0,13.4075 c -10.03,-2.43125 -20.75125,-4.16125 -31.95875,-5.07375 l 0,-8.33375 -2.5,0 0,8.14375 c -5.2275,-0.36625 -10.555,-0.55625 -15.9625,-0.55625 -5.41875,0 -10.75875,0.19 -15.9975,0.55875 l 0,-8.14625 -2.5,0 0,8.33625 c -11.2075,0.91375 -21.93,2.64625 -31.95875,5.07875 l 0,-13.415 -2.5,0 0,14.04 c -11.77875,3.03 -22.54875,7.03625 -31.95875,11.82875 l 0,-25.86875 -2.5,0 0,27.175 c -22.85625,12.3 -37.04375,29.37 -37.04375,48.2125 l 3.81,0 c 0,-35.3175 54.1225,-64.05 120.64875,-64.05 66.52,0 120.63625,28.7325 120.63625,64.05 l 3.81125,0 c 0,-18.85 -14.1975,-35.925 -37.0675,-48.22625" />
      <path
         d="m 105.96607,209.23718 241.2125,0 0,6.25 -241.2125,0 0,-6.25 z"
         inkscape:connector-curvature="0"
         id="path2038"
         style="fill:#838e1b;fill-opacity:1;fill-rule:nonzero;stroke:none" />
      <path
         d="m 596.87857,215.48718 -241.2125,0 0,-6.25 241.2125,0 0,6.25 z"
         inkscape:connector-curvature="0"
         id="path2040"
         style="fill:#838e1b;fill-opacity:1;fill-rule:nonzero;stroke:none" />
      <path
         d="m 355.66607,304.86218 -8.4875,0 0,-110.625 8.4875,0 0,110.625 z"
         inkscape:connector-curvature="0"
         id="path2042"
         style="fill:#73771d;fill-opacity:1;fill-rule:nonzero;stroke:none" />
      <path
         d="m 105.96607,304.86218 -8.487499,0 0,-110.625 8.487499,0 0,110.625 z"
         inkscape:connector-curvature="0"
         id="path2044"
         style="fill:#73771d;fill-opacity:1;fill-rule:nonzero;stroke:none" />
      <path
         d="m 605.37857,304.86218 -8.5,0 0,-110.625 8.5,0 0,110.625 z"
         inkscape:connector-curvature="0"
         id="path2046"
         style="fill:#73771d;fill-opacity:1;fill-rule:nonzero;stroke:none" />
    </g>
  </g>
</svg>
