<?xml version="1.0" encoding="UTF-8" standalone="no"?>
<!-- Created with Inkscape (http://www.inkscape.org/) -->

<svg
   xmlns:dc="http://purl.org/dc/elements/1.1/"
   xmlns:cc="http://creativecommons.org/ns#"
   xmlns:rdf="http://www.w3.org/1999/02/22-rdf-syntax-ns#"
   xmlns:svg="http://www.w3.org/2000/svg"
   xmlns="http://www.w3.org/2000/svg"
   xmlns:sodipodi="http://sodipodi.sourceforge.net/DTD/sodipodi-0.dtd"
   xmlns:inkscape="http://www.inkscape.org/namespaces/inkscape"
   width="1062.5"
   height="765"
   id="svg48208"
   version="1.1"
   inkscape:version="0.48.5 r10040"
   sodipodi:docname="New document 23">
  <defs
     id="defs48210">
    <clipPath
       id="clipPath38-8">
      <path
         id="path40-8"
         inkscape:connector-curvature="0"
         d="M 0,612 850,612 850,0 0,0 0,612 z" />
    </clipPath>
    <linearGradient
       spreadMethod="pad"
       gradientTransform="matrix(850,0,0,-850,0,306)"
       gradientUnits="userSpaceOnUse"
       id="linearGradient24-4"
       y2="0"
       x2="1"
       y1="0"
       x1="0">
      <stop
         offset="0"
         style="stop-color:#efe8b6;stop-opacity:1"
         id="stop26-0" />
      <stop
         offset="0.99438202"
         style="stop-color:#efe6b5;stop-opacity:1"
         id="stop28-9" />
      <stop
         offset="1"
         style="stop-color:#efe6b5;stop-opacity:1"
         id="stop30-4" />
    </linearGradient>
    <clipPath
       id="clipPath16-1">
      <path
         id="path18-7"
         inkscape:connector-curvature="0"
         d="M 0,0 850,0 850,612 0,612 0,0 z" />
    </clipPath>
    <clipPath
       id="clipPath38">
      <path
         id="path40"
         inkscape:connector-curvature="0"
         d="M 0,612 850,612 850,0 0,0 0,612 z" />
    </clipPath>
    <linearGradient
       spreadMethod="pad"
       gradientTransform="matrix(850,0,0,-850,0,306)"
       gradientUnits="userSpaceOnUse"
       id="linearGradient24"
       y2="0"
       x2="1"
       y1="0"
       x1="0">
      <stop
         offset="0"
         style="stop-color:#efe8b6;stop-opacity:1"
         id="stop26" />
      <stop
         offset="0.99438202"
         style="stop-color:#efe6b5;stop-opacity:1"
         id="stop28" />
      <stop
         offset="1"
         style="stop-color:#efe6b5;stop-opacity:1"
         id="stop30" />
    </linearGradient>
    <clipPath
       id="clipPath16">
      <path
         id="path18"
         inkscape:connector-curvature="0"
         d="M 0,0 850,0 850,612 0,612 0,0 z" />
    </clipPath>
  </defs>
  <sodipodi:namedview
     id="base"
     pagecolor="#ffffff"
     bordercolor="#666666"
     borderopacity="1.0"
     inkscape:pageopacity="0.0"
     inkscape:pageshadow="2"
     inkscape:zoom="0.49497475"
     inkscape:cx="677.17153"
     inkscape:cy="304.25066"
     inkscape:document-units="px"
     inkscape:current-layer="layer1"
     showgrid="false"
     fit-margin-top="0"
     fit-margin-left="0"
     fit-margin-right="0"
     fit-margin-bottom="0"
     inkscape:window-width="1600"
     inkscape:window-height="837"
     inkscape:window-x="-8"
     inkscape:window-y="-8"
     inkscape:window-maximized="1" />
  <metadata
     id="metadata48213">
    <rdf:RDF>
      <cc:Work
         rdf:about="">
        <dc:format>image/svg+xml</dc:format>
        <dc:type
           rdf:resource="http://purl.org/dc/dcmitype/StillImage" />
        <dc:title></dc:title>
      </cc:Work>
    </rdf:RDF>
  </metadata>
  <g
     inkscape:label="Layer 1"
     inkscape:groupmode="layer"
     id="layer1"
     transform="translate(579.82143,221.56639)">
    <g
       id="g10"
       transform="matrix(1.25,0,0,-1.25,-579.82143,543.43361)">
      <g
         id="g12">
        <g
           id="g14"
           clip-path="url(#clipPath16)">
          <g
             id="g20">
            <g
               id="g22">
              <path
                 style="fill:url(#linearGradient24);stroke:none"
                 id="path32"
                 inkscape:connector-curvature="0"
                 d="M 0,0 850,0 850,612 0,612 0,0 z" />
            </g>
          </g>
        </g>
      </g>
      <g
         id="g34">
        <g
           id="g36"
           clip-path="url(#clipPath38)">
          <g
             id="g42"
             transform="translate(828.1338,242.2334)">
            <path
               style="fill:#bdcd2f;fill-opacity:1;fill-rule:nonzero;stroke:none"
               id="path44"
               inkscape:connector-curvature="0"
               d="m 0,0 c 0,-40.763 -34.08,-73.81 -76.113,-73.81 -42.038,0 -76.116,33.047 -76.116,73.81 0,40.762 34.078,73.807 76.116,73.807 C -34.08,73.807 0,40.762 0,0" />
          </g>
          <g
             id="g46"
             transform="translate(809.4951,241.8613)">
            <path
               style="fill:#e1e33a;fill-opacity:1;fill-rule:nonzero;stroke:none"
               id="path48"
               inkscape:connector-curvature="0"
               d="m 0,0 c 0,-31.204 -26.086,-56.499 -58.263,-56.499 -32.176,0 -58.262,25.295 -58.262,56.499 0,31.202 26.086,56.495 58.262,56.495 C -26.086,56.495 0,31.202 0,0" />
          </g>
          <g
             id="g50"
             transform="translate(744.0537,123.2412)">
            <path
               style="fill:#8d5516;fill-opacity:1;fill-rule:nonzero;stroke:none"
               id="path52"
               inkscape:connector-curvature="0"
               d="M 0,0 8.847,177.885 12.572,0 0,0 z" />
          </g>
          <g
             id="g54"
             transform="translate(748.7539,217.7305)">
            <path
               style="fill:#8d5516;fill-opacity:1;fill-rule:nonzero;stroke:none"
               id="path56"
               inkscape:connector-curvature="0"
               d="M 0,0 -35.016,52.738 -0.418,-8.4 0,0 z" />
          </g>
          <g
             id="g58"
             transform="translate(728.8857,245.3301)">
            <path
               style="fill:#8d5516;fill-opacity:1;fill-rule:nonzero;stroke:none"
               id="path60"
               inkscape:connector-curvature="0"
               d="M 0,0 -24.811,0 1.15,-1.975 0,0 z" />
          </g>
          <g
             id="g62"
             transform="translate(730.165,244.6055)">
            <path
               style="fill:#8d5516;fill-opacity:1;fill-rule:nonzero;stroke:none"
               id="path64"
               inkscape:connector-curvature="0"
               d="M 0,0 4.108,23.17 1.479,-2.135 0,0 z" />
          </g>
          <g
             id="g66"
             transform="translate(754.9834,201.7725)">
            <path
               style="fill:#8d5516;fill-opacity:1;fill-rule:nonzero;stroke:none"
               id="path68"
               inkscape:connector-curvature="0"
               d="M 0,0 40.097,33.858 0.082,-3.935 0,0 z" />
          </g>
          <g
             id="g70"
             transform="translate(767.2412,212.124)">
            <path
               style="fill:#8d5516;fill-opacity:1;fill-rule:nonzero;stroke:none"
               id="path72"
               inkscape:connector-curvature="0"
               d="M 0,0 4.668,25.479 1.665,1.406 0,0 z" />
          </g>
          <g
             id="g74"
             transform="translate(770.4971,212.4131)">
            <path
               style="fill:#8d5516;fill-opacity:1;fill-rule:nonzero;stroke:none"
               id="path76"
               inkscape:connector-curvature="0"
               d="M 0,0 26.392,-0.445 -1.361,-1.286 0,0 z" />
          </g>
          <g
             id="g78"
             transform="translate(753.9648,250.4082)">
            <path
               style="fill:#8d5516;fill-opacity:1;fill-rule:nonzero;stroke:none"
               id="path80"
               inkscape:connector-curvature="0"
               d="M 0,0 26.326,23.834 0.054,-2.624 0,0 z" />
          </g>
          <g
             id="g82"
             transform="translate(764.6719,260.1025)">
            <path
               style="fill:#8d5516;fill-opacity:1;fill-rule:nonzero;stroke:none"
               id="path84"
               inkscape:connector-curvature="0"
               d="M 0,0 3.95,15.783 1.229,1.114 0,0 z" />
          </g>
          <g
             id="g86"
             transform="translate(762.3613,256.1865)">
            <path
               style="fill:#8d5516;fill-opacity:1;fill-rule:nonzero;stroke:none"
               id="path88"
               inkscape:connector-curvature="0"
               d="M 0,0 14.15,-0.184 -1.065,-1.073 0,0 z" />
          </g>
          <g
             id="g90"
             transform="translate(202.3584,155.4824)">
            <path
               style="fill:#bdcd2f;fill-opacity:1;fill-rule:nonzero;stroke:none"
               id="path92"
               inkscape:connector-curvature="0"
               d="m 0,0 c 0,-20.071 -16.78,-36.343 -37.477,-36.343 -20.699,0 -37.478,16.272 -37.478,36.343 0,20.07 16.779,36.342 37.478,36.342 C -16.78,36.342 0,20.07 0,0" />
          </g>
          <g
             id="g94"
             transform="translate(193.1807,155.2998)">
            <path
               style="fill:#e1e33a;fill-opacity:1;fill-rule:nonzero;stroke:none"
               id="path96"
               inkscape:connector-curvature="0"
               d="m 0,0 c 0,-15.364 -12.844,-27.82 -28.687,-27.82 -15.844,0 -28.688,12.456 -28.688,27.82 0,15.363 12.844,27.817 28.688,27.817 C -12.844,27.817 0,15.363 0,0" />
          </g>
          <g
             id="g98"
             transform="translate(160.9585,96.8926)">
            <path
               style="fill:#8d5516;fill-opacity:1;fill-rule:nonzero;stroke:none"
               id="path100"
               inkscape:connector-curvature="0"
               d="M 0,0 4.357,87.588 6.191,0 0,0 z" />
          </g>
          <g
             id="g102"
             transform="translate(163.2729,143.418)">
            <path
               style="fill:#8d5516;fill-opacity:1;fill-rule:nonzero;stroke:none"
               id="path104"
               inkscape:connector-curvature="0"
               d="M 0,0 -17.241,25.968 -0.206,-4.137 0,0 z" />
          </g>
          <g
             id="g106"
             transform="translate(153.4902,157.0068)">
            <path
               style="fill:#8d5516;fill-opacity:1;fill-rule:nonzero;stroke:none"
               id="path108"
               inkscape:connector-curvature="0"
               d="M 0,0 -12.217,0 0.567,-0.972 0,0 z" />
          </g>
          <g
             id="g110"
             transform="translate(154.1206,156.6504)">
            <path
               style="fill:#8d5516;fill-opacity:1;fill-rule:nonzero;stroke:none"
               id="path112"
               inkscape:connector-curvature="0"
               d="M 0,0 2.022,11.408 0.728,-1.051 0,0 z" />
          </g>
          <g
             id="g114"
             transform="translate(166.3403,135.5605)">
            <path
               style="fill:#8d5516;fill-opacity:1;fill-rule:nonzero;stroke:none"
               id="path116"
               inkscape:connector-curvature="0"
               d="M 0,0 19.743,16.671 0.04,-1.937 0,0 z" />
          </g>
          <g
             id="g118"
             transform="translate(172.376,140.6572)">
            <path
               style="fill:#8d5516;fill-opacity:1;fill-rule:nonzero;stroke:none"
               id="path120"
               inkscape:connector-curvature="0"
               d="M 0,0 2.299,12.545 0.82,0.692 0,0 z" />
          </g>
          <g
             id="g122"
             transform="translate(173.979,140.7988)">
            <path
               style="fill:#8d5516;fill-opacity:1;fill-rule:nonzero;stroke:none"
               id="path124"
               inkscape:connector-curvature="0"
               d="M 0,0 12.995,-0.219 -0.67,-0.633 0,0 z" />
          </g>
          <g
             id="g126"
             transform="translate(165.8389,159.5078)">
            <path
               style="fill:#8d5516;fill-opacity:1;fill-rule:nonzero;stroke:none"
               id="path128"
               inkscape:connector-curvature="0"
               d="M 0,0 12.963,11.735 0.027,-1.292 0,0 z" />
          </g>
          <g
             id="g130"
             transform="translate(171.1108,164.2812)">
            <path
               style="fill:#8d5516;fill-opacity:1;fill-rule:nonzero;stroke:none"
               id="path132"
               inkscape:connector-curvature="0"
               d="M 0,0 1.945,7.771 0.606,0.549 0,0 z" />
          </g>
          <g
             id="g134"
             transform="translate(169.9736,162.3525)">
            <path
               style="fill:#8d5516;fill-opacity:1;fill-rule:nonzero;stroke:none"
               id="path136"
               inkscape:connector-curvature="0"
               d="M 0,0 6.967,-0.09 -0.524,-0.528 0,0 z" />
          </g>
          <g
             id="g138"
             transform="translate(666.7246,419.7959)">
            <path
               style="fill:#f4ecc5;fill-opacity:1;fill-rule:nonzero;stroke:none"
               id="path140"
               inkscape:connector-curvature="0"
               d="m 0,0 c 0,-94.884 -76.919,-171.802 -171.802,-171.802 -94.885,0 -171.803,76.918 -171.803,171.802 0,94.883 76.918,171.803 171.803,171.803 C -76.919,171.803 0,94.883 0,0" />
          </g>
          <g
             id="g142"
             transform="translate(632.0479,418.4121)">
            <path
               style="fill:#f7f1d9;fill-opacity:1;fill-rule:nonzero;stroke:none"
               id="path144"
               inkscape:connector-curvature="0"
               d="m 0,0 c 0,-76.694 -62.173,-138.865 -138.865,-138.865 -76.695,0 -138.867,62.171 -138.867,138.865 0,76.694 62.172,138.867 138.867,138.867 C -62.173,138.867 0,76.694 0,0" />
          </g>
          <g
             id="g146"
             transform="translate(549.0391,328.5049)">
            <path
               style="fill:#a6b93a;fill-opacity:1;fill-rule:nonzero;stroke:none"
               id="path148"
               inkscape:connector-curvature="0"
               d="m 0,0 c 0,-70.567 -58.996,-127.776 -131.766,-127.776 -72.773,0 -131.767,57.209 -131.767,127.776 0,70.567 58.994,127.773 131.767,127.773 C -58.996,127.773 0,70.567 0,0" />
          </g>
          <g
             id="g150"
             transform="translate(516.7715,327.8608)">
            <path
               style="fill:#bdcd2f;fill-opacity:1;fill-rule:nonzero;stroke:none"
               id="path152"
               inkscape:connector-curvature="0"
               d="m 0,0 c 0,-54.019 -45.159,-97.808 -100.861,-97.808 -55.705,0 -100.862,43.789 -100.862,97.808 0,54.016 45.157,97.804 100.862,97.804 C -45.159,97.804 0,54.016 0,0" />
          </g>
          <g
             id="g154"
             transform="translate(403.4824,122.5098)">
            <path
               style="fill:#8d5516;fill-opacity:1;fill-rule:nonzero;stroke:none"
               id="path156"
               inkscape:connector-curvature="0"
               d="M 0,0 15.317,307.95 21.766,0 0,0 z" />
          </g>
          <g
             id="g158"
             transform="translate(411.6191,286.0879)">
            <path
               style="fill:#8d5516;fill-opacity:1;fill-rule:nonzero;stroke:none"
               id="path160"
               inkscape:connector-curvature="0"
               d="M 0,0 -60.616,91.298 -0.724,-14.543 0,0 z" />
          </g>
          <g
             id="g162"
             transform="translate(377.2241,333.8647)">
            <path
               style="fill:#8d5516;fill-opacity:1;fill-rule:nonzero;stroke:none"
               id="path164"
               inkscape:connector-curvature="0"
               d="M 0,0 -42.952,0 1.993,-3.416 0,0 z" />
          </g>
          <g
             id="g166"
             transform="translate(379.4399,332.6123)">
            <path
               style="fill:#8d5516;fill-opacity:1;fill-rule:nonzero;stroke:none"
               id="path168"
               inkscape:connector-curvature="0"
               d="M 0,0 7.112,40.11 2.56,-3.696 0,0 z" />
          </g>
          <g
             id="g170"
             transform="translate(422.4043,258.4609)">
            <path
               style="fill:#8d5516;fill-opacity:1;fill-rule:nonzero;stroke:none"
               id="path172"
               inkscape:connector-curvature="0"
               d="M 0,0 69.413,58.613 0.141,-6.811 0,0 z" />
          </g>
          <g
             id="g174"
             transform="translate(443.625,276.3809)">
            <path
               style="fill:#8d5516;fill-opacity:1;fill-rule:nonzero;stroke:none"
               id="path176"
               inkscape:connector-curvature="0"
               d="M 0,0 8.081,44.107 2.882,2.436 0,0 z" />
          </g>
          <g
             id="g178"
             transform="translate(449.2607,276.8809)">
            <path
               style="fill:#8d5516;fill-opacity:1;fill-rule:nonzero;stroke:none"
               id="path180"
               inkscape:connector-curvature="0"
               d="M 0,0 45.688,-0.77 -2.356,-2.225 0,0 z" />
          </g>
          <g
             id="g182"
             transform="translate(420.6406,342.6587)">
            <path
               style="fill:#8d5516;fill-opacity:1;fill-rule:nonzero;stroke:none"
               id="path184"
               inkscape:connector-curvature="0"
               d="M 0,0 45.575,41.261 0.094,-4.544 0,0 z" />
          </g>
          <g
             id="g186"
             transform="translate(439.1768,359.4404)">
            <path
               style="fill:#8d5516;fill-opacity:1;fill-rule:nonzero;stroke:none"
               id="path188"
               inkscape:connector-curvature="0"
               d="M 0,0 6.84,27.323 2.129,1.928 0,0 z" />
          </g>
          <g
             id="g190"
             transform="translate(435.1777,352.6597)">
            <path
               style="fill:#8d5516;fill-opacity:1;fill-rule:nonzero;stroke:none"
               id="path192"
               inkscape:connector-curvature="0"
               d="M 0,0 24.497,-0.317 -1.844,-1.856 0,0 z" />
          </g>
          <g
             id="g194"
             transform="translate(157.4136,233.7598)">
            <path
               style="fill:#bdcd2f;fill-opacity:1;fill-rule:nonzero;stroke:none"
               id="path196"
               inkscape:connector-curvature="0"
               d="m 0,0 c 0,-34.906 -29.183,-63.205 -65.178,-63.205 -35.997,0 -65.178,28.299 -65.178,63.205 0,34.905 29.181,63.202 65.178,63.202 C -29.183,63.202 0,34.905 0,0" />
          </g>
          <g
             id="g198"
             transform="translate(141.4526,233.4414)">
            <path
               style="fill:#e1e33a;fill-opacity:1;fill-rule:nonzero;stroke:none"
               id="path200"
               inkscape:connector-curvature="0"
               d="m 0,0 c 0,-26.721 -22.338,-48.382 -49.891,-48.382 -27.554,0 -49.891,21.661 -49.891,48.382 0,26.719 22.337,48.378 49.891,48.378 C -22.338,48.378 0,26.719 0,0" />
          </g>
          <g
             id="g202"
             transform="translate(85.4141,131.8643)">
            <path
               style="fill:#8d5516;fill-opacity:1;fill-rule:nonzero;stroke:none"
               id="path204"
               inkscape:connector-curvature="0"
               d="M 0,0 7.577,152.326 10.767,0 0,0 z" />
          </g>
          <g
             id="g206"
             transform="translate(89.439,212.7773)">
            <path
               style="fill:#8d5516;fill-opacity:1;fill-rule:nonzero;stroke:none"
               id="path208"
               inkscape:connector-curvature="0"
               d="M 0,0 -29.984,45.161 -0.358,-7.193 0,0 z" />
          </g>
          <g
             id="g210"
             transform="translate(72.4253,236.4111)">
            <path
               style="fill:#8d5516;fill-opacity:1;fill-rule:nonzero;stroke:none"
               id="path212"
               inkscape:connector-curvature="0"
               d="M 0,0 -21.246,0 0.986,-1.69 0,0 z" />
          </g>
          <g
             id="g214"
             transform="translate(73.5215,235.791)">
            <path
               style="fill:#8d5516;fill-opacity:1;fill-rule:nonzero;stroke:none"
               id="path216"
               inkscape:connector-curvature="0"
               d="M 0,0 3.518,19.841 1.267,-1.828 0,0 z" />
          </g>
          <g
             id="g218"
             transform="translate(94.7739,199.1123)">
            <path
               style="fill:#8d5516;fill-opacity:1;fill-rule:nonzero;stroke:none"
               id="path220"
               inkscape:connector-curvature="0"
               d="M 0,0 34.335,28.993 0.069,-3.369 0,0 z" />
          </g>
          <g
             id="g222"
             transform="translate(105.2705,207.9766)">
            <path
               style="fill:#8d5516;fill-opacity:1;fill-rule:nonzero;stroke:none"
               id="path224"
               inkscape:connector-curvature="0"
               d="M 0,0 3.998,21.817 1.426,1.204 0,0 z" />
          </g>
          <g
             id="g226"
             transform="translate(108.0581,208.2236)">
            <path
               style="fill:#8d5516;fill-opacity:1;fill-rule:nonzero;stroke:none"
               id="path228"
               inkscape:connector-curvature="0"
               d="M 0,0 22.6,-0.381 -1.166,-1.101 0,0 z" />
          </g>
          <g
             id="g230"
             transform="translate(93.9014,240.7598)">
            <path
               style="fill:#8d5516;fill-opacity:1;fill-rule:nonzero;stroke:none"
               id="path232"
               inkscape:connector-curvature="0"
               d="M 0,0 22.544,20.41 0.046,-2.247 0,0 z" />
          </g>
          <g
             id="g234"
             transform="translate(103.0703,249.0615)">
            <path
               style="fill:#8d5516;fill-opacity:1;fill-rule:nonzero;stroke:none"
               id="path236"
               inkscape:connector-curvature="0"
               d="M 0,0 3.383,13.516 1.053,0.954 0,0 z" />
          </g>
          <g
             id="g238"
             transform="translate(101.0923,245.708)">
            <path
               style="fill:#8d5516;fill-opacity:1;fill-rule:nonzero;stroke:none"
               id="path240"
               inkscape:connector-curvature="0"
               d="M 0,0 12.117,-0.157 -0.912,-0.919 0,0 z" />
          </g>
          <g
             id="g242"
             transform="translate(850,158.5869)">
            <path
               style="fill:#9aa530;fill-opacity:1;fill-rule:nonzero;stroke:none"
               id="path244"
               inkscape:connector-curvature="0"
               d="M 0,0 C 0,0 -157.857,-1.103 -257.312,-158.587 L 0,-158.587 0,0 z" />
          </g>
          <g
             id="g246"
             transform="translate(0,158.5869)">
            <path
               style="fill:#9aa530;fill-opacity:1;fill-rule:nonzero;stroke:none"
               id="path248"
               inkscape:connector-curvature="0"
               d="M 0,0 C 0,0 166.217,-1.103 270.939,-158.587 L 0,-158.587 0,0 z" />
          </g>
          <path
             style="fill:#a6b939;fill-opacity:1;fill-rule:nonzero;stroke:none"
             id="path250"
             inkscape:connector-curvature="0"
             d="m 0,0 850.06,0.734 c -538.846,282.029 -845.728,0 -845.728,0 L 0,0 z" />
          <g
             id="g252"
             transform="translate(659.7158,522.9702)">
            <path
               style="fill:#ffffff;fill-opacity:1;fill-rule:nonzero;stroke:none"
               id="path254"
               inkscape:connector-curvature="0"
               d="m 0,0 c -8.51,-3.782 -33.091,-9.455 -37.82,2.836 -4.726,13.237 24.584,12.291 31.203,7.564 -7.566,0.946 -32.147,16.073 -32.147,25.527 0,11.345 24.581,9.454 32.147,9.454 0,-2.835 0,-3.781 -0.946,-5.672 -16.073,25.527 56.726,38.763 47.27,6.619 -4.727,16.071 25.527,19.853 36.873,19.853 14.183,-0.945 31.201,-15.127 17.963,-30.254 8.512,37.818 86.036,2.836 38.763,-14.181 21.745,1.89 32.144,-17.963 14.182,-32.145 -7.563,-5.673 -29.307,-13.236 -38.76,-6.619 -5.673,3.782 -10.403,13.236 -0.947,15.128 6.616,-19.855 -18.911,-27.418 -34.037,-26.473 -11.346,0 -32.144,17.018 -11.346,18.908 C 54.835,-31.199 -6.617,-30.253 -0.946,-1.89 L 0,0 z" />
          </g>
          <g
             id="g256"
             transform="translate(63.3477,457.5156)">
            <path
               style="fill:#ffffff;fill-opacity:1;fill-rule:nonzero;stroke:none"
               id="path258"
               inkscape:connector-curvature="0"
               d="m 0,0 c 58.631,0 116.687,-0.575 175.318,0.575 24.142,0.574 1.724,11.496 -9.197,12.646 -8.048,0.574 -9.772,-1.15 -13.221,5.173 -1.724,3.449 -0.575,7.472 -2.299,10.921 -3.449,5.174 -10.347,8.623 -15.52,11.497 C 119.561,49.434 95.419,53.458 85.647,35.638 73.576,48.859 53.458,56.332 42.536,37.938 27.591,56.906 -29.315,33.914 -6.897,16.095 -11.496,10.347 -20.693,9.771 -25.866,2.874 -19.543,-0.575 -6.897,1.724 1.15,1.724 L 0,0 z" />
          </g>
          <g
             id="g260"
             transform="translate(189.5205,581.3574)">
            <path
               style="fill:#ffffff;fill-opacity:1;fill-rule:nonzero;stroke:none"
               id="path262"
               inkscape:connector-curvature="0"
               d="m 0,0 c 2.732,5.075 16.394,11.71 17.956,2.732 3.122,3.123 21.858,10.149 21.468,3.123 7.806,1.562 16.394,1.952 23.42,-2.342 2.342,-1.561 8.197,-5.074 4.294,-7.806 6.245,0 22.249,-1.171 24.981,-8.588 1.951,-5.074 -3.123,-8.587 -7.806,-9.368 9.757,-10.149 -35.131,-15.613 -35.131,-1.562 -3.513,-6.245 -12.491,-10.148 -19.126,-11.71 -7.807,-1.951 -7.416,0.391 -12.881,3.514 -4.294,2.732 -21.469,3.903 -19.517,13.271 -5.465,-4.294 -19.907,5.074 -16.784,12.881 2.341,5.855 12.1,4.294 17.174,4.294 L 0,0 z" />
          </g>
          <g
             id="g264"
             transform="translate(60.0337,0)">
            <path
               style="fill:#bdcc2f;fill-opacity:1;fill-rule:nonzero;stroke:none"
               id="path266"
               inkscape:connector-curvature="0"
               d="M 0,0 723.351,0 C 352.017,164.785 101.729,61.669 0,0" />
          </g>
          <path
             style="fill:#a6b939;fill-opacity:1;fill-rule:nonzero;stroke:none"
             id="path268"
             inkscape:connector-curvature="0"
             d="m 781.816,0 68.243,0 0,0.734 -68.243,0 0,-0.734 z" />
        </g>
      </g>
    </g>
  </g>
</svg>
