<?xml version="1.0" encoding="UTF-8" standalone="no"?>
<!-- Created with Inkscape (http://www.inkscape.org/) -->

<svg
   xmlns:dc="http://purl.org/dc/elements/1.1/"
   xmlns:cc="http://creativecommons.org/ns#"
   xmlns:rdf="http://www.w3.org/1999/02/22-rdf-syntax-ns#"
   xmlns:svg="http://www.w3.org/2000/svg"
   xmlns="http://www.w3.org/2000/svg"
   xmlns:xlink="http://www.w3.org/1999/xlink"
   xmlns:sodipodi="http://sodipodi.sourceforge.net/DTD/sodipodi-0.dtd"
   xmlns:inkscape="http://www.inkscape.org/namespaces/inkscape"
   width="1062.5"
   height="765"
   id="svg48208"
   version="1.1"
   inkscape:version="0.48.5 r10040"
   sodipodi:docname="midLayer.svg">
  <defs
     id="defs48210">
    <clipPath
       id="clipPath38-8">
      <path
         id="path40-8"
         inkscape:connector-curvature="0"
         d="M 0,612 850,612 850,0 0,0 0,612 z" />
    </clipPath>
    <linearGradient
       spreadMethod="pad"
       gradientTransform="matrix(850,0,0,-850,0,306)"
       gradientUnits="userSpaceOnUse"
       id="linearGradient24-4"
       y2="0"
       x2="1"
       y1="0"
       x1="0">
      <stop
         offset="0"
         style="stop-color:#efe8b6;stop-opacity:1"
         id="stop26-0" />
      <stop
         offset="0.99438202"
         style="stop-color:#efe6b5;stop-opacity:1"
         id="stop28-9" />
      <stop
         offset="1"
         style="stop-color:#efe6b5;stop-opacity:1"
         id="stop30-4" />
    </linearGradient>
    <clipPath
       id="clipPath16-1">
      <path
         id="path18-7"
         inkscape:connector-curvature="0"
         d="M 0,0 850,0 850,612 0,612 0,0 z" />
    </clipPath>
    <clipPath
       id="clipPath38">
      <path
         id="path40"
         inkscape:connector-curvature="0"
         d="M 0,612 850,612 850,0 0,0 0,612 z" />
    </clipPath>
    <linearGradient
       spreadMethod="pad"
       gradientTransform="matrix(850,0,0,-850,0,306)"
       gradientUnits="userSpaceOnUse"
       id="linearGradient24"
       y2="0"
       x2="1"
       y1="0"
       x1="0">
      <stop
         offset="0"
         style="stop-color:#efe8b6;stop-opacity:1"
         id="stop26" />
      <stop
         offset="0.99438202"
         style="stop-color:#efe6b5;stop-opacity:1"
         id="stop28" />
      <stop
         offset="1"
         style="stop-color:#efe6b5;stop-opacity:1"
         id="stop30" />
    </linearGradient>
    <clipPath
       id="clipPath16">
      <path
         id="path18"
         inkscape:connector-curvature="0"
         d="M 0,0 850,0 850,612 0,612 0,0 z" />
    </clipPath>
    <linearGradient
       inkscape:collect="always"
       xlink:href="#linearGradient24"
       id="linearGradient49296"
       gradientUnits="userSpaceOnUse"
       gradientTransform="matrix(850,0,0,-850,0,306)"
       spreadMethod="pad"
       x1="0"
       y1="0"
       x2="1"
       y2="0" />
    <linearGradient
       inkscape:collect="always"
       xlink:href="#linearGradient24"
       id="linearGradient49302"
       gradientUnits="userSpaceOnUse"
       gradientTransform="matrix(850,0,0,-850,0,306)"
       spreadMethod="pad"
       x1="0"
       y1="0"
       x2="1"
       y2="0" />
    <linearGradient
       inkscape:collect="always"
       xlink:href="#linearGradient24"
       id="linearGradient49477"
       gradientUnits="userSpaceOnUse"
       gradientTransform="matrix(850,0,0,-850,0,306)"
       spreadMethod="pad"
       x1="0"
       y1="0"
       x2="1"
       y2="0" />
  </defs>
  <sodipodi:namedview
     id="base"
     pagecolor="#ffffff"
     bordercolor="#666666"
     borderopacity="1.0"
     inkscape:pageopacity="0.0"
     inkscape:pageshadow="2"
     inkscape:zoom="0.49497475"
     inkscape:cx="1329.1071"
     inkscape:cy="-211.83066"
     inkscape:document-units="px"
     inkscape:current-layer="layer1"
     showgrid="false"
     fit-margin-top="0"
     fit-margin-left="0"
     fit-margin-right="0"
     fit-margin-bottom="0"
     inkscape:window-width="1920"
     inkscape:window-height="1137"
     inkscape:window-x="-8"
     inkscape:window-y="-8"
     inkscape:window-maximized="1" />
  <metadata
     id="metadata48213">
    <rdf:RDF>
      <cc:Work
         rdf:about="">
        <dc:format>image/svg+xml</dc:format>
        <dc:type
           rdf:resource="http://purl.org/dc/dcmitype/StillImage" />
        <dc:title />
      </cc:Work>
    </rdf:RDF>
  </metadata>
  <g
     inkscape:label="Layer 1"
     inkscape:groupmode="layer"
     id="layer1"
     transform="translate(579.82143,221.56639)">
    <path
       style="fill:#bdcd2f;fill-opacity:1;fill-rule:nonzero;stroke:none"
       id="path44"
       inkscape:connector-curvature="0"
       d="m 455.34582,240.64186 c 0,50.95375 -42.6,92.2625 -95.14125,92.2625 -52.5475,0 -95.145,-41.30875 -95.145,-92.2625 0,-50.9525 42.5975,-92.25875 95.145,-92.25875 52.54125,0 95.14125,41.30625 95.14125,92.25875" />
    <path
       style="fill:#e1e33a;fill-opacity:1;fill-rule:nonzero;stroke:none"
       id="path48"
       inkscape:connector-curvature="0"
       d="m 432.04745,241.10699 c 0,39.005 -32.6075,70.62375 -72.82875,70.62375 -40.22,0 -72.8275,-31.61875 -72.8275,-70.62375 0,-39.0025 32.6075,-70.61875 72.8275,-70.61875 40.22125,0 72.82875,31.61625 72.82875,70.61875" />
    <path
       style="fill:#8d5516;fill-opacity:1;fill-rule:nonzero;stroke:none"
       id="path52"
       inkscape:connector-curvature="0"
       d="m 350.2457,389.38211 11.05875,-222.35625 4.65625,222.35625 -15.715,0 z" />
    <path
       style="fill:#8d5516;fill-opacity:1;fill-rule:nonzero;stroke:none"
       id="path56"
       inkscape:connector-curvature="0"
       d="m 356.12095,271.27048 -43.77,-65.9225 43.2475,76.4225 0.5225,-10.5 z" />
    <path
       style="fill:#8d5516;fill-opacity:1;fill-rule:nonzero;stroke:none"
       id="path60"
       inkscape:connector-curvature="0"
       d="m 331.2857,236.77099 -31.01375,0 32.45125,2.46875 -1.4375,-2.46875 z" />
    <path
       style="fill:#8d5516;fill-opacity:1;fill-rule:nonzero;stroke:none"
       id="path64"
       inkscape:connector-curvature="0"
       d="m 332.88482,237.67673 5.135,-28.9625 -3.28625,31.63125 -1.84875,-2.66875 z" />
    <path
       style="fill:#8d5516;fill-opacity:1;fill-rule:nonzero;stroke:none"
       id="path68"
       inkscape:connector-curvature="0"
       d="m 363.90782,291.21798 50.12125,-42.3225 -50.01875,47.24125 -0.1025,-4.91875 z" />
    <path
       style="fill:#8d5516;fill-opacity:1;fill-rule:nonzero;stroke:none"
       id="path72"
       inkscape:connector-curvature="0"
       d="m 379.23007,278.27861 5.835,-31.84875 -3.75375,30.09125 -2.08125,1.7575 z" />
    <path
       style="fill:#8d5516;fill-opacity:1;fill-rule:nonzero;stroke:none"
       id="path76"
       inkscape:connector-curvature="0"
       d="m 383.29995,277.91724 32.99,0.55625 -34.69125,1.05125 1.70125,-1.6075 z" />
    <path
       style="fill:#8d5516;fill-opacity:1;fill-rule:nonzero;stroke:none"
       id="path80"
       inkscape:connector-curvature="0"
       d="m 362.63457,230.42336 32.9075,-29.7925 -32.84,33.0725 -0.0675,-3.28 z" />
    <path
       style="fill:#8d5516;fill-opacity:1;fill-rule:nonzero;stroke:none"
       id="path84"
       inkscape:connector-curvature="0"
       d="m 376.01845,218.30549 4.9375,-19.72875 -3.40125,18.33625 -1.53625,1.3925 z" />
    <path
       style="fill:#8d5516;fill-opacity:1;fill-rule:nonzero;stroke:none"
       id="path88"
       inkscape:connector-curvature="0"
       d="m 373.1302,223.20049 17.6875,0.23 -19.01875,1.11125 1.33125,-1.34125 z" />
    <path
       style="fill:#bdcd2f;fill-opacity:1;fill-rule:nonzero;stroke:none"
       id="path196"
       inkscape:connector-curvature="0"
       d="m -383.05443,251.23386 c 0,43.6325 -36.47875,79.00625 -81.4725,79.00625 -44.99625,0 -81.4725,-35.37375 -81.4725,-79.00625 0,-43.63125 36.47625,-79.0025 81.4725,-79.0025 44.99375,0 81.4725,35.37125 81.4725,79.0025" />
    <path
       style="fill:#e1e33a;fill-opacity:1;fill-rule:nonzero;stroke:none"
       id="path200"
       inkscape:connector-curvature="0"
       d="m -403.00568,251.63186 c 0,33.40125 -27.9225,60.4775 -62.36375,60.4775 -34.4425,0 -62.36375,-27.07625 -62.36375,-60.4775 0,-33.39875 27.92125,-60.4725 62.36375,-60.4725 34.44125,0 62.36375,27.07375 62.36375,60.4725" />
    <path
       style="fill:#8d5516;fill-opacity:1;fill-rule:nonzero;stroke:none"
       id="path204"
       inkscape:connector-curvature="0"
       d="m -473.0538,378.60324 9.47125,-190.4075 3.9875,190.4075 -13.45875,0 z" />
    <path
       style="fill:#8d5516;fill-opacity:1;fill-rule:nonzero;stroke:none"
       id="path208"
       inkscape:connector-curvature="0"
       d="m -468.02268,277.46199 -37.48,-56.45125 37.0325,65.4425 0.4475,-8.99125 z" />
    <path
       style="fill:#8d5516;fill-opacity:1;fill-rule:nonzero;stroke:none"
       id="path212"
       inkscape:connector-curvature="0"
       d="m -489.2898,247.91974 -26.5575,0 27.79,2.1125 -1.2325,-2.1125 z" />
    <path
       style="fill:#8d5516;fill-opacity:1;fill-rule:nonzero;stroke:none"
       id="path216"
       inkscape:connector-curvature="0"
       d="m -487.91955,248.69486 4.3975,-24.80125 -2.81375,27.08625 -1.58375,-2.285 z" />
    <path
       style="fill:#8d5516;fill-opacity:1;fill-rule:nonzero;stroke:none"
       id="path220"
       inkscape:connector-curvature="0"
       d="m -461.35405,294.54324 42.91875,-36.24125 -42.8325,40.4525 -0.0862,-4.21125 z" />
    <path
       style="fill:#8d5516;fill-opacity:1;fill-rule:nonzero;stroke:none"
       id="path224"
       inkscape:connector-curvature="0"
       d="m -448.2333,283.46286 4.9975,-27.27125 -3.215,25.76625 -1.7825,1.505 z" />
    <path
       style="fill:#8d5516;fill-opacity:1;fill-rule:nonzero;stroke:none"
       id="path228"
       inkscape:connector-curvature="0"
       d="m -444.7488,283.15411 28.25,0.47625 -29.7075,0.9 1.4575,-1.37625 z" />
    <path
       style="fill:#8d5516;fill-opacity:1;fill-rule:nonzero;stroke:none"
       id="path232"
       inkscape:connector-curvature="0"
       d="m -462.44468,242.48386 28.18,-25.5125 -28.1225,28.32125 -0.0575,-2.80875 z" />
    <path
       style="fill:#8d5516;fill-opacity:1;fill-rule:nonzero;stroke:none"
       id="path236"
       inkscape:connector-curvature="0"
       d="m -450.98355,232.10674 4.22875,-16.895 -2.9125,15.7025 -1.31625,1.1925 z" />
    <path
       style="fill:#8d5516;fill-opacity:1;fill-rule:nonzero;stroke:none"
       id="path240"
       inkscape:connector-curvature="0"
       d="m -453.45605,236.29861 15.14625,0.19625 -16.28625,0.9525 1.14,-1.14875 z" />
    <path
       d="m 397.44857,543.43361 85.30375,0 0,-0.9175 -85.30375,0 0,0.9175 z"
       inkscape:connector-curvature="0"
       id="path268"
       style="fill:#a6b939;fill-opacity:1;fill-rule:nonzero;stroke:none" />
    <g
       id="g6160">
      <path
         d="m -567.6996,345.19999 c 0,0 200.33469,1.37875 326.55192,198.23375 l -326.55192,0 0,-198.23375 z"
         inkscape:connector-curvature="0"
         id="path248"
         style="fill:#9aa530;fill-opacity:1;fill-rule:nonzero;stroke:none" />
      <rect
         y="345.19998"
         x="-693.46362"
         height="230.31477"
         width="128.79445"
         id="rect5624"
         style="fill:#9aa530;fill-opacity:1;stroke:none" />
    </g>
    <g
       id="g6156">
      <path
         d="m 466.51613,345.19999 c 0,0 -187.40584,1.37875 -305.47756,198.23375 l 305.47756,0 0,-198.23375 z"
         inkscape:connector-curvature="0"
         id="path244"
         style="fill:#9aa530;fill-opacity:1;fill-rule:nonzero;stroke:none" />
      <rect
         y="345.19998"
         x="461.82657"
         height="230.31477"
         width="128.79445"
         id="rect5624-7"
         style="fill:#9aa530;fill-opacity:1;stroke:none" />
    </g>
  </g>
</svg>
