<?xml version="1.0" encoding="utf-8"?>
<!-- Generator: Adobe Illustrator 16.0.0, SVG Export Plug-In . SVG Version: 6.00 Build 0)  -->
<!DOCTYPE svg PUBLIC "-//W3C//DTD SVG 1.1//EN" "http://www.w3.org/Graphics/SVG/1.1/DTD/svg11.dtd">
<svg version="1.1" xmlns="http://www.w3.org/2000/svg" xmlns:xlink="http://www.w3.org/1999/xlink" x="0px" y="0px" width="50px"
	 height="50px" viewBox="0 0 50 50" enable-background="new 0 0 50 50" xml:space="preserve">
<g id="Layer_2" display="none">
	
		<rect x="5" y="5" display="inline" fill="none" stroke="#000000" stroke-width="0.25" stroke-linecap="round" stroke-linejoin="round" stroke-miterlimit="10" width="40" height="40"/>
</g>
<g id="Layer_1">
	<g>
		<path d="M38.353,39.421H11.647c-1.18,0-2.136,0.956-2.136,2.136s0.956,2.137,2.136,2.137h26.705c1.18,0,2.136-0.957,2.136-2.137
			S39.532,39.421,38.353,39.421z"/>
		<path d="M8.978,23.397v5.341c0,0.885,0.718,1.603,1.602,1.603c0.885,0,1.603-0.718,1.603-1.603v-5.341
			c0-0.885-0.718-1.602-1.603-1.602C9.695,21.796,8.978,22.513,8.978,23.397z"/>
		<path d="M14.318,21.262v7.477c0,0.885,0.718,1.603,1.603,1.603c0.884,0,1.602-0.718,1.602-1.603v-7.477
			c0-0.885-0.718-1.603-1.602-1.603C15.036,19.659,14.318,20.377,14.318,21.262z"/>
		<path d="M19.659,19.125v9.613c0,0.885,0.718,1.603,1.603,1.603c0.884,0,1.602-0.718,1.602-1.603v-9.613
			c0-0.885-0.718-1.603-1.602-1.603C20.377,17.522,19.659,18.24,19.659,19.125z"/>
		<path d="M46.363,6.307H3.637c-1.18,0-2.137,0.957-2.137,2.137v26.704c0,1.18,0.957,2.137,2.137,2.137H44.41
			c-0.063-0.055-0.133-0.099-0.191-0.157l-2.958-2.959c-1.704,0.963-3.635,1.478-5.614,1.478c-2.699,0-5.253-0.93-7.306-2.634H5.772
			V10.579h38.455v6.022c1.856,2.095,2.882,4.755,2.882,7.581c0,1.979-0.514,3.909-1.475,5.612l2.865,2.867V8.443
			C48.5,7.264,47.543,6.307,46.363,6.307z"/>
		<path d="M43.871,31.054c-0.213-0.213-0.499-0.3-0.777-0.271l-0.45-0.449c1.501-1.704,2.329-3.861,2.329-6.151
			c0-2.49-0.969-4.832-2.73-6.593c-1.762-1.765-4.104-2.733-6.596-2.733c-2.49,0-4.831,0.969-6.593,2.733
			c-1.763,1.761-2.733,4.103-2.733,6.593s0.971,4.832,2.733,6.595c1.762,1.762,4.103,2.731,6.593,2.731
			c2.292,0,4.448-0.828,6.151-2.33l0.451,0.449c-0.03,0.28,0.056,0.564,0.271,0.779l3.213,3.213c0.186,0.187,0.43,0.279,0.676,0.279
			c0.244,0,0.49-0.093,0.677-0.279c0.372-0.374,0.372-0.979,0-1.351L43.871,31.054z M40.89,29.423
			c-1.4,1.401-3.262,2.174-5.243,2.174c-1.978,0-3.84-0.772-5.241-2.172c-1.399-1.4-2.172-3.262-2.172-5.242
			c0-1.979,0.772-3.841,2.172-5.241c1.401-1.401,3.264-2.173,5.241-2.173c1.981,0,3.843,0.771,5.244,2.173
			c1.398,1.4,2.169,3.262,2.169,5.241C43.06,26.163,42.289,28.024,40.89,29.423z"/>
	</g>
</g>
</svg>
