<?xml version="1.0" encoding="UTF-8" standalone="no"?>
<!-- Created with Inkscape (http://www.inkscape.org/) -->

<svg
   xmlns:dc="http://purl.org/dc/elements/1.1/"
   xmlns:cc="http://creativecommons.org/ns#"
   xmlns:rdf="http://www.w3.org/1999/02/22-rdf-syntax-ns#"
   xmlns:svg="http://www.w3.org/2000/svg"
   xmlns="http://www.w3.org/2000/svg"
   xmlns:sodipodi="http://sodipodi.sourceforge.net/DTD/sodipodi-0.dtd"
   xmlns:inkscape="http://www.inkscape.org/namespaces/inkscape"
   width="320"
   height="340.57138"
   id="svg3259"
   version="1.1"
   inkscape:version="0.48.5 r10040"
   sodipodi:docname="Drawer.svg">
  <defs
     id="defs3261" />
  <sodipodi:namedview
     id="base"
     pagecolor="#ffffff"
     bordercolor="#666666"
     borderopacity="1.0"
     inkscape:pageopacity="0.0"
     inkscape:pageshadow="2"
     inkscape:zoom="0.7"
     inkscape:cx="-9.6316129"
     inkscape:cy="-78.452942"
     inkscape:document-units="px"
     inkscape:current-layer="layer1"
     showgrid="false"
     fit-margin-top="0"
     fit-margin-left="0"
     fit-margin-right="0"
     fit-margin-bottom="0"
     inkscape:window-width="1280"
     inkscape:window-height="961"
     inkscape:window-x="-8"
     inkscape:window-y="-8"
     inkscape:window-maximized="1" />
  <metadata
     id="metadata3264">
    <rdf:RDF>
      <cc:Work
         rdf:about="">
        <dc:format>image/svg+xml</dc:format>
        <dc:type
           rdf:resource="http://purl.org/dc/dcmitype/StillImage" />
      </cc:Work>
    </rdf:RDF>
  </metadata>
  <g
     inkscape:label="Layer 1"
     inkscape:groupmode="layer"
     id="layer1"
     transform="translate(-131.42853,-64.933611)">
    <path
       id="path3287"
       d="M 131.42853,64.933611 V 405.505 l 160,-106.42854 160,106.42854 V 64.933611 h -320 z"
       inkscape:connector-curvature="0"
       style="fill:#222222;fill-opacity:1" />
    <g
       id="g2991"
       transform="translate(0,-54)">
      <path
         id="path3270"
         d="m 368.09941,155.27442 h -153.34 c -2.9208,0 -5.2977,2.37689 -5.2977,5.29769 v 23.54649 c 0,2.92079 2.3769,5.29769 5.2977,5.29769 h 153.33824 c 2.92079,0 5.29769,-2.3769 5.29769,-5.29769 v -23.54649 c 0.002,-2.9208 -2.37513,-5.29769 -5.29593,-5.29769 z"
         inkscape:connector-curvature="0"
         style="fill:#ffffff;fill-opacity:1" />
      <path
         id="path3272"
         d="m 368.09941,217.08085 h -153.34 c -2.9208,0 -5.2977,2.3769 -5.2977,5.2977 v 23.54648 c 0,2.9208 2.3769,5.2977 5.2977,5.2977 h 153.33824 c 2.92079,0 5.29769,-2.3769 5.29769,-5.2977 v -23.54648 c 0.002,-2.9208 -2.37513,-5.2977 -5.29593,-5.2977 z"
         inkscape:connector-curvature="0"
         style="fill:#ffffff;fill-opacity:1" />
      <path
         id="path3274"
         d="m 368.09941,278.88729 h -153.34 c -2.9208,0 -5.2977,2.3769 -5.2977,5.29769 v 23.54649 c 0,2.9208 2.3769,5.29769 5.2977,5.29769 h 153.33824 c 2.92079,0 5.29769,-2.37689 5.29769,-5.29769 v -23.54649 c 0.002,-2.92079 -2.37513,-5.29769 -5.29593,-5.29769 z"
         inkscape:connector-curvature="0"
         style="fill:#ffffff;fill-opacity:1" />
    </g>
  </g>
</svg>
