<?xml version="1.0" encoding="iso-8859-1"?>
<!-- Generator: Adobe Illustrator 18.0.0, SVG Export Plug-In . SVG Version: 6.00 Build 0)  -->
<!DOCTYPE svg PUBLIC "-//W3C//DTD SVG 1.1//EN" "http://www.w3.org/Graphics/SVG/1.1/DTD/svg11.dtd">
<svg version="1.1" id="Capa_1" xmlns="http://www.w3.org/2000/svg" xmlns:xlink="http://www.w3.org/1999/xlink" x="0px" y="0px"
	 viewBox="0 0 21.476 32.463" style="enable-background:new 0 0 21.476 32.463;" xml:space="preserve">
<g id="_x35_">
	<g>
		<path style="fill-rule:evenodd;clip-rule:evenodd;" d="M18.519,9.669H3.081c-1.624,0-2.94,1.315-2.94,2.939l1.593,16.915
			c0,1.623,1.317,2.939,2.941,2.939h12.497c1.624,0,2.941-1.316,2.941-2.939l1.348-16.915C21.459,10.984,20.143,9.669,18.519,9.669z
			 M6.879,27.316c0,0.811-0.658,1.468-1.47,1.468c-0.812,0-1.47-0.658-1.47-1.468V14.079c0-0.811,0.658-1.471,1.47-1.471
			c0.812,0,1.47,0.66,1.47,1.471V27.316z M12.025,27.316c0,0.811-0.658,1.468-1.47,1.468c-0.812,0-1.47-0.658-1.47-1.468V14.079
			c0-0.811,0.658-1.471,1.47-1.471c0.812,0,1.47,0.66,1.47,1.471V27.316z M17.171,27.316c0,0.811-0.658,1.468-1.47,1.468
			c-0.812,0-1.47-0.658-1.47-1.468V14.079c0-0.811,0.658-1.471,1.47-1.471c0.812,0,1.47,0.66,1.47,1.471V27.316z M2.296,8.199
			L20.095,3.62c0.983-0.252,1.575-1.254,1.322-2.237c-0.253-0.983-1.255-1.575-2.238-1.325l-5.471,1.408
			c-0.507-0.752-1.443-1.147-2.371-0.909L9.202,1.108C8.274,1.347,7.645,2.144,7.563,3.047L1.38,4.639
			C0.397,4.891-0.194,5.893,0.058,6.876C0.311,7.86,1.313,8.45,2.296,8.199z"/>
	</g>
</g>
<g>
</g>
<g>
</g>
<g>
</g>
<g>
</g>
<g>
</g>
<g>
</g>
<g>
</g>
<g>
</g>
<g>
</g>
<g>
</g>
<g>
</g>
<g>
</g>
<g>
</g>
<g>
</g>
<g>
</g>
</svg>
