<?xml version="1.0" encoding="UTF-8" standalone="no"?>
<!-- Generator: Adobe Illustrator 16.0.0, SVG Export Plug-In . SVG Version: 6.00 Build 0)  -->

<svg
   xmlns:dc="http://purl.org/dc/elements/1.1/"
   xmlns:cc="http://creativecommons.org/ns#"
   xmlns:rdf="http://www.w3.org/1999/02/22-rdf-syntax-ns#"
   xmlns:svg="http://www.w3.org/2000/svg"
   xmlns="http://www.w3.org/2000/svg"
   xmlns:sodipodi="http://sodipodi.sourceforge.net/DTD/sodipodi-0.dtd"
   xmlns:inkscape="http://www.inkscape.org/namespaces/inkscape"
   version="1.1"
   id="Layer_1"
   x="0px"
   y="0px"
   width="100"
   height="100"
   viewBox="0 0 100 100"
   enable-background="new 0 0 100 100"
   xml:space="preserve"
   inkscape:version="0.48.5 r10040"
   sodipodi:docname="Save.svg"><metadata
   id="metadata5110"><rdf:RDF><cc:Work
       rdf:about=""><dc:format>image/svg+xml</dc:format><dc:type
         rdf:resource="http://purl.org/dc/dcmitype/StillImage" /><dc:title></dc:title></cc:Work></rdf:RDF></metadata><defs
   id="defs5108" /><sodipodi:namedview
   pagecolor="#ffffff"
   bordercolor="#666666"
   borderopacity="1"
   objecttolerance="10"
   gridtolerance="10"
   guidetolerance="10"
   inkscape:pageopacity="0"
   inkscape:pageshadow="2"
   inkscape:window-width="1920"
   inkscape:window-height="1178"
   id="namedview5106"
   showgrid="false"
   fit-margin-top="0"
   fit-margin-left="0"
   fit-margin-right="0"
   fit-margin-bottom="0"
   inkscape:zoom="2.36"
   inkscape:cx="-7.2669496"
   inkscape:cy="59.682201"
   inkscape:window-x="-8"
   inkscape:window-y="-8"
   inkscape:window-maximized="1"
   inkscape:current-layer="Layer_1" />
<rect
   style="fill:#ffffff;fill-opacity:0;stroke:none"
   id="rect5622"
   width="100"
   height="100"
   x="0"
   y="0" /><path
   d="M 82.600028,15.000001 H 17.399973 C 16.075188,15.000001 15,16.075188 15,17.399974 v 65.200055 c 0,1.324786 1.075188,2.39997 2.399973,2.39997 H 82.600028 C 83.924813,84.999999 85,83.924815 85,82.600029 V 17.399974 c 0,-1.324786 -1.075187,-2.399973 -2.399972,-2.399973 z M 28.400247,18.60116 H 71.599754 V 38.800529 H 28.400247 V 18.60116 z M 73.70093,79.90006 H 26.30147 V 50.000001 H 73.70093 V 79.90006 z M 59.400692,21.601126 h 6.001132 V 36.002161 H 59.400692 V 21.601126 z m 9.949086,35.799191 H 30.650221 v -2.399973 h 38.699557 v 2.399973 z m 0,8.399904 H 30.650221 v -2.399973 h 38.699557 v 2.399973 z m 0,8.099908 H 30.650221 v -2.399973 h 38.699557 v 2.399973 z"
   id="path5104"
   inkscape:connector-curvature="0"
   style="fill:#f0f0f0;fill-opacity:1" />
</svg>