<?xml version="1.0" encoding="UTF-8" standalone="no"?>
<!-- Created with Inkscape (http://www.inkscape.org/) -->

<svg
   xmlns:dc="http://purl.org/dc/elements/1.1/"
   xmlns:cc="http://creativecommons.org/ns#"
   xmlns:rdf="http://www.w3.org/1999/02/22-rdf-syntax-ns#"
   xmlns:svg="http://www.w3.org/2000/svg"
   xmlns="http://www.w3.org/2000/svg"
   xmlns:sodipodi="http://sodipodi.sourceforge.net/DTD/sodipodi-0.dtd"
   xmlns:inkscape="http://www.inkscape.org/namespaces/inkscape"
   width="165.43434"
   height="165.43434"
   id="svg3331"
   version="1.1"
   inkscape:version="0.48.5 r10040"
   sodipodi:docname="SerialMonitor.svg">
  <defs
     id="defs3333" />
  <sodipodi:namedview
     id="base"
     pagecolor="#ffffff"
     bordercolor="#666666"
     borderopacity="1.0"
     inkscape:pageopacity="0.0"
     inkscape:pageshadow="2"
     inkscape:zoom="1.979899"
     inkscape:cx="75.452381"
     inkscape:cy="95.057431"
     inkscape:document-units="px"
     inkscape:current-layer="layer1"
     showgrid="false"
     fit-margin-top="0"
     fit-margin-left="0"
     fit-margin-right="0"
     fit-margin-bottom="0"
     inkscape:window-width="1920"
     inkscape:window-height="1178"
     inkscape:window-x="-8"
     inkscape:window-y="-8"
     inkscape:window-maximized="1" />
  <metadata
     id="metadata3336">
    <rdf:RDF>
      <cc:Work
         rdf:about="">
        <dc:format>image/svg+xml</dc:format>
        <dc:type
           rdf:resource="http://purl.org/dc/dcmitype/StillImage" />
        <dc:title></dc:title>
      </cc:Work>
    </rdf:RDF>
  </metadata>
  <g
     inkscape:label="Layer 1"
     inkscape:groupmode="layer"
     id="layer1"
     transform="translate(-417.28283,-15.359298)">
    <path
       sodipodi:type="arc"
       style="fill:#ffffff;fill-opacity:1;stroke:none"
       id="path4446"
       sodipodi:cx="-255"
       sodipodi:cy="117.14286"
       sodipodi:rx="146.42857"
       sodipodi:ry="160"
       d="m -108.57143,117.14286 c 0,88.36556 -65.5583,160 -146.42857,160 -80.87027,0 -146.42857,-71.63444 -146.42857,-160 0,-88.36556 65.5583,-160 146.42857,-160 80.87027,0 146.42857,71.63444 146.42857,160 z"
       transform="matrix(0.56489773,0,0,0.51698232,644.04892,37.515681)" />
    <path
       sodipodi:type="arc"
       style="fill:#332405;fill-opacity:1;stroke:none"
       id="path3936"
       sodipodi:cx="432.14285"
       sodipodi:cy="548.79077"
       sodipodi:rx="220.71428"
       sodipodi:ry="223.57143"
       d="m 652.85713,548.79077 a 220.71428,223.57143 0 1 1 -441.42856,0 220.71428,223.57143 0 1 1 441.42856,0 z"
       transform="matrix(0.34978584,0,0,0.34531556,348.84255,-91.429524)" />
    <g
       id="g4746"
       transform="matrix(1.8597226,0,0,1.8597226,453.50786,51.582474)"
       style="fill:#ffffff;fill-opacity:1">
      <g
         display="none"
         id="Layer_2"
         style="display:none;fill:#ffffff;fill-opacity:1">
	
		<rect
   id="rect4723"
   height="40"
   width="40"
   stroke-miterlimit="10"
   display="inline"
   y="5"
   x="5"
   style="fill:#ffffff;stroke:#000000;stroke-width:0.25000000000000000;stroke-linecap:round;stroke-linejoin:round;stroke-miterlimit:10;display:inline;fill-opacity:1" />

</g>
      <g
         id="Layer_1"
         style="fill:#ffffff;fill-opacity:1">
	<g
   id="g4726"
   style="fill:#ffffff;fill-opacity:1">
		<path
   id="path4728"
   d="M 38.353,39.421 H 11.647 c -1.18,0 -2.136,0.956 -2.136,2.136 0,1.18 0.956,2.137 2.136,2.137 h 26.705 c 1.18,0 2.136,-0.957 2.136,-2.137 0,-1.18 -0.956,-2.136 -2.135,-2.136 z"
   inkscape:connector-curvature="0"
   style="fill:#ffffff;fill-opacity:1" />

		<path
   id="path4730"
   d="m 8.978,23.397 v 5.341 c 0,0.885 0.718,1.603 1.602,1.603 0.885,0 1.603,-0.718 1.603,-1.603 v -5.341 c 0,-0.885 -0.718,-1.602 -1.603,-1.602 -0.885,10e-4 -1.602,0.718 -1.602,1.602 z"
   inkscape:connector-curvature="0"
   style="fill:#ffffff;fill-opacity:1" />

		<path
   id="path4732"
   d="m 14.318,21.262 v 7.477 c 0,0.885 0.718,1.603 1.603,1.603 0.884,0 1.602,-0.718 1.602,-1.603 v -7.477 c 0,-0.885 -0.718,-1.603 -1.602,-1.603 -0.885,0 -1.603,0.718 -1.603,1.603 z"
   inkscape:connector-curvature="0"
   style="fill:#ffffff;fill-opacity:1" />

		<path
   id="path4734"
   d="m 19.659,19.125 v 9.613 c 0,0.885 0.718,1.603 1.603,1.603 0.884,0 1.602,-0.718 1.602,-1.603 v -9.613 c 0,-0.885 -0.718,-1.603 -1.602,-1.603 -0.885,0 -1.603,0.718 -1.603,1.603 z"
   inkscape:connector-curvature="0"
   style="fill:#ffffff;fill-opacity:1" />

		<path
   id="path4736"
   d="M 46.363,6.307 H 3.637 C 2.457,6.307 1.5,7.264 1.5,8.444 v 26.704 c 0,1.18 0.957,2.137 2.137,2.137 H 44.41 C 44.347,37.23 44.277,37.186 44.219,37.128 l -2.958,-2.959 c -1.704,0.963 -3.635,1.478 -5.614,1.478 -2.699,0 -5.253,-0.93 -7.306,-2.634 H 5.772 V 10.579 h 38.455 v 6.022 c 1.856,2.095 2.882,4.755 2.882,7.581 0,1.979 -0.514,3.909 -1.475,5.612 l 2.865,2.867 V 8.443 C 48.5,7.264 47.543,6.307 46.363,6.307 z"
   inkscape:connector-curvature="0"
   style="fill:#ffffff;fill-opacity:1" />

		<path
   id="path4738"
   d="m 43.871,31.054 c -0.213,-0.213 -0.499,-0.3 -0.777,-0.271 l -0.45,-0.449 c 1.501,-1.704 2.329,-3.861 2.329,-6.151 0,-2.49 -0.969,-4.832 -2.73,-6.593 -1.762,-1.765 -4.104,-2.733 -6.596,-2.733 -2.49,0 -4.831,0.969 -6.593,2.733 -1.763,1.761 -2.733,4.103 -2.733,6.593 0,2.49 0.971,4.832 2.733,6.595 1.762,1.762 4.103,2.731 6.593,2.731 2.292,0 4.448,-0.828 6.151,-2.33 l 0.451,0.449 c -0.03,0.28 0.056,0.564 0.271,0.779 l 3.213,3.213 c 0.186,0.187 0.43,0.279 0.676,0.279 0.244,0 0.49,-0.093 0.677,-0.279 0.372,-0.374 0.372,-0.979 0,-1.351 L 43.871,31.054 z M 40.89,29.423 c -1.4,1.401 -3.262,2.174 -5.243,2.174 -1.978,0 -3.84,-0.772 -5.241,-2.172 -1.399,-1.4 -2.172,-3.262 -2.172,-5.242 0,-1.979 0.772,-3.841 2.172,-5.241 1.401,-1.401 3.264,-2.173 5.241,-2.173 1.981,0 3.843,0.771 5.244,2.173 1.398,1.4 2.169,3.262 2.169,5.241 0,1.98 -0.771,3.841 -2.17,5.24 z"
   inkscape:connector-curvature="0"
   style="fill:#ffffff;fill-opacity:1" />

	</g>

</g>
    </g>
  </g>
</svg>
