<?xml version="1.0" encoding="utf-8"?>
<!-- Generator: Adobe Illustrator 16.0.0, SVG Export Plug-In . SVG Version: 6.00 Build 0)  -->
<!DOCTYPE svg PUBLIC "-//W3C//DTD SVG 1.1//EN" "http://www.w3.org/Graphics/SVG/1.1/DTD/svg11.dtd">
<svg version="1.1" id="Layer_1" xmlns="http://www.w3.org/2000/svg" xmlns:xlink="http://www.w3.org/1999/xlink" x="0px" y="0px"
	 width="32px" height="32px" viewBox="0 0 32 32" enable-background="new 0 0 32 32" xml:space="preserve">
<g>
	<path fill="#161616" d="M25.646,27.89h-2.034l-1.125-2.979c0.614-0.112,1.077-0.634,1.077-1.279c0-0.729-0.59-1.3-1.32-1.3h-0.735
		l-0.921-2.458h1.881c0.155,0,0.311-0.022,0.428-0.072v-2.51c-0.117-0.05-0.272-0.051-0.428-0.051h-2.865l-0.92-2.458h3.785
		c0.155,0,0.311-0.041,0.428-0.087v-2.359c-0.176,0-0.389-0.069-0.57-0.128h-4.629l-0.92-2.459h5.153l1.709-1.926
		c-0.221-0.427-0.661-0.707-1.171-0.707H15.79l-1.185-3.102h11.04v1.659c0.703-0.502,1.756-0.524,2.517-0.064V3.637
		c0-1.275-0.97-2.313-2.245-2.313H13.621l-0.037-0.095c-0.236-0.613-0.825-1.017-1.482-1.017H4.823
		c-1.379,0-2.525,1.094-2.525,2.473v26.607c0,1.379,1.146,2.46,2.525,2.46h18.932c0.297,0,0.573-0.149,0.742-0.394
		c0.168-0.243,0.206-0.542,0.1-0.835h1.32c1.275,0,2.245-1.008,2.245-2.283v-5.792h-2.517V27.89z"/>
	<path fill="#161616" d="M31.325,10.567l-3.406-3.876c-0.245-0.279-0.599-0.44-0.97-0.44c-0.373,0-0.727,0.16-0.972,0.439
		l-3.406,3.876c-0.119,0.136-0.147,0.329-0.073,0.493c0.074,0.163,0.237,0.27,0.418,0.27h1.033v8.637c0,0.802,0.621,1.43,1.423,1.43
		h3.153c0.801,0,1.451-0.628,1.451-1.43v-8.637h1.006c0.179,0,0.342-0.106,0.416-0.27C31.474,10.896,31.444,10.702,31.325,10.567z"
		/>
</g>
</svg>
