<?xml version="1.0" encoding="UTF-8" standalone="no"?>
<!-- Created with Inkscape (http://www.inkscape.org/) -->

<svg
   xmlns:dc="http://purl.org/dc/elements/1.1/"
   xmlns:cc="http://creativecommons.org/ns#"
   xmlns:rdf="http://www.w3.org/1999/02/22-rdf-syntax-ns#"
   xmlns:svg="http://www.w3.org/2000/svg"
   xmlns="http://www.w3.org/2000/svg"
   xmlns:sodipodi="http://sodipodi.sourceforge.net/DTD/sodipodi-0.dtd"
   xmlns:inkscape="http://www.inkscape.org/namespaces/inkscape"
   width="165.43434"
   height="165.43434"
   id="svg3331"
   version="1.1"
   inkscape:version="0.48.5 r10040"
   sodipodi:docname="Upload.svg">
  <defs
     id="defs3333" />
  <sodipodi:namedview
     id="base"
     pagecolor="#ffffff"
     bordercolor="#666666"
     borderopacity="1.0"
     inkscape:pageopacity="0.0"
     inkscape:pageshadow="2"
     inkscape:zoom="1.979899"
     inkscape:cx="75.452381"
     inkscape:cy="95.057431"
     inkscape:document-units="px"
     inkscape:current-layer="layer1"
     showgrid="false"
     fit-margin-top="0"
     fit-margin-left="0"
     fit-margin-right="0"
     fit-margin-bottom="0"
     inkscape:window-width="1920"
     inkscape:window-height="1178"
     inkscape:window-x="-8"
     inkscape:window-y="-8"
     inkscape:window-maximized="1" />
  <metadata
     id="metadata3336">
    <rdf:RDF>
      <cc:Work
         rdf:about="">
        <dc:format>image/svg+xml</dc:format>
        <dc:type
           rdf:resource="http://purl.org/dc/dcmitype/StillImage" />
        <dc:title></dc:title>
      </cc:Work>
    </rdf:RDF>
  </metadata>
  <g
     inkscape:label="Layer 1"
     inkscape:groupmode="layer"
     id="layer1"
     transform="translate(-417.28283,-15.359298)">
    <path
       sodipodi:type="arc"
       style="fill:#ffffff;fill-opacity:1;stroke:none"
       id="path4446"
       sodipodi:cx="-255"
       sodipodi:cy="117.14286"
       sodipodi:rx="146.42857"
       sodipodi:ry="160"
       d="m -108.57143,117.14286 c 0,88.36556 -65.5583,160 -146.42857,160 -80.87027,0 -146.42857,-71.63444 -146.42857,-160 0,-88.36556 65.5583,-160 146.42857,-160 80.87027,0 146.42857,71.63444 146.42857,160 z"
       transform="matrix(0.56489773,0,0,0.51698232,644.04892,37.515681)" />
    <path
       sodipodi:type="arc"
       style="fill:#2d003e;fill-opacity:1;stroke:none"
       id="path3936"
       sodipodi:cx="432.14285"
       sodipodi:cy="548.79077"
       sodipodi:rx="220.71428"
       sodipodi:ry="223.57143"
       d="m 652.85713,548.79077 a 220.71428,223.57143 0 1 1 -441.42856,0 220.71428,223.57143 0 1 1 441.42856,0 z"
       transform="matrix(0.34978584,0,0,0.34531556,348.84255,-91.429524)" />
    <g
       transform="matrix(2.8259746,0,0,2.8259746,452.32908,52.911743)"
       id="g3"
       style="fill:#ffffff;fill-opacity:1">
      <path
         style="fill:#ffffff;fill-opacity:1"
         inkscape:connector-curvature="0"
         d="m 25.646,27.89 h -2.034 l -1.125,-2.979 c 0.614,-0.112 1.077,-0.634 1.077,-1.279 0,-0.729 -0.59,-1.3 -1.32,-1.3 h -0.735 l -0.921,-2.458 h 1.881 c 0.155,0 0.311,-0.022 0.428,-0.072 v -2.51 c -0.117,-0.05 -0.272,-0.051 -0.428,-0.051 h -2.865 l -0.92,-2.458 h 3.785 c 0.155,0 0.311,-0.041 0.428,-0.087 v -2.359 c -0.176,0 -0.389,-0.069 -0.57,-0.128 H 17.698 L 16.778,9.75 h 5.153 L 23.64,7.824 C 23.419,7.397 22.979,7.117 22.469,7.117 H 15.79 L 14.605,4.015 h 11.04 V 5.674 C 26.348,5.172 27.401,5.15 28.162,5.61 V 3.637 c 0,-1.275 -0.97,-2.313 -2.245,-2.313 H 13.621 L 13.584,1.229 C 13.348,0.616 12.759,0.212 12.102,0.212 H 4.823 c -1.379,0 -2.525,1.094 -2.525,2.473 v 26.607 c 0,1.379 1.146,2.46 2.525,2.46 h 18.932 c 0.297,0 0.573,-0.149 0.742,-0.394 0.168,-0.243 0.206,-0.542 0.1,-0.835 h 1.32 c 1.275,0 2.245,-1.008 2.245,-2.283 v -5.792 h -2.517 v 5.442 z"
         id="path5" />
      <path
         style="fill:#ffffff;fill-opacity:1"
         inkscape:connector-curvature="0"
         d="M 31.325,10.567 27.919,6.691 c -0.245,-0.279 -0.599,-0.44 -0.97,-0.44 -0.373,0 -0.727,0.16 -0.972,0.439 l -3.406,3.876 c -0.119,0.136 -0.147,0.329 -0.073,0.493 0.074,0.163 0.237,0.27 0.418,0.27 h 1.033 v 8.637 c 0,0.802 0.621,1.43 1.423,1.43 h 3.153 c 0.801,0 1.451,-0.628 1.451,-1.43 v -8.637 h 1.006 c 0.179,0 0.342,-0.106 0.416,-0.27 0.076,-0.163 0.046,-0.357 -0.073,-0.492 z"
         id="path7" />
    </g>
  </g>
</svg>
