<?xml version="1.0" encoding="UTF-8" standalone="no"?>
<!-- Created with Inkscape (http://www.inkscape.org/) -->

<svg
   xmlns:dc="http://purl.org/dc/elements/1.1/"
   xmlns:cc="http://creativecommons.org/ns#"
   xmlns:rdf="http://www.w3.org/1999/02/22-rdf-syntax-ns#"
   xmlns:svg="http://www.w3.org/2000/svg"
   xmlns="http://www.w3.org/2000/svg"
   xmlns:sodipodi="http://sodipodi.sourceforge.net/DTD/sodipodi-0.dtd"
   xmlns:inkscape="http://www.inkscape.org/namespaces/inkscape"
   width="217.83"
   height="157.28622"
   id="svg3873"
   version="1.1"
   inkscape:version="0.48.5 r10040"
   sodipodi:docname="StartArrow.svg">
  <defs
     id="defs3875" />
  <sodipodi:namedview
     id="base"
     pagecolor="#ffffff"
     bordercolor="#666666"
     borderopacity="1.0"
     inkscape:pageopacity="0.0"
     inkscape:pageshadow="2"
     inkscape:zoom="1.4"
     inkscape:cx="152.16701"
     inkscape:cy="-42.366811"
     inkscape:document-units="px"
     inkscape:current-layer="layer1"
     showgrid="false"
     fit-margin-top="0"
     fit-margin-left="0"
     fit-margin-right="0"
     fit-margin-bottom="0"
     inkscape:window-width="1920"
     inkscape:window-height="1178"
     inkscape:window-x="-8"
     inkscape:window-y="-8"
     inkscape:window-maximized="1" />
  <metadata
     id="metadata3878">
    <rdf:RDF>
      <cc:Work
         rdf:about="">
        <dc:format>image/svg+xml</dc:format>
        <dc:type
           rdf:resource="http://purl.org/dc/dcmitype/StillImage" />
        <dc:title />
      </cc:Work>
    </rdf:RDF>
  </metadata>
  <g
     inkscape:label="Layer 1"
     inkscape:groupmode="layer"
     id="layer1"
     transform="translate(-289.72445,-128.92767)">
    <path
       style="fill:#b29200;fill-opacity:1;fill-rule:nonzero;stroke:none"
       d="m 300.56791,128.92825 c -1.09339,0.0265 -2.1292,0.86896 -2.6098,1.80534 -5.52215,10.75863 -6.7752,23.59218 -7.61798,35.46756 -0.84966,11.96559 -1.00728,24.57474 0.74744,36.47158 0.13821,0.93039 0.59815,1.53853 1.21004,1.88556 -0.11556,1.73405 1.9246,3.31448 3.91295,2.17191 6.15984,-3.53928 12.05466,-7.20913 18.40547,-10.26605 0.073,0.23665 0.14488,0.50423 0.22066,0.74093 0.16903,0.53711 1.05058,0.28756 0.92685,-0.26022 -0.0692,-0.3128 -0.13007,-0.64805 -0.19917,-0.96085 0.0596,-0.0274 0.12631,-0.0434 0.18453,-0.0708 3.82797,14.03339 14.73839,25.18972 25.28491,34.65999 2.99835,2.69247 6.10951,5.26603 9.29133,7.75078 0.005,0.0367 9.2e-4,0.0881 0.006,0.12487 0.0718,0.52591 0.51537,0.68178 0.90192,0.58548 7.11985,5.49346 14.63357,10.53273 22.32339,15.20994 0.0977,0.28496 0.35249,0.38703 0.60984,0.34822 3.43992,2.0819 6.91586,4.11338 10.40539,6.07459 35.86032,20.15311 81.36771,32.73932 121.93238,21.06788 1.71416,-0.49297 1.14815,-3.09632 -0.39704,-3.29811 -10.18602,-11.2715 -23.54848,-18.51556 -35.6617,-27.44145 8.28728,-12.9827 15.83436,-26.43428 21.71206,-40.69317 0.26858,-0.65247 0.30716,-1.25675 0.17055,-1.7906 0.57672,-1.10404 -0.32171,-2.61298 -1.84554,-2.10752 -0.0822,0.0271 -0.19597,0.0479 -0.27819,0.0749 -1.10185,-0.32412 -2.35001,-0.0757 -3.11422,1.01448 -45.81702,14.37227 -109.25997,17.78208 -140.814,-25.01347 5.81367,-3.09248 11.80451,-6.30175 17.06445,-10.17508 0.40197,-0.29506 0.65053,-0.68271 0.76584,-1.06636 1.53826,0.39925 2.74192,-2.04417 1.33251,-3.09356 -19.97466,-14.87824 -42.07768,-26.83088 -63.79369,-38.92067 -0.35746,-0.19892 -0.71227,-0.305 -1.07674,-0.29617 z"
       id="path4736"
       inkscape:connector-curvature="0" />
    <path
       d="m 308.20299,167.14352 c 1.88264,8.01062 4.01034,15.9341 6.5264,23.75819 -3.23104,1.08871 -6.45264,2.41813 -9.51314,4.0141 -1.82426,-7.97052 -4.26696,-16.04422 -6.91736,-23.65615 -0.10349,-0.29356 -0.29377,-0.46633 -0.51453,-0.54792 0.0213,-1.08467 0.0163,-2.16506 0.0548,-3.25257 0.12343,-3.44553 0.30366,-6.98517 0.64837,-10.52677 1.25042,4.65438 3.02705,9.29064 4.33095,13.68382 2.15944,7.27297 3.84494,14.64373 4.70997,22.18613 0.0808,0.70706 1.11288,0.51183 1.07312,-0.17466 -0.44195,-7.60009 -2.15209,-14.93896 -4.00595,-22.30113 -1.67561,-6.651 -2.91489,-13.79282 -5.18379,-20.31303 0.62197,-3.57781 1.4868,-7.09403 2.72069,-10.45277 1.14988,9.24721 3.95915,18.59572 6.07058,27.58276 m 1.93209,-24.83288 c 5.57664,17.60917 7.39314,36.08174 12.21051,53.80787 -0.60264,-1.42729 -1.13847,-2.88039 -1.56295,-4.37561 -0.0617,-0.21509 -0.15348,-0.40087 -0.25688,-0.57336 -0.0492,-0.9259 -0.74279,-1.81254 -1.82488,-1.50748 -0.91814,0.25835 -1.83996,0.53913 -2.76295,0.83308 -2.08924,-8.67145 -3.97115,-17.39406 -5.77689,-26.12941 -1.68979,-8.17217 -2.82709,-16.91681 -5.44684,-24.9384 1.8078,0.9589 3.61434,1.92045 5.42088,2.88331 m 6.75724,3.59515 c 0.0315,0.10095 0.0828,0.20037 0.17324,0.29141 2.68871,2.65398 3.67965,8.0629 4.65757,11.4953 1.86925,6.55527 3.25478,13.27026 4.6017,19.94755 2.15667,10.68549 4.70956,21.82028 5.38542,32.81426 -2.20497,-2.48077 -4.21289,-5.10206 -5.95262,-7.85684 -5.33777,-18.98859 -4.47684,-40.28042 -12.24525,-58.4899 1.12447,0.60118 2.25415,1.19705 3.37994,1.79822 m 6.5811,3.50117 c 7.35714,22.79155 12.27244,46.08466 16.92257,69.5441 -2.42551,-2.10437 -4.79064,-4.33055 -7.01239,-6.67425 0.007,-12.09968 -2.62944,-24.73508 -4.81341,-36.49675 -1.31359,-7.08303 -2.88839,-14.10899 -4.97754,-21.00641 -0.54527,-1.80305 -1.20147,-4.41151 -2.32972,-6.54319 0.7351,0.39394 1.47538,0.78125 2.21049,1.1765 m 17.68929,9.53836 c 1.50937,5.29089 3.03396,10.53289 3.7153,16.02316 -1.0136,0.64115 -2.02584,1.28622 -3.00506,1.94143 -1.82316,-6.88481 -3.82158,-13.67804 -5.96412,-20.30637 -0.3621,-1.12089 -2.12523,-0.53925 -1.9356,0.5758 3.93378,23.09161 10.72203,45.63199 15.02266,68.69685 -2.33335,-1.76858 -4.71269,-3.64189 -7.06166,-5.61689 -3.0957,-23.33322 -7.52961,-46.98081 -15.42892,-69.21711 4.88881,2.62908 9.77633,5.2608 14.6574,7.90313 m 7.19775,3.89521 c 0.43416,1.20427 0.85918,2.4139 1.17028,3.67226 0.41899,1.69795 0.67786,3.43203 0.84339,5.1738 -1.51123,0.84843 -3.01029,1.72304 -4.47604,2.63277 -0.16676,-4.7173 -0.90367,-9.4594 -2.2174,-14.01432 1.55904,0.84473 3.11941,1.69078 4.67977,2.53549 m 9.42308,5.10446 c -2.01483,0.8847 -4.02697,1.88385 -6.01455,2.95773 -0.0574,-2.16286 -0.23565,-4.42301 -0.68388,-6.58648 2.23193,1.20916 4.46519,2.41961 6.69843,3.62875 m -10.25786,22.68826 c 3.18994,14.67655 8.55713,28.73492 12.49867,43.20247 -2.99211,-2.05157 -5.9284,-4.16829 -8.82562,-6.31968 -1.26981,-13.34787 -3.62774,-26.89727 -6.73698,-40.21269 0.99276,1.14364 2.00888,2.2607 3.06393,3.3299 m 11.04398,9.15167 c 0.8755,7.09615 4.15818,14.09385 6.531,20.72075 2.42048,6.76056 4.69817,13.57679 6.13341,20.59783 -3.15376,-1.9233 -6.25464,-3.93673 -9.31926,-5.99928 -3.12728,-13.9469 -7.60038,-27.5211 -11.13706,-41.36573 2.46608,2.19471 5.06819,4.20882 7.79191,6.04643 m 9.69101,5.61057 c -0.11975,6.51578 2.03944,13.32684 3.94856,19.3631 2.41645,7.6371 5.60642,15.13862 9.32744,22.25613 -2.90059,-1.55125 -5.76661,-3.18188 -8.59913,-4.87344 -0.77244,-6.28801 -2.35976,-12.3768 -4.26561,-18.47101 -2.24103,-7.16277 -4.27953,-14.88991 -7.13166,-21.98092 2.17946,1.33481 4.42093,2.57148 6.7204,3.70614 m 7.17596,3.17165 c 5.97008,14.18148 11.79525,27.90803 15.21233,42.98195 -1.31414,-0.61473 -2.63213,-1.22018 -3.93477,-1.86399 -1.06041,-0.52562 -2.10928,-1.0777 -3.16072,-1.62317 -2.90298,-6.61004 -5.77011,-13.19289 -8.12433,-20.02662 -2.46053,-7.13911 -3.47109,-14.19417 -4.6366,-21.44082 1.52831,0.69638 3.07593,1.35702 4.64409,1.97265 m 7.38085,2.5849 c 5.35154,14.84293 12.52629,28.84554 16.36392,44.20134 -2.46671,-1.03264 -4.91565,-2.12076 -7.35053,-3.24327 -1.27372,-14.00715 -6.18972,-29.29745 -12.57402,-42.12638 1.18008,0.40838 2.36524,0.80091 3.56063,1.16831 m 8.59191,2.27963 c 5.44207,15.15111 11.32777,30.09295 16.47239,45.35157 -2.5828,-0.94572 -5.14409,-1.96407 -7.69524,-3.01413 -3.12775,-14.97997 -8.33273,-29.78253 -14.50729,-43.78391 1.89739,0.52486 3.80624,1.01668 5.73014,1.44647 m 8.14872,1.53344 c 6.01503,15.85495 13.38111,30.78309 18.04353,47.1016 -2.74344,-0.84247 -5.47057,-1.75225 -8.18261,-2.7201 -4.01341,-15.41819 -9.18716,-30.8028 -15.53729,-45.4022 1.88645,0.37891 3.77782,0.73011 5.67637,1.0207 m 6.09877,0.79591 c 1.55752,0.16568 3.13568,0.29558 4.72284,0.40826 2.31694,8.12126 6.25437,16.06003 9.08282,24.0357 2.94826,8.31113 5.7564,16.68053 9.06628,24.85708 -3.14775,-0.75606 -6.27566,-1.615 -9.38861,-2.54255 -2.95055,-16.12308 -9.63152,-32.64257 -16.97058,-47.18018 1.16127,0.15461 2.32504,0.29866 3.48725,0.42169 m 14.02778,0.78825 c 1.54184,7.57381 4.80996,15.0073 7.2889,22.25542 3.07209,8.98479 5.84212,18.1311 7.2465,27.5319 -1.36017,-0.27991 -2.71422,-0.59935 -4.06952,-0.91221 -3.05625,-8.64939 -5.79667,-17.40915 -8.6183,-26.13766 -2.3721,-7.33888 -4.39363,-16.29277 -8.66327,-22.95365 2.25187,0.12188 4.52555,0.19612 6.81569,0.2162 m 4.11643,-0.009 c 1.50036,8.28891 6.56721,16.80248 9.70359,24.44415 3.39662,8.27684 7.51554,17.53079 8.1803,26.7101 -2.01995,-0.3181 -4.03389,-0.68365 -6.0442,-1.07687 -0.90475,-8.33418 -2.95132,-16.40734 -5.36607,-24.45373 -2.53812,-8.46079 -4.99071,-17.36348 -8.30811,-25.6189 0.61192,-0.003 1.22002,0.005 1.83449,-0.005 m 8.85601,-0.4056 c 6.35947,17.48008 12.73606,34.74151 17.66663,52.69001 -2.49167,-0.25588 -4.97623,-0.57765 -7.45482,-0.95081 0.0223,-7.73065 -2.79643,-15.44848 -5.36112,-22.60477 -3.38959,-9.45347 -6.83171,-19.67091 -11.22931,-28.78731 2.12058,-0.0726 4.2486,-0.18355 6.37862,-0.34712 m 7.19282,-0.71479 c 5.23459,18.39235 13.30892,36.0994 19.83749,54.07625 -2.68732,-0.10878 -5.36648,-0.30585 -8.041,-0.5556 -3.69042,-18.0212 -9.49935,-36.1277 -16.82914,-52.98031 1.67873,-0.15425 3.35724,-0.32823 5.03265,-0.54034 m 6.35575,-0.94038 c 3.63975,8.80037 7.32085,17.53707 10.82764,26.33506 -0.0142,0.0226 -0.0272,0.0451 -0.0399,0.0676 -0.68102,1.16228 -0.72996,2.79737 0.54335,3.62972 0.41782,0.27402 0.84594,0.52949 1.26502,0.79955 3.11694,7.99854 6.03874,16.07706 8.61902,24.32021 -1.97509,0.0236 -3.94684,-0.004 -5.91629,-0.0611 -5.3402,-18.41872 -12.3494,-36.52934 -19.05302,-54.50804 1.25331,-0.18339 2.50795,-0.36548 3.75427,-0.58301 m 7.65606,-1.59809 c -0.13005,0.13052 -0.21206,0.31705 -0.19354,0.54583 0.2758,3.26442 2.37406,6.6203 3.54879,9.67134 1.47217,3.82526 2.55331,7.74732 3.2146,11.77571 -0.37758,0.67304 -0.75121,1.34604 -1.13276,2.0165 -3.23681,-7.8971 -6.93938,-15.56493 -10.88186,-22.82324 1.82772,-0.3521 3.64035,-0.75536 5.44477,-1.18614 m 7.27218,-2.00545 c 1.20108,5.26166 3.57326,10.17904 3.84376,15.6492 -1.16973,2.2275 -2.36593,4.44217 -3.58856,6.64793 -0.50202,-3.14328 -1.2443,-6.23896 -2.11263,-9.30944 -0.98367,-3.47313 -1.97878,-8.23715 -4.46281,-10.94489 -0.0906,-0.099 -0.19664,-0.15559 -0.30234,-0.19117 2.23467,-0.54779 4.43808,-1.17942 6.62258,-1.85163 m 6.68692,-2.30511 c 0.36913,1.04712 0.77768,2.08981 1.02058,3.14632 0.45934,1.99095 0.61282,4.04739 0.51342,6.08711 -1.03794,2.13251 -2.09044,4.25859 -3.17603,6.36797 -0.21935,-4.71273 -1.49516,-9.50894 -2.88695,-13.98792 1.52717,-0.50513 3.03413,-1.04819 4.52898,-1.61348 m 7.12585,-3.02098 c -1.31069,3.09776 -2.68638,6.15419 -4.1137,9.1836 -0.0173,-0.82758 -0.0645,-1.65743 -0.1627,-2.49852 -0.15944,-1.34177 -0.40629,-2.95096 -0.88056,-4.42849 1.74852,-0.70386 3.47153,-1.44952 5.15696,-2.25659 m -8.23579,44.60768 c 1.13757,3.1344 3.09316,6.11296 4.41236,9.1399 1.4261,3.27178 2.67027,6.62862 3.5314,10.08874 -1.80558,0.11227 -3.60899,0.18514 -5.41012,0.22898 -1.34449,-7.13662 -3.28933,-14.29239 -5.68171,-21.34545 1.04719,0.63106 2.09441,1.26475 3.14807,1.88783 m 7.36365,4.34333 c 0.7447,1.86252 1.74936,3.67326 2.51843,5.48284 1.24571,2.93307 2.28415,5.92257 2.93187,9.03384 -1.21068,0.11709 -2.41794,0.18806 -3.62766,0.27486 -0.44836,-3.27816 -1.2771,-6.45045 -2.33486,-9.62527 -0.72749,-2.18516 -1.56014,-4.69149 -2.63285,-7.02256 1.04964,0.61656 2.09929,1.23311 3.14507,1.85629 m 7.25209,4.4802 c 0.75444,1.68606 1.94637,3.309 2.74608,4.92872 0.69317,1.40384 1.42104,2.84806 2.04913,4.3119 -1.83533,0.26666 -3.66999,0.47803 -5.50355,0.67097 -0.31126,-2.59677 -0.94273,-5.11735 -1.71097,-7.62971 -0.46291,-1.51844 -0.95498,-3.1642 -1.544,-4.77327 1.33103,0.81718 2.65558,1.64235 3.96331,2.49139 m 11.05226,8.18955 c -1.92489,0.37038 -3.84776,0.68941 -5.77103,0.97554 -0.38881,-1.59567 -0.80341,-3.14628 -1.42895,-4.72728 -0.32021,-0.80817 -0.65184,-1.68991 -1.03202,-2.56054 2.84622,1.95724 5.60833,4.03524 8.232,6.31228 m -193.444,-68.37462 c -0.67436,-6.78269 -1.06029,-13.54645 -1.16879,-20.33193 1.64178,5.79992 4.16403,11.49329 6.06009,17.20597 -1.69951,0.95068 -3.34408,1.98494 -4.8913,3.12596 m -6.34787,-31.85657 c -0.50638,11.17653 -0.365,22.92964 1.55519,33.97986 0.15111,0.86415 0.6105,1.42457 1.18929,1.73352 -0.0663,1.61951 1.86801,3.02829 3.69456,1.91553 5.65866,-3.447 11.05429,-6.98958 16.90249,-9.9914 0.0737,0.2189 0.1395,0.44184 0.21581,0.66071 0.17043,0.49674 1.00708,0.24725 0.87863,-0.26052 -0.0719,-0.28998 -0.13853,-0.58135 -0.21041,-0.87133 0.055,-0.0269 0.10591,-0.0579 0.15954,-0.0849 3.90423,12.99272 14.34556,23.1465 24.4049,31.72428 2.85985,2.43874 5.82095,4.76045 8.8469,7.00113 0.004,0.0341 0.0126,0.067 0.017,0.10106 0.0795,0.48862 0.49188,0.63636 0.84998,0.53734 6.76946,4.95184 13.88897,9.45994 21.17035,13.63711 0.0979,0.26335 0.33865,0.36708 0.57766,0.32475 3.25697,1.85891 6.54092,3.66352 9.84126,5.40873 33.91601,17.9334 76.65868,28.58133 114.20072,16.73048 1.58644,-0.50057 0.99559,-2.92556 -0.4499,-3.07679 -9.76623,-10.26579 -22.38844,-16.68236 -33.89549,-24.71515 7.41661,-12.30249 14.1175,-25.03074 19.25705,-38.46551 0.23483,-0.61475 0.24913,-1.18213 0.109,-1.67661 0.51135,-1.04313 -0.36456,-2.43032 -1.77324,-1.92265 -0.076,0.0273 -0.15334,0.0531 -0.22935,0.0803 -1.03505,-0.27587 -2.20464,-0.0237 -2.89112,1.01096 -42.37459,14.49444 -101.4599,19.18355 -131.90172,-19.96358 5.34656,-3.02216 10.87211,-6.15305 15.68373,-9.89003 0.36773,-0.28469 0.57946,-0.62938 0.67781,-0.98983 1.44374,0.33549 2.50577,-1.98417 1.16663,-2.92892 -18.9789,-13.39474 -39.85546,-24.02295 -60.39133,-34.77629 -1.3521,-0.70771 -2.85177,0.33799 -3.41939,1.51733 -4.89165,10.1628 -5.73441,22.15795 -6.23654,33.25019"
       inkscape:connector-curvature="0"
       id="path416"
       style="fill:#1d1d1b;fill-opacity:1;fill-rule:nonzero;stroke:none" />
  </g>
</svg>
