<?xml version="1.0" encoding="UTF-8" standalone="no"?>
<!-- Created with Inkscape (http://www.inkscape.org/) -->

<svg
   xmlns:dc="http://purl.org/dc/elements/1.1/"
   xmlns:cc="http://creativecommons.org/ns#"
   xmlns:rdf="http://www.w3.org/1999/02/22-rdf-syntax-ns#"
   xmlns:svg="http://www.w3.org/2000/svg"
   xmlns="http://www.w3.org/2000/svg"
   xmlns:sodipodi="http://sodipodi.sourceforge.net/DTD/sodipodi-0.dtd"
   xmlns:inkscape="http://www.inkscape.org/namespaces/inkscape"
   width="165.43434"
   height="165.43434"
   id="svg3280"
   version="1.1"
   inkscape:version="0.48.5 r10040"
   sodipodi:docname="ArduinoWrite.svg">
  <defs
     id="defs3282" />
  <sodipodi:namedview
     id="base"
     pagecolor="#ffffff"
     bordercolor="#666666"
     borderopacity="1.0"
     inkscape:pageopacity="0.0"
     inkscape:pageshadow="2"
     inkscape:zoom="1.4"
     inkscape:cx="216.63548"
     inkscape:cy="-132.468"
     inkscape:document-units="px"
     inkscape:current-layer="layer1"
     showgrid="false"
     fit-margin-top="0"
     fit-margin-left="0"
     fit-margin-right="0"
     fit-margin-bottom="0"
     inkscape:window-width="1920"
     inkscape:window-height="1178"
     inkscape:window-x="-8"
     inkscape:window-y="-8"
     inkscape:window-maximized="1" />
  <metadata
     id="metadata3285">
    <rdf:RDF>
      <cc:Work
         rdf:about="">
        <dc:format>image/svg+xml</dc:format>
        <dc:type
           rdf:resource="http://purl.org/dc/dcmitype/StillImage" />
        <dc:title></dc:title>
      </cc:Work>
    </rdf:RDF>
  </metadata>
  <g
     inkscape:label="Layer 1"
     inkscape:groupmode="layer"
     id="layer1"
     transform="translate(-631.56855,-203.93072)">
    <path
       sodipodi:type="arc"
       style="fill:#ffffff;fill-opacity:1;stroke:none"
       id="path4446"
       sodipodi:cx="-255"
       sodipodi:cy="117.14286"
       sodipodi:rx="146.42857"
       sodipodi:ry="160"
       d="m -108.57143,117.14286 a 146.42857,160 0 1 1 -292.85714,0 146.42857,160 0 1 1 292.85714,0 z"
       transform="matrix(0.56489773,0,0,0.51698232,858.33464,226.08711)" />
    <path
       sodipodi:type="arc"
       style="fill:#003e00;fill-opacity:1;stroke:none"
       id="path3936"
       sodipodi:cx="432.14285"
       sodipodi:cy="548.79077"
       sodipodi:rx="220.71428"
       sodipodi:ry="223.57143"
       d="m 652.85713,548.79077 a 220.71428,223.57143 0 1 1 -441.42856,0 220.71428,223.57143 0 1 1 441.42856,0 z"
       transform="matrix(0.34978584,0,0,0.34531556,563.1283,97.1419)" />
    <g
       id="g3900"
       transform="matrix(3.1306066,0,0,3.1306066,664.29325,236.55819)"
       style="fill:#ffffff;fill-opacity:1">
      <path
         id="path3902"
         d="M 20.564,28.096 H 2.419 V 3.903 H 20.564 V 8.026 L 22.983,5.33 V 3.947 c 0,-1.36 -1.103,-2.463 -2.463,-2.463 H 2.463 C 1.103,1.484 0,2.586 0,3.947 v 24.106 c 0,1.36 1.103,2.463 2.463,2.463 h 18.058 c 1.36,0 2.463,-1.103 2.463,-2.463 v -7.938 l -2.419,2.697 v 5.284 z"
         inkscape:connector-curvature="0"
         style="fill:#ffffff;fill-opacity:1" />
      <path
         id="path3904"
         d="M 18.511,8.339 C 18.511,7.671 17.97,7.13 17.303,7.13 H 5.667 C 5,7.129 4.458,7.671 4.458,8.339 4.458,9.006 5,9.548 5.667,9.548 h 11.635 c 0.669,0 1.209,-0.542 1.209,-1.209 z"
         inkscape:connector-curvature="0"
         style="fill:#ffffff;fill-opacity:1" />
      <path
         id="path3906"
         d="M 16.845,12.198 H 5.667 c -0.668,0 -1.209,0.542 -1.209,1.209 0,0.668 0.542,1.21 1.209,1.21 h 9.008 l 2.17,-2.419 z"
         inkscape:connector-curvature="0"
         style="fill:#ffffff;fill-opacity:1" />
      <path
         id="path3908"
         d="M 12.324,17.209 H 5.667 c -0.668,0 -1.209,0.542 -1.209,1.21 0,0.667 0.542,1.209 1.209,1.209 h 5.287 l 1.37,-2.419 z"
         inkscape:connector-curvature="0"
         style="fill:#ffffff;fill-opacity:1" />
      <path
         id="path3910"
         d="m 4.458,23.488 c 0,0.668 0.542,1.209 1.209,1.209 h 3.872 c 0.015,-0.173 0.04,-0.268 0.078,-0.399 l 0.582,-2.02 H 5.667 C 5,22.279 4.458,22.82 4.458,23.488 z"
         inkscape:connector-curvature="0"
         style="fill:#ffffff;fill-opacity:1" />
      <path
         id="path3912"
         d="m 22.615,8.455 -8.447,9.416 -0.653,0.729 4.651,4.171 0.652,-0.728 8.447,-9.416 0.763,-0.85 -4.65,-4.171 -0.763,0.849 z m -0.402,4.253 -5.539,6.175 c -0.069,0.078 -0.167,0.124 -0.271,0.129 -0.104,0.006 -0.206,-0.03 -0.283,-0.099 l -0.274,-0.246 c -0.161,-0.145 -0.174,-0.392 -0.03,-0.553 l 5.539,-6.175 c 0.07,-0.078 0.167,-0.125 0.271,-0.13 0.103,-0.005 0.205,0.03 0.282,0.1 l 0.274,0.247 c 0.163,0.143 0.176,0.391 0.031,0.552 z m 1.61,-2.934 0.274,0.246 c 0.161,0.144 0.174,0.392 0.03,0.553 l -0.071,0.079 -0.395,0.441 -0.016,0.018 c -0.069,0.078 -0.167,0.124 -0.271,0.129 -0.104,0.006 -0.205,-0.029 -0.282,-0.1 l -0.275,-0.246 c -0.078,-0.069 -0.124,-0.167 -0.129,-0.27 -0.006,-0.104 0.03,-0.206 0.1,-0.283 l 0.481,-0.537 c 0.145,-0.161 0.393,-0.175 0.554,-0.03 z"
         inkscape:connector-curvature="0"
         style="fill:#ffffff;fill-opacity:1" />
      <polygon
         id="polygon3914"
         points="28.828,10.884 29.618,10.003 24.969,5.833 24.177,6.715 23.827,7.105 28.476,11.276 "
         style="fill:#ffffff;fill-opacity:1" />
      <path
         id="path3916"
         d="M 31.936,6.826 C 31.916,6.468 31.755,6.132 31.489,5.892 L 28.853,3.528 c -0.267,-0.24 -0.619,-0.363 -0.976,-0.344 -0.358,0.02 -0.695,0.18 -0.934,0.448 l -1.554,1.732 4.65,4.169 1.553,-1.732 C 31.831,7.536 31.955,7.185 31.936,6.826 z M 29.944,7.797 27.126,5.27 27.94,4.364 30.755,6.89 29.944,7.797 z"
         inkscape:connector-curvature="0"
         style="fill:#ffffff;fill-opacity:1" />
      <path
         id="path3918"
         d="m 11.557,25.46 c 0.192,0.172 0.466,0.219 0.705,0.122 l 5.345,-2.19 -4.648,-4.17 -1.599,5.551 c -0.072,0.248 0.005,0.515 0.197,0.687 z m 1.828,-4.755 2.7,2.424 -2.1,0.86 -1.229,-1.102 0.629,-2.182 z"
         inkscape:connector-curvature="0"
         style="fill:#ffffff;fill-opacity:1" />
    </g>
  </g>
</svg>
