<?xml version="1.0" encoding="UTF-8" standalone="no"?>
<!-- Created with Inkscape (http://www.inkscape.org/) -->

<svg
   xmlns:dc="http://purl.org/dc/elements/1.1/"
   xmlns:cc="http://creativecommons.org/ns#"
   xmlns:rdf="http://www.w3.org/1999/02/22-rdf-syntax-ns#"
   xmlns:svg="http://www.w3.org/2000/svg"
   xmlns="http://www.w3.org/2000/svg"
   xmlns:sodipodi="http://sodipodi.sourceforge.net/DTD/sodipodi-0.dtd"
   xmlns:inkscape="http://www.inkscape.org/namespaces/inkscape"
   width="165.43434"
   height="165.43434"
   id="svg3331"
   version="1.1"
   inkscape:version="0.48.5 r10040"
   sodipodi:docname="New document 4">
  <defs
     id="defs3333" />
  <sodipodi:namedview
     id="base"
     pagecolor="#ffffff"
     bordercolor="#666666"
     borderopacity="1.0"
     inkscape:pageopacity="0.0"
     inkscape:pageshadow="2"
     inkscape:zoom="1.979899"
     inkscape:cx="75.452381"
     inkscape:cy="115.26048"
     inkscape:document-units="px"
     inkscape:current-layer="layer1"
     showgrid="false"
     fit-margin-top="0"
     fit-margin-left="0"
     fit-margin-right="0"
     fit-margin-bottom="0"
     inkscape:window-width="1920"
     inkscape:window-height="1178"
     inkscape:window-x="-8"
     inkscape:window-y="-8"
     inkscape:window-maximized="1" />
  <metadata
     id="metadata3336">
    <rdf:RDF>
      <cc:Work
         rdf:about="">
        <dc:format>image/svg+xml</dc:format>
        <dc:type
           rdf:resource="http://purl.org/dc/dcmitype/StillImage" />
        <dc:title></dc:title>
      </cc:Work>
    </rdf:RDF>
  </metadata>
  <g
     inkscape:label="Layer 1"
     inkscape:groupmode="layer"
     id="layer1"
     transform="translate(-417.28283,-15.359298)">
    <path
       sodipodi:type="arc"
       style="fill:#ffffff;fill-opacity:1;stroke:none"
       id="path4446"
       sodipodi:cx="-255"
       sodipodi:cy="117.14286"
       sodipodi:rx="146.42857"
       sodipodi:ry="160"
       d="m -108.57143,117.14286 c 0,88.36556 -65.5583,160 -146.42857,160 -80.87027,0 -146.42857,-71.63444 -146.42857,-160 0,-88.36556 65.5583,-160 146.42857,-160 80.87027,0 146.42857,71.63444 146.42857,160 z"
       transform="matrix(0.56489773,0,0,0.51698232,644.04892,37.515681)" />
    <path
       sodipodi:type="arc"
       style="fill:#3e001f;fill-opacity:1;stroke:none"
       id="path3936"
       sodipodi:cx="432.14285"
       sodipodi:cy="548.79077"
       sodipodi:rx="220.71428"
       sodipodi:ry="223.57143"
       d="m 652.85713,548.79077 a 220.71428,223.57143 0 1 1 -441.42856,0 220.71428,223.57143 0 1 1 441.42856,0 z"
       transform="matrix(0.34978584,0,0,0.34531556,348.84255,-91.429524)" />
    <g
       id="g3379"
       transform="matrix(2.9598675,0,0,2.9598675,452.77116,49.727033)"
       style="fill:#ffffff;fill-opacity:1">
	<path
   id="path3381"
   d="M 10.697,26.199 H 4.798 c -1.127,0 -2.06,-0.885 -2.06,-2.012 V 5.901 c 0,-1.127 0.933,-2.006 2.06,-2.006 h 14.277 c 1.127,0 2.046,0.879 2.046,2.006 v 15.322 l 2.637,-3.134 V 3.943 c 0,-1.482 -1.171,-2.684 -2.652,-2.684 H 2.661 c -1.423,0 -2.559,1.153 -2.559,2.575 v 22.382 c 0,1.482 1.185,2.687 2.669,2.687 H 13.129 L 11.905,27.84 c -0.536,-0.463 -0.939,-1.033 -1.208,-1.641 z"
   inkscape:connector-curvature="0"
   style="fill:#ffffff;fill-opacity:1" />

	<path
   id="path3383"
   d="M 17.977,7.275 H 6.136 c -0.728,0 -1.314,0.591 -1.314,1.318 0,0.726 0.587,1.317 1.314,1.317 h 11.84 c 0.728,0 1.312,-0.591 1.312,-1.317 C 19.29,7.866 18.703,7.275 17.977,7.275 z"
   inkscape:connector-curvature="0"
   style="fill:#ffffff;fill-opacity:1" />

	<path
   id="path3385"
   d="M 17.977,11.667 H 6.136 c -0.728,0 -1.314,0.59 -1.314,1.318 0,0.724 0.587,1.318 1.314,1.318 h 11.84 c 0.728,0 1.312,-0.594 1.312,-1.318 0.002,-0.727 -0.585,-1.318 -1.311,-1.318 z"
   inkscape:connector-curvature="0"
   style="fill:#ffffff;fill-opacity:1" />

	<path
   id="path3387"
   d="M 17.977,16.061 H 6.136 c -0.728,0 -1.314,0.558 -1.314,1.285 0,0.725 0.587,1.283 1.314,1.283 h 11.84 c 0.728,0 1.312,-0.559 1.312,-1.283 0.002,-0.727 -0.585,-1.285 -1.311,-1.285 z"
   inkscape:connector-curvature="0"
   style="fill:#ffffff;fill-opacity:1" />

	<path
   id="path3389"
   d="m 4.821,21.536 c 0,0.726 0.587,1.284 1.314,1.284 h 4.418 c 0.185,-0.473 0.469,-1.023 0.857,-1.479 0.408,-0.473 0.889,-0.82 1.412,-1.092 H 6.136 c -0.728,0.002 -1.315,0.562 -1.315,1.287 z"
   inkscape:connector-curvature="0"
   style="fill:#ffffff;fill-opacity:1" />

	<path
   id="path3391"
   d="m 17.977,20.251 h -0.988 c 0.324,0.136 0.633,0.366 0.916,0.612 l 1.312,1.123 c 0.05,-0.135 0.076,-0.281 0.076,-0.437 -0.003,-0.723 -0.59,-1.298 -1.316,-1.298 z"
   inkscape:connector-curvature="0"
   style="fill:#ffffff;fill-opacity:1" />

	<path
   id="path3393"
   d="m 31.001,16.73 c -0.966,-0.828 -2.421,-0.711 -3.246,0.259 l -7.565,8.868 -3.782,-3.248 c -0.967,-0.827 -2.42,-0.717 -3.247,0.248 -0.829,0.966 -0.717,2.418 0.248,3.246 l 5.533,4.752 c 0.422,0.358 0.951,0.556 1.5,0.556 0.062,0 0.119,-0.002 0.182,-0.007 0.607,-0.047 1.176,-0.336 1.572,-0.801 l 9.066,-10.627 c 0.822,-0.967 0.709,-2.419 -0.261,-3.246 z"
   inkscape:connector-curvature="0"
   style="fill:#ffffff;fill-opacity:1" />

</g>
  </g>
</svg>
