<?xml version="1.0" encoding="UTF-8" standalone="no"?>
<!-- Generator: Adobe Illustrator 16.0.0, SVG Export Plug-In . SVG Version: 6.00 Build 0)  -->

<svg
   xmlns:dc="http://purl.org/dc/elements/1.1/"
   xmlns:cc="http://creativecommons.org/ns#"
   xmlns:rdf="http://www.w3.org/1999/02/22-rdf-syntax-ns#"
   xmlns:svg="http://www.w3.org/2000/svg"
   xmlns="http://www.w3.org/2000/svg"
   xmlns:sodipodi="http://sodipodi.sourceforge.net/DTD/sodipodi-0.dtd"
   xmlns:inkscape="http://www.inkscape.org/namespaces/inkscape"
   version="1.1"
   id="Layer_1"
   x="0px"
   y="0px"
   width="100"
   height="100"
   viewBox="0 0 100 100"
   enable-background="new 0 0 100 100"
   xml:space="preserve"
   inkscape:version="0.48.5 r10040"
   sodipodi:docname="Discard.svg"><metadata
   id="metadata5110"><rdf:RDF><cc:Work
       rdf:about=""><dc:format>image/svg+xml</dc:format><dc:type
         rdf:resource="http://purl.org/dc/dcmitype/StillImage" /><dc:title></dc:title></cc:Work></rdf:RDF></metadata><defs
   id="defs5108" /><sodipodi:namedview
   pagecolor="#ffffff"
   bordercolor="#666666"
   borderopacity="1"
   objecttolerance="10"
   gridtolerance="10"
   guidetolerance="10"
   inkscape:pageopacity="0"
   inkscape:pageshadow="2"
   inkscape:window-width="1920"
   inkscape:window-height="1178"
   id="namedview5106"
   showgrid="false"
   fit-margin-top="0"
   fit-margin-left="0"
   fit-margin-right="0"
   fit-margin-bottom="0"
   inkscape:zoom="2.36"
   inkscape:cx="-11.050607"
   inkscape:cy="24.688644"
   inkscape:window-x="-8"
   inkscape:window-y="-8"
   inkscape:window-maximized="1"
   inkscape:current-layer="Layer_1" />
<rect
   style="fill:#ffffff;fill-opacity:0;stroke:none"
   id="rect5622"
   width="100"
   height="100"
   x="0"
   y="0" />
<g
   id="g5676"
   transform="matrix(2.1564178,0,0,2.1564178,26.845104,14.998366)"
   style="fill:#f0f0f0;fill-opacity:1"><g
     id="_x35_"
     style="fill:#f0f0f0;fill-opacity:1">
	<g
   id="g5636"
   style="fill:#f0f0f0;fill-opacity:1">
		<path
   id="path5638"
   d="M 18.519,9.669 H 3.081 c -1.624,0 -2.94,1.315 -2.94,2.939 l 1.593,16.915 c 0,1.623 1.317,2.939 2.941,2.939 h 12.497 c 1.624,0 2.941,-1.316 2.941,-2.939 L 21.461,12.608 C 21.459,10.984 20.143,9.669 18.519,9.669 z M 6.879,27.316 c 0,0.811 -0.658,1.468 -1.47,1.468 -0.812,0 -1.47,-0.658 -1.47,-1.468 V 14.079 c 0,-0.811 0.658,-1.471 1.47,-1.471 0.812,0 1.47,0.66 1.47,1.471 v 13.237 z m 5.146,0 c 0,0.811 -0.658,1.468 -1.47,1.468 -0.812,0 -1.47,-0.658 -1.47,-1.468 V 14.079 c 0,-0.811 0.658,-1.471 1.47,-1.471 0.812,0 1.47,0.66 1.47,1.471 v 13.237 z m 5.146,0 c 0,0.811 -0.658,1.468 -1.47,1.468 -0.812,0 -1.47,-0.658 -1.47,-1.468 V 14.079 c 0,-0.811 0.658,-1.471 1.47,-1.471 0.812,0 1.47,0.66 1.47,1.471 V 27.316 z M 2.296,8.199 20.095,3.62 C 21.078,3.368 21.67,2.366 21.417,1.383 21.164,0.4 20.162,-0.192 19.179,0.058 L 13.708,1.466 C 13.201,0.714 12.265,0.319 11.337,0.557 L 9.202,1.108 C 8.274,1.347 7.645,2.144 7.563,3.047 L 1.38,4.639 C 0.397,4.891 -0.194,5.893 0.058,6.876 0.311,7.86 1.313,8.45 2.296,8.199 z"
   style="fill:#f0f0f0;fill-opacity:1;fill-rule:evenodd"
   inkscape:connector-curvature="0" />
	</g>
</g><g
     id="g5640"
     style="fill:#f0f0f0;fill-opacity:1">
</g><g
     id="g5642"
     style="fill:#f0f0f0;fill-opacity:1">
</g><g
     id="g5644"
     style="fill:#f0f0f0;fill-opacity:1">
</g><g
     id="g5646"
     style="fill:#f0f0f0;fill-opacity:1">
</g><g
     id="g5648"
     style="fill:#f0f0f0;fill-opacity:1">
</g><g
     id="g5650"
     style="fill:#f0f0f0;fill-opacity:1">
</g><g
     id="g5652"
     style="fill:#f0f0f0;fill-opacity:1">
</g><g
     id="g5654"
     style="fill:#f0f0f0;fill-opacity:1">
</g><g
     id="g5656"
     style="fill:#f0f0f0;fill-opacity:1">
</g><g
     id="g5658"
     style="fill:#f0f0f0;fill-opacity:1">
</g><g
     id="g5660"
     style="fill:#f0f0f0;fill-opacity:1">
</g><g
     id="g5662"
     style="fill:#f0f0f0;fill-opacity:1">
</g><g
     id="g5664"
     style="fill:#f0f0f0;fill-opacity:1">
</g><g
     id="g5666"
     style="fill:#f0f0f0;fill-opacity:1">
</g><g
     id="g5668"
     style="fill:#f0f0f0;fill-opacity:1">
</g></g></svg>