<?xml version="1.0" encoding="UTF-8" standalone="no"?>
<!-- Generator: Adobe Illustrator 16.0.0, SVG Export Plug-In . SVG Version: 6.00 Build 0)  -->

<svg
   xmlns:dc="http://purl.org/dc/elements/1.1/"
   xmlns:cc="http://creativecommons.org/ns#"
   xmlns:rdf="http://www.w3.org/1999/02/22-rdf-syntax-ns#"
   xmlns:svg="http://www.w3.org/2000/svg"
   xmlns="http://www.w3.org/2000/svg"
   xmlns:sodipodi="http://sodipodi.sourceforge.net/DTD/sodipodi-0.dtd"
   xmlns:inkscape="http://www.inkscape.org/namespaces/inkscape"
   version="1.1"
   id="Capa_1"
   x="0px"
   y="0px"
   width="100"
   height="100"
   viewBox="0 0 99.999999 100"
   xml:space="preserve"
   inkscape:version="0.48.5 r10040"
   sodipodi:docname="Gear.svg"><metadata
   id="metadata39"><rdf:RDF><cc:Work
       rdf:about=""><dc:format>image/svg+xml</dc:format><dc:type
         rdf:resource="http://purl.org/dc/dcmitype/StillImage" /></cc:Work></rdf:RDF></metadata><defs
   id="defs37" /><sodipodi:namedview
   pagecolor="#ffffff"
   bordercolor="#666666"
   borderopacity="1"
   objecttolerance="10"
   gridtolerance="10"
   guidetolerance="10"
   inkscape:pageopacity="0"
   inkscape:pageshadow="2"
   inkscape:window-width="1920"
   inkscape:window-height="1178"
   id="namedview35"
   showgrid="false"
   inkscape:zoom="5.5826279"
   inkscape:cx="74.358954"
   inkscape:cy="58.318288"
   inkscape:window-x="-8"
   inkscape:window-y="-8"
   inkscape:window-maximized="1"
   inkscape:current-layer="Capa_1"
   fit-margin-top="0"
   fit-margin-left="0"
   fit-margin-right="0"
   fit-margin-bottom="0" />
<path
   style="fill:#f0f0f0;fill-opacity:1"
   d="m 74.136386,42.52897 -1.681185,-3.994746 c 0,0 3.911457,-8.825459 3.565966,-9.164781 l -5.179288,-5.055899 c -0.357831,-0.348576 -9.186374,3.680102 -9.186374,3.680102 L 57.58364,26.349477 c 0,0 -3.596814,-8.945764 -4.090373,-8.945764 h -7.307765 c -0.508983,0 -3.837424,8.964272 -3.837424,8.964272 l -4.065695,1.650339 c 0,0 -9.013628,-3.831254 -9.35912,-3.488848 l -5.170033,5.062069 c -0.357831,0.348576 3.757219,8.995119 3.757219,8.995119 l -1.681185,3.988577 c 0,0 -9.137018,3.519695 -9.137018,3.994746 v 7.16278 c 0,0.499729 9.158611,3.760306 9.158611,3.760306 l 1.681186,3.982407 c 0,0 -3.911457,8.819289 -3.569052,9.158611 l 5.176204,5.068238 c 0.351661,0.342407 9.183289,-3.686272 9.183289,-3.686272 l 4.07495,1.65034 c 0,0 3.596814,8.939581 4.093458,8.939581 h 7.307764 c 0.505899,0 3.837425,-8.964259 3.837425,-8.964259 l 4.078033,-1.65034 c 0,0 8.99512,3.831255 9.343697,3.495018 l 5.176203,-5.062069 c 0.360916,-0.354745 -3.76339,-8.995119 -3.76339,-8.995119 l 1.678102,-3.988577 c 0,0 9.140103,-3.525865 9.140103,-4.007085 v -7.156611 c 0.0031,-0.496644 -9.152442,-3.747966 -9.152442,-3.747966 z m -13.468001,7.474339 c 0,5.759221 -4.790611,10.448035 -10.676305,10.448035 -5.879527,0 -10.676307,-4.688814 -10.676307,-10.448035 0,-5.75922 4.79678,-10.441865 10.676307,-10.441865 5.888779,0.0031 10.676305,4.682645 10.676305,10.441865 z"
   id="path3"
   inkscape:connector-curvature="0" />
<g
   id="g5"
   transform="translate(38.4375,128.863)">
</g>
<g
   id="g7"
   transform="translate(38.4375,128.863)">
</g>
<g
   id="g9"
   transform="translate(38.4375,128.863)">
</g>
<g
   id="g11"
   transform="translate(38.4375,128.863)">
</g>
<g
   id="g13"
   transform="translate(38.4375,128.863)">
</g>
<g
   id="g15"
   transform="translate(38.4375,128.863)">
</g>
<g
   id="g17"
   transform="translate(38.4375,128.863)">
</g>
<g
   id="g19"
   transform="translate(38.4375,128.863)">
</g>
<g
   id="g21"
   transform="translate(38.4375,128.863)">
</g>
<g
   id="g23"
   transform="translate(38.4375,128.863)">
</g>
<g
   id="g25"
   transform="translate(38.4375,128.863)">
</g>
<g
   id="g27"
   transform="translate(38.4375,128.863)">
</g>
<g
   id="g29"
   transform="translate(38.4375,128.863)">
</g>
<g
   id="g31"
   transform="translate(38.4375,128.863)">
</g>
<g
   id="g33"
   transform="translate(38.4375,128.863)">
</g>
<rect
   style="fill:#00ff00;fill-opacity:1;stroke:#777777;stroke-opacity:0.53333326999999997"
   id="rect2997"
   width="16.121439"
   height="16.300568"
   x="2.1495254"
   y="2.3757253" /><rect
   style="fill:#000080;fill-opacity:1;stroke:#777777;stroke-opacity:0.53333326999999997"
   id="rect2999"
   width="17.554457"
   height="18.629219"
   x="82.040215"
   y="3.0922337" /><rect
   style="fill:#00ffff;fill-opacity:1;stroke:#777777;stroke-opacity:0.53333326999999997"
   id="rect3001"
   width="23.823906"
   height="27.764702"
   x="78.815926"
   y="84.953323" /><rect
   style="fill:#aa0000;fill-opacity:1;stroke:#777777;stroke-opacity:0.53333326999999997"
   id="rect3003"
   width="31.347244"
   height="29.376846"
   x="-10.747626"
   y="83.699432" /></svg>