<?xml version="1.0" encoding="UTF-8" standalone="no"?>
<!-- Generator: Adobe Illustrator 16.0.0, SVG Export Plug-In . SVG Version: 6.00 Build 0)  -->

<svg
   xmlns:dc="http://purl.org/dc/elements/1.1/"
   xmlns:cc="http://creativecommons.org/ns#"
   xmlns:rdf="http://www.w3.org/1999/02/22-rdf-syntax-ns#"
   xmlns:svg="http://www.w3.org/2000/svg"
   xmlns="http://www.w3.org/2000/svg"
   xmlns:sodipodi="http://sodipodi.sourceforge.net/DTD/sodipodi-0.dtd"
   xmlns:inkscape="http://www.inkscape.org/namespaces/inkscape"
   version="1.1"
   id="Layer_1"
   x="0px"
   y="0px"
   width="100"
   height="100"
   viewBox="0 0 100 100"
   enable-background="new 0 0 100 100"
   xml:space="preserve"
   inkscape:version="0.48.5 r10040"
   sodipodi:docname="Load.svg"><metadata
   id="metadata5110"><rdf:RDF><cc:Work
       rdf:about=""><dc:format>image/svg+xml</dc:format><dc:type
         rdf:resource="http://purl.org/dc/dcmitype/StillImage" /><dc:title></dc:title></cc:Work></rdf:RDF></metadata><defs
   id="defs5108" /><sodipodi:namedview
   pagecolor="#ffffff"
   bordercolor="#666666"
   borderopacity="1"
   objecttolerance="10"
   gridtolerance="10"
   guidetolerance="10"
   inkscape:pageopacity="0"
   inkscape:pageshadow="2"
   inkscape:window-width="1920"
   inkscape:window-height="1178"
   id="namedview5106"
   showgrid="false"
   fit-margin-top="0"
   fit-margin-left="0"
   fit-margin-right="0"
   fit-margin-bottom="0"
   inkscape:zoom="2.36"
   inkscape:cx="-7.2669496"
   inkscape:cy="40.694864"
   inkscape:window-x="-8"
   inkscape:window-y="-8"
   inkscape:window-maximized="1"
   inkscape:current-layer="Layer_1" />
<rect
   style="fill:#ffffff;fill-opacity:0;stroke:none"
   id="rect5622"
   width="100"
   height="100"
   x="0"
   y="0" />
<path
   id="path5625"
   d="M 84.570325,57.064448 72.200297,80.474447 c -0.605351,1.164961 -2.320631,2.395675 -3.645685,2.395675 l -49.605185,0.0093 c -1.04775,0 -2.052618,-0.415955 -2.793047,-1.156385 -0.74043,-0.741144 -1.156385,-1.745297 -1.156385,-2.793047 l 0.0079,-38.519473 c 0,-2.178406 1.766023,-3.945859 3.944429,-3.948003 l 3.627103,-0.0036 v 3.364808 H 20.15302 c -0.475275,0 -0.931254,0.188681 -1.267163,0.52459 -0.335909,0.335909 -0.52459,0.791887 -0.52459,1.267163 l 0.0036,36.10879 c 0,0.989859 0.802608,1.791753 1.791753,1.791753 h 2.485012 l 11.72316,-23.71516 c 0.662527,-1.325054 1.913967,-2.39496 3.236877,-2.39496 h 28.710215 l 0.0093,-9.544104 c 1.875372,0.173672 3.354801,1.728859 3.354801,3.647829 v 5.896275 h 13.167634 c 1.555187,0.01572 2.863803,1.553044 1.726715,3.65855 z M 24.866429,67.577685 c -0.107205,-11.803985 0,-47.218087 0,-47.218087 0,-1.78675 1.452985,-3.23902 3.238306,-3.23902 h 25.932176 c 0.415241,0 0.811184,0.173672 1.092061,0.479563 l 8.383432,9.108852 c 0.252289,0.274445 0.39237,0.633225 0.39237,1.005583 V 51.311827 H 61.185341 V 29.752186 c 0,-0.373073 -0.303033,-0.676106 -0.676107,-0.676106 h -6.417291 c -0.750435,0 -1.361504,-0.609639 -1.361504,-1.35936 v -7.199888 c 0,-0.373073 -0.303033,-0.676106 -0.676106,-0.676106 H 28.106164 c -0.28588,0 -0.518872,0.232992 -0.518872,0.518872 v 44.249938 l -2.081207,4.210298 c 0,-7.15e-4 -0.628936,-0.04646 -0.639656,-1.242149 z M 55.453446,26.357361 h 4.039485 l -4.039485,-4.391117 v 4.391117 z m 1.472997,5.488896 H 31.863342 c -0.923392,0 -1.673112,0.750435 -1.673112,1.673828 0,0.922677 0.750435,1.673112 1.673112,1.673112 h 25.063816 c 0.923392,0 1.674542,-0.751149 1.674542,-1.673112 -7.15e-4,-0.922678 -0.752579,-1.673828 -1.675257,-1.673828 z m 1.674542,11.419477 c 0,-0.922677 -0.75115,-1.672398 -1.674542,-1.672398 H 31.863342 c -0.923392,0 -1.673112,0.75115 -1.673112,1.672398 0,0.922678 0.750435,1.672398 1.673112,1.672398 h 25.063816 c 0.921963,0 1.673827,-0.74972 1.673827,-1.672398 z m -28.41147,9.812117 c 0,0.922678 0.750435,1.671683 1.673113,1.671683 h 0.601062 c 1.057756,-2.947422 3.679991,-3.344796 3.679991,-3.344796 h -4.281053 c -0.921249,0 -1.673113,0.749721 -1.673113,1.673113 z"
   inkscape:connector-curvature="0"
   style="fill:#f0f0f0;fill-opacity:1" /></svg>