<?xml version="1.0" encoding="UTF-8" standalone="no"?>
<!-- Generator: Adobe Illustrator 16.0.0, SVG Export Plug-In . SVG Version: 6.00 Build 0)  -->

<svg
   xmlns:dc="http://purl.org/dc/elements/1.1/"
   xmlns:cc="http://creativecommons.org/ns#"
   xmlns:rdf="http://www.w3.org/1999/02/22-rdf-syntax-ns#"
   xmlns:svg="http://www.w3.org/2000/svg"
   xmlns="http://www.w3.org/2000/svg"
   xmlns:sodipodi="http://sodipodi.sourceforge.net/DTD/sodipodi-0.dtd"
   xmlns:inkscape="http://www.inkscape.org/namespaces/inkscape"
   version="1.1"
   id="Capa_1"
   x="0px"
   y="0px"
   width="155"
   height="100"
   viewBox="0 0 155 99.999999"
   xml:space="preserve"
   inkscape:version="0.48.5 r10040"
   sodipodi:docname="Tutorial.svg"><metadata
   id="metadata63"><rdf:RDF><cc:Work
       rdf:about=""><dc:format>image/svg+xml</dc:format><dc:type
         rdf:resource="http://purl.org/dc/dcmitype/StillImage" /><dc:title /></cc:Work></rdf:RDF></metadata><defs
   id="defs61" /><sodipodi:namedview
   pagecolor="#ffffff"
   bordercolor="#666666"
   borderopacity="1"
   objecttolerance="10"
   gridtolerance="10"
   guidetolerance="10"
   inkscape:pageopacity="0"
   inkscape:pageshadow="2"
   inkscape:window-width="1920"
   inkscape:window-height="1178"
   id="namedview59"
   showgrid="false"
   fit-margin-top="0"
   fit-margin-left="0"
   fit-margin-right="0"
   fit-margin-bottom="0"
   inkscape:zoom="1.8842616"
   inkscape:cx="99.505048"
   inkscape:cy="21.167086"
   inkscape:window-x="-8"
   inkscape:window-y="-8"
   inkscape:window-maximized="1"
   inkscape:current-layer="Capa_1" />
<g
   id="g3"
   transform="matrix(2.2355646,0,0,2.2355646,15.004319,14.983869)"
   style="fill:#f0f0f0;fill-opacity:1">
	<g
   id="g5"
   style="fill:#f0f0f0;fill-opacity:1">
		<polygon
   points="4.221,1.753 30.023,1.753 30.023,18.201 9.491,18.201 9.424,19.49 31.312,19.49 31.312,0.463 2.931,0.463 2.931,3.416 4.221,3.018 "
   id="polygon7"
   style="fill:#f0f0f0;fill-opacity:1" />
		<g
   id="g9"
   style="fill:#f0f0f0;fill-opacity:1">
			<circle
   cx="4.9840002"
   cy="7.526"
   r="3.8210001"
   id="circle11"
   sodipodi:cx="4.9840002"
   sodipodi:cy="7.526"
   sodipodi:rx="3.8210001"
   sodipodi:ry="3.8210001"
   d="m 8.8050003,7.526 c 0,2.1102801 -1.71072,3.821 -3.8210001,3.821 -2.1102801,0 -3.8210001,-1.7107199 -3.8210001,-3.821 0,-2.1102801 1.71072,-3.8210001 3.8210001,-3.8210001 2.1102801,0 3.8210001,1.71072 3.8210001,3.8210001 z"
   style="fill:#f0f0f0;fill-opacity:1" />
			<polygon
   points="5.492,30.85 7.181,30.85 7.195,30.6 8.718,30.85 10.024,30.85 10.024,29.438 8.491,29.104 8.227,29.104 8.227,22.302 8.227,21.661 8.227,20.791 8.47,20.791 8.825,13.885 15.416,10.471 14.55,8.801 8.524,11.922 6.374,11.922 4.917,13.611 3.508,11.922 0.412,12.483 0.214,19.365 1.526,19.365 1.597,20.791 1.797,20.791 1.797,21.661 1.797,22.302 1.797,29.104 1.534,29.104 0,29.438 0,30.85 1.306,30.85 2.83,30.6 2.844,30.85 4.531,30.85 4.531,29.275 4.531,29.104 4.531,22.302 5.492,22.302 5.492,29.104 5.492,29.275 "
   id="polygon13"
   style="fill:#f0f0f0;fill-opacity:1" />
		</g>
		<rect
   x="11.039"
   y="6.2350001"
   width="16.523001"
   height="0.48300001"
   id="rect15"
   style="fill:#f0f0f0;fill-opacity:1" />
		<rect
   x="11.039"
   y="4.5419998"
   width="16.523001"
   height="0.484"
   id="rect17"
   style="fill:#f0f0f0;fill-opacity:1" />
		<rect
   x="11.039"
   y="7.8870001"
   width="16.523001"
   height="0.484"
   id="rect19"
   style="fill:#f0f0f0;fill-opacity:1" />
		<polygon
   points="15.535,9.459 15.786,9.942 27.562,9.942 27.562,9.459 "
   id="polygon21"
   style="fill:#f0f0f0;fill-opacity:1" />
		<polygon
   points="27.562,11.594 27.562,11.111 15.423,11.111 14.427,11.594 "
   id="polygon23"
   style="fill:#f0f0f0;fill-opacity:1" />
		<polygon
   points="27.562,12.796 11.863,12.796 11.039,13.255 11.039,13.279 27.562,13.279 "
   id="polygon25"
   style="fill:#f0f0f0;fill-opacity:1" />
		<rect
   x="23.719"
   y="15.145"
   width="5.0510001"
   height="1.878"
   id="rect27"
   style="fill:#f0f0f0;fill-opacity:1" />
	</g>
</g>
<g
   id="g29"
   transform="translate(-5.75,115.938)">
</g>
<g
   id="g31"
   transform="translate(-5.75,115.938)">
</g>
<g
   id="g33"
   transform="translate(-5.75,115.938)">
</g>
<g
   id="g35"
   transform="translate(-5.75,115.938)">
</g>
<g
   id="g37"
   transform="translate(-5.75,115.938)">
</g>
<g
   id="g39"
   transform="translate(-5.75,115.938)">
</g>
<g
   id="g41"
   transform="translate(-5.75,115.938)">
</g>
<g
   id="g43"
   transform="translate(-5.75,115.938)">
</g>
<g
   id="g45"
   transform="translate(-5.75,115.938)">
</g>
<g
   id="g47"
   transform="translate(-5.75,115.938)">
</g>
<g
   id="g49"
   transform="translate(-5.75,115.938)">
</g>
<g
   id="g51"
   transform="translate(-5.75,115.938)">
</g>
<g
   id="g53"
   transform="translate(-5.75,115.938)">
</g>
<g
   id="g55"
   transform="translate(-5.75,115.938)">
</g>
<g
   id="g57"
   transform="translate(-5.75,115.938)">
</g>
<text
   xml:space="preserve"
   style="font-size:20.50734329px;font-style:normal;font-variant:normal;font-weight:normal;font-stretch:normal;line-height:125%;letter-spacing:0px;word-spacing:0px;fill:#f0f0f0;fill-opacity:1;stroke:none;font-family:Roboto Slab;-inkscape-font-specification:Roboto Slab"
   x="38.207558"
   y="76.455765"
   id="text4476"
   sodipodi:linespacing="125%"><tspan
     sodipodi:role="line"
     id="tspan4478"
     x="38.207558"
     y="76.455765">TUTORIAL</tspan></text>

</svg>