<?xml version="1.0" encoding="utf-8"?>
<!-- Generator: Adobe Illustrator 16.0.0, SVG Export Plug-In . SVG Version: 6.00 Build 0)  -->
<!DOCTYPE svg PUBLIC "-//W3C//DTD SVG 1.1//EN" "http://www.w3.org/Graphics/SVG/1.1/DTD/svg11.dtd">
<svg version="1.1" id="Layer_1" xmlns="http://www.w3.org/2000/svg" xmlns:xlink="http://www.w3.org/1999/xlink" x="0px" y="0px"
	 width="512px" height="512px" viewBox="0 0 512 512" enable-background="new 0 0 512 512" xml:space="preserve">
<g>
	<path d="M395.626,188.072l-37.906,7.127c7.144,10.75,12.967,22.449,17.22,34.874c-7.342-4.797-15.862-9.198-25.522-13.122
		c-9.469-3.845-19.831-7.175-30.876-9.965c-4.005-17.562-9.493-33.811-16.331-48.08c-3.407-7.109-7.093-13.601-11.024-19.462
		c9.581,4.158,18.649,9.278,27.093,15.227l6.955-36.992c-0.131-1.114-0.231-2.228-0.315-3.342
		C297.139,98.413,264.978,89.3,230.726,89.3c-104.767,0-190,85.233-190,190s85.233,190,190,190s190-85.233,190-190
		c0-32.963-8.443-63.989-23.272-91.039C396.844,188.203,396.234,188.144,395.626,188.072z M324.846,246.839
		c3.746,1.245,7.356,2.573,10.816,3.978c24.12,9.797,34.917,21.365,34.917,28.483s-10.797,18.686-34.917,28.483
		c-3.46,1.405-7.07,2.733-10.816,3.978c0.997-10.603,1.509-21.46,1.509-32.461S325.843,257.442,324.846,246.839z M195.046,176.064
		c10.514-21.943,23.853-35.043,35.68-35.043s25.166,13.1,35.68,35.043c3.417,7.129,6.428,14.908,9.017,23.208
		c-14.408-1.632-29.412-2.476-44.697-2.476s-30.29,0.844-44.697,2.476C188.618,190.973,191.629,183.194,195.046,176.064z
		 M86.512,328.527c7.342,4.797,15.863,9.198,25.522,13.122c9.469,3.845,19.831,7.175,30.876,9.965
		c4.005,17.562,9.493,33.811,16.332,48.08c3.406,7.109,7.092,13.601,11.023,19.462C131.111,402.162,100.434,369.199,86.512,328.527z
		 M136.605,311.761c-3.746-1.245-7.355-2.573-10.816-3.978c-24.121-9.797-34.917-21.365-34.917-28.483s10.797-18.686,34.917-28.483
		c3.46-1.405,7.07-2.733,10.816-3.978c-0.996,10.603-1.509,21.46-1.509,32.461S135.609,301.158,136.605,311.761z M159.242,158.907
		c-6.839,14.269-12.326,30.518-16.332,48.08c-11.045,2.79-21.407,6.12-30.876,9.965c-9.66,3.924-18.181,8.324-25.522,13.122
		c13.922-40.672,44.599-73.635,83.753-90.628C166.334,145.306,162.647,151.797,159.242,158.907z M266.406,382.535
		c-10.514,21.943-23.853,35.043-35.68,35.043s-25.166-13.1-35.68-35.043c-3.417-7.129-6.428-14.908-9.017-23.208
		c14.407,1.632,29.412,2.476,44.697,2.476s30.289-0.844,44.697-2.476C272.834,367.627,269.823,375.406,266.406,382.535z
		 M283.783,321.374c-16.661,2.545-34.571,3.877-53.057,3.877s-36.396-1.333-53.057-3.877c-1.889-13.437-2.869-27.574-2.869-42.074
		s0.98-28.637,2.869-42.074c16.661-2.545,34.571-3.877,53.057-3.877s36.396,1.333,53.057,3.877
		c1.889,13.437,2.869,27.574,2.869,42.074S285.671,307.937,283.783,321.374z M291.187,419.155
		c3.932-5.861,7.618-12.353,11.024-19.462c6.838-14.269,12.326-30.518,16.331-48.08c11.045-2.79,21.407-6.12,30.876-9.965
		c9.66-3.924,18.18-8.324,25.522-13.122C361.018,369.199,330.341,402.162,291.187,419.155z"/>
	<path d="M452.12,61.854c-25.538-25.538-67.091-25.538-92.629,0c-15.292,15.293-21.424,36.326-18.401,56.227l-11.08,58.933
		c-0.364,1.932,0.25,3.919,1.641,5.31s3.378,2.005,5.31,1.642l58.933-11.08c19.9,3.021,40.934-3.109,56.227-18.401
		C477.658,128.944,477.658,87.392,452.12,61.854z M438.085,140.448c-15.999,15.999-41.016,17.613-58.839,4.85
		c-1.91-1.51-3.794-3.162-5.601-4.97c-1.807-1.807-3.46-3.69-4.97-5.6c-12.764-17.824-11.149-42.841,4.85-58.84
		c17.799-17.799,46.761-17.799,64.56,0S455.884,122.649,438.085,140.448z"/>
	<circle cx="405.805" cy="108.168" r="23.818"/>
</g>
</svg>
