<?xml version="1.0" encoding="UTF-8" standalone="no"?>
<!-- Created with Inkscape (http://www.inkscape.org/) -->

<svg
   xmlns:dc="http://purl.org/dc/elements/1.1/"
   xmlns:cc="http://creativecommons.org/ns#"
   xmlns:rdf="http://www.w3.org/1999/02/22-rdf-syntax-ns#"
   xmlns:svg="http://www.w3.org/2000/svg"
   xmlns="http://www.w3.org/2000/svg"
   xmlns:sodipodi="http://sodipodi.sourceforge.net/DTD/sodipodi-0.dtd"
   xmlns:inkscape="http://www.inkscape.org/namespaces/inkscape"
   version="1.1"
   width="460.51505"
   height="330.93121"
   id="svg2"
   xml:space="preserve"
   inkscape:version="0.48.5 r10040"
   sodipodi:docname="NetworkBackground.svg"><sodipodi:namedview
     pagecolor="#ffffff"
     bordercolor="#666666"
     borderopacity="1"
     objecttolerance="10"
     gridtolerance="10"
     guidetolerance="10"
     inkscape:pageopacity="0"
     inkscape:pageshadow="2"
     inkscape:window-width="1920"
     inkscape:window-height="1178"
     id="namedview69"
     showgrid="false"
     fit-margin-top="0"
     fit-margin-left="0"
     fit-margin-right="0"
     fit-margin-bottom="0"
     inkscape:zoom="1.4782611"
     inkscape:cx="182.56981"
     inkscape:cy="30.539414"
     inkscape:window-x="-8"
     inkscape:window-y="-8"
     inkscape:window-maximized="1"
     inkscape:current-layer="svg2" /><metadata
     id="metadata8"><rdf:RDF><cc:Work
         rdf:about=""><dc:format>image/svg+xml</dc:format><dc:type
           rdf:resource="http://purl.org/dc/dcmitype/StillImage" /></cc:Work></rdf:RDF></metadata><defs
     id="defs6" /><g
     id="g3939"
     transform="matrix(1,0,0,-1,-14.485891,319.88613)"><path
       style="fill:#464648;fill-opacity:1;fill-rule:nonzero;stroke:none"
       id="path16"
       inkscape:connector-curvature="0"
       d="m 164.07345,232.05618 -0.26,-1.1275 86.45875,-11.31875 0.175,0.99375 -86.37375,11.4525" /><path
       style="fill:#100f0d;fill-opacity:1;fill-rule:nonzero;stroke:none"
       id="path18"
       inkscape:connector-curvature="0"
       d="m 158.72345,205.33868 -0.32625,-0.52625 55.47875,-28.96125 0.26875,0.50625 -55.42125,28.98125" /><path
       style="fill:#100f0d;fill-opacity:1;fill-rule:nonzero;stroke:none"
       id="path20"
       inkscape:connector-curvature="0"
       d="m 130.01958,197.22493 -0.47163,-0.14 17.05425,-105.40875 0.46375,0.215 -17.04637,105.33375" /><path
       style="fill:#959595;fill-opacity:1;fill-rule:nonzero;stroke:none"
       id="path22"
       inkscape:connector-curvature="0"
       d="m 215.2047,131.66118 -60.065,-38.2425 0.375,-1.06 60.01625,38.33375 -0.32625,0.96875" /><path
       style="fill:#464648;fill-opacity:1;fill-rule:nonzero;stroke:none"
       id="path24"
       inkscape:connector-curvature="0"
       d="m 235.3622,105.63618 -11.64875,-37.44875 0.9225,-0.09125 11.60625,37.4 -0.88,0.14" /><path
       style="fill:#464648;fill-opacity:1;fill-rule:nonzero;stroke:none"
       id="path26"
       inkscape:connector-curvature="0"
       d="m 152.5122,85.56243 -1.06875,-0.96125 24.52,-35.3075 1,0.99875 -24.45125,35.27" /><path
       style="fill:#b1b1b0;fill-opacity:1;fill-rule:nonzero;stroke:none"
       id="path28"
       inkscape:connector-curvature="0"
       d="m 279.49095,136.83493 -0.5575,-0.865 37.255,-34.775 0.48375,0.85875 -37.18125,34.78125" /><path
       style="fill:#464648;fill-opacity:1;fill-rule:nonzero;stroke:none"
       id="path30"
       inkscape:connector-curvature="0"
       d="m 331.87345,188.91743 -40.96375,-14.59875 0.10875,-0.93125 40.96,14.6725 -0.105,0.8575" /><path
       style="fill:#464648;fill-opacity:1;fill-rule:nonzero;stroke:none"
       id="path32"
       inkscape:connector-curvature="0"
       d="m 308.9447,242.85868 -51.3475,-19.0275 0.0987,-0.4675 51.33625,19.07125 -0.0875,0.42375" /><path
       style="fill:#464648;fill-opacity:1;fill-rule:nonzero;stroke:none"
       id="path34"
       inkscape:connector-curvature="0"
       d="m 390.8797,217.68993 -55.51625,-28.025 0.085,-0.41 55.50625,28.0725 -0.075,0.3625" /><path
       style="fill:#464648;fill-opacity:1;fill-rule:nonzero;stroke:none"
       id="path36"
       inkscape:connector-curvature="0"
       d="m 347.0547,238.25493 -0.0738,-0.40125 44.2325,-14.035 0.0537,0.37125 -44.2125,14.065" /><path
       style="fill:#464648;fill-opacity:1;fill-rule:nonzero;stroke:none"
       id="path38"
       inkscape:connector-curvature="0"
       d="m 437.75595,258.76368 -40.8725,-36.22125 0.15625,-0.4225 40.85,36.26125 -0.13375,0.3825" /><path
       style="fill:#464648;fill-opacity:1;fill-rule:nonzero;stroke:none"
       id="path40"
       inkscape:connector-curvature="0"
       d="m 334.5122,187.53993 -0.32,-0.1025 5.93875,-59.72125 0.31875,0.14375 -5.9375,59.68" /><path
       style="fill:#1b1919;fill-opacity:1;fill-rule:nonzero;stroke:none"
       id="path42"
       inkscape:connector-curvature="0"
       d="m 455.76345,200.85743 -7.7125,-51.67 0.38125,-0.1325 7.69125,51.6325 -0.36,0.17" /><path
       style="fill:#e9e8e7;fill-opacity:1;fill-rule:nonzero;stroke:none"
       id="path44"
       inkscape:connector-curvature="0"
       d="m 457.4872,246.46868 -0.98375,-40.2025 0.36875,-0.0337 0.975,40.165 -0.36,0.0712" /><path
       style="fill:#1b1919;fill-opacity:1;fill-rule:nonzero;stroke:none"
       id="path46"
       inkscape:connector-curvature="0"
       d="m 442.66845,250.97493 -25.63125,-70.47625 0.1925,-0.17625 25.60625,70.4675 -0.1675,0.185" /><path
       style="fill:#100f0d;fill-opacity:1;fill-rule:nonzero;stroke:none"
       id="path48"
       inkscape:connector-curvature="0"
       d="m 439.7522,255.59993 -68.3875,-130.41625 0.42,-0.47125 68.27,130.43625 -0.3025,0.45125" /><path
       style="fill:#464648;fill-opacity:1;fill-rule:nonzero;stroke:none"
       id="path50"
       inkscape:connector-curvature="0"
       d="m 417.16595,176.05868 -0.37875,-0.29625 7.48875,-29.5475 0.37,0.32125 -7.48,29.5225" /><path
       style="fill:#959595;fill-opacity:1;fill-rule:nonzero;stroke:none"
       id="path52"
       inkscape:connector-curvature="0"
       d="m 308.11095,58.64868 -50.375,-31.27625 0.13125,-1.0425 50.36875,31.37375 -0.125,0.945" /><path
       style="fill:#464648;fill-opacity:1;fill-rule:nonzero;stroke:none"
       id="path54"
       inkscape:connector-curvature="0"
       d="m 15.182678,103.38243 -0.696787,-1.52875 128.825059,-11.15375 0.465,1.31125 -128.593272,11.37125" /><path
       style="fill:#e9e8e7;fill-opacity:1;fill-rule:nonzero;stroke:none"
       id="path56"
       inkscape:connector-curvature="0"
       d="m 432.39595,-11.04507 -56.97125,62.49625 0.36125,0.85 56.9475,-62.55875 -0.28625,-0.7875 -0.0512,0" /><path
       style="fill:#b1b1b0;fill-opacity:1;fill-rule:nonzero;stroke:none"
       id="path58"
       inkscape:connector-curvature="0"
       d="m 408.74345,100.17243 -24.675,-8.37875 0.002,-0.4275 24.67875,8.4025 -0.006,0.40375" /><path
       style="fill:#e9e8e7;fill-opacity:1;fill-rule:nonzero;stroke:none"
       id="path60"
       inkscape:connector-curvature="0"
       d="m 475.00095,71.36368 -21.05,22.41125 0.23,0.665 20.82,-22.2025 0,-0.87375" /><path
       style="fill:#b1b1b0;fill-opacity:1;fill-rule:nonzero;stroke:none"
       id="path62"
       inkscape:connector-curvature="0"
       d="m 447.80845,-11.04507 -10.9675,73.005 0.43375,0.12875 10.99875,-73.08375 -0.1225,-0.05 -0.3425,0" /><path
       style="fill:#464648;fill-opacity:1;fill-rule:nonzero;stroke:none"
       id="path64"
       inkscape:connector-curvature="0"
       d="m 475.00095,186.87368 -16.74625,14.68 0.16,0.59125 16.58625,-14.56375 0,-0.7075" /><path
       style="fill:#100f0d;fill-opacity:1;fill-rule:nonzero;stroke:none"
       id="path66"
       inkscape:connector-curvature="0"
       d="m 256.94345,194.14243 -0.0913,-0.65375 c 5.0375,-0.2275 9.76125,-1.9225 13.69,-4.88 l 0.32,0.55625 c -3.995,3.01125 -8.79625,4.74125 -13.91875,4.9775 z m -18.67375,-5.42875 c -5.17875,-3.3325 -9.8825,-8.0825 -13.56875,-13.75625 l 0.48,-0.35 c 3.6175,5.575 8.235,10.2475 13.32125,13.52625 l -0.2325,0.58 z m 42.8025,-14.535 -0.48,-0.30625 c 1.64875,-5.1625 2.19125,-11.035 1.5675,-17.01875 l 0.50875,0.0238 c 0.6325,6.0825 0.0813,12.05125 -1.59625,17.30125 z m -63.8225,-21.965 -0.6375,-0.06 c -0.70375,-6.8275 0.09,-13.48375 2.29375,-19.20125 l 0.59625,0.4125 c -2.1625,5.61125 -2.94125,12.14625 -2.2525,18.84875 z m 59.55625,-13.21875 c -2.8825,-5.60625 -6.7925,-10.64375 -11.34,-14.56 l 0.24125,-0.53625 c 4.62375,3.98875 8.5975,9.115 11.525,14.81625 l -0.42625,0.28 z m -44.845,-20.41875 -0.35875,-0.67625 c 4.585,-2.47625 9.68,-3.40375 15.11375,-2.79125 0.19125,0.0212 0.38125,0.045 0.5725,0.07 l 0.075,0.70875 c -0.18625,-0.0262 -0.375,-0.0487 -0.5625,-0.07 -5.33625,-0.59625 -10.34,0.3225 -14.84,2.75875" /><path
       style="fill:#100f0d;fill-opacity:1;fill-rule:nonzero;stroke:none"
       id="path68"
       inkscape:connector-curvature="0"
       d="m 255.91845,191.81618 c -5.75875,0.085 -11.71625,-1.77875 -17.2275,-5.455 l 0.71875,-1.72125 c 5.19875,3.4875 10.82625,5.26875 16.2725,5.20625 1.81,-0.0213 3.5875,-0.2475 5.2825,-0.67 l 0.5325,1.91625 c -1.79,0.45125 -3.66625,0.69375 -5.57875,0.72375 z m 19.86875,-11.1925 -1.275,-1.325 c 3.995,-6.0875 5.685,-14.06875 4.785,-22.57625 l 1.54125,0.07 c 0.94125,8.97875 -0.8425,17.4 -5.05125,23.83125 z m -52.28625,-12.11125 c -2.23875,-4.62 -3.73,-9.5275 -4.41875,-14.5675 -0.67375,-4.93 -0.54,-9.7125 0.39875,-14.1975 l 1.865,0.91375 c -0.88375,4.2225 -1.01125,8.725 -0.38125,13.37 0.64375,4.75 2.04375,9.375 4.14375,13.7325 l -1.6075,0.74875 z m 55.76,-12.12875 c -0.975,-8.5875 -4.51,-16.995 -10.0475,-23.73625 l 1.00625,-1.29875 c 5.8375,7.13625 9.55625,16.02125 10.57875,25.08875 l -1.5375,-0.0538 z m -47.88625,-32.38875 -1.2325,-1.92 c 4.83375,-3.58125 10.68875,-5.09625 16.87875,-4.4225 1.91,0.2075 3.83625,0.6225 5.72375,1.2325 l -0.0637,2.03375 c -1.78375,-0.56875 -3.60125,-0.95375 -5.405,-1.145 -5.8375,-0.61375 -11.35,0.83125 -15.90125,4.22125" /><path
       style="fill:#464648;fill-opacity:1;fill-rule:nonzero;stroke:none"
       id="path70"
       inkscape:connector-curvature="0"
       d="m 241.44595,202.82743 c -16.74625,-6.7425 -30.9125,-24.37875 -35.34,-45.02375 l 3.84375,-0.195 c 4.01125,18.92 16.9375,35.16875 32.2975,41.465 l -0.80125,3.75375 z m 33.39375,-2.67375 -1.755,-3.36375 c 11.40625,-7.69625 17.24875,-22.71125 15.54,-39.6375 -0.6675,-6.60625 -2.4175,-13.085 -5.23,-19.28875 l 2.59375,-1.43625 c 3.02125,6.72 4.89875,13.7275 5.6075,20.8625 1.81625,18.2675 -4.47375,34.48875 -16.75625,42.86375 z m -58.22375,-81.055 -3.23,-3.36 c 7.74375,-10.38875 19.1475,-15.06875 31.80125,-13.3775 4.4175,0.59125 8.8075,1.955 13.0475,4.03375 l -0.53,3.89625 c -3.9025,-1.885 -7.94125,-3.10875 -12.00125,-3.62375 -11.5975,-1.46875 -22.02,2.88625 -29.0875,12.43125" /><path
       style="fill:#100f0d;fill-opacity:1;fill-rule:nonzero;stroke:none"
       id="path72"
       inkscape:connector-curvature="0"
       d="m 256.67095,198.08868 c -3.78375,0.0962 -7.645,-0.51875 -11.475,-1.84125 l 0.0987,-0.63625 c 3.77,1.30625 7.57125,1.91625 11.2975,1.825 18.47875,-0.4525 30.875,-18.38125 28.60875,-40.44 -0.8225,-8.0125 -3.47,-15.9625 -7.71375,-23.04375 l 0.39625,-0.33 c 4.30375,7.19375 6.98875,15.26375 7.82125,23.39625 2.29375,22.385 -10.28,40.58875 -29.03375,41.07 z M 216.5497,166.99493 c -1.72625,-4.29625 -2.9275,-8.78625 -3.5625,-13.33125 -3.6275,-25.96375 11.86875,-45.38625 33.21625,-42.8275 0.32875,0.04 0.6575,0.0837 0.985,0.13375 l 0.07,0.70875 c -0.3225,-0.0475 -0.645,-0.0913 -0.97,-0.13 -20.9925,-2.49125 -36.21875,16.6175 -32.66,42.145 0.6225,4.47 1.8025,8.885 3.4975,13.11125 l -0.57625,0.19" /><path
       style="fill:#100f0d;fill-opacity:1;fill-rule:nonzero;stroke:none"
       id="path74"
       inkscape:connector-curvature="0"
       d="m 345.6022,119.44743 c -11.4925,-4.96375 -21.86625,-19.3975 -26.05875,-36.96375 l 1.2975,-0.1825 c 3.9925,16.80375 13.89875,30.6425 24.89875,35.43625 l -0.1375,1.71 z m 17.8625,-0.7325 -0.58625,-1.62375 c 8.54125,-5.19 13.40375,-18.095 12.58625,-33.19125 -0.68625,-12.66 -5.075,-25.4025 -12.23375,-35.1025 l 0.61625,-1.27 c 7.45,10.1325 12.00875,23.41625 12.715,36.6025 0.8425,15.715 -4.21375,29.15625 -13.0975,34.585 z m -42.91375,-64.605 -1.325,-1.1325 c 3.94625,-15.19625 14.43625,-22.78375 26.27,-19.505 l 0.14625,1.92375 c -11.3125,-3.0925 -21.32375,4.19 -25.09125,18.71375" /><path
       style="fill:#100f0d;fill-opacity:1;fill-rule:nonzero;stroke:none"
       id="path76"
       inkscape:connector-curvature="0"
       d="m 353.20345,125.46993 -0.0525,-0.585 c 16.01625,1.045 26.90375,-16.45625 25.6525,-40.28375 l 0.36125,0.075 c 0.61125,11.69375 -1.63,22.18 -6.355,29.715 -4.78,7.6175 -11.69125,11.58625 -19.60625,11.07875 z m -24.2275,-15.4475 c -7.91625,-10.3725 -13.27125,-24.6075 -14.47,-38.905 -1.04,-12.39375 1.11125,-23.735 6.02,-31.7375 l 0.385,0.52875 c -4.83875,7.89625 -6.96,19.0825 -5.9375,31.3075 1.18,14.1025 6.45625,28.15 14.2625,38.39375 l -0.26,0.4125 z m 49.3525,-30.77 c -2.9025,-23.2275 -16.605,-44.70375 -32.675,-49.61 -0.90625,-0.27625 -1.82,-0.5 -2.715,-0.66375 l -0.08,-0.65375 c 0.90875,0.1675 1.83375,0.39375 2.75125,0.675 16.2775,4.99 30.14125,26.75125 33.075,50.265 l -0.35625,-0.0125" /><path
       style="fill:#100f0d;fill-opacity:1;fill-rule:nonzero;stroke:none"
       id="path78"
       inkscape:connector-curvature="0"
       d="m 363.2797,126.45868 -0.16375,-0.55125 c 2.265,-1.02625 4.385,-2.485 6.30625,-4.335 l 0.235,0.495 c -1.9425,1.8725 -4.08625,3.35125 -6.3775,4.39125 z m -23.92125,-3.29625 c -2.7225,-1.81375 -5.38625,-4.095 -7.91375,-6.7875 l 0.21375,-0.46375 c 2.495,2.66125 5.125,4.91875 7.81375,6.71375 l -0.11375,0.5375 z m 41.24875,-26.9725 -0.35375,-0.19875 c 0.3725,-3.525 0.4625,-7.2325 0.2675,-11.03125 l 0.3575,0.075 c 0.1975,3.84 0.10625,7.59 -0.27125,11.155 z m -66.49,-13.835 c -0.89375,-3.86 -1.5175,-7.80125 -1.84875,-11.70625 -0.045,-0.52625 -0.0837,-1.05 -0.11875,-1.57 l 0.47375,0.1175 c 0.0337,0.51375 0.0725,1.03125 0.11625,1.55125 0.32625,3.855 0.94125,7.74625 1.82375,11.55625 l -0.44625,0.05125 z m 65.45875,-6.1625 c -0.6325,-3.87 -1.55375,-7.74375 -2.74125,-11.52 l 0.32125,-0.1575 c 1.2,3.82 2.13125,7.7375 2.77,11.65375 l -0.35,0.02375 z M 320.3247,35.48618 319.95345,34.92993 c 1.89125,-2.63625 4.06625,-4.8075 6.45875,-6.4475 l 0.28625,0.63375 c -2.36125,1.6225 -4.5075,3.765 -6.37375,6.37 z m 38.915,-0.43125 c -2.54,-2.3975 -5.21,-4.39375 -7.9375,-5.9275 l 0.0287,-0.605 c 2.76125,1.555 5.46375,3.57875 8.03375,6.00875 l -0.125,0.52375" /><path
       style="fill:#100f0d;fill-opacity:1;fill-rule:nonzero;stroke:none"
       id="path80"
       inkscape:connector-curvature="0"
       d="m 352.6397,133.71493 c -8.13,-0.80875 -16.4,-5.435 -23.90125,-13.56625 -7.505,-8.13625 -13.7575,-19.45875 -17.46875,-31.87625 l 1.29375,-0.34 c 7.445,25.0025 23.75875,42.37625 39.95875,44.04375 0.49375,0.0513 0.99,0.0875 1.475,0.1075 l 0.1625,1.73625 c -0.5,-0.0188 -1.01125,-0.0538 -1.52,-0.105 z m 9.16375,-0.8425 -0.39625,-1.6825 c 14.2575,-4.2425 22.975,-22.7575 21.8225,-45.66125 -0.14375,-2.85125 -0.43625,-5.75125 -0.86875,-8.62125 l 1.04,-0.04125 c 0.445,2.9575 0.745,5.9475 0.89125,8.885 1.175,23.60125 -7.80125,42.7025 -22.48875,47.12125 z m -53.4975,-58.0175 c -0.24875,-1.71375 -0.45,-3.45125 -0.59875,-5.1625 -2.30375,-26.4375 7.5925,-47.1525 23.8875,-50.7875 l 0.58875,2.01875 c -15.71,3.5625 -25.24625,23.5675 -23.04,49.07 0.1425,1.65125 0.335,3.32875 0.57375,4.98375 l -1.41125,-0.1225 z m 71.5775,-9.31875 c -6.17375,-21.57875 -19.61625,-38.99625 -34.765,-43.8575 -1.595,-0.51125 -3.20125,-0.8775 -4.77125,-1.0875 l -0.29625,-1.99875 c 1.625,0.2225 3.285,0.60875 4.9375,1.145 15.65625,5.08125 29.5175,23.11625 35.8675,45.395 l -0.9725,0.40375" /><path
       style="fill:#100f0d;fill-opacity:1;fill-rule:nonzero;stroke:none"
       id="path82"
       inkscape:connector-curvature="0"
       d="m 327.37595,262.61868 c -5.81375,-0.7325 -10.95625,-5.9125 -13.00625,-13.26 l 0.62625,-0.27125 c 1.95875,7.035 6.8775,12.0025 12.445,12.7125 l -0.065,0.81875 z m 9.28375,-2.845 -0.31875,-0.68875 c 4.52125,-3.7125 7.06,-10.6075 6.52125,-17.65875 -0.4475,-5.87125 -2.86375,-11.1075 -6.68,-14.38375 l 0.315,-0.69375 c 3.9775,3.4225 6.49375,8.88625 6.95875,15.01 0.55875,7.34875 -2.08625,14.53625 -6.79625,18.415 z m -21.8325,-23.27625 -0.63625,-0.29625 c 1.88125,-7.3925 6.9675,-12.53375 12.8525,-13.095 l 0.0788,0.845 c -5.63,0.54625 -10.495,5.4725 -12.295,12.54625" /><path
       style="fill:#100f0d;fill-opacity:1;fill-rule:nonzero;stroke:none"
       id="path84"
       inkscape:connector-curvature="0"
       d="m 331.31345,264.40243 -0.0312,-0.26875 c 8.45375,-1.73 14.2325,-11.72 13.38875,-22.915 l 0.19625,-0.0225 c 0.4125,5.4775 -0.735,10.84625 -3.2425,15.16 -2.52,4.33375 -6.1675,7.195 -10.31125,8.04625 z m -12.3075,-3.86625 c -3.88875,-3.63875 -6.48,-9.305 -7.05875,-15.5275 -0.5,-5.35875 0.5175,-10.7225 2.855,-15.0575 l 0.18625,0.17125 c -2.3075,4.28 -3.31125,9.57125 -2.81875,14.85875 0.57125,6.1425 3.1275,11.73625 6.96375,15.32875 l -0.1275,0.22625 z m 25.3725,-21.78 c -1.7125,-10.46375 -9.05,-18.015 -17.27,-17.40875 -0.455,0.0325 -0.9125,0.0925 -1.36125,0.175 l -0.0413,-0.28125 c 0.45375,-0.0825 0.9175,-0.1425 1.37875,-0.17625 8.32625,-0.61 15.755,7.04125 17.48625,17.6375 l -0.1925,0.0538" /><path
       style="fill:#100f0d;fill-opacity:1;fill-rule:nonzero;stroke:none"
       id="path86"
       inkscape:connector-curvature="0"
       d="m 336.60095,263.48118 -0.0888,-0.24 c 1.19625,-0.80625 2.3175,-1.8 3.335,-2.95875 l 0.12875,0.20375 c -1.02875,1.1725 -2.1625,2.17875 -3.375,2.995 z m -12.38375,1.715 c -1.375,-0.4775 -2.71375,-1.17625 -3.9775,-2.0775 l 0.105,-0.24375 c 1.2475,0.89125 2.57,1.5825 3.92875,2.05625 l -0.0563,0.265 z m 21.51375,-18.7375 -0.19375,-0.0412 c 0.17875,-1.74375 0.2025,-3.52875 0.0688,-5.3075 l 0.195,-0.0237 c 0.135,1.8 0.11125,3.6075 -0.07,5.3725 z m -33.965,3.6275 c -0.4275,-1.59625 -0.725,-3.26375 -0.88375,-4.95625 -0.0213,-0.22625 -0.04,-0.45375 -0.0563,-0.68125 l 0.225,-0.0162 c 0.015,0.22125 0.0337,0.44875 0.055,0.6725 0.15625,1.67 0.45,3.3175 0.8725,4.895 l -0.2125,0.0863 z m 33.26625,-12.99 c -0.3675,-1.72875 -0.89125,-3.405 -1.555,-4.98375 l 0.17125,-0.12875 c 0.6725,1.5975 1.2025,3.29375 1.57375,5.04375 l -0.19,0.0687 z m -30.33,-8.8375 -0.17875,-0.18375 c 0.90375,-1.48125 1.9475,-2.805 3.10125,-3.93625 l 0.1375,0.2325 c -1.13625,1.1175 -2.1675,2.42625 -3.06,3.8875 z m 19.34375,-6.84375 c -1.3175,-0.64625 -2.6925,-1.08375 -4.0875,-1.295 l 0.0125,-0.28 c 1.41125,0.21625 2.80375,0.65875 4.1375,1.31375 l -0.0625,0.26125" /><path
       style="fill:#100f0d;fill-opacity:1;fill-rule:nonzero;stroke:none"
       id="path88"
       inkscape:connector-curvature="0"
       d="m 331.05345,268.37118 c -4.19125,0.69375 -8.3925,-0.38375 -12.1475,-3.1525 -3.69125,-2.72625 -6.72,-7.01125 -8.495,-12.075 l 0.61625,-0.33625 c 3.5925,10.27125 11.67875,16.11375 19.95875,14.7575 0.25625,-0.0425 0.51375,-0.0913 0.7675,-0.14625 l 0.0913,0.8 c -0.26,0.0575 -0.52625,0.10875 -0.79125,0.1525 z m 4.79875,-1.63125 -0.2175,-0.7475 c 7.6125,-4.02 12.2525,-14.24 11.4525,-25.055 -0.0987,-1.33625 -0.27875,-2.6725 -0.53625,-3.96625 l 0.56875,-0.19375 c 0.26375,1.335 0.44875,2.71125 0.55125,4.0925 0.82125,11.16125 -3.96375,21.71125 -11.81875,25.87 z m -26.84375,-19.15625 c -0.11625,-0.725 -0.21125,-1.46625 -0.28125,-2.20375 -1.0725,-11.3 3.575,-21.99125 11.39875,-26.3875 l 0.29,0.795 c -7.5575,4.25875 -12.045,14.59375 -11.0125,25.515 0.0675,0.7125 0.15875,1.43 0.27,2.13 l -0.665,0.15125 z m 36.1175,-15.58625 c -3.45,-9.045 -10.58875,-14.665 -18.31125,-14.14875 -0.79875,0.0538 -1.6,0.175 -2.38125,0.35875 l -0.15125,-0.84375 c 0.80625,-0.1875 1.63625,-0.3125 2.46125,-0.36625 7.98125,-0.52125 15.34875,5.2975 18.9075,14.6425 l -0.525,0.3575" /><path
       style="fill:#100f0d;fill-opacity:1;fill-rule:nonzero;stroke:none"
       id="path90"
       inkscape:connector-curvature="0"
       d="m 471.5722,291.61743 c -3.7175,11.4225 -10.8875,18.41 -18.05375,17.265 l 0.0588,-0.41 c 7.06625,1.1375 14.14125,-5.74875 17.8075,-17.01625 4.5275,-13.9125 2.425,-30.68125 -4.955,-37.81375 l 0.1225,-0.37 c 7.48,7.24 9.6075,24.24125 5.02,38.345" /><path
       style="fill:#100f0d;fill-opacity:1;fill-rule:nonzero;stroke:none"
       id="path92"
       inkscape:connector-curvature="0"
       d="m 475.00095,267.77743 0,-3.825 c -1.37,-6.065 -3.8425,-11.14625 -7.1975,-14.4475 -3.53,-3.47375 -7.67375,-4.69 -11.99125,-3.43375 l 0.0737,1.27375 c 4.155,-1.22 8.14625,-0.065 11.55125,3.27 3.8225,3.7425 6.4625,9.88375 7.56375,17.1625" /><path
       style="fill:#100f0d;fill-opacity:1;fill-rule:nonzero;stroke:none"
       id="path94"
       inkscape:connector-curvature="0"
       d="m 439.49595,295.03618 -0.73375,0.61125 c 1.71125,6.9475 4.74125,12.15125 8.7125,15.08125 1.87375,1.3825 3.875,2.18375 5.94625,2.39 l 0.16,-1.2275 c -1.99375,-0.2075 -3.92,-0.985 -5.7225,-2.3225 -3.815,-2.8325 -6.72375,-7.84875 -8.3625,-14.5325" /><path
       style="fill:#100f0d;fill-opacity:1;fill-rule:nonzero;stroke:none"
       id="path96"
       inkscape:connector-curvature="0"
       d="m 472.9072,292.76368 c -2.575,7.93 -6.825,14.195 -11.74125,17.205 l 0.1275,1.1325 c 5.09625,-3.135 9.5,-9.63875 12.1675,-17.8625 0.51375,-1.585 0.965,-3.2325 1.34,-4.8925 l -0.60125,-0.305 c -0.36125,1.60375 -0.79625,3.1925 -1.2925,4.7225" /><path
       style="fill:#959595;fill-opacity:1;fill-rule:nonzero;stroke:none"
       id="path98"
       inkscape:connector-curvature="0"
       d="m 447.27095,246.24993 -0.5925,-1.9 c -4.14125,4.0625 -7.65625,10.0225 -10.1175,17.21125 -3.2275,9.41875 -4.36875,20.16375 -3.2125,30.0825 l 1.3225,-0.64625 c -1.085,-9.38 -0.001,-19.53625 3.045,-28.445 2.325,-6.8 5.64375,-12.445 9.555,-16.3025" /><path
       style="fill:#959595;fill-opacity:1;fill-rule:nonzero;stroke:none"
       id="path100"
       inkscape:connector-curvature="0"
       d="m 475.00095,254.30368 0,-3.335 c -1.43125,-2.9475 -3.165,-5.50375 -5.17875,-7.53875 -1.815,-1.835 -3.795,-3.1825 -5.8875,-3.995 l -0.31875,2.075 c 1.9875,0.76 3.86875,2.0275 5.59625,3.7575 2.34,2.34625 4.28125,5.4325 5.78875,9.03625" /><path
       style="fill:#959595;fill-opacity:1;fill-rule:nonzero;stroke:none"
       id="path102"
       inkscape:connector-curvature="0"
       d="m 445.9947,315.18368 c -0.79875,-0.57625 -1.5775,-1.245 -2.315,-1.99 l -0.7775,1.84875 c 0.78,0.78125 1.60375,1.4825 2.4475,2.08375 7.9775,5.69462 17.65,2.3625 24.78,-8.0175 l -0.60375,-1.43625 c -6.78625,9.845 -15.97375,12.9625 -23.53125,7.51125" /><path
       style="fill:#5e6061;fill-opacity:1;fill-rule:nonzero;stroke:none"
       id="path104"
       inkscape:connector-curvature="0"
       d="m 437.1597,141.85493 c -8.4625,-0.8475 -16.41875,-11.39875 -19.575,-26.57125 l 0.27625,-0.10125 c 3.10625,14.9525 10.945,25.36125 19.28625,26.20625 9.94625,1.00625 17.4775,-12.26625 17.21125,-29.82375 l 0.24625,0.045 c 0.2675,17.795 -7.36375,31.25375 -17.445,30.245 z m 16.99875,-34.395 c -1.345,-16.45375 -9.20875,-30.90375 -18.6375,-33.39375 -9.5975,-2.535 -17.68125,7.855 -18.81625,24.675 l -0.2975,-0.14375 c 1.1525,-17.075 9.36,-27.615 19.10125,-25.03 9.56375,2.5375 17.53375,17.2 18.895,33.8825 l -0.245,0.01" /><path
       style="fill:#100f0d;fill-opacity:1;fill-rule:nonzero;stroke:none"
       id="path106"
       inkscape:connector-curvature="0"
       d="m 437.27345,146.58868 c -6.08125,-0.5375 -12.235,-5.67375 -16.84125,-14.27 l 0.60375,-0.9125 c 4.42625,8.28625 10.34625,13.2525 16.20375,13.79125 1.11625,0.1025 2.225,0.0475 3.2975,-0.16375 l 0.15625,1.375 c -1.1125,0.22125 -2.26375,0.28375 -3.42,0.18 z m 11.2425,-4.925 -0.4325,-1.18375 c 5.39125,-5.92375 8.455,-16.51625 8.285,-28.55 -0.1125,-7.91375 -1.5775,-15.77375 -4.27625,-22.78625 l 0.58625,-0.71625 c 2.79375,7.27875 4.3075,15.4325 4.42125,23.63375 0.17125,12.47125 -3.0025,23.45 -8.58375,29.6025 z m -33.5225,-24.255 c -0.98125,-4.315 -1.56375,-8.79375 -1.72375,-13.29875 -0.3375,-9.4425 1.1675,-18.015 4.3325,-24.6775 l 0.7325,1.1275 c -3.03875,6.40625 -4.485,14.6425 -4.16375,23.71375 0.1525,4.33125 0.7075,8.635 1.6475,12.7825 l -0.825,0.3525 z m 30.68125,-39.905 c -3.09375,-3.92125 -6.6375,-6.54 -10.2525,-7.53 -3.54,-0.97 -7.06875,-0.35125 -10.1875,1.8225 l -0.44625,-1.46375 c 3.245,-2.2525 6.9175,-2.88375 10.5975,-1.8625 3.755,1.0425 7.435,3.7775 10.645,7.86 l -0.35625,1.17375" /><path
       style="fill:#5e6061;fill-opacity:1;fill-rule:nonzero;stroke:none"
       id="path108"
       inkscape:connector-curvature="0"
       d="m 445.04345,152.67993 -0.42875,-2.1875 c 9.485,-4.67125 15.4875,-19.73625 15.26125,-37.925 -0.0487,-4.02375 -0.39875,-8.07875 -1.0425,-12.0625 l 1.1525,-0.3975 c 0.67125,4.1875 1.03625,8.45125 1.08625,12.67625 0.225,19.1025 -6.07375,34.9425 -16.02875,39.89625 z m -18.64625,-3.40125 c -10.105,-8.50875 -17.40625,-26.6275 -18.15,-46.07875 -0.0775,-2.025 -0.0825,-4.05375 -0.0163,-6.03 l 1.53875,0.6075 c -0.0638,1.8675 -0.06,3.78625 0.0113,5.70125 0.68875,18.39625 7.5725,35.575 17.13,43.68875 l -0.51375,2.11125 z m -8.23,-79.85625 -1.045,-2.23375 c 5.0075,-6.545 11.45875,-8.9925 18.0625,-7.0275 4.93125,1.46875 9.68625,5.3075 13.75875,11.0225 l -0.63875,1.87875 c -3.87125,-5.39875 -8.3825,-9.0125 -13.05875,-10.37625 -6.25125,-1.8225 -12.34875,0.52875 -17.07875,6.73625" /><path
       style="fill:#100f0d;fill-opacity:1;fill-rule:nonzero;stroke:none"
       id="path110"
       inkscape:connector-curvature="0"
       d="m 206.43595,34.17243 c -1.92625,-0.44625 -3.89375,-1.095 -5.85,-1.92875 l -0.007,0.7475 c 1.99375,0.84875 4,1.50625 5.9625,1.96 4.2375,0.9775 8.1925,0.99625 11.77125,0.0725 l -0.325,-0.76625 c -3.51125,0.9025 -7.39375,0.87875 -11.55125,-0.085" /><path
       style="fill:#100f0d;fill-opacity:1;fill-rule:nonzero;stroke:none"
       id="path112"
       inkscape:connector-curvature="0"
       d="m 231.0772,-8.64632 -0.55875,0.05 c 1.3975,4.07375 2.345,8.14375 2.82125,12.11 0.85375,7.11625 0.135,13.6025 -2.08125,18.81 l 0.5675,0.53125 c 2.255,-5.3075 2.9875,-11.915 2.12,-19.16375 -0.4825,-4.03875 -1.44625,-8.1875 -2.86875,-12.3375" /><path
       style="fill:#100f0d;fill-opacity:1;fill-rule:nonzero;stroke:none"
       id="path114"
       inkscape:connector-curvature="0"
       d="m 235.06345,-11.04507 -1.14,0 c 1.96375,5.24375 3.32625,10.605 3.9475,15.8825 2.83,24.01125 -10.43875,39.67875 -30.64875,35.16875 -19.71375,-4.39875 -39.7775,-26.41125 -46.29375,-51.05125 l -1.41875,0 c 6.82375,25.45125 27.57625,48.1075 47.9225,52.6 20.86125,4.60625 34.54125,-11.59125 31.635,-36.36875 -0.6325,-5.39 -2.0125,-10.8675 -4.00375,-16.23125" /><path
       style="fill:#2e2d2d;fill-opacity:1;fill-rule:nonzero;stroke:none"
       id="path116"
       inkscape:connector-curvature="0"
       d="m 133.94733,-11.04507 c 2.4595,7.77125 5.76362,15.47125 9.87487,22.995 l 2.5925,-0.8125 c -3.94437,-7.2625 -7.10562,-14.68875 -9.444,-22.1825 l -3.02337,0" /><path
       style="fill:#2e2d2d;fill-opacity:1;fill-rule:nonzero;stroke:none"
       id="path118"
       inkscape:connector-curvature="0"
       d="m 254.31845,-11.04507 -2.14625,0 c 2.3675,7.1925 3.97375,14.40875 4.74125,21.44375 3.9375,36.11125 -15.7425,60.36625 -46.30625,54.7125 -11.6625,-2.15625 -23.95625,-8.395 -35.56125,-18.27 l -1.17625,2.37875 c 12.145,10.265 24.985,16.71875 37.14375,18.91125 31.7775,5.72875 52.1925,-19.55875 48.14,-57.0775 -0.78375,-7.24625 -2.42125,-14.6825 -4.835,-22.09875" /><path
       style="fill:#100f0d;fill-opacity:1;fill-rule:nonzero;stroke:none"
       id="path120"
       inkscape:connector-curvature="0"
       d="m 128.7832,242.51493 c -1.30125,0.10625 -2.62937,0.11 -3.94862,0.002 l -0.005,-0.41625 c 1.294,0.10375 2.59725,0.10375 3.87412,0 2.76563,-0.2275 5.34913,-0.93375 7.6835,-2.09 l 0.2285,0.36875 c -2.38025,1.1825 -5.01362,1.90125 -7.833,2.135 z m -18.146,-5.5775 c -3.58437,-2.76625 -6.391,-6.32875 -8.09275,-10.2975 l 0.44188,-0.1125 c 1.6665,3.88875 4.41462,7.38125 7.92687,10.095 l -0.276,0.315 z m 34.925,-5.96125 -0.39375,-0.18875 c 1.42875,-3.365 1.81875,-7.15875 1.12875,-10.98875 -0.38375,-2.12875 -1.08875,-4.21875 -2.09625,-6.215 l 0.37625,-0.14125 c 1.0275,2.03375 1.745,4.165 2.135,6.335 0.7025,3.9025 0.305,7.76875 -1.15,11.19875 z m -43.57875,-18.48125 -0.46387,-0.17375 c 1.16312,-3.83875 3.50787,-7.13625 6.76275,-9.52375 l 0.32662,0.36125 c -3.189,2.3425 -5.48587,5.57375 -6.6255,9.33625 z m 32.1885,-9.5175 c -3.72175,-2.215 -7.897,-3.49125 -12.07962,-3.67625 l -0.0523,-0.43125 c 4.26712,0.19 8.52537,1.495 12.31837,3.755 l -0.1865,0.3525" /><path
       style="fill:#100f0d;fill-opacity:1;fill-rule:nonzero;stroke:none"
       id="path122"
       inkscape:connector-curvature="0"
       d="m 129.45858,246.03368 c -14.6265,1.285 -29.36675,-9.21375 -32.350627,-23.65 -1.731375,-8.37875 0.8315,-16.28375 6.976627,-21.56875 l 0.708,0.6925 c -5.927252,5.1075 -8.400377,12.7375 -6.733002,20.82625 2.874502,13.94125 17.101622,24.1 31.240252,22.875 13.6035,-1.18 22.43112,-12.56 20.10737,-25.5725 -2.355,-13.19625 -15.40125,-23.87 -29.54287,-23.61625 -0.76763,0.015 -1.53663,0.0613 -2.28563,0.13875 l -0.24712,-0.87 c 0.77537,-0.0787 1.57087,-0.125 2.36625,-0.13875 14.62887,-0.24625 28.10437,10.80375 30.53312,24.44125 2.39375,13.445 -6.71875,25.2075 -20.77237,26.4425" /><path
       style="fill:#100f0d;fill-opacity:1;fill-rule:nonzero;stroke:none"
       id="path124"
       inkscape:connector-curvature="0"
       d="m 132.19295,260.28993 c -8.07712,0.87375 -16.521,-0.51125 -24.4205,-4.0825 l 0.72325,-1.50875 c 7.55513,3.4375 15.6415,4.785 23.38525,3.965 20.85125,-2.205 34.21375,-19.80375 30.80125,-39.725 -1.93,-11.25625 -8.83,-21.755 -19.1825,-28.8825 l 0.815,-1.335 c 10.7775,7.45375 17.95,18.40625 19.95,30.135 3.53625,20.74 -10.35875,39.0875 -32.07175,41.43375 z M 88.693453,241.26618 c -4.26025,-5.46125 -7.148,-11.52125 -8.5445,-17.99125 -5.13625,-23.7975 11.932625,-43.52 36.615247,-43.415 1.91988,0.008 3.86375,0.13875 5.77738,0.38875 l 0.0913,1.7375 c -1.8315,-0.23375 -3.69188,-0.355 -5.52875,-0.35625 -23.575252,-0.0437 -39.847627,18.8175 -34.967752,41.54125 1.327625,6.18 4.077125,11.975 8.137625,17.19875 l -1.5805,0.89625" /><path
       style="fill:#7a7b7c;fill-opacity:1;fill-rule:nonzero;stroke:none"
       id="path126"
       inkscape:connector-curvature="0"
       d="m 399.1972,220.11118 c 0.19625,4.32375 -1.91625,8.0425 -4.75125,8.32625 -2.86875,0.2875 -5.405,-3.045 -5.63,-7.46625 -0.22625,-4.4425 1.96625,-8.21375 4.8675,-8.40375 2.8625,-0.18625 5.3175,3.2 5.51375,7.54375" /><path
       style="fill:#100f0d;fill-opacity:1;fill-rule:nonzero;stroke:none"
       id="path128"
       inkscape:connector-curvature="0"
       d="m 419.5147,178.34368 c 0.075,2.23 -0.955,4.03125 -2.31125,4.02875 -1.365,-0.001 -2.54375,-1.8275 -2.62625,-4.08125 -0.0825,-2.26 0.97,-4.07375 2.34,-4.0475 1.3625,0.0288 2.52125,1.86625 2.5975,4.1" /><path
       style="fill:#464648;fill-opacity:1;fill-rule:nonzero;stroke:none"
       id="path130"
       inkscape:connector-curvature="0"
       d="m 260.6197,221.24868 c 0.51125,4.28 -2.01875,7.9675 -5.69125,8.25375 -3.7175,0.29375 -7.2125,-3 -7.76625,-7.37625 -0.55625,-4.39625 2.07375,-8.13625 5.835,-8.33125 3.715,-0.1925 7.10875,3.1525 7.6225,7.45375" /><path
       style="fill:#5e6061;fill-opacity:1;fill-rule:nonzero;stroke:none"
       id="path132"
       inkscape:connector-curvature="0"
       d="m 336.4572,188.87743 c 0.17625,2.2625 -1.0125,4.1175 -2.66375,4.15125 -1.6625,0.0325 -3.1675,-1.7925 -3.3525,-4.08125 -0.185,-2.29375 1.02875,-4.1625 2.7,-4.16875 1.66,-0.006 3.14125,1.83125 3.31625,4.09875" /><path
       style="fill:#464648;fill-opacity:1;fill-rule:nonzero;stroke:none"
       id="path134"
       inkscape:connector-curvature="0"
       d="m 158.7797,90.80743 c 0.875,5.39125 -2.485,9.2525 -7.56875,8.64375 -5.1575,-0.61875 -10.16112,-5.5975 -11.11125,-11.14125 -0.95612,-5.575 2.56638,-9.48125 7.80125,-8.70875 5.15625,0.7625 9.9975,5.78625 10.87875,11.20625" /><path
       style="fill:#b1b1b0;fill-opacity:1;fill-rule:nonzero;stroke:none"
       id="path136"
       inkscape:connector-curvature="0"
       d="m 459.66845,203.37743 c 0.0337,2.5775 -1.1,4.7375 -2.54125,4.83125 -1.4525,0.0925 -2.67125,-1.9425 -2.7125,-4.555 -0.0412,-2.62 1.11625,-4.7975 2.57625,-4.85625 1.45,-0.06 2.64375,1.995 2.6775,4.58" /></g></svg>