<?xml version="1.0" encoding="UTF-8" standalone="no"?>
<!-- Created with Inkscape (http://www.inkscape.org/) -->

<svg
   xmlns:dc="http://purl.org/dc/elements/1.1/"
   xmlns:cc="http://creativecommons.org/ns#"
   xmlns:rdf="http://www.w3.org/1999/02/22-rdf-syntax-ns#"
   xmlns:svg="http://www.w3.org/2000/svg"
   xmlns="http://www.w3.org/2000/svg"
   xmlns:sodipodi="http://sodipodi.sourceforge.net/DTD/sodipodi-0.dtd"
   xmlns:inkscape="http://www.inkscape.org/namespaces/inkscape"
   version="1.1"
   width="1557.3816"
   height="1019.4141"
   id="svg2"
   xml:space="preserve"
   inkscape:version="0.48.5 r10040"
   sodipodi:docname="frame.svg"><sodipodi:namedview
     pagecolor="#ffffff"
     bordercolor="#666666"
     borderopacity="1"
     objecttolerance="10"
     gridtolerance="10"
     guidetolerance="10"
     inkscape:pageopacity="0"
     inkscape:pageshadow="2"
     inkscape:window-width="1920"
     inkscape:window-height="1178"
     id="namedview58"
     showgrid="false"
     inkscape:zoom="0.53400705"
     inkscape:cx="636.91716"
     inkscape:cy="614.23627"
     inkscape:window-x="-8"
     inkscape:window-y="-8"
     inkscape:window-maximized="1"
     inkscape:current-layer="svg2"
     fit-margin-top="0"
     fit-margin-left="0"
     fit-margin-right="0"
     fit-margin-bottom="0" /><metadata
     id="metadata8"><rdf:RDF><cc:Work
         rdf:about=""><dc:format>image/svg+xml</dc:format><dc:type
           rdf:resource="http://purl.org/dc/dcmitype/StillImage" /><dc:title /></cc:Work></rdf:RDF></metadata><defs
     id="defs6"><clipPath
       id="clipPath16"><path
         d="M 0,500 348,500 348,0 0,0 0,500 z"
         inkscape:connector-curvature="0"
         id="path18" /></clipPath></defs><g
     id="g3051"
     transform="matrix(3.640267,0,0,3.640267,-11.928928,-6.9392578)"><g
       transform="matrix(1.25,0,0.02998824,-0.75521932,428.89702,156.334)"
       id="g20"><path
         d="m 0,0 c 0.533,-23.295 -2.486,-46.531 -1.805,-66.866 1.035,-30.341 -2.754,-61.42 -1.185,-89.541 -0.502,-0.976 -1.48,-2.28 -2.043,-2.782 -8.612,10.658 -17.227,21.134 -25.484,31.969 3.729,98.449 -0.74,197.107 -0.8,295.823 8.704,9.38 18.381,18.736 28.151,27.055 0.266,-13.054 0.59,-26.373 1.063,-39.221 C -0.267,105.228 -1.243,52.126 0,0"
         inkscape:connector-curvature="0"
         id="path22"
         style="fill:#a54b08;fill-opacity:1;fill-rule:nonzero;stroke:none" /></g><g
       transform="matrix(1.25,0,0.02998824,-0.75521932,382.92225,252.81696)"
       id="g24"><path
         d="m 0,0 c 1.184,-0.531 2.012,0.802 3.198,0.535 8.257,-10.835 16.872,-21.311 25.484,-31.97 -7.37,-1.419 -17.729,-1.36 -27.29,-1.747 -32.443,-1.36 -67.431,0.148 -102.564,-1.775 -62.605,-3.374 -126.985,-3.581 -182.1,-3.581 7.461,13.439 19.21,23.737 27.527,36.585 C -170.526,-3.227 -84.951,-1.6 0,0"
         inkscape:connector-curvature="0"
         id="path26"
         style="fill:#a54b08;fill-opacity:1;fill-rule:nonzero;stroke:none" /></g><g
       transform="matrix(1.25,0,0.02998824,-0.75521932,394.80636,29.002135)"
       id="g28"><path
         d="m 0,0 c 0.061,-98.716 4.529,-197.373 0.801,-295.822 -1.187,0.266 -2.015,-1.067 -3.198,-0.535 1.273,9.681 -0.327,19.301 -0.977,28.921 -3.021,43.125 1.244,86.727 -0.8,130.269 -0.888,18.646 -3.669,39.751 -2.663,60.116 1.183,24.035 -0.739,49.11 0.798,72.639 0.474,2.575 3.851,1.806 4.353,4.472 C -0.946,0.06 -0.475,0.028 0,0"
         inkscape:connector-curvature="0"
         id="path30"
         style="fill:#823a09;fill-opacity:1;fill-rule:nonzero;stroke:none" /></g><g
       transform="matrix(1.25,0,0.02998824,-0.75521932,57.713212,24.979686)"
       id="g36"><path
         d="m 0,0 c -11.014,8.761 -21.285,18.472 -33.096,26.701 -0.117,0.356 -0.237,0.711 -0.352,1.065 0.176,0.149 0.323,0.325 0.502,0.473 32.5,3.789 66.036,1.629 99.337,2.161 38.688,-3.225 77.435,-0.977 116.123,-1.568 25.454,-1.066 69.291,-2.753 97.914,-4.559 6.572,-0.414 13.381,0.977 17.526,-2.544 -9.77,-8.319 -19.448,-17.674 -28.152,-27.055 -0.474,0.028 -0.946,0.059 -1.685,0.059 C 179.199,0.594 89.834,-1.062 0,0"
         inkscape:connector-curvature="0"
         id="path38"
         style="fill:#a54b08;fill-opacity:1;fill-rule:nonzero;stroke:none" /></g><g
       transform="matrix(1.25,0,0.02998824,-0.75521932,57.713212,24.979686)"
       id="g52"><path
         d="m 0,0 c 89.834,-1.062 179.199,0.594 268.117,-5.267 -0.503,-2.666 -3.88,-1.896 -4.354,-4.471 -2.604,-0.149 -4.616,-0.268 -7.281,0.032 -20.364,2.395 -45.643,2.158 -68.198,3.549 -47.153,2.93 -115.292,0 -163.125,1.185 C 15.272,-4.735 5.563,-4.469 -0.773,-6.157 -1.542,-4.113 -0.238,-2.041 0,0"
         inkscape:connector-curvature="0"
         id="path54"
         style="fill:#562606;fill-opacity:1;fill-rule:nonzero;stroke:none" /></g><g
       transform="matrix(1.25,0,0.02998824,-0.75521932,17.144304,4.8144217)"
       id="g56"><path
         d="m 0,0 c 11.811,-8.229 22.082,-17.94 33.096,-26.701 -0.239,-2.041 -1.542,-4.113 -0.774,-6.157 4.62,-98.833 10.36,-198.321 12.434,-297.48 -8.318,-12.848 -20.067,-23.145 -27.527,-36.585 -1.097,-0.061 -2.192,0.118 -3.08,0.831 -1.124,28.267 -0.532,62.426 -3.756,91.491 -1.542,13.705 -0.271,28.034 -1.514,42.18 -3.818,43.778 -1.361,88.772 -4.882,131.871 -2.338,28.504 -1.864,55.558 -4.174,82.525 C -0.68,-12.078 -0.472,-6.01 0,0"
         inkscape:connector-curvature="0"
         id="path58"
         style="fill:#a54b08;fill-opacity:1;fill-rule:nonzero;stroke:none" /></g><g
       transform="matrix(1.25,0,0.02998824,-0.75521932,3.6403026,5.7525552)"
       id="g60"><path
         d="m 0,0 c 3.463,0.738 6.72,2.812 10.421,2.307 0.115,-0.354 0.235,-0.709 0.352,-1.065 -0.471,-6.01 -0.679,-12.078 -0.176,-18.025 2.309,-26.967 1.836,-54.021 4.174,-82.525 3.52,-43.099 1.063,-88.092 4.881,-131.871 1.244,-14.146 -0.028,-28.474 1.514,-42.179 3.225,-29.066 2.633,-63.225 3.757,-91.492 -3.05,-0.446 -5.978,0.621 -8.97,1.007 -2.039,36.763 -2.248,73.377 -6.068,110.496 -1.033,10.388 -0.619,20.839 -0.592,31.523 0,32.65 -4.677,66.186 -4.408,98.36 C 5.24,-82.142 -0.502,-40.966 0,0"
         inkscape:connector-curvature="0"
         id="path62"
         style="fill:#823a09;fill-opacity:1;fill-rule:nonzero;stroke:none" /></g><g
       transform="matrix(1.25,0,0.02998824,-0.75521932,392.69382,28.959311)"
       id="g64"><path
         d="m 0,0 c -0.503,-2.663 -3.88,-1.894 -4.354,-4.469 -2.604,-0.148 -4.616,-0.267 -7.282,0.03 -20.363,2.398 -45.641,2.161 -68.197,3.551 -47.152,2.931 -115.291,0 -163.124,1.186 -9.886,0.233 -19.595,0.503 -25.931,-1.186 -0.769,2.041 0.535,4.114 0.772,6.158 C -178.283,4.204 -88.919,5.863 0,0"
         inkscape:connector-curvature="0"
         id="path66"
         style="fill:#562606;fill-opacity:1;fill-rule:nonzero;stroke:none" /></g><g
       transform="matrix(1.25,0,0.02998824,-0.75521932,394.79774,29.002135)"
       id="g68"><path
         d="m 0,0 c 0.061,-98.719 4.529,-197.376 0.802,-295.825 -1.187,0.266 -2.015,-1.067 -3.198,-0.532 1.273,9.678 -0.327,19.299 -0.976,28.919 -3.021,43.127 1.243,86.726 -0.802,130.268 -0.887,18.648 -3.668,39.754 -2.662,60.119 1.183,24.035 -0.739,49.107 0.798,72.639 0.474,2.575 3.85,1.806 4.353,4.469 C -0.945,0.057 -0.474,0.028 0,0"
         inkscape:connector-curvature="0"
         id="path70"
         style="fill:#823a09;fill-opacity:1;fill-rule:nonzero;stroke:none" /></g><path
       id="path78"
       d="M 79.15625,1.90625 C 58.394858,1.9058724 37.743688,2.225487 17.375,3.65625 17.148032,3.7687777 16.941908,3.8889828 16.71875,4 c 0.133074,0.2688581 0.268146,0.5443972 0.40625,0.8125 -0.77011,4.5358473 -1.19913,9.132955 -0.75,13.625 2.080177,20.362978 0.682285,40.785728 2.75,62.3125 3.108757,32.54995 -1.304675,66.53176 2.15625,99.59375 1.128166,10.68635 -0.891511,21.49347 0.625,31.84375 3.160772,21.95347 1.380147,47.74672 1.9375,69.09375 1.088618,0.53848 2.44073,0.70085 3.8125,0.65625 68.8925,0 149.39391,-0.17291 227.75,-2.71875 43.97398,-1.4538 87.65669,-0.31589 128.25,-1.34375 11.96295,-0.29453 24.90233,-0.23782 34.15625,-1.3125 0.72006,-0.37912 1.99948,-1.35666 2.65625,-2.09375 -1.11795,-21.23752 4.54012,-44.7109 4.15625,-67.625 -0.24144,-15.35739 4.2177,-32.90717 4.25,-50.5 0.009,-39.36656 2.85314,-79.483734 2.09375,-118.15625 C 430.76152,28.484442 430.7535,18.421133 430.8125,8.5625 425.73818,5.9011071 417.17124,6.9711765 408.96875,6.65625 373.24407,5.2945896 318.503,4.024569 286.71875,3.21875 238.3751,2.7754363 189.85698,4.4683427 141.59375,2.03125 120.77454,2.2317607 99.917642,1.9066276 79.15625,1.90625 z m -21.4375,23.0625 c 112.25929,0.805064 223.99707,-0.427848 334.96875,4 0.925,0 1.53337,0.0094 2.125,0.03125 -2.88538,74.55374 -0.26269,149.05567 -7.875,223.40625 -1.47577,-0.20088 -2.56729,0.81029 -4.03125,0.40625 -106.23798,1.20835 -213.23576,2.43241 -319.71875,1.46875 0.381104,-74.88679 -3.815168,-150.01339 -6.625,-224.65625 -0.900044,-1.541403 0.798704,-3.112582 1.15625,-4.65625 z"
       style="fill:#ce7234;fill-opacity:1;fill-rule:nonzero;stroke:none"
       inkscape:connector-curvature="0" /><g
       transform="matrix(1.25,0,0.02998824,-0.75521932,224.02528,13.87192)"
       id="g108"><path
         d="m 0,0 c -17.955,0.204 -39.929,1.383 -55.412,0 -32.129,-2.873 -65.567,0.637 -97.324,0 3.102,-22.903 1.394,-46.151 3.55,-68.907 1.124,-11.845 2.448,-23.669 2.841,-35.52 0.374,-11.218 0.166,-22.53 0,-34.103 -0.328,-23.541 2.842,-47.806 2.842,-72.457 l 0,-36.943 c 0,-11.88 -0.651,-24.09 0,-35.518 0.312,-5.458 2.376,-10.909 2.841,-16.339 1.092,-12.695 0.229,-25.323 1.422,-37.652 53.069,4.341 130.484,2.841 196.783,2.841 31.274,0 64.754,3.946 92.35,1.417 -0.208,31.584 3.001,57.068 2.842,85.962 -0.24,44.529 -1.015,89.038 -2.131,130.715 -0.292,10.899 -0.656,21.894 0,32.677 1.547,25.442 0.5,52.538 0.711,78.143 C 106.274,-2.106 54.462,-0.628 0,0 m 154.868,-2.134 c -2.662,-106.201 1.258,-228.99 -1.422,-335.305 -1.533,-1.499 -2.095,0.409 -3.553,0.709 -2.688,0.549 -9.404,-0.133 -14.917,0 -12.868,0.306 -25.256,-0.762 -38.363,-0.709 -5.96,0.021 -11.929,-0.897 -17.759,-0.712 -7.071,0.224 -13.884,1.421 -21.311,1.421 -21.839,0 -44.666,2.406 -67.49,0.713 -9.681,-0.724 -19.691,-2.712 -29.838,-2.846 -26.896,-0.346 -54.879,0.474 -81.694,-0.711 -5.839,-0.255 -11.993,-2.712 -17.761,0 0.498,-2.623 -1.125,-3.133 -3.552,-2.838 -2.458,12.718 0.079,28.732 -0.711,43.337 -0.301,5.584 -1.893,10.608 -2.129,15.627 -0.507,10.677 0.398,22.146 -0.713,34.096 -1.124,12.141 -1.418,24.338 -1.418,36.943 0,24.663 -1.055,49.834 -1.423,73.879 -0.177,11.636 -0.472,23.194 -1.419,35.519 -1.853,24.063 -3.868,44.908 -4.265,71.038 -0.077,5.182 0.501,11.672 0,17.762 -0.603,7.374 -3.098,13.67 0,17.053 8.14,2.337 22.666,0.776 35.521,0.708 12.799,-0.068 26.484,-1.419 39.784,-1.419 79.548,0 164.113,0.639 234.433,-4.265"
         inkscape:connector-curvature="0"
         id="path110"
         style="fill:#cca136;fill-opacity:1;fill-rule:evenodd;stroke:none" /></g></g></svg>