<?xml version="1.0" encoding="UTF-8" standalone="no"?>
<!-- Created with Inkscape (http://www.inkscape.org/) -->

<svg
   xmlns:dc="http://purl.org/dc/elements/1.1/"
   xmlns:cc="http://creativecommons.org/ns#"
   xmlns:rdf="http://www.w3.org/1999/02/22-rdf-syntax-ns#"
   xmlns:svg="http://www.w3.org/2000/svg"
   xmlns="http://www.w3.org/2000/svg"
   xmlns:sodipodi="http://sodipodi.sourceforge.net/DTD/sodipodi-0.dtd"
   xmlns:inkscape="http://www.inkscape.org/namespaces/inkscape"
   width="224.03125"
   height="224.03125"
   id="svg6668"
   version="1.1"
   inkscape:version="0.48.5 r10040"
   sodipodi:docname="gear-15T.svg">
  <sodipodi:namedview
     id="base"
     pagecolor="#ffffff"
     bordercolor="#666666"
     borderopacity="1.0"
     inkscape:pageopacity="0.0"
     inkscape:pageshadow="2"
     inkscape:zoom="2.8"
     inkscape:cx="-75.523914"
     inkscape:cy="85.702784"
     inkscape:document-units="px"
     inkscape:current-layer="layer1"
     showgrid="false"
     inkscape:window-width="1920"
     inkscape:window-height="1178"
     inkscape:window-x="-8"
     inkscape:window-y="-8"
     inkscape:window-maximized="1"
     fit-margin-top="0"
     fit-margin-left="0"
     fit-margin-right="0"
     fit-margin-bottom="0" />
  <defs
     id="defs6670" />
  <metadata
     id="metadata6673">
    <rdf:RDF>
      <cc:Work
         rdf:about="">
        <dc:format>image/svg+xml</dc:format>
        <dc:type
           rdf:resource="http://purl.org/dc/dcmitype/StillImage" />
        <dc:title />
      </cc:Work>
    </rdf:RDF>
  </metadata>
  <g
     id="layer1"
     inkscape:groupmode="layer"
     inkscape:label="Layer 1"
     transform="translate(-347.97597,-320.95501)">
    <path
       style="fill:#066d57;fill-opacity:1;stroke:none"
       d="M 105.78125 0 L 93.53125 1.28125 L 90.71875 15.21875 L 90.875 16.71875 L 93.34375 28.15625 L 76.5 33.59375 L 71.71875 22.90625 L 70.9375 21.59375 L 60.46875 11.96875 L 49.78125 18.09375 L 52.9375 31.9375 L 53.6875 33.28125 L 60.625 42.71875 L 47.4375 54.5 L 38.71875 46.65625 L 37.46875 45.78125 L 23.9375 41.21875 L 16.6875 51.15625 L 25.25 62.53125 L 26.46875 63.4375 L 36.65625 69.25 L 29.46875 85.375 L 18.28125 81.71875 L 16.78125 81.4375 L 2.5625 82.71875 L 0 94.71875 L 12.46875 101.65625 L 13.9375 102 L 25.65625 103.1875 L 25.65625 120.8125 L 13.9375 122.03125 L 12.46875 122.34375 L 0 129.3125 L 2.5625 141.28125 L 16.78125 142.59375 L 18.28125 142.28125 L 29.46875 138.65625 L 36.65625 154.75 L 26.46875 160.59375 L 25.25 161.5 L 16.6875 172.875 L 23.9375 182.78125 L 37.46875 178.21875 L 38.71875 177.34375 L 47.4375 169.5 L 60.625 181.3125 L 53.6875 190.75 L 52.9375 192.0625 L 49.78125 205.9375 L 60.46875 212.0625 L 70.9375 202.40625 L 71.71875 201.125 L 76.5 190.4375 L 93.34375 195.875 L 90.875 207.3125 L 90.71875 208.8125 L 93.53125 222.75 L 105.78125 224.03125 L 111.40625 210.96875 L 111.59375 209.46875 L 111.5625 197.78125 L 129.1875 195.9375 L 131.625 207.375 L 132.125 208.8125 L 140.34375 220.40625 L 152.09375 216.625 L 151.90625 202.40625 L 151.4375 200.96875 L 146.625 190.3125 L 161.96875 181.5 L 168.875 190.96875 L 169.90625 192.0625 L 182.1875 199.34375 L 191.34375 191.125 L 185.375 178.21875 L 184.375 177.09375 L 175.625 169.28125 L 186.03125 155.03125 L 196.1875 160.90625 L 197.59375 161.5 L 211.78125 163.15625 L 216.78125 151.96875 L 206.0625 142.59375 L 204.65625 141.96875 L 193.5 138.375 L 197.15625 121.125 L 208.84375 122.375 L 210.375 122.34375 L 224.03125 118.15625 L 224.03125 105.875 L 210.375 101.65625 L 208.84375 101.65625 L 197.15625 102.90625 L 193.5 85.65625 L 204.65625 82.0625 L 206.0625 81.4375 L 216.78125 72.0625 L 211.78125 60.875 L 197.59375 62.53125 L 196.1875 63.125 L 186.03125 69 L 175.625 54.75 L 184.375 46.9375 L 185.375 45.78125 L 191.34375 32.90625 L 182.1875 24.6875 L 169.90625 31.9375 L 168.875 33.0625 L 161.96875 42.53125 L 146.625 33.71875 L 151.4375 23.0625 L 151.90625 21.59375 L 152.09375 7.40625 L 140.34375 3.625 L 132.125 15.21875 L 131.625 16.65625 L 129.1875 28.09375 L 111.5625 26.25 L 111.59375 14.5625 L 111.40625 13.0625 L 105.78125 0 z M 104.90625 42.9375 L 104.90625 78.25 C 100.64983 79.141388 96.677642 80.822653 93.15625 83.125 L 68.1875 58.15625 C 78.41075 49.8286 91.05901 44.34302 104.90625 42.9375 z M 119.125 42.9375 C 132.96147 44.34803 145.59118 49.83481 155.8125 58.15625 L 130.84375 83.125 C 127.32311 80.823143 123.38039 79.141532 119.125 78.25 L 119.125 42.9375 z M 58.15625 68.21875 L 83.125 93.1875 C 80.829173 96.70357 79.140093 100.65821 78.25 104.90625 L 42.9375 104.90625 C 44.34214 91.06761 49.8373 78.43866 58.15625 68.21875 z M 165.875 68.21875 C 174.19279 78.43603 179.65719 91.07436 181.0625 104.90625 L 145.75 104.90625 C 144.8611 100.66388 143.19735 96.700061 140.90625 93.1875 L 165.875 68.21875 z M 112 102.40625 C 117.30322 102.40625 121.625 106.69678 121.625 112 C 121.625 117.30322 117.30322 121.625 112 121.625 C 106.69678 121.625 102.40625 117.30322 102.40625 112 C 102.40625 106.69678 106.69678 102.40625 112 102.40625 z M 42.9375 119.125 L 78.25 119.125 C 79.139947 123.37409 80.828675 127.32692 83.125 130.84375 L 58.15625 155.8125 C 49.83481 145.59119 44.34802 132.96148 42.9375 119.125 z M 145.75 119.125 L 181.0625 119.125 C 179.65148 132.95286 174.16215 145.56331 165.84375 155.78125 L 140.90625 130.84375 C 143.19785 127.33042 144.86124 123.36842 145.75 119.125 z M 93.15625 140.90625 C 96.67852 143.20992 100.64836 144.88946 104.90625 145.78125 L 104.90625 181.09375 C 91.05901 179.68689 78.41075 174.20835 68.1875 165.875 L 93.15625 140.90625 z M 130.84375 140.90625 L 155.8125 165.875 C 145.59118 174.20213 132.96147 179.68187 119.125 181.09375 L 119.125 145.78125 C 123.38184 144.88931 127.32224 143.20942 130.84375 140.90625 z "
       transform="translate(347.97597,320.95501)"
       id="path6683" />
  </g>
</svg>
