<?xml version="1.0" encoding="UTF-8" standalone="no"?>
<!-- Created with Inkscape (http://www.inkscape.org/) -->

<svg
   xmlns:dc="http://purl.org/dc/elements/1.1/"
   xmlns:cc="http://creativecommons.org/ns#"
   xmlns:rdf="http://www.w3.org/1999/02/22-rdf-syntax-ns#"
   xmlns:svg="http://www.w3.org/2000/svg"
   xmlns="http://www.w3.org/2000/svg"
   xmlns:sodipodi="http://sodipodi.sourceforge.net/DTD/sodipodi-0.dtd"
   xmlns:inkscape="http://www.inkscape.org/namespaces/inkscape"
   width="158.8125"
   height="158.8125"
   id="svg4875"
   version="1.1"
   inkscape:version="0.48.5 r10040"
   sodipodi:docname="gear-10T.svg">
  <sodipodi:namedview
     id="base"
     pagecolor="#ffffff"
     bordercolor="#666666"
     borderopacity="1.0"
     inkscape:pageopacity="0.0"
     inkscape:pageshadow="2"
     inkscape:zoom="4"
     inkscape:cx="94.9096"
     inkscape:cy="5.9895307"
     inkscape:document-units="px"
     inkscape:current-layer="layer1"
     showgrid="false"
     inkscape:window-width="1920"
     inkscape:window-height="1178"
     inkscape:window-x="-8"
     inkscape:window-y="-8"
     inkscape:window-maximized="1"
     fit-margin-top="0"
     fit-margin-left="0"
     fit-margin-right="0"
     fit-margin-bottom="0" />
  <defs
     id="defs4877" />
  <metadata
     id="metadata4880">
    <rdf:RDF>
      <cc:Work
         rdf:about="">
        <dc:format>image/svg+xml</dc:format>
        <dc:type
           rdf:resource="http://purl.org/dc/dcmitype/StillImage" />
        <dc:title />
      </cc:Work>
    </rdf:RDF>
  </metadata>
  <g
     id="layer1"
     inkscape:groupmode="layer"
     inkscape:label="Layer 1"
     transform="translate(-298.01848,-370.62217)">
    <path
       style="fill:#099475;fill-opacity:1;stroke:none"
       d="M 59.96875,0.0625 49.25,3.625 49.03125,18.71875 49.375,19.6875 54.96875,30.90625 41.6875,40.84375 33.03125,31.90625 32.25,31.25 18.21875,26.8125 l -6.625,9.375 8.46875,12.34375 0.84375,0.5625 10.90625,5.6875 -5.0625,16.0625 -12.09375,-2 -1.03125,-0.03125 -13.875,4.875 0,11.5625 13.875,4.875 1.03125,-0.03125 12.09375,-2 5.0625,16.0625 -10.90625,5.6875 -0.84375,0.5625 -8.46875,12.34375 6.625,9.375 14.03125,-4.4375 0.78125,-0.65625 8.65625,-8.9375 13.28125,9.9375 -5.59375,11.21875 -0.34375,0.96875 0.21875,15.0625 10.71875,3.59375 8.8125,-12.0625 0.28125,-1 1.875,-12.46875 16.4375,0 1.875,12.46875 0.28125,1 8.8125,12.0625 10.6875,-3.59375 0.25,-15.0625 -0.375,-0.96875 -5.5625,-11.21875 13.28125,-9.9375 8.625,8.9375 0.8125,0.65625 14.03125,4.4375 6.625,-9.375 -8.46875,-12.34375 -0.84375,-0.5625 -10.9375,-5.6875 5.09375,-16.0625 12.09375,2 1.03125,0.03125 13.875,-4.875 0,-11.5625 -13.875,-4.875 -1.03125,0.03125 -12.09375,2 -5.09375,-16.0625 10.9375,-5.6875 0.84375,-0.5625 8.46875,-12.34375 -6.625,-9.375 -14.03125,4.4375 -0.8125,0.65625 -8.625,8.9375 -13.28125,-9.9375 5.5625,-11.21875 0.375,-0.96875 -0.25,-15.09375 -10.6875,-3.5625 -8.8125,12.0625 -0.28125,1 -1.875,12.46875 -16.4375,0 -1.875,-12.46875 -0.28125,-1 -8.8125,-12.0625 z m 15.0625,34.59375 0.71875,1.40625 0.53125,1.40625 0.375,-0.03125 0,7.125 C 59.311001,45.781808 45.469308,59.623501 44.25,76.96875 l -6.25,0 0,-0.03125 -0.875,0 0.03125,-0.34375 -1.40625,-0.53125 -1.40625,-0.71875 0.125,-1.15625 1.5,-0.40625 1.5,-0.25 0.21875,-1.3125 -1.34375,-0.6875 -1.3125,-0.875 0.21875,-1.09375 1.5625,-0.25 1.5,-0.09375 0.34375,-1.28125 -1.25,-0.84375 -1.21875,-1 0.34375,-1.0625 1.5625,-0.09375 L 39.625,65 l 0.46875,-1.25 -1.1875,-0.9375 -1.09375,-1.125 0.46875,-1.03125 1.5625,0.0625 1.5,0.21875 0.59375,-1.1875 -1.0625,-1.0625 -0.96875,-1.21875 0.5625,-1 1.5625,0.25 1.46875,0.375 0.71875,-1.125 -0.96875,-1.15625 -0.84375,-1.34375 0.6875,-0.90625 1.5,0.40625 1.4375,0.53125 0.84375,-1.03125 -0.84375,-1.28125 -0.6875,-1.40625 0.75,-0.84375 1.46875,0.5625 1.34375,0.6875 0.96875,-0.96875 -0.6875,-1.34375 -0.5625,-1.46875 0.84375,-0.75 1.40625,0.6875 1.28125,0.84375 1.03125,-0.84375 -0.53125,-1.4375 -0.40625,-1.5 0.90625,-0.6875 1.34375,0.84375 1.15625,0.96875 1.125,-0.71875 -0.375,-1.46875 -0.25,-1.5625 1,-0.5625 1.21875,0.96875 1.0625,1.0625 1.1875,-0.59375 -0.21875,-1.5 -0.0625,-1.5625 1.03125,-0.46875 1.125,1.09375 0.9375,1.1875 1.25,-0.46875 -0.0625,-1.53125 0.09375,-1.5625 1.0625,-0.34375 1,1.21875 0.84375,1.25 1.28125,-0.34375 0.09375,-1.5 0.25,-1.5625 1.09375,-0.21875 0.875,1.3125 0.6875,1.34375 1.3125,-0.21875 0.25,-1.5 0.40625,-1.5 1.15625,-0.125 z m 8.25,0 1.15625,0.125 0.40625,1.5 0.25,1.5 1.3125,0.21875 0.6875,-1.34375 0.875,-1.3125 1.09375,0.21875 0.25,1.5625 0.09375,1.5 1.28125,0.34375 0.84375,-1.25 1,-1.21875 1.0625,0.34375 0.09375,1.5625 -0.0625,1.53125 1.25,0.46875 0.9375,-1.1875 1.125,-1.09375 1.03125,0.46875 -0.0625,1.5625 -0.21875,1.5 1.1875,0.59375 1.0625,-1.0625 1.21875,-0.96875 1,0.5625 -0.25,1.5625 -0.375,1.46875 1.125,0.71875 1.15625,-0.96875 1.34375,-0.84375 0.90625,0.6875 -0.40625,1.5 -0.53125,1.4375 1.03125,0.84375 1.28125,-0.84375 1.40625,-0.6875 0.84375,0.75 -0.5625,1.46875 -0.6875,1.34375 0.96875,0.96875 1.34375,-0.6875 1.46875,-0.5625 0.75,0.84375 -0.6875,1.40625 -0.84375,1.28125 0.84375,1.03125 1.4375,-0.53125 1.5,-0.40625 0.6875,0.90625 -0.84375,1.34375 -0.96875,1.15625 0.71875,1.125 1.46875,-0.375 1.5625,-0.25 0.5625,1 -0.96875,1.21875 -1.0625,1.0625 0.59375,1.1875 1.5,-0.21875 1.5625,-0.0625 0.46875,1.03125 -1.09375,1.125 -1.1875,0.9375 0.46875,1.25 1.53125,-0.0625 1.5625,0.09375 0.34375,1.0625 -1.21875,1 -1.25,0.84375 0.34375,1.28125 1.5,0.09375 1.5625,0.25 0.21875,1.09375 -1.3125,0.875 -1.34375,0.6875 0.21875,1.3125 1.5,0.25 1.5,0.40625 0.125,1.15625 -1.40625,0.71875 -1.40625,0.53125 0.0312,0.375 -7.125,0 C 112.84319,59.623501 99.001499,45.781808 81.65625,44.5625 l 0,-7.125 0.375,0.03125 0.53125,-1.40625 0.71875,-1.40625 z m -6.6875,19.9375 c 0.02039,-0.0021 0.0421,0.002 0.0625,0 l 0,20.5625 c -0.744005,0.434854 -1.377646,1.068495 -1.8125,1.8125 l -20.5625,0 c 1.168627,-11.79472 10.526136,-21.178029 22.3125,-22.375 z m 5.0625,0 c 11.815125,1.170649 21.20435,10.559876 22.375,22.375 l -20.5625,0 c -0.434854,-0.744005 -1.068495,-1.377646 -1.8125,-1.8125 l 0,-20.5625 z m -44.53125,27.375 7.125,0 c 1.219308,17.345249 15.061001,31.18694 32.40625,32.40625 l 0,7.125 -0.375,-0.0312 -0.53125,1.40625 -0.71875,1.40625 -1.15625,-0.125 -0.40625,-1.5 -0.25,-1.5 -1.3125,-0.21875 -0.6875,1.34375 -0.875,1.3125 L 69.25,123.375 69,121.8125 l -0.09375,-1.5 -1.28125,-0.34375 -0.84375,1.25 -1,1.21875 -1.0625,-0.34375 -0.09375,-1.5625 0.0625,-1.53125 -1.25,-0.46875 -0.9375,1.1875 -1.125,1.09375 -1.03125,-0.46875 0.0625,-1.5625 0.21875,-1.5 -1.1875,-0.59375 -1.0625,1.0625 -1.21875,0.96875 -1,-0.5625 0.25,-1.5625 0.375,-1.46875 -1.125,-0.71875 -1.15625,0.96875 -1.34375,0.84375 -0.90625,-0.6875 0.40625,-1.5 0.53125,-1.4375 -1.03125,-0.84375 -1.28125,0.84375 -1.40625,0.6875 -0.84375,-0.75 0.5625,-1.46875 0.6875,-1.34375 -0.96875,-0.96875 -1.34375,0.6875 -1.46875,0.5625 -0.75,-0.84375 0.6875,-1.40625 0.84375,-1.28125 -0.84375,-1.03125 -1.4375,0.53125 -1.5,0.40625 -0.6875,-0.90625 0.84375,-1.34375 0.96875,-1.15625 -0.71875,-1.125 -1.46875,0.375 -1.5625,0.25 -0.5625,-1 L 40.875,100.25 41.9375,99.1875 41.34375,98 l -1.5,0.21875 -1.5625,0.0625 L 37.8125,97.25 38.90625,96.125 40.09375,95.1875 39.625,93.9375 38.09375,94 l -1.5625,-0.09375 -0.34375,-1.0625 1.21875,-1 1.25,-0.84375 -0.34375,-1.28125 -1.5,-0.09375 -1.5625,-0.25 -0.21875,-1.09375 1.3125,-0.875 1.34375,-0.6875 -0.21875,-1.3125 -1.5,-0.25 -1.5,-0.40625 -0.125,-1.15625 L 35.75,82.875 37.15625,82.34375 37.125,81.96875 z m 17.15625,0 20.5625,0 c 0.434854,0.744005 1.068495,1.377646 1.8125,1.8125 l 0,20.5625 C 64.841125,103.1731 55.451898,93.783874 54.28125,81.96875 z m 29.1875,0 20.5625,0 c -1.17065,11.815124 -10.559875,21.20435 -22.375,22.375 l 0,-20.5625 c 0.744005,-0.434854 1.377646,-1.068495 1.8125,-1.8125 z m 30.59375,0 7.125,0 -0.0312,0.375 1.40625,0.53125 1.40625,0.71875 -0.125,1.15625 -1.5,0.40625 -1.5,0.25 -0.21875,1.3125 1.34375,0.6875 1.3125,0.875 -0.2188,1.09375 -1.5625,0.25 -1.5,0.09375 -0.34375,1.28125 1.25,0.84375 1.21875,1 -0.34375,1.0625 -1.5625,0.09375 -1.53125,-0.0625 -0.46875,1.25 1.1875,0.9375 1.09375,1.125 -0.46875,1.03125 -1.5625,-0.0625 -1.5,-0.21875 -0.59375,1.1875 1.0625,1.0625 0.96875,1.21875 -0.5625,1 -1.5625,-0.25 -1.46875,-0.375 -0.71875,1.125 0.96875,1.15625 0.84375,1.34375 -0.6875,0.90625 -1.5,-0.40625 -1.4375,-0.53125 -0.84375,1.03125 0.84375,1.28125 0.6875,1.40625 -0.75,0.84375 -1.46875,-0.5625 -1.34375,-0.6875 -0.96875,0.96875 0.6875,1.34375 0.5625,1.46875 -0.84375,0.75 -1.40625,-0.6875 -1.28125,-0.84375 -1.03125,0.84375 0.53125,1.4375 0.40625,1.5 -0.90625,0.6875 -1.34375,-0.84375 -1.15625,-0.96875 -1.125,0.71875 0.375,1.46875 0.25,1.5625 -1,0.5625 -1.21875,-0.96875 -1.0625,-1.0625 -1.1875,0.59375 0.21875,1.5 0.0625,1.5625 -1.03125,0.46875 -1.125,-1.09375 -0.9375,-1.1875 -1.25,0.46875 0.0625,1.53125 -0.09375,1.5625 -1.0625,0.34375 -1,-1.21875 -0.84375,-1.25 -1.28125,0.34375 -0.09375,1.5 -0.25,1.5625 -1.09375,0.21875 -0.875,-1.3125 -0.6875,-1.34375 -1.3125,0.21875 -0.25,1.5 -0.40625,1.5 -1.15625,0.125 -0.71875,-1.40625 -0.53125,-1.40625 -0.375,0.0312 0,-7.125 C 99.001499,113.15564 112.84319,99.313949 114.0625,81.9687 z"
       transform="translate(298.26848,370.55967)"
       id="path4890-1"
       inkscape:connector-curvature="0" />
  </g>
</svg>
