<?xml version="1.0" encoding="UTF-8" standalone="no"?>
<!-- Created with Inkscape (http://www.inkscape.org/) -->

<svg
   xmlns:dc="http://purl.org/dc/elements/1.1/"
   xmlns:cc="http://creativecommons.org/ns#"
   xmlns:rdf="http://www.w3.org/1999/02/22-rdf-syntax-ns#"
   xmlns:svg="http://www.w3.org/2000/svg"
   xmlns="http://www.w3.org/2000/svg"
   xmlns:sodipodi="http://sodipodi.sourceforge.net/DTD/sodipodi-0.dtd"
   xmlns:inkscape="http://www.inkscape.org/namespaces/inkscape"
   width="224.03125"
   height="224.03125"
   id="svg3009"
   version="1.1"
   inkscape:version="0.48.5 r10040"
   sodipodi:docname="gear2-shadow.svg">
  <defs
     id="defs3011" />
  <sodipodi:namedview
     id="base"
     pagecolor="#ffffff"
     bordercolor="#666666"
     borderopacity="1.0"
     inkscape:pageopacity="0.0"
     inkscape:pageshadow="2"
     inkscape:zoom="0.98994949"
     inkscape:cx="-351.97463"
     inkscape:cy="19.519398"
     inkscape:document-units="px"
     inkscape:current-layer="layer1"
     showgrid="false"
     fit-margin-top="0"
     fit-margin-left="0"
     fit-margin-right="0"
     fit-margin-bottom="0"
     inkscape:window-width="1920"
     inkscape:window-height="1178"
     inkscape:window-x="-8"
     inkscape:window-y="-8"
     inkscape:window-maximized="1" />
  <metadata
     id="metadata3014">
    <rdf:RDF>
      <cc:Work
         rdf:about="">
        <dc:format>image/svg+xml</dc:format>
        <dc:type
           rdf:resource="http://purl.org/dc/dcmitype/StillImage" />
        <dc:title />
      </cc:Work>
    </rdf:RDF>
  </metadata>
  <g
     inkscape:label="Layer 1"
     inkscape:groupmode="layer"
     id="layer1"
     transform="translate(-262.98438,-420.34656)">
    <path
       inkscape:connector-curvature="0"
       style="fill:#404040;fill-opacity:1;stroke:none"
       d="m 368.76563,420.34656 -12.25,1.28125 -2.8125,13.9375 0.15625,1.5 2.46875,11.4375 -16.84375,5.4375 -4.78125,-10.6875 -0.78125,-1.3125 -10.46875,-9.625 -10.6875,6.125 3.15625,13.84375 0.75,1.34375 6.9375,9.4375 -13.1875,11.78125 -8.71875,-7.84375 -1.25,-0.875 -13.53125,-4.5625 -7.25,9.9375 8.5625,11.375 1.21875,0.90625 10.1875,5.8125 -7.1875,16.125 -11.1875,-3.65625 -1.5,-0.28125 -14.21875,1.28125 -2.5625,12 12.46875,6.9375 1.46875,0.34375 11.71875,1.1875 0,17.625 -11.71875,1.21875 -1.46875,0.3125 -12.46875,6.96875 2.5625,11.96875 14.21875,1.3125 1.5,-0.3125 11.1875,-3.625 7.1875,16.09375 -10.1875,5.84375 -1.21875,0.90625 -8.5625,11.375 7.25,9.90625 13.53125,-4.5625 1.25,-0.875 8.71875,-7.84375 13.1875,11.8125 -6.9375,9.4375 -0.75,1.3125 -3.15625,13.875 10.6875,6.125 10.46875,-9.65625 0.78125,-1.28125 4.78125,-10.6875 16.84375,5.4375 -2.46875,11.4375 -0.15625,1.5 2.8125,13.9375 12.25,1.28125 5.625,-13.0625 0.1875,-1.5 -0.0312,-11.6875 17.625,-1.84375 2.4375,11.4375 0.5,1.4375 8.21875,11.59375 11.75,-3.78125 -0.1875,-14.21875 -0.46875,-1.4375 -4.8125,-10.65625 15.34375,-8.8125 6.90625,9.46875 1.03125,1.09375 12.28125,7.28125 9.15625,-8.21875 -5.96875,-12.90625 -1,-1.125 -8.75,-7.8125 10.40625,-14.25 10.15625,5.875 1.40625,0.59375 14.1875,1.65625 5,-11.1875 -10.71875,-9.375 -1.40625,-0.625 -11.1563,-3.59375 3.65625,-17.25 11.6875,1.25 1.53125,-0.0312 13.65625,-4.1875 0,-12.28125 -13.65625,-4.21875 -1.53125,0 -11.6875,1.25 -3.65625,-17.25 11.15625,-3.59375 1.40625,-0.625 10.71875,-9.375 -5,-11.1875 -14.1875,1.65625 -1.40625,0.5937 -10.15625,5.875 -10.40625,-14.25 8.75,-7.8125 1,-1.15625 5.96875,-12.875 -9.15625,-8.21875 -12.28125,7.25 -1.03125,1.125 -6.90625,9.46875 -15.34375,-8.8125 4.8125,-10.65625 0.46875,-1.46875 0.1875,-14.1875 -11.75,-3.78125 -8.21875,11.59375 -0.5,1.4375 -2.4375,11.4375 -17.625,-1.84375 0.0312,-11.6875 -0.1875,-1.5 -5.62495,-13.0625 z m -0.875,42.9375 0,35.3125 c -4.25642,0.89139 -8.22861,2.57265 -11.75,4.875 l -24.96875,-24.96875 c 10.22325,-8.32765 22.87151,-13.81323 36.71875,-15.21875 z m 14.21875,0 c 13.83647,1.41053 26.46618,6.89731 36.6875,15.21875 l -24.96875,24.96875 c -3.52064,-2.30186 -7.46336,-3.98347 -11.71875,-4.875 l 0,-35.3125 z m -60.96875,25.28125 24.96875,24.96875 c -2.29583,3.51607 -3.98491,7.47071 -4.875,11.71875 l -35.3125,0 c 1.40464,-13.83864 6.8998,-26.46759 15.21875,-36.6875 z m 107.71875,0 c 8.31779,10.21728 13.78219,22.85561 15.1875,36.6875 l -35.3125,0 c -0.8889,-4.24237 -2.55265,-8.20619 -4.84375,-11.71875 l 24.96875,-24.96875 z m -53.875,34.1875 c 5.30322,0 9.625,4.29053 9.625,9.59375 0,5.30322 -4.32178,9.625 -9.625,9.625 -5.30322,0 -9.59375,-4.32178 -9.59375,-9.625 0,-5.30322 4.29053,-9.59375 9.59375,-9.59375 z m -69.0625,16.71875 35.3125,0 c 0.88994,4.24909 2.57867,8.20192 4.875,11.71875 l -24.96875,24.96875 c -8.32144,-10.22131 -13.80823,-22.85102 -15.21875,-36.6875 z m 102.8125,0 35.3125,0 c -1.41102,13.82786 -6.90035,26.43831 -15.21875,36.65625 l -24.9375,-24.9375 c 2.2916,-3.51333 3.95499,-7.47533 4.84375,-11.71875 z m -52.59375,21.78125 c 3.52227,2.30367 7.49211,3.98321 11.75,4.875 l 0,35.3125 c -13.84724,-1.40686 -26.4955,-6.8854 -36.71875,-15.21875 l 24.96875,-24.96875 z m 37.6875,0 24.96875,24.96875 c -10.22132,8.32713 -22.85103,13.80687 -36.6875,15.21875 l 0,-35.3125 c 4.25684,-0.89194 8.19724,-2.57183 11.71875,-4.875 z"
       id="path6683" />
  </g>
</svg>
