<?xml version="1.0" encoding="UTF-8" standalone="no"?>
<!-- Created with Inkscape (http://www.inkscape.org/) -->

<svg
   xmlns:dc="http://purl.org/dc/elements/1.1/"
   xmlns:cc="http://creativecommons.org/ns#"
   xmlns:rdf="http://www.w3.org/1999/02/22-rdf-syntax-ns#"
   xmlns:svg="http://www.w3.org/2000/svg"
   xmlns="http://www.w3.org/2000/svg"
   xmlns:sodipodi="http://sodipodi.sourceforge.net/DTD/sodipodi-0.dtd"
   xmlns:inkscape="http://www.inkscape.org/namespaces/inkscape"
   width="399.875"
   height="399.875"
   id="svg3999"
   version="1.1"
   inkscape:version="0.48.5 r10040"
   sodipodi:docname="gear1-400px.svg">
  <defs
     id="defs4001">
    <inkscape:path-effect
       effect="skeletal"
       id="path-effect7370-4-1-2-7"
       is_visible="true"
       pattern="m 3.48976,1.04634 0,-0.98384 -2.37647,0 0,0.98384 -1.05079,0 0,1.52074 4.47824,0 0,-1.52074 -1.05098,0 z"
       copytype="repeated"
       prop_scale="1"
       scale_y_rel="false"
       spacing="5.3"
       normal_offset="-0.6"
       tang_offset="2.7755576e-017"
       prop_units="false"
       vertical_pattern="false"
       fuse_tolerance="0" />
    <mask
       maskUnits="userSpaceOnUse"
       id="mask4280">
      <path
         inkscape:connector-curvature="0"
         style="fill:#ed5e32;fill-opacity:1;stroke:#6d2b17;stroke-width:4.22864008;stroke-miterlimit:4;stroke-opacity:1;stroke-dasharray:none"
         d="m 610.42723,308.77223 11.37711,-0.91744 2.05896,0.0803 13.72358,3.97839 0,13.15704 -13.72358,3.9784 -2.05896,0.0803 -11.37711,-0.91743 -2.90454,18.34459 11.10231,2.64241 1.93213,0.71027 11.82526,8.02445 -4.06295,12.51441 -14.28588,-0.45661 -1.97863,-0.5623 -10.54,-4.38427 -8.43032,16.54777 9.74094,5.94434 1.61927,1.27258 8.76854,11.28834 -7.73695,10.64149 -13.44454,-4.84512 -1.70804,-1.14997 -8.66286,-7.42832 -13.1359,13.1359 7.42832,8.66286 1.14997,1.70804 4.84511,13.44454 -10.64148,7.73696 -11.28834,-8.76855 -1.27257,-1.61927 -5.94435,-9.74095 -16.54778,8.43033 4.38428,10.54001 0.5623,1.97863 0.45661,14.28587 -12.51441,4.06295 -8.02445,-11.82526 -0.71027,-1.93213 -2.64241,-11.10231 -18.3446,2.90452 0.91744,11.37712 -0.0803,2.05897 -3.9784,13.72357 -13.15704,0 -3.9784,-13.72357 -0.0803,-2.05897 0.91743,-11.37712 -18.34459,-2.90452 -2.64241,11.10231 -0.71027,1.93213 -8.02445,11.82526 -12.51441,-4.06295 0.45661,-14.28587 0.5623,-1.97863 4.38427,-10.54001 -16.54777,-8.43033 -5.94434,9.74095 -1.27258,1.61927 -11.28835,8.76855 -10.64148,-7.73696 4.84511,-13.44454 1.14997,-1.70804 7.42832,-8.66286 -13.1359,-13.1359 -8.66285,7.42832 -1.70805,1.14997 -13.44454,4.84512 -7.73695,-10.64149 8.76855,-11.28834 1.61926,-1.27258 9.74095,-5.94434 -8.43032,-16.54777 -10.54001,4.38427 -1.97863,0.5623 -14.28588,0.45661 -4.06295,-12.51441 11.82527,-8.02445 1.93213,-0.71027 11.10231,-2.64241 -2.90452,-18.34459 -11.37713,0.91743 -2.05896,-0.0803 -13.72357,-3.9784 0,-13.15704 13.72357,-3.97839 2.05896,-0.0803 11.37713,0.91744 2.90452,-18.3446 -11.10231,-2.64241 -1.93213,-0.71027 -11.82527,-8.02445 4.06295,-12.51441 14.28588,0.45661 1.97863,0.5623 10.54001,4.38427 8.43032,-16.54776 -9.74095,-5.94435 -1.61926,-1.27258 -8.76855,-11.28834 7.73695,-10.64148 13.44454,4.84511 1.70805,1.14997 8.66285,7.42832 13.1359,-13.1359 -7.42832,-8.66285 -1.14997,-1.70805 -4.84511,-13.44453 10.64148,-7.73697 11.28835,8.76855 1.27258,1.61927 5.94434,9.74095 16.54777,-8.43033 -4.38427,-10.54 -0.5623,-1.97863 -0.45661,-14.28588 12.51441,-4.06295 8.02445,11.82526 0.71027,1.93213 2.64241,11.10231 18.34459,-2.90452 -0.91743,-11.37712 0.0803,-2.05896 3.9784,-13.72358 13.15704,0 3.9784,13.72358 0.0803,2.05896 -0.91744,11.37712 18.3446,2.90452 2.64241,-11.10231 0.71027,-1.93213 8.02445,-11.82526 12.51441,4.06295 -0.45661,14.28588 -0.5623,1.97863 -4.38428,10.54 16.54778,8.43033 5.94435,-9.74095 1.27257,-1.61927 11.28834,-8.76855 10.64148,7.73697 -4.84511,13.44453 -1.14997,1.70805 -7.42832,8.66285 13.1359,13.1359 8.66286,-7.42832 1.70804,-1.14997 13.44454,-4.84511 7.73695,10.64148 -8.76854,11.28834 -1.61927,1.27258 -9.74094,5.94435 8.43032,16.54776 10.54,-4.38427 1.97863,-0.5623 14.28588,-0.45661 4.06295,12.51441 -11.82526,8.02445 -1.93213,0.71027 -11.10231,2.64241 z"
         id="path4282" />
    </mask>
    <inkscape:path-effect
       effect="skeletal"
       id="path-effect7370-4-1-2-7-4"
       is_visible="true"
       pattern="m 3.48976,1.04634 0,-0.98384 -2.37647,0 0,0.98384 -1.05079,0 0,1.52074 4.47824,0 0,-1.52074 -1.05098,0 z"
       copytype="repeated"
       prop_scale="1"
       scale_y_rel="false"
       spacing="5.3"
       normal_offset="-0.6"
       tang_offset="2.7755576e-017"
       prop_units="false"
       vertical_pattern="false"
       fuse_tolerance="0" />
  </defs>
  <sodipodi:namedview
     id="base"
     pagecolor="#ffffff"
     bordercolor="#666666"
     borderopacity="1.0"
     inkscape:pageopacity="0.0"
     inkscape:pageshadow="2"
     inkscape:zoom="1.979899"
     inkscape:cx="59.570218"
     inkscape:cy="169.96277"
     inkscape:document-units="px"
     inkscape:current-layer="layer1"
     showgrid="false"
     inkscape:window-width="1920"
     inkscape:window-height="1178"
     inkscape:window-x="-8"
     inkscape:window-y="-8"
     inkscape:window-maximized="1"
     fit-margin-top="0"
     fit-margin-left="0"
     fit-margin-right="0"
     fit-margin-bottom="0" />
  <metadata
     id="metadata4004">
    <rdf:RDF>
      <cc:Work
         rdf:about="">
        <dc:format>image/svg+xml</dc:format>
        <dc:type
           rdf:resource="http://purl.org/dc/dcmitype/StillImage" />
        <dc:title />
      </cc:Work>
    </rdf:RDF>
  </metadata>
  <g
     inkscape:label="Layer 1"
     inkscape:groupmode="layer"
     id="layer1"
     transform="translate(-242.20379,-92.548553)">
    <path
       inkscape:connector-curvature="0"
       style="fill:#d0c8b9;fill-opacity:1;stroke:none"
       d="m 442.1413,92.548553 c -110.42244,0 -199.93751,89.515127 -199.93751,199.937487 0,110.42237 89.51507,199.93751 199.93751,199.93751 110.42243,0 199.9375,-89.51514 199.9375,-199.9375 0,-110.42236 -89.51506,-199.937497 -199.9375,-199.937497 z m 0,7.29954 c 106.39065,0 192.63796,86.247157 192.63796,192.637947 0,106.39079 -86.2473,192.63797 -192.63796,192.63797 -106.39066,0 -192.63796,-86.24717 -192.63796,-192.63796 0,-106.39079 86.2473,-192.637957 192.63796,-192.637957 z"
       id="path4030-1-0" />
    <path
       style="fill:#ece1c7;fill-opacity:1;stroke:none"
       d="m 442.12882,93.957978 c -109.64044,0 -198.51559,88.900112 -198.51559,198.540572 0,109.64044 88.87515,198.51558 198.51559,198.51558 109.64044,0 198.54055,-88.87514 198.54055,-198.51558 0,-109.64045 -88.9001,-198.540562 -198.54055,-198.540562 z m 0.0249,6.141202 c 106.2451,0 192.37438,86.12918 192.37438,192.3744 0,106.24523 -86.12928,192.37439 -192.37438,192.37439 -106.24509,0 -192.3744,-86.12917 -192.3744,-192.37439 0,-106.24523 86.1293,-192.3744 192.3744,-192.3744 z"
       id="path4030"
       inkscape:connector-curvature="0" />
    <path
       style="fill:#d0c8b9;fill-opacity:0.9372549;stroke:none"
       d="m 442.12892,100.25105 c -106.17229,0 -192.23502,86.0627 -192.23502,192.23499 0,106.1723 86.06273,192.23501 192.23502,192.23501 106.17227,0 192.25978,-86.06271 192.25978,-192.235 0,-106.17229 -86.08751,-192.235 -192.25978,-192.235 z m 0.0248,1.11606 c 105.55172,0 191.11892,85.56707 191.11892,191.11893 0,105.55186 -85.56719,191.11895 -191.11892,191.11895 -105.55173,0 -191.11895,-85.56708 -191.11895,-191.11894 0,-105.55186 85.56722,-191.11894 191.11895,-191.11894 z"
       id="path4030-1-9"
       inkscape:connector-curvature="0" />
    <path
       style="fill:#044738;fill-opacity:1;stroke:none"
       d="m 193.34375,52.0625 -3.96875,13.71875 -0.0625,2.0625 0.90625,11.375 L 171.875,82.125 169.21875,71 168.53125,69.09375 160.5,57.25 l -12.53125,4.0625 0.46875,14.28125 0.5625,2 4.375,10.53125 -16.53125,8.4375 -5.9375,-9.75 -1.28125,-1.625 -11.28125,-8.75 -10.65625,7.71875 4.84375,13.4375 1.15625,1.71875 7.4375,8.65625 -13.15625,13.15625 -8.65625,-7.4375 -1.71875,-1.15625 -13.4375,-4.84375 -7.71875,10.65625 8.75,11.28125 1.625,1.28125 9.75,5.9375 L 88.125,153.375 77.59375,149 l -2,-0.5625 L 61.3125,147.96875 57.25,160.5 l 11.84375,8.03125 1.90625,0.6875 11.125,2.65625 -2.90625,18.34375 -11.375,-0.90625 -2.0625,0.0625 -13.71875,3.96875 0,13.1875 13.71875,3.96875 2.0625,0.0625 11.375,-0.90625 L 82.125,228 71,230.65625 69.09375,231.34375 57.25,239.375 l 4.0625,12.53125 14.28125,-0.46875 2,-0.5625 10.53125,-4.375 8.4375,16.53125 -9.75,5.9375 -1.625,1.28125 -8.75,11.28125 7.71875,10.65625 13.4375,-4.84375 1.71875,-1.15625 8.65625,-7.4375 13.15625,13.15625 -7.4375,8.65625 -1.15625,1.71875 -4.84375,13.4375 10.65625,7.71875 11.28125,-8.75 1.28125,-1.625 5.9375,-9.75 16.53125,8.4375 -4.375,10.53125 -0.5625,2 -0.46875,14.28125 12.53125,4.0625 8.03125,-11.84375 0.6875,-1.90625 2.65625,-11.125 18.34375,2.90625 -0.90625,11.375 0.0625,2.0625 3.96875,13.71875 13.1875,0 3.96875,-13.71875 0.0625,-2.0625 -0.90625,-11.375 L 228,317.75 l 2.65625,11.125 0.6875,1.90625 8.03125,11.84375 12.53125,-4.0625 -0.46875,-14.28125 -0.5625,-2 -4.375,-10.53125 16.53125,-8.4375 5.9375,9.75 1.28125,1.625 11.28125,8.75 10.65625,-7.71875 -4.84375,-13.4375 -1.15625,-1.71875 -7.4375,-8.65625 13.15625,-13.15625 8.65625,7.4375 1.71875,1.15625 13.4375,4.84375 7.71875,-10.65625 -8.75,-11.28125 -1.625,-1.28125 -9.75,-5.9375 8.4375,-16.53125 10.53125,4.375 2,0.5625 14.28125,0.46875 4.0625,-12.53125 -11.84375,-8.03125 -1.90625,-0.6875 L 317.75,228 l 2.90625,-18.34375 11.375,0.90625 2.0625,-0.0625 13.71875,-3.96875 0,-13.1875 -13.71875,-3.96875 -2.0625,-0.0625 -11.375,0.90625 -2.90625,-18.34375 11.125,-2.65625 1.90625,-0.6875 11.84375,-8.03125 -4.0625,-12.53125 -14.28125,0.46875 -2,0.5625 -10.53125,4.375 -8.4375,-16.53125 9.75,-5.9375 1.625,-1.28125 8.75,-11.28125 -7.71875,-10.65625 -13.4375,4.84375 -1.71875,1.15625 -8.65625,7.4375 -13.15625,-13.15625 7.4375,-8.65625 1.15625,-1.71875 4.84375,-13.4375 -10.65625,-7.71875 -11.28125,8.75 -1.28125,1.625 -5.9375,9.75 L 246.5,88.125 l 4.375,-10.53125 0.5625,-2 L 251.90625,61.3125 239.375,57.25 231.34375,69.09375 230.65625,71 228,82.125 209.65625,79.21875 210.5625,67.84375 210.5,65.78125 206.53125,52.0625 z M 181.75,101.59375 c 20.3186,-3.73607 8.3712,45.41514 0,65.625 -2.62142,6.32866 -8.20259,11.90983 -14.53125,14.53125 -20.20986,8.3712 -69.36107,20.3186 -65.625,0 3.73607,-20.31861 59.83764,-76.42018 80.15625,-80.15625 z m 36.375,0 c 20.3186,3.73607 76.42018,59.83764 80.15625,80.15625 3.73607,20.3186 -45.41514,8.3712 -65.625,0 -6.32866,-2.62142 -11.90983,-8.20259 -14.53125,-14.53125 -8.3712,-20.20986 -20.31861,-69.36107 0,-65.625 z M 199.9375,190 c 5.48847,0 9.9375,4.44907 9.9375,9.9375 0,5.48843 -4.44903,9.9375 -9.9375,9.9375 -5.48847,0 -9.9375,-4.44907 -9.9375,-9.9375 0,-5.48843 4.44903,-9.9375 9.9375,-9.9375 z m -98.34375,28.125 c -3.73607,-20.31861 45.41514,-8.3712 65.625,0 6.32866,2.62142 11.90983,8.20259 14.53125,14.53125 8.3712,20.20986 20.31861,69.36107 0,65.625 -20.31861,-3.73607 -76.42018,-59.83765 -80.15625,-80.15625 z m 131.0625,0 c 20.20986,-8.3712 69.36107,-20.31861 65.625,0 -3.73607,20.3186 -59.83765,76.42018 -80.15625,80.15625 -20.31861,3.73607 -8.3712,-45.41514 0,-65.625 2.62142,-6.32866 8.20259,-11.90983 14.53125,-14.53125 z"
       transform="translate(242.20379,92.548553)"
       id="path9325"
       inkscape:connector-curvature="0"
       sodipodi:nodetypes="ccccccccccccccccccccccccccccccccccccccccccccccccccccccccccccccccccccccccccccccccccccccccccccccccccccccccccccccccccccccccccccccccccccccccccccccccccccccccccccccccczaazzzzaazssssszaazzazzaa" />
    <path
       sodipodi:type="arc"
       style="fill:#585d6e;fill-opacity:1;stroke:none"
       id="path6860"
       sodipodi:cx="301"
       sodipodi:cy="587"
       sodipodi:rx="72"
       sodipodi:ry="77"
       d="m 373.79438,590.46373 0.98314,0.0421 c 0.0346,-0.80982 0.0572,-1.62015 0.0678,-2.43065 l -0.98381,-0.013 c 0.005,-0.35406 0.007,-0.70815 0.007,-1.06223 l -1.52074,0 c -5e-5,1.48053 -0.0417,2.96132 -0.12446,4.4401 l 1.5188,0.0849 c 0.0197,-0.35364 0.0372,-0.70741 0.0523,-1.06127 0,0 0,0 0,0 z m -1.01675,9.82914 0.97147,0.15984 c 0.13156,-0.79989 0.25152,-1.60168 0.35978,-2.40504 l -0.97563,-0.13155 c 0.0473,-0.35103 0.0924,-0.70237 0.13517,-1.05397 l -1.51047,-0.1839 c -0.17911,1.47081 -0.39861,2.93689 -0.65793,4.39597 l 1.49835,0.26629 c 0.062,-0.34882 0.12175,-0.69805 0.17926,-1.04764 z m -2.1819,9.63856 0.94543,0.27402 c 0.22569,-0.77837 0.44012,-1.56006 0.6432,-2.34473 l -0.95307,-0.24659 c 0.0887,-0.34289 0.17527,-0.68636 0.25961,-1.03037 l -1.478,-0.36231 c -0.35279,1.43929 -0.74474,2.86887 -1.17527,4.28645 l 1.45571,0.44219 c 0.10297,-0.33889 0.20377,-0.67845 0.30239,-1.01866 z m -3.31178,9.3052 0.90501,0.38465 c 0.31697,-0.7453 0.62302,-1.49531 0.91806,-2.24971 l -0.91615,-0.35809 c 0.12887,-0.32963 0.25563,-0.66012 0.38026,-0.99143 l -1.42333,-0.53524 c -0.52108,1.38598 -1.08008,2.75725 -1.67645,4.11153 l 1.39087,0.61261 c 0.14268,-0.32383 0.28326,-0.64862 0.42173,-0.97432 z m -4.40641,8.82904 0.85024,0.49174 c 0.40538,-0.70065 0.80019,-1.40743 1.18434,-2.11999 l -0.86487,-0.46604 c 0.16776,-0.31126 0.33347,-0.62365 0.49712,-0.93714 l -1.34644,-0.70269 c -0.68399,1.31086 -1.40468,2.60204 -2.16148,3.87123 l 1.30381,0.77754 c 0.18113,-0.30367 0.36022,-0.60856 0.53728,-0.91465 0,0 0,0 0,0 z m -5.46578,8.21012 0.7811,0.59527 c 0.49093,-0.64444 0.97165,-1.29641 1.44205,-1.95557 l -0.79922,-0.57044 c 0.20539,-0.28778 0.40879,-0.57696 0.61019,-0.86751 l -1.24734,-0.86466 c -0.84153,1.21396 -1.71851,2.40323 -2.63038,3.56553 l 1.19455,0.93701 c 0.21832,-0.27839 0.43467,-0.55828 0.64905,-0.83963 0,0 0,0 0,0 z m -6.49138,7.44669 0.69614,0.69532 c 0.55863,-0.55937 1.10813,-1.12793 1.64813,-1.70548 0.0153,-0.0164 0.0307,-0.0329 0.046,-0.0493 l -0.71921,-0.67129 c 0.24175,-0.25918 0.48158,-0.52004 0.71948,-0.78254 l -1.12605,-1.02114 c -0.24776,0.27309 -0.49764,0.54432 -0.74964,0.81368 -0.75819,0.81082 -1.53599,1.60346 -2.3323,2.37725 l 1.05995,1.09073 c 0.25434,-0.24718 0.50685,-0.49626 0.75749,-0.74721 0,0 0,0 0,0 z m -7.45498,6.50251 0.59495,0.78416 c 0.64757,-0.49135 1.28706,-0.99337 1.91807,-1.50585 l -0.62044,-0.76407 c 0.2753,-0.22356 0.54896,-0.44914 0.82096,-0.67671 l -0.97617,-1.16682 c -1.13496,0.94945 -2.29971,1.86362 -3.49168,2.74094 l 0.90192,1.22536 c 0.28567,-0.21026 0.56981,-0.42261 0.85239,-0.63701 z m -8.26592,5.43382 0.48397,0.85678 c 0.70752,-0.39952 1.40855,-0.81067 2.1027,-1.23323 l -0.51185,-0.84062 c 0.30287,-0.18439 0.6044,-0.37098 0.90458,-0.55974 l -0.80993,-1.28785 c -1.25276,0.78792 -2.52968,1.53715 -3.82817,2.24613 l 0.72875,1.3349 c 0.31121,-0.16986 0.62121,-0.34199 0.92995,-0.51637 z m -8.91549,4.26785 0.3632,0.91314 c 0.7544,-0.2998 1.50389,-0.6122 2.2481,-0.93696 l -0.39346,-0.90093 c 0.32465,-0.14173 0.64828,-0.28584 0.97086,-0.43232 l -0.62856,-1.38377 c -1.34593,0.61153 -2.71038,1.18097 -4.09075,1.70676 l 0.54044,1.41933 c 0.33097,-0.12597 0.66104,-0.2544 0.99017,-0.38525 z m -9.40369,3.00455 0.23264,0.95327 c 0.78821,-0.1922 1.5731,-0.39796 2.35429,-0.61703 l -0.26528,-0.94501 c 0.34065,-0.0956 0.68059,-0.19374 1.0198,-0.29444 l -0.43206,-1.45461 c -1.41447,0.42029 -2.84181,0.79509 -4.27943,1.12283 l 0.33701,1.47866 c 0.34495,-0.0786 0.6893,-0.15982 1.03303,-0.24367 z m -9.73051,1.64395 0.0923,0.97716 c 0.80893,-0.0767 1.61615,-0.16795 2.42125,-0.27346 l -0.12731,-0.97285 c 0.35087,-0.0459 0.70135,-0.0947 1.05139,-0.1461 l -0.22042,-1.50033 c -1.45836,0.21419 -2.92396,0.37948 -4.3942,0.49432 l 0.11844,1.5129 c 0.35315,-0.0277 0.70601,-0.0583 1.05855,-0.0916 z m -9.88667,0.18401 -0.0565,0.98054 c 0.81202,0.0473 1.62538,0.0798 2.43968,0.0973 l 0.0203,-0.98293 c 0.35468,0.007 0.70953,0.012 1.06452,0.0137 l 0.006,-1.5205 c -1.47722,-0.006 -2.95253,-0.0633 -4.42337,-0.17159 l -0.1117,1.51353 c 0.3533,0.0262 0.70688,0.0495 1.0607,0.07 z m -9.78591,-1.29613 -0.19919,0.96062 c 0.79448,0.16467 1.59189,0.31554 2.39184,0.4524 l 0.16541,-0.96696 c 0.34868,0.0597 0.69785,0.11659 1.04746,0.1708 l 0.23229,-1.4985 c -1.45662,-0.22575 -2.90569,-0.50021 -4.34465,-0.82183 l -0.33072,1.48004 c 0.34528,0.0771 0.69114,0.15162 1.03756,0.22343 z m -9.49859,-2.68053 -0.33215,0.92446 c 0.76388,0.27419 1.53227,0.53555 2.30479,0.78385 l 0.30074,-0.93474 c 0.33691,0.10834 0.67461,0.21416 1.01306,0.31744 l 0.44311,-1.4514 c -1.41138,-0.43105 -2.80958,-0.9074 -4.19202,-1.42751 l -0.5346,1.42146 c 0.33147,0.12461 0.66384,0.24676 0.99707,0.36644 z m -9.04989,-3.96765 -0.45532,0.87207 c 0.7202,0.37584 1.4465,0.7398 2.17852,1.09166 l 0.42629,-0.8863 c 0.31935,0.15356 0.6398,0.30478 0.96131,0.45364 l 0.63879,-1.37922 c -1.34151,-0.62148 -2.66419,-1.28487 -3.96548,-1.98861 l -0.72336,1.33777 c 0.31189,0.16861 0.62498,0.33494 0.93925,0.49899 z m -8.43982,-5.15745 -0.5687,0.80344 c 0.66345,0.4696 1.33459,0.92828 2.01303,1.37582 l 0.54204,-0.82161 c 0.29601,0.19528 0.59344,0.38841 0.89223,0.57937 l 0.81934,-1.28193 c -1.247,-0.79706 -2.46954,-1.63263 -3.66503,-2.50515 l -0.89698,1.22899 c 0.28652,0.20911 0.57455,0.41614 0.86407,0.62107 z m -7.66837,-6.24994 -0.67228,0.71857 c 0.59362,0.55548 1.19652,1.101 1.80831,1.63633 l 0.64801,-0.74069 c 0.26689,0.23352 0.5355,0.46508 0.8058,0.69465 l 0.98476,-1.15954 c -1.12786,-0.95779 -2.22562,-1.95069 -3.29069,-2.97714 l -1.05546,1.09511 c 0.25537,0.24614 0.51256,0.49038 0.77155,0.73271 z m -6.73721,-7.23282 -0.76198,0.62007 c 0.51144,0.62892 1.03302,1.24996 1.56465,1.86278 l 0.74216,-0.64449 c 0.23209,0.26738 0.46611,0.53317 0.70206,0.79732 l 1.1332,-1.01279 c -0.98555,-1.10225 -1.93682,-2.23391 -2.85322,-3.39269 l -1.19096,0.94167 c 0.21941,0.27755 0.44077,0.55361 0.66409,0.82813 z m -5.71969,-8.03688 -0.83464,0.5174 c 0.42658,0.68796 0.86365,1.36945 1.31112,2.04412 l 0.81831,-0.54268 c 0.19538,0.29461 0.39278,0.58789 0.59216,0.87982 l 1.2533,-0.85601 c -0.83312,-1.21978 -1.63071,-2.46397 -2.39222,-3.73029 l -1.30087,0.78238 c 0.18225,0.30299 0.36654,0.60475 0.55284,0.90526 z m -4.66894,-8.69076 -0.89294,0.41118 c 0.33887,0.73544 0.68857,1.46581 1.04902,2.19077 l 0.88009,-0.43732 c 0.15742,0.31671 0.31692,0.63238 0.47848,0.94696 l 1.35118,-0.69375 c -0.6753,-1.3155 -1.31384,-2.65042 -1.91505,-4.00249 l -1.3886,0.61761 c 0.14385,0.32331 0.28979,0.64567 0.43782,0.96704 z m -3.58295,-9.20185 -0.93687,0.30141 c 0.2483,0.77135 0.50778,1.53903 0.77835,2.30272 l 0.92751,-0.32843 c 0.1182,0.33371 0.23854,0.66664 0.36101,0.99877 l 1.42685,-0.526 c -0.51209,-1.38943 -0.98619,-2.79329 -1.42174,-4.2093 l -1.4541,0.44735 c 0.10416,0.33851 0.2105,0.67635 0.31899,1.01348 z m -2.46169,-9.57017 -0.96643,0.18811 c 0.15487,0.79568 0.32127,1.58911 0.49911,2.37995 l 0.96056,-0.21597 c 0.0777,0.34558 0.15762,0.69067 0.23974,1.03523 l 1.48033,-0.35278 c -0.3435,-1.44156 -0.64778,-2.89256 -0.91228,-4.35072 l -1.49741,0.27161 c 0.0632,0.34861 0.12869,0.6968 0.19638,1.04457 z m -1.30518,-9.7957 -0.98162,0.0713 c 0.0586,0.80846 0.12905,1.61607 0.2113,2.42249 l 0.97924,-0.1 c 0.036,0.35235 0.0742,0.70448 0.1147,1.05635 l 1.51159,-0.17406 c -0.16953,-1.4719 -0.29862,-2.94824 -0.38668,-4.42675 l -1.51851,0.0904 c 0.021,0.35357 0.0444,0.70702 0.07,1.0603 z m -0.11457,-9.8788 -0.98289,-0.0486 c -0.0399,0.80959 -0.0679,1.61975 -0.0839,2.43016 l 0.98374,0.0195 c -0.007,0.35402 -0.0117,0.70809 -0.014,1.06217 l 1.52075,0.0101 c 0.01,-1.48056 0.0614,-2.96112 0.15381,-4.43939 l -1.51825,-0.0949 c -0.0221,0.35351 -0.0419,0.70717 -0.0593,1.06093 z m 1.08087,-9.82247 -0.97043,-0.16612 c -0.13675,0.79901 -0.2619,1.60001 -0.37538,2.40266 l 0.97477,0.13788 c -0.0496,0.35072 -0.0969,0.70176 -0.14202,1.05308 l 1.50928,0.19372 c 0.18868,-1.46966 0.41767,-2.93432 0.68642,-4.39171 l -1.49661,-0.27597 c -0.0642,0.34842 -0.12626,0.69725 -0.18603,1.04646 z m 2.2441,-9.62414 -0.9436,-0.28011 c -0.23072,0.77688 -0.4502,1.55714 -0.65834,2.34046 l 0.95144,0.25273 c -0.0909,0.34231 -0.1797,0.6852 -0.26625,1.02866 l 1.4756,0.37183 c 0.36206,-1.43695 0.7632,-2.86393 1.20287,-4.27863 l -1.45276,-0.45158 c -0.10516,0.3382 -0.20815,0.67709 -0.30896,1.01664 z m 3.37207,-9.28302 -0.90241,-0.39055 c -0.32184,0.74317 -0.63277,1.49113 -0.93273,2.24356 l 0.91375,0.36403 c -0.13102,0.32877 -0.25993,0.65841 -0.3867,0.98888 l 1.41972,0.54447 c 0.53006,-1.38246 1.09797,-2.74995 1.70318,-4.10017 l -1.38671,-0.6217 c -0.1448,0.32287 -0.2875,0.64671 -0.4281,0.97148 z m 4.46479,-8.79913 -0.84686,-0.49744 c -0.41009,0.69789 -0.80963,1.40199 -1.19854,2.11196 l 0.86168,0.47179 c -0.16984,0.31012 -0.33763,0.62138 -0.50335,0.93376 l 1.34163,0.71162 c 0.69268,-1.30617 1.42198,-2.59238 2.18734,-3.85633 l -1.29846,-0.78634 c -0.18317,0.30244 -0.36432,0.6061 -0.54344,0.91098 z m 5.52225,-8.17245 -0.77694,-0.60079 c -0.4955,0.64106 -0.98079,1.28972 -1.45579,1.94566 l 0.79525,0.576 c -0.20739,0.28636 -0.4128,0.57413 -0.61622,0.86329 l 1.24133,0.87329 c 0.84992,-1.20808 1.73523,-2.3912 2.65536,-3.54708 l -1.18799,-0.94549 c -0.2203,0.27687 -0.43863,0.55525 -0.655,0.83512 z m 6.5462,-7.40035 -0.6909,-0.70055 c -0.57883,0.57094 -1.14809,1.15166 -1.70737,1.74192 l 0.71414,0.67673 c -0.10787,0.11384 -0.21537,0.22804 -0.32249,0.3426 -0.13496,0.14444 -0.26933,0.2894 -0.4031,0.43488 l 1.11883,1.02947 c 0.1311,-0.14241 0.26279,-0.28431 0.39506,-0.42569 0.87784,-0.93878 1.78197,-1.85318 2.71068,-2.74217 l -1.05176,-1.09869 c -0.2562,0.24528 -0.51057,0.49245 -0.76309,0.7415 z m 7.50312,-6.44702 -0.58919,-0.78852 c -0.65115,0.48657 -1.29431,0.98387 -1.92909,1.49167 l 0.6148,0.76863 c -0.27694,0.22153 -0.55226,0.44509 -0.82593,0.67064 l 0.96754,1.17403 c 1.14197,-0.94107 2.31344,-1.84667 3.51182,-2.71524 l -0.89291,-1.23195 c -0.2872,0.20817 -0.5729,0.41842 -0.85704,0.63074 z m 8.3053,-5.37306 -0.47767,-0.86025 c -0.7104,0.39431 -1.41439,0.80031 -2.11159,1.21776 l 0.50567,0.84431 c -0.30419,0.18216 -0.60707,0.36653 -0.90862,0.5531 l 0.80048,1.29369 c 1.25845,-0.77873 2.54075,-1.51859 3.84431,-2.21801 l -0.71891,-1.34012 c -0.31244,0.16757 -0.62367,0.33742 -0.93367,0.50952 z m 8.94612,-4.2018 -0.35637,-0.91574 c -0.75657,0.29417 -1.50832,0.60098 -2.25487,0.92021 l 0.38676,0.90374 c -0.32567,0.13931 -0.65033,0.28102 -0.97396,0.4251 l 0.61829,1.38827 c 1.35028,-0.60154 2.71877,-1.1608 4.10288,-1.67623 l -0.52979,-1.42319 c -0.33188,0.12349 -0.66287,0.24944 -0.99294,0.37784 z m 9.42556,-2.93323 -0.22528,-0.95498 c -0.78966,0.18613 -1.5761,0.38588 -2.35892,0.59899 l 0.25804,0.94694 c -0.34135,0.093 -0.68202,0.18854 -1.02196,0.28666 l 0.42097,1.45773 c 1.41748,-0.40949 2.84752,-0.7733 4.28755,-1.08987 l -0.32554,-1.48117 c -0.34554,0.0759 -0.69051,0.1545 -1.03486,0.2357 z m 9.74362,-1.56735 -0.0844,-0.978 c -0.80969,0.0702 -1.61773,0.15502 -2.42376,0.25414 l 0.11954,0.9739 c -0.35126,0.0432 -0.70214,0.0891 -1.05261,0.13775 l 0.20851,1.5021 c 1.46004,-0.20258 2.927,-0.35608 4.39831,-0.45895 l -0.10615,-1.51404 c -0.35342,0.0249 -0.70658,0.0526 -1.05944,0.0831 z m 9.88818,-0.10245 0.0645,-0.97988 c -0.81141,-0.0538 -1.62423,-0.093 -2.4381,-0.11716 l -0.0284,0.98248 c -0.35451,-0.0104 -0.7092,-0.0179 -1.06404,-0.0225 l -0.019,1.51994 c 1.47673,0.0179 2.95125,0.0878 4.42099,0.20802 l 0.12397,-1.51237 c -0.35302,-0.029 -0.70632,-0.0552 -1.05989,-0.0786 z m 9.77446,1.37373 0.20666,-0.95908 c -0.79316,-0.17081 -1.58933,-0.32788 -2.38813,-0.47098 l -0.173,0.96562 c -0.34819,-0.0624 -0.69688,-0.12206 -1.04603,-0.17902 l -0.24412,1.49659 c 1.45479,0.23727 2.90174,0.52307 4.33826,0.85583 l 0.34217,-1.47751 c -0.34468,-0.0798 -0.68996,-0.15695 -1.03581,-0.23145 z m 9.47839,2.75286 0.33908,-0.92203 c -0.76184,-0.27991 -1.52829,-0.54705 -2.29895,-0.80116 l -0.3078,0.93253 c -0.3361,-0.11089 -0.67301,-0.21926 -1.01069,-0.3251 l -0.45412,1.44813 c 1.40822,0.44176 2.80296,0.92864 4.18163,1.45909 l 0.54523,-1.41756 c -0.33056,-0.12709 -0.66203,-0.25173 -0.99438,-0.3739 z m 9.02093,4.0347 0.46172,-0.86877 c -0.71745,-0.38112 -1.4411,-0.75043 -2.17055,-1.10768 l -0.43281,0.8832 c -0.31824,-0.15591 -0.63758,-0.30949 -0.95801,-0.46072 l -0.64898,1.37458 c 1.33701,0.63139 2.6549,1.3045 3.95108,2.01778 l 0.73316,-1.33252 c -0.31065,-0.17089 -0.62254,-0.33952 -0.93561,-0.50587 z m 8.40211,5.21921 0.57456,-0.79925 c -0.65999,-0.47446 -1.32776,-0.93806 -2.00292,-1.39056 l -0.54804,0.81764 c -0.29459,-0.19745 -0.59059,-0.39275 -0.88799,-0.58589 l -0.8287,1.27593 c 1.24117,0.80616 2.45757,1.65065 3.64662,2.5319 l 0.90596,-1.22237 c -0.28497,-0.21121 -0.57148,-0.42035 -0.85949,-0.6274 z m 7.6219,6.30643 0.67762,-0.7135 c -0.58946,-0.55991 -1.18829,-1.10992 -1.79609,-1.64979 l -0.65347,0.73583 c -0.26515,-0.23549 -0.53203,-0.46903 -0.80062,-0.70059 l -0.9933,1.15218 c 1.12069,0.96609 2.21097,1.9671 3.26826,3.00147 l 1.06363,-1.08713 c -0.25351,-0.24805 -0.50886,-0.49421 -0.76603,-0.73847 z m 6.68307,7.28128 0.7663,-0.61459 c -0.50691,-0.63242 -1.02398,-1.25704 -1.55112,-1.87351 l -0.74666,0.63906 c -0.23012,-0.26899 -0.46219,-0.5364 -0.69619,-0.80219 l -1.14029,1.00442 c 0.97742,1.10919 1.92049,2.24751 2.82863,3.41269 l 1.19749,-0.93317 c -0.21742,-0.27906 -0.43681,-0.55664 -0.65816,-0.83271 z m 5.66359,8.07602 0.83818,-0.51173 c -0.4219,-0.69083 -0.8543,-1.37527 -1.29713,-2.05297 l -0.82203,0.53706 c -0.19335,-0.29594 -0.38872,-0.59057 -0.58609,-0.88385 l -1.25917,0.84734 c 0.82469,1.22553 1.61379,2.47521 2.36674,3.74674 l 1.3062,-0.77358 c -0.1802,-0.30423 -0.36244,-0.60724 -0.5467,-0.90901 z m 4.61093,8.72215 0.89569,-0.40532 c -0.33403,-0.73768 -0.67891,-1.47037 -1.03455,-2.19773 l -0.88304,0.43151 c -0.15532,-0.31777 -0.31273,-0.6345 -0.4722,-0.95017 l -1.35585,0.68479 c 0.66658,1.32007 1.29633,2.65929 1.8887,4.01539 l 1.39272,-0.60851 c -0.14173,-0.32427 -0.28555,-0.6476 -0.43147,-0.96996 z m 3.52302,9.2255 0.93884,-0.29536 c -0.2433,-0.77296 -0.4978,-1.54234 -0.76342,-2.30779 l -0.92967,0.32241 c -0.11603,-0.33448 -0.23421,-0.66821 -0.35452,-1.00114 l -1.43033,0.51674 c 0.50308,1.39282 0.96811,2.7998 1.39452,4.21865 l 1.45702,-0.43795 c -0.10198,-0.33919 -0.20613,-0.67772 -0.31244,-1.01556 z m 2.39985,9.58607 0.96762,-0.18186 c -0.14972,-0.79668 -0.31099,-1.59117 -0.48371,-2.38315 l -0.96194,0.20977 c -0.0755,-0.34609 -0.15317,-0.69169 -0.23306,-1.03677 l -1.4826,0.34322 c 0.33421,1.44376 0.62912,2.8967 0.88419,4.35652 l 1.49912,-0.26192 c -0.061,-0.349 -0.12418,-0.69762 -0.18962,-1.04581 z m 1.24143,9.80385 0.98203,-0.0648 c -0.0533,-0.80882 -0.11846,-1.61687 -0.19544,-2.42381 l -0.97985,0.0936 c -0.0337,-0.35257 -0.0696,-0.70493 -0.1078,-1.05705 l -1.51266,0.16421 c 0.15995,1.47291 0.27937,2.95001 0.35771,4.42899 l 1.51902,-0.0804 c -0.0187,-0.3537 -0.0397,-0.70728 -0.063,-1.06072 z"
       transform="matrix(2.618632,0,0,2.4485911,-346.07857,-1144.854)"
       inkscape:path-effect="#path-effect7370-4-1-2-7-4" />
    <path
       style="fill:#888ff0;fill-opacity:0;stroke:none"
       d="m 428.46718,108.83427 -3.96875,13.71875 -0.0625,2.0625 0.90625,11.375 -18.34375,2.90625 -2.65625,-11.125 -0.6875,-1.90625 -8.03125,-11.84375 -12.53125,4.0625 0.46875,14.28125 0.5625,2 4.375,10.53125 -16.53125,8.4375 -5.9375,-9.75 -1.28125,-1.625 -11.28125,-8.75 -10.65625,7.71875 4.84375,13.4375 1.15625,1.71875 7.4375,8.65625 -13.15625,13.15625 -8.65625,-7.4375 -1.71875,-1.15625 -13.4375,-4.84375 -7.71875,10.65625 8.75,11.28125 1.625,1.28125 9.75,5.9375 -8.4375,16.53125 -10.53125,-4.375 -2,-0.5625 -14.28125,-0.46875 -4.0625,12.53125 11.84375,8.03125 1.90625,0.6875 11.125,2.65625 -2.90625,18.34375 -11.375,-0.90625 -2.0625,0.0625 -13.71875,3.96875 0,13.1875 13.71875,3.96875 2.0625,0.0625 11.375,-0.90625 2.90625,18.34375 -11.125,2.65625 -1.90625,0.6875 -11.84375,8.03125 4.0625,12.53125 14.28125,-0.46875 2,-0.5625 10.53125,-4.375 8.4375,16.53125 -9.75,5.9375 -1.625,1.28125 -8.75,11.28125 7.71875,10.65625 13.4375,-4.84375 1.71875,-1.15625 8.65625,-7.4375 13.15625,13.15625 -7.4375,8.65625 -1.15625,1.71875 -4.84375,13.4375 10.65625,7.71875 11.28125,-8.75 1.28125,-1.625 5.9375,-9.75 16.53125,8.4375 -4.375,10.53125 -0.5625,2 -0.46875,14.28125 12.53125,4.0625 8.03125,-11.84375 0.6875,-1.90625 2.65625,-11.125 18.34375,2.90625 -0.90625,11.375 0.0625,2.0625 3.96875,13.71875 13.1875,0 3.96875,-13.71875 0.0625,-2.0625 -0.90625,-11.375 18.34375,-2.90625 2.65625,11.125 0.6875,1.90625 8.03125,11.84375 12.53125,-4.0625 -0.46875,-14.28125 -0.5625,-2 -4.375,-10.53125 16.53125,-8.4375 5.9375,9.75 1.28125,1.625 11.28125,8.75 10.65625,-7.71875 -4.84375,-13.4375 -1.15625,-1.71875 -7.4375,-8.65625 13.15625,-13.15625 8.65625,7.4375 1.71875,1.15625 13.4375,4.84375 7.71875,-10.65625 -8.75,-11.28125 -1.625,-1.28125 -9.75,-5.9375 8.4375,-16.53125 10.53125,4.375 2,0.5625 14.28125,0.46875 4.0625,-12.53125 -11.84375,-8.03125 -1.90625,-0.6875 -11.125,-2.65625 2.90625,-18.34375 11.375,0.90625 2.0625,-0.0625 13.71875,-3.96875 0,-13.1875 -13.71875,-3.96875 -2.0625,-0.0625 -11.375,0.90625 -2.90625,-18.34375 11.125,-2.65625 1.90625,-0.6875 11.84375,-8.03125 -4.0625,-12.53125 -14.28125,0.46875 -2,0.5625 -10.53125,4.375 -8.4375,-16.53125 9.75,-5.9375 1.625,-1.28125 8.75,-11.28125 -7.71875,-10.65625 -13.4375,4.84375 -1.71875,1.15625 -8.65625,7.4375 -13.15625,-13.15625 7.4375,-8.65625 1.15625,-1.71875 4.84375,-13.4375 -10.65625,-7.71875 -11.28125,8.75 -1.28125,1.625 -5.9375,9.75 -16.53125,-8.4375 4.375,-10.53125 0.5625,-2 0.46875,-14.28125 -12.53125,-4.0625 -8.03125,11.84375 -0.6875,1.90625 -2.65625,11.125 -18.34375,-2.90625 0.90625,-11.375 -0.0625,-2.0625 -3.96875,-13.71875 z m -11.59375,49.53125 c 20.3186,-3.73607 8.3712,45.41514 0,65.625 -2.62142,6.32866 -8.20259,11.90983 -14.53125,14.53125 -20.20986,8.3712 -69.36107,20.3186 -65.625,0 3.73607,-20.31861 59.83764,-76.42018 80.15625,-80.15625 z m 36.375,0 c 20.3186,3.73607 76.42018,59.83764 80.15625,80.15625 3.73607,20.3186 -45.41514,8.3712 -65.625,0 -6.32866,-2.62142 -11.90983,-8.20259 -14.53125,-14.53125 -8.3712,-20.20986 -20.31861,-69.36107 0,-65.625 z m -18.1875,88.40625 c 5.48847,0 9.9375,4.44907 9.9375,9.9375 0,5.48843 -4.44903,9.9375 -9.9375,9.9375 -5.48847,0 -9.9375,-4.44907 -9.9375,-9.9375 0,-5.48843 4.44903,-9.9375 9.9375,-9.9375 z m -98.34375,28.125 c -3.73607,-20.31861 45.41514,-8.3712 65.625,0 6.32866,2.62142 11.90983,8.20259 14.53125,14.53125 8.3712,20.20986 20.31861,69.36107 0,65.625 -20.31861,-3.73607 -76.42018,-59.83765 -80.15625,-80.15625 z m 131.0625,0 c 20.20986,-8.3712 69.36107,-20.31861 65.625,0 -3.73607,20.3186 -59.83765,76.42018 -80.15625,80.15625 -20.31861,3.73607 -8.3712,-45.41514 0,-65.625 2.62142,-6.32866 8.20259,-11.90983 14.53125,-14.53125 z"
       id="path9325-1"
       inkscape:connector-curvature="0"
       sodipodi:nodetypes="ccccccccccccccccccccccccccccccccccccccccccccccccccccccccccccccccccccccccccccccccccccccccccccccccccccccccccccccccccccccccccccccccccccccccccccccccccccccccccccccccczaazzzzaazssssszaazzazzaa" />
  </g>
</svg>
