<?xml version="1.0" encoding="UTF-8" standalone="no"?>
<!-- Created with Inkscape (http://www.inkscape.org/) -->

<svg
   xmlns:dc="http://purl.org/dc/elements/1.1/"
   xmlns:cc="http://creativecommons.org/ns#"
   xmlns:rdf="http://www.w3.org/1999/02/22-rdf-syntax-ns#"
   xmlns:svg="http://www.w3.org/2000/svg"
   xmlns="http://www.w3.org/2000/svg"
   xmlns:sodipodi="http://sodipodi.sourceforge.net/DTD/sodipodi-0.dtd"
   xmlns:inkscape="http://www.inkscape.org/namespaces/inkscape"
   width="158.8125"
   height="158.8125"
   id="svg4875"
   version="1.1"
   inkscape:version="0.48.5 r10040"
   sodipodi:docname="gear-10T.svg">
  <sodipodi:namedview
     id="base"
     pagecolor="#ffffff"
     bordercolor="#666666"
     borderopacity="1.0"
     inkscape:pageopacity="0.0"
     inkscape:pageshadow="2"
     inkscape:zoom="2.8284271"
     inkscape:cx="78.749752"
     inkscape:cy="93.670469"
     inkscape:document-units="px"
     inkscape:current-layer="layer1"
     showgrid="false"
     inkscape:window-width="944"
     inkscape:window-height="1162"
     inkscape:window-x="0"
     inkscape:window-y="0"
     inkscape:window-maximized="0"
     fit-margin-top="0"
     fit-margin-left="0"
     fit-margin-right="0"
     fit-margin-bottom="0" />
  <defs
     id="defs4877" />
  <metadata
     id="metadata4880">
    <rdf:RDF>
      <cc:Work
         rdf:about="">
        <dc:format>image/svg+xml</dc:format>
        <dc:type
           rdf:resource="http://purl.org/dc/dcmitype/StillImage" />
        <dc:title></dc:title>
      </cc:Work>
    </rdf:RDF>
  </metadata>
  <g
     id="layer1"
     inkscape:groupmode="layer"
     inkscape:label="Layer 1"
     transform="translate(-298.26848,-370.55967)">
    <path
       style="fill:#404040;fill-opacity:1;stroke:none"
       d="M 59.96875 0.0625 L 49.25 3.625 L 49.03125 18.71875 L 49.375 19.6875 L 54.96875 30.90625 L 41.6875 40.84375 L 33.03125 31.90625 L 32.25 31.25 L 18.21875 26.8125 L 11.59375 36.1875 L 20.0625 48.53125 L 20.90625 49.09375 L 31.8125 54.78125 L 26.75 70.84375 L 14.65625 68.84375 L 13.625 68.8125 L -0.25 73.6875 L -0.25 85.25 L 13.625 90.125 L 14.65625 90.09375 L 26.75 88.09375 L 31.8125 104.15625 L 20.90625 109.84375 L 20.0625 110.40625 L 11.59375 122.75 L 18.21875 132.125 L 32.25 127.6875 L 33.03125 127.03125 L 41.6875 118.09375 L 54.96875 128.03125 L 49.375 139.25 L 49.03125 140.21875 L 49.25 155.28125 L 59.96875 158.875 L 68.78125 146.8125 L 69.0625 145.8125 L 70.9375 133.34375 L 87.375 133.34375 L 89.25 145.8125 L 89.53125 146.8125 L 98.34375 158.875 L 109.03125 155.28125 L 109.28125 140.21875 L 108.90625 139.25 L 103.34375 128.03125 L 116.625 118.09375 L 125.25 127.03125 L 126.0625 127.6875 L 140.09375 132.125 L 146.71875 122.75 L 138.25 110.40625 L 137.40625 109.84375 L 126.46875 104.15625 L 131.5625 88.09375 L 143.65625 90.09375 L 144.6875 90.125 L 158.5625 85.25 L 158.5625 73.6875 L 144.6875 68.8125 L 143.65625 68.84375 L 131.5625 70.84375 L 126.46875 54.78125 L 137.40625 49.09375 L 138.25 48.53125 L 146.71875 36.1875 L 140.09375 26.8125 L 126.0625 31.25 L 125.25 31.90625 L 116.625 40.84375 L 103.34375 30.90625 L 108.90625 19.6875 L 109.28125 18.71875 L 109.03125 3.625 L 98.34375 0.0625 L 89.53125 12.125 L 89.25 13.125 L 87.375 25.59375 L 70.9375 25.59375 L 69.0625 13.125 L 68.78125 12.125 L 59.96875 0.0625 z M 75.03125 34.65625 L 75.75 36.0625 L 76.28125 37.46875 L 76.65625 37.4375 L 76.65625 44.5625 C 59.311001 45.781808 45.469308 59.623501 44.25 76.96875 L 37.125 76.96875 L 37.15625 76.59375 L 35.75 76.0625 L 34.34375 75.34375 L 34.46875 74.1875 L 35.96875 73.78125 L 37.46875 73.53125 L 37.6875 72.21875 L 36.34375 71.53125 L 35.03125 70.65625 L 35.25 69.5625 L 36.8125 69.3125 L 38.3125 69.21875 L 38.65625 67.9375 L 37.40625 67.09375 L 36.1875 66.09375 L 36.53125 65.03125 L 38.09375 64.9375 L 39.625 65 L 40.09375 63.75 L 38.90625 62.8125 L 37.8125 61.6875 L 38.28125 60.65625 L 39.84375 60.71875 L 41.34375 60.9375 L 41.9375 59.75 L 40.875 58.6875 L 39.90625 57.46875 L 40.46875 56.46875 L 42.03125 56.71875 L 43.5 57.09375 L 44.21875 55.96875 L 43.25 54.8125 L 42.40625 53.46875 L 43.09375 52.5625 L 44.59375 52.96875 L 46.03125 53.5 L 46.875 52.46875 L 46.03125 51.1875 L 45.34375 49.78125 L 46.09375 48.9375 L 47.5625 49.5 L 48.90625 50.1875 L 49.875 49.21875 L 49.1875 47.875 L 48.625 46.40625 L 49.46875 45.65625 L 50.875 46.34375 L 52.15625 47.1875 L 53.1875 46.34375 L 52.65625 44.90625 L 52.25 43.40625 L 53.15625 42.71875 L 54.5 43.5625 L 55.65625 44.53125 L 56.78125 43.8125 L 56.40625 42.34375 L 56.15625 40.78125 L 57.15625 40.21875 L 58.375 41.1875 L 59.4375 42.25 L 60.625 41.65625 L 60.40625 40.15625 L 60.34375 38.59375 L 61.375 38.125 L 62.5 39.21875 L 63.4375 40.40625 L 64.6875 39.9375 L 64.625 38.40625 L 64.71875 36.84375 L 65.78125 36.5 L 66.78125 37.71875 L 67.625 38.96875 L 68.90625 38.625 L 69 37.125 L 69.25 35.5625 L 70.34375 35.34375 L 71.21875 36.65625 L 71.90625 38 L 73.21875 37.78125 L 73.46875 36.28125 L 73.875 34.78125 L 75.03125 34.65625 z M 83.28125 34.65625 L 84.4375 34.78125 L 84.84375 36.28125 L 85.09375 37.78125 L 86.40625 38 L 87.09375 36.65625 L 87.96875 35.34375 L 89.0625 35.5625 L 89.3125 37.125 L 89.40625 38.625 L 90.6875 38.96875 L 91.53125 37.71875 L 92.53125 36.5 L 93.59375 36.84375 L 93.6875 38.40625 L 93.625 39.9375 L 94.875 40.40625 L 95.8125 39.21875 L 96.9375 38.125 L 97.96875 38.59375 L 97.90625 40.15625 L 97.6875 41.65625 L 98.875 42.25 L 99.9375 41.1875 L 101.15625 40.21875 L 102.15625 40.78125 L 101.90625 42.34375 L 101.53125 43.8125 L 102.65625 44.53125 L 103.8125 43.5625 L 105.15625 42.71875 L 106.0625 43.40625 L 105.65625 44.90625 L 105.125 46.34375 L 106.15625 47.1875 L 107.4375 46.34375 L 108.84375 45.65625 L 109.6875 46.40625 L 109.125 47.875 L 108.4375 49.21875 L 109.40625 50.1875 L 110.75 49.5 L 112.21875 48.9375 L 112.96875 49.78125 L 112.28125 51.1875 L 111.4375 52.46875 L 112.28125 53.5 L 113.71875 52.96875 L 115.21875 52.5625 L 115.90625 53.46875 L 115.0625 54.8125 L 114.09375 55.96875 L 114.8125 57.09375 L 116.28125 56.71875 L 117.84375 56.46875 L 118.40625 57.46875 L 117.4375 58.6875 L 116.375 59.75 L 116.96875 60.9375 L 118.46875 60.71875 L 120.03125 60.65625 L 120.5 61.6875 L 119.40625 62.8125 L 118.21875 63.75 L 118.6875 65 L 120.21875 64.9375 L 121.78125 65.03125 L 122.125 66.09375 L 120.90625 67.09375 L 119.65625 67.9375 L 120 69.21875 L 121.5 69.3125 L 123.0625 69.5625 L 123.28125 70.65625 L 121.96875 71.53125 L 120.625 72.21875 L 120.84375 73.53125 L 122.34375 73.78125 L 123.84375 74.1875 L 123.96875 75.34375 L 122.5625 76.0625 L 121.15625 76.59375 L 121.1875 76.96875 L 114.0625 76.96875 C 112.84319 59.623501 99.001499 45.781808 81.65625 44.5625 L 81.65625 37.4375 L 82.03125 37.46875 L 82.5625 36.0625 L 83.28125 34.65625 z M 76.59375 54.59375 C 76.614139 54.591679 76.635846 54.595772 76.65625 54.59375 L 76.65625 75.15625 C 75.912245 75.591104 75.278604 76.224745 74.84375 76.96875 L 54.28125 76.96875 C 55.449877 65.17403 64.807386 55.790721 76.59375 54.59375 z M 81.65625 54.59375 C 93.471375 55.764399 102.8606 65.153626 104.03125 76.96875 L 83.46875 76.96875 C 83.033896 76.224745 82.400255 75.591104 81.65625 75.15625 L 81.65625 54.59375 z M 35.53125 78.375 L 35.53125 80.5625 L 34.15625 80.03125 L 34.15625 78.90625 L 35.53125 78.375 z M 37.125 81.96875 L 44.25 81.96875 C 45.469308 99.313999 59.311001 113.15569 76.65625 114.375 L 76.65625 121.5 L 76.28125 121.46875 L 75.75 122.875 L 75.03125 124.28125 L 73.875 124.15625 L 73.46875 122.65625 L 73.21875 121.15625 L 71.90625 120.9375 L 71.21875 122.28125 L 70.34375 123.59375 L 69.25 123.375 L 69 121.8125 L 68.90625 120.3125 L 67.625 119.96875 L 66.78125 121.21875 L 65.78125 122.4375 L 64.71875 122.09375 L 64.625 120.53125 L 64.6875 119 L 63.4375 118.53125 L 62.5 119.71875 L 61.375 120.8125 L 60.34375 120.34375 L 60.40625 118.78125 L 60.625 117.28125 L 59.4375 116.6875 L 58.375 117.75 L 57.15625 118.71875 L 56.15625 118.15625 L 56.40625 116.59375 L 56.78125 115.125 L 55.65625 114.40625 L 54.5 115.375 L 53.15625 116.21875 L 52.25 115.53125 L 52.65625 114.03125 L 53.1875 112.59375 L 52.15625 111.75 L 50.875 112.59375 L 49.46875 113.28125 L 48.625 112.53125 L 49.1875 111.0625 L 49.875 109.71875 L 48.90625 108.75 L 47.5625 109.4375 L 46.09375 110 L 45.34375 109.15625 L 46.03125 107.75 L 46.875 106.46875 L 46.03125 105.4375 L 44.59375 105.96875 L 43.09375 106.375 L 42.40625 105.46875 L 43.25 104.125 L 44.21875 102.96875 L 43.5 101.84375 L 42.03125 102.21875 L 40.46875 102.46875 L 39.90625 101.46875 L 40.875 100.25 L 41.9375 99.1875 L 41.34375 98 L 39.84375 98.21875 L 38.28125 98.28125 L 37.8125 97.25 L 38.90625 96.125 L 40.09375 95.1875 L 39.625 93.9375 L 38.09375 94 L 36.53125 93.90625 L 36.1875 92.84375 L 37.40625 91.84375 L 38.65625 91 L 38.3125 89.71875 L 36.8125 89.625 L 35.25 89.375 L 35.03125 88.28125 L 36.34375 87.40625 L 37.6875 86.71875 L 37.46875 85.40625 L 35.96875 85.15625 L 34.46875 84.75 L 34.34375 83.59375 L 35.75 82.875 L 37.15625 82.34375 L 37.125 81.96875 z M 54.28125 81.96875 L 74.84375 81.96875 C 75.278604 82.712755 75.912245 83.346396 76.65625 83.78125 L 76.65625 104.34375 C 64.841125 103.1731 55.451898 93.783874 54.28125 81.96875 z M 83.46875 81.96875 L 104.03125 81.96875 C 102.8606 93.783874 93.471375 103.1731 81.65625 104.34375 L 81.65625 83.78125 C 82.400255 83.346396 83.033896 82.712755 83.46875 81.96875 z M 114.0625 81.96875 L 121.1875 81.96875 L 121.15625 82.34375 L 122.5625 82.875 L 123.96875 83.59375 L 123.84375 84.75 L 122.34375 85.15625 L 120.84375 85.40625 L 120.625 86.71875 L 121.96875 87.40625 L 123.28125 88.28125 L 123.0625 89.375 L 121.5 89.625 L 120 89.71875 L 119.65625 91 L 120.90625 91.84375 L 122.125 92.84375 L 121.78125 93.90625 L 120.21875 94 L 118.6875 93.9375 L 118.21875 95.1875 L 119.40625 96.125 L 120.5 97.25 L 120.03125 98.28125 L 118.46875 98.21875 L 116.96875 98 L 116.375 99.1875 L 117.4375 100.25 L 118.40625 101.46875 L 117.84375 102.46875 L 116.28125 102.21875 L 114.8125 101.84375 L 114.09375 102.96875 L 115.0625 104.125 L 115.90625 105.46875 L 115.21875 106.375 L 113.71875 105.96875 L 112.28125 105.4375 L 111.4375 106.46875 L 112.28125 107.75 L 112.96875 109.15625 L 112.21875 110 L 110.75 109.4375 L 109.40625 108.75 L 108.4375 109.71875 L 109.125 111.0625 L 109.6875 112.53125 L 108.84375 113.28125 L 107.4375 112.59375 L 106.15625 111.75 L 105.125 112.59375 L 105.65625 114.03125 L 106.0625 115.53125 L 105.15625 116.21875 L 103.8125 115.375 L 102.65625 114.40625 L 101.53125 115.125 L 101.90625 116.59375 L 102.15625 118.15625 L 101.15625 118.71875 L 99.9375 117.75 L 98.875 116.6875 L 97.6875 117.28125 L 97.90625 118.78125 L 97.96875 120.34375 L 96.9375 120.8125 L 95.8125 119.71875 L 94.875 118.53125 L 93.625 119 L 93.6875 120.53125 L 93.59375 122.09375 L 92.53125 122.4375 L 91.53125 121.21875 L 90.6875 119.96875 L 89.40625 120.3125 L 89.3125 121.8125 L 89.0625 123.375 L 87.96875 123.59375 L 87.09375 122.28125 L 86.40625 120.9375 L 85.09375 121.15625 L 84.84375 122.65625 L 84.4375 124.15625 L 83.28125 124.28125 L 82.5625 122.875 L 82.03125 121.46875 L 81.65625 121.5 L 81.65625 114.375 C 99.001499 113.15569 112.84319 99.313999 114.0625 81.96875 z "
       transform="translate(298.26848,370.55967)"
       id="path4890-1" />
  </g>
</svg>
