<?xml version="1.0" encoding="UTF-8" standalone="no"?>
<!-- Created with Inkscape (http://www.inkscape.org/) -->

<svg
   xmlns:dc="http://purl.org/dc/elements/1.1/"
   xmlns:cc="http://creativecommons.org/ns#"
   xmlns:rdf="http://www.w3.org/1999/02/22-rdf-syntax-ns#"
   xmlns:svg="http://www.w3.org/2000/svg"
   xmlns="http://www.w3.org/2000/svg"
   xmlns:sodipodi="http://sodipodi.sourceforge.net/DTD/sodipodi-0.dtd"
   xmlns:inkscape="http://www.inkscape.org/namespaces/inkscape"
   width="105.699"
   height="105.699"
   id="svg7198"
   version="1.1"
   inkscape:version="0.48.5 r10040"
   sodipodi:docname="gear-6T.svg">
  <sodipodi:namedview
     id="base"
     pagecolor="#ffffff"
     bordercolor="#666666"
     borderopacity="1.0"
     inkscape:pageopacity="0.0"
     inkscape:pageshadow="2"
     inkscape:zoom="2.8"
     inkscape:cx="19.069286"
     inkscape:cy="-22.679617"
     inkscape:document-units="px"
     inkscape:current-layer="layer1"
     showgrid="false"
     inkscape:window-width="944"
     inkscape:window-height="1162"
     inkscape:window-x="0"
     inkscape:window-y="0"
     inkscape:window-maximized="0"
     fit-margin-top="0"
     fit-margin-left="0"
     fit-margin-right="0"
     fit-margin-bottom="0" />
  <defs
     id="defs7200" />
  <metadata
     id="metadata7203">
    <rdf:RDF>
      <cc:Work
         rdf:about="">
        <dc:format>image/svg+xml</dc:format>
        <dc:type
           rdf:resource="http://purl.org/dc/dcmitype/StillImage" />
        <dc:title></dc:title>
      </cc:Work>
    </rdf:RDF>
  </metadata>
  <g
     inkscape:label="Layer 1"
     inkscape:groupmode="layer"
     id="layer1"
     transform="translate(-360.33255,-430.40605)">
    <path
       style="fill:#404040;fill-opacity:1;stroke:none"
       d="M 30.59375 0 L 22.25 5.28125 L 24.71875 21.96875 L 25.09375 22.5 L 34.0625 32.3125 L 27.21875 45.25 L 15 41.65625 L 14.40625 41.53125 L 0 47.5625 L 0 58.125 L 14.40625 64.15625 L 15 64.0625 L 27.21875 60.4375 L 34.0625 73.40625 L 25.09375 83.1875 L 24.71875 83.71875 L 22.25 100.4375 L 30.59375 105.6875 L 42.53125 95.03125 L 42.78125 94.40625 L 46.03125 80.96875 L 59.6875 80.96875 L 62.9375 94.40625 L 63.15625 95.03125 L 75.125 105.6875 L 83.4375 100.4375 L 81 83.71875 L 80.625 83.1875 L 71.65625 73.40625 L 78.46875 60.4375 L 90.6875 64.0625 L 91.28125 64.15625 L 105.6875 58.125 L 105.6875 47.5625 L 91.28125 41.53125 L 90.6875 41.65625 L 78.46875 45.25 L 71.65625 32.3125 L 80.625 22.5 L 81 21.96875 L 83.4375 5.28125 L 75.125 0 L 63.15625 10.6875 L 62.9375 11.28125 L 59.6875 24.71875 L 46.03125 24.71875 L 42.78125 11.28125 L 42.53125 10.6875 L 30.59375 0 z M 52.84375 29.84375 C 65.546299 29.84375 75.84375 40.141201 75.84375 52.84375 C 75.84375 65.546299 65.546299 75.84375 52.84375 75.84375 C 40.141201 75.84375 29.84375 65.546299 29.84375 52.84375 C 29.84375 40.141201 40.141201 29.84375 52.84375 29.84375 z M 52.84375 30.34375 C 40.417343 30.34375 30.34375 40.417343 30.34375 52.84375 C 30.34375 65.270157 40.417343 75.34375 52.84375 75.34375 C 65.270157 75.34375 75.34375 65.270157 75.34375 52.84375 C 75.34375 40.417343 65.270157 30.34375 52.84375 30.34375 z M 52.84375 35.34375 C 62.508733 35.34375 70.34375 43.178767 70.34375 52.84375 C 70.34375 62.508733 62.508733 70.34375 52.84375 70.34375 C 43.178767 70.34375 35.34375 62.508733 35.34375 52.84375 C 35.34375 43.178767 43.178767 35.34375 52.84375 35.34375 z "
       transform="translate(360.33255,430.40605)"
       id="path7229" />
  </g>
</svg>
