<?xml version="1.0" encoding="UTF-8" standalone="no"?>
<!-- Created with Inkscape (http://www.inkscape.org/) -->

<svg
   xmlns:dc="http://purl.org/dc/elements/1.1/"
   xmlns:cc="http://creativecommons.org/ns#"
   xmlns:rdf="http://www.w3.org/1999/02/22-rdf-syntax-ns#"
   xmlns:svg="http://www.w3.org/2000/svg"
   xmlns="http://www.w3.org/2000/svg"
   xmlns:sodipodi="http://sodipodi.sourceforge.net/DTD/sodipodi-0.dtd"
   xmlns:inkscape="http://www.inkscape.org/namespaces/inkscape"
   version="1.1"
   width="885.82501"
   height="885.82501"
   id="svg2"
   xml:space="preserve"
   inkscape:version="0.48.5 r10040"
   sodipodi:docname="thinkingShadow.svg"><sodipodi:namedview
     pagecolor="#ffffff"
     bordercolor="#666666"
     borderopacity="1"
     objecttolerance="10"
     gridtolerance="10"
     guidetolerance="10"
     inkscape:pageopacity="0"
     inkscape:pageshadow="2"
     inkscape:window-width="1920"
     inkscape:window-height="1178"
     id="namedview79"
     showgrid="false"
     inkscape:zoom="0.75354475"
     inkscape:cx="150.90891"
     inkscape:cy="254.30309"
     inkscape:window-x="-8"
     inkscape:window-y="-8"
     inkscape:window-maximized="1"
     inkscape:current-layer="svg2" /><metadata
     id="metadata8"><rdf:RDF><cc:Work
         rdf:about=""><dc:format>image/svg+xml</dc:format><dc:type
           rdf:resource="http://purl.org/dc/dcmitype/StillImage" /><dc:title></dc:title></cc:Work></rdf:RDF></metadata><defs
     id="defs6"><clipPath
       id="clipPath18"><path
         d="m 0,708.66 708.66,0 L 708.66,0 0,0 0,708.66 z"
         inkscape:connector-curvature="0"
         id="path20" /></clipPath></defs><g
     id="g3136"
     style="fill:#404040;fill-opacity:1"><path
       style="fill:#404040;fill-opacity:1;fill-rule:nonzero;stroke:none"
       id="path36"
       inkscape:connector-curvature="0"
       d="m 418.75,798.6155 c 0,15.26125 -71.635,27.63375 -160,27.63375 -88.365,0 -160,-12.3725 -160,-27.63375 0,-15.2625 71.635,-27.63375 160,-27.63375 88.365,0 160,12.37125 160,27.63375" /><path
       style="fill:#404040;fill-opacity:1;fill-rule:nonzero;stroke:none"
       id="path40"
       inkscape:connector-curvature="0"
       d="m 204.63312,787.5255 c 4.42375,-11.70375 16.47875,-18.7825 21.385,-30.72375 4.095,-10.285 6.49625,-18.1675 7.8875,-22.94125 -5.41,11.00625 -13.8125,15.69375 -19.88375,24.0275 -5.22,7.0225 -13.2075,15.09625 -13.0625,25.1675 l 3.67375,4.47 z" /><path
       style="fill:#404040;fill-opacity:1;fill-rule:nonzero;stroke:none"
       id="path44"
       inkscape:connector-curvature="0"
       d="m 205.43575,789.36875 c 10.61125,-10.4575 23.19125,-11.585 32.19375,-22.88625 5.50875,-6.7975 7.97,-13.8275 9.28375,-22.54625 -6.2475,7.2175 -10.175,13.71125 -18.4075,19.1275 -5.59375,3.54125 -11.91875,6.12875 -17.62125,10.51 -3.16375,1.98 -8.17375,11.4275 -9.5425,11.42 l 4.09375,4.375 z" /><path
       style="fill:#404040;fill-opacity:1;fill-rule:nonzero;stroke:none"
       id="path48"
       inkscape:connector-curvature="0"
       d="m 208.736,792.51813 c 5.3,-12.2975 12.055,-22.87625 13.445,-35.8875 1.22875,-11.0875 -2.33375,-21.97875 -5.38,-31.93 1.4275,11.45875 -2.45375,22.17125 -5.60875,33.0975 -2.62875,9.1025 -10.615,18.18375 -9.0375,28.52 l 6.58125,6.2 z" /><path
       style="fill:#404040;fill-opacity:1;fill-rule:nonzero;stroke:none"
       id="path52"
       inkscape:connector-curvature="0"
       d="m 205.69462,785.59313 c 0.0663,-9.2725 12.0025,-15.41875 10.8325,-27.5825 -0.81,-7.435 -3.235,-14.4175 -6.625,-21.27875 0.77625,6.75875 -0.38875,15.62125 -1.965,22.81125 -2.04375,8.22375 -5.25625,16.37375 -4.94125,22.855 0.115,2.38125 2.69875,3.195 2.69875,3.195" /><path
       style="fill:#404040;fill-opacity:1;fill-rule:nonzero;stroke:none"
       id="path56"
       inkscape:connector-curvature="0"
       d="m 207.07825,784.32113 c 1.91625,-7.065 18.365,-11.38875 23.6225,-20.63875 4.765,-8.225 5.81625,-15.70375 5.645,-25.025 -3.54375,10.065 -10.02,17.475 -17.345,24.90125 -5.155,5.51625 -14.75,14.2675 -13.5875,19.3575 0.82,3.5875 1.665,1.405 1.665,1.405" /><path
       style="fill:#404040;fill-opacity:1;fill-rule:nonzero;stroke:none"
       id="path60"
       inkscape:connector-curvature="0"
       d="m 204.93162,788.18463 c 3.78875,-4.72375 7.76625,-4.755 12.01625,-8.60875 3.5575,-2.45125 6.40625,-6.99 8.76375,-10.95125 3.69,-7.3025 6.46875,-15.875 9.04625,-23.62125 -3.73625,6.7675 -7.0925,14.85125 -12.81,20.44 -5.2275,5.0075 -17.37875,7.64125 -17.60625,16.37375 l 0.59,6.3675 z" /><path
       style="fill:#404040;fill-opacity:1;fill-rule:nonzero;stroke:none"
       id="path64"
       inkscape:connector-curvature="0"
       d="m 205.43575,789.36875 c -1.6425,-3.68125 0.0525,-15.2225 1.74875,-17.955 4.9625,-7.9775 3.56375,-13.13625 3.00625,-20.0725 -0.44625,-8.97375 -2.14,-19.77625 -7.62,-26.895 -1.08625,8.68375 -0.32,16.9675 -2.25375,25.6775 -1.615,8.02125 -15.3925,22.06875 -5.97125,30.0525 9.425,7.98625 11.09,9.1925 11.09,9.1925" /><path
       style="fill:#404040;fill-opacity:1;fill-rule:nonzero;stroke:none"
       id="path68"
       inkscape:connector-curvature="0"
       d="m 200.76787,650.6565 106.1225,0 c 0,0 5.05875,83.76875 6.75625,119.48 0,0 39.8475,-3.405 41.31375,22.105 l -52.1075,0 -17.0075,-121.59 -60.22,0.8525 -17.15,120.7375 -51.25875,0 c -6.775,-11.9 25.07625,-26.2525 42.08125,-24.6525 l 1.47,-116.9325 z" /><path
       style="fill:#404040;fill-opacity:1;fill-rule:nonzero;stroke:none"
       id="path72"
       inkscape:connector-curvature="0"
       d="m 153.20125,792.241 59.89375,0 0,-32.52125 -19.96125,0 0,6.84 c 0,0 -39.9325,-4.33 -39.9325,25.68125" /><path
       style="fill:#404040;fill-opacity:1;fill-rule:nonzero;stroke:none"
       id="path76"
       inkscape:connector-curvature="0"
       d="m 297.6855,759.72025 1.835,32.52125 55.44,0 c 0,0 7.21625,-27.295 -37.24125,-24.41 l 0.505,-8.11125 -20.53875,0 z" /><path
       style="fill:#404040;fill-opacity:1;fill-rule:nonzero;stroke:none"
       id="path80"
       inkscape:connector-curvature="0"
       d="m 230.863,516.47325 c 0,0 -38.60125,93.69125 -35.4425,139.60125 0,0 114.88875,3.99 115.95,0.52 4.53625,-14.73875 -22.82375,-121.98375 -43.3775,-140.12125 l -37.13,0 z" /><path
       style="fill:#404040;fill-opacity:1;fill-rule:nonzero;stroke:none"
       id="path84"
       inkscape:connector-curvature="0"
       d="m 202.655,636.73075 c 0,0 17.44375,-13.9525 25.45375,3.49125 13.04875,28.40875 -0.93375,42.855 -16.73125,42.63375 -13.04,-0.1825 -29.585,-20.525 -32.10375,-26.63625 -2.5175,-6.1125 23.38125,-19.48875 23.38125,-19.48875" /><path
       style="fill:#404040;fill-opacity:1;fill-rule:nonzero;stroke:none"
       id="path88"
       inkscape:connector-curvature="0"
       d="m 223.006,543.6985 c 0,0 -55.23875,34.8875 -52.91375,62.79875 2.49375,29.895 26.40875,34.73125 25.6875,35.455 -3.87375,3.87375 -10.77375,21.4525 -10.77375,21.4525 0,0 -35.85875,-12.99375 -39.03875,-52.25625 -3.20125,-39.54125 72.86875,-84.35125 80.89,-85.67125 L 223.006,543.6985 z" /><path
       style="fill:#404040;fill-opacity:1;fill-rule:nonzero;stroke:none"
       id="path92"
       inkscape:connector-curvature="0"
       d="m 174.508,560.71762 11.855,11.97625 -9.04875,12.31625 -6.03875,-21.23375 3.2325,-3.05875 z" /><path
       style="fill:#404040;fill-opacity:1;fill-rule:nonzero;stroke:none"
       id="path96"
       inkscape:connector-curvature="0"
       d="m 169.43912,556.19238 21.095,20.5675 38.34375,-24.6675 0,-26.17625 c 0,0 -32.015,-5.4475 -59.43875,30.27625" /><path
       style="fill:#404040;fill-opacity:1;fill-rule:nonzero;stroke:none"
       id="path100"
       inkscape:connector-curvature="0"
       d="m 363.22025,415.87325 c 0,61.97875 -50.24625,112.22625 -112.2225,112.22625 -61.98375,0 -112.2275,-50.2475 -112.2275,-112.22625 0,-61.97875 50.24375,-112.22375 112.2275,-112.22375 61.97625,0 112.2225,50.245 112.2225,112.22375" /><path
       style="fill:#404040;fill-opacity:1;fill-rule:nonzero;stroke:none"
       id="path104"
       inkscape:connector-curvature="0"
       d="m 155.96187,394.81063 c 0,0 20.5375,-52.17375 34.0375,-48.56125 46.3625,12.40625 68.75625,-13.54 121.87,5 0,0 21.02875,26.875 28.46875,37.58375 l -16.58875,-58.83375 -144.93,-7.5 -22.8575,72.31125 z" /><path
       style="fill:#404040;fill-opacity:1;fill-rule:nonzero;stroke:none"
       id="path108"
       inkscape:connector-curvature="0"
       d="m 230.89112,526.30113 c 0,0 15.40625,-33.255 26.4725,-32.2925 11.065,0.9625 43.5625,15.39125 45.95625,21.16625 0,0 -41.44625,21.605 -72.42875,11.12625" /><path
       style="fill:#404040;fill-opacity:1;fill-rule:nonzero;stroke:none"
       id="path112"
       inkscape:connector-curvature="0"
       d="m 261.452,578.52038 19.82125,-14.03 c 0,0 31.605,48.705 38.27375,42.58 16.49875,-15.155 -31.94125,-58.215 -45.98875,-66.39375 l 3.28875,-12.21875 c 0,0 50.2775,18.71375 63.60875,48.5425 20.07875,44.9325 -12.99125,70.24375 -33.67875,58.69625 -15.9975,-8.92625 -45.325,-57.17625 -45.325,-57.17625" /><path
       style="fill:#404040;fill-opacity:1;fill-rule:nonzero;stroke:none"
       id="path116"
       inkscape:connector-curvature="0"
       d="m 328.93,560.71762 -17.26375,14.9775 c 0,0 7.83125,11.58875 8.6325,13.4325 0,0 2.20125,-20.3775 8.63125,-28.41" /><path
       style="fill:#404040;fill-opacity:1;fill-rule:nonzero;stroke:none"
       id="path120"
       inkscape:connector-curvature="0"
       d="m 269.39087,550.10725 5.16625,-24.4875 c 0,0 45.35125,11.4475 58.34125,31.65375 l -24.5375,21.29125 c 0,0 -28.86625,-28.4575 -38.97,-28.4575" /><path
       style="fill:#404040;fill-opacity:1;fill-rule:nonzero;stroke:none"
       id="path124"
       inkscape:connector-curvature="0"
       d="m 241.95675,546.9505 c 0,0 -8.93625,-14.46 -4.22125,-24.79625 5.08375,-11.14125 19.4125,-27.32125 24.83,-24.2075 5.41875,3.11125 14.71375,24.33 16.905,28.80875 2.18875,4.48125 2.8725,1.7925 2.8725,1.7925 l 6.34,-13.0675 c 0,0 11.39375,-1.94 8.545,6.54 -2.84875,8.47625 -6.79125,18.855 -9.07625,27.2375 -2.28375,8.38 -7.94375,21.33375 -2.3,22.07 l -21.3175,12.12875 -22.5775,-36.50625 z" /><path
       style="fill:#404040;fill-opacity:1;fill-rule:nonzero;stroke:none"
       id="path128"
       inkscape:connector-curvature="0"
       d="m 348.158,314.4005 c 0,0 -16.8325,-105.95375 -227.695,-77.045 0,0 -6.15125,40.0925 25.075,69.65 -37.33625,44.8675 -16.77875,111.6975 -16.77875,111.6975 l 27,0.57125 c -7.18,-34.45625 22.55125,-76.6875 31.98375,-89.00375 22.9775,6.92 53.63125,9.85875 94.5575,5.83 25.9475,-2.55625 33.6575,2.10625 33.6575,2.10625 0,0 30.22,42.0875 28.5225,81.2 l 24.54875,1.7175 c 0,0 26.45625,-94.3825 -20.87125,-106.72375" /><path
       style="fill:#404040;fill-opacity:1;fill-rule:nonzero;stroke:none"
       id="path132"
       inkscape:connector-curvature="0"
       d="m 150.10562,418.76938 c 1.525,13.9575 -2.7575,25.86875 -9.56125,26.615 -6.805,0.74125 -13.55625,-9.9675 -15.08,-23.925 -1.52375,-13.95625 2.7575,-25.8725 9.5625,-26.6125 6.80625,-0.74375 13.555,9.97125 15.07875,23.9225" /><path
       style="fill:#404040;fill-opacity:1;fill-rule:nonzero;stroke:none"
       id="path136"
       inkscape:connector-curvature="0"
       d="m 376.26525,420.72863 c -0.94125,13.92625 -7.2075,24.84125 -13.99625,24.385 -6.7925,-0.46 -11.53125,-12.125 -10.59,-26.05 0.94125,-13.92125 7.21125,-24.84 13.99875,-24.375 6.78625,0.4575 11.525,12.12 10.5875,26.04" /><path
       style="fill:#404040;fill-opacity:1;fill-rule:nonzero;stroke:none"
       id="path140"
       inkscape:connector-curvature="0"
       d="m 201.05038,412.80738 c 0,5.86875 3.9625,10.62875 8.8475,10.62875 4.8875,0 8.8525,-4.76 8.8525,-10.62875 0,-5.87 -3.965,-10.62875 -8.8525,-10.62875 -4.885,0 -8.8475,4.75875 -8.8475,10.62875" /><path
       style="fill:#404040;fill-opacity:1;fill-rule:nonzero;stroke:none"
       id="path144"
       inkscape:connector-curvature="0"
       d="m 210.20138,405.76337 c 0,1.0375 0.6975,1.87625 1.555,1.87625 0.86,0 1.55625,-0.83875 1.55625,-1.87625 0,-1.03875 -0.69625,-1.87875 -1.55625,-1.87875 -0.8575,0 -1.555,0.84 -1.555,1.87875" /><path
       style="fill:#404040;fill-opacity:1;fill-rule:nonzero;stroke:none"
       id="path148"
       inkscape:connector-curvature="0"
       d="m 286.25975,413.69188 c 0,5.69875 4.05375,10.31875 9.05375,10.31875 5.00125,0 9.055,-4.62 9.055,-10.31875 0,-5.70125 -4.05375,-10.31875 -9.055,-10.31875 -5,0 -9.05375,4.6175 -9.05375,10.31875" /><path
       style="fill:#404040;fill-opacity:1;fill-rule:nonzero;stroke:none"
       id="path152"
       inkscape:connector-curvature="0"
       d="m 295.14463,406.97313 c 0,1.2425 0.87875,2.25 1.96375,2.25 1.085,0 1.965,-1.0075 1.965,-2.25 0,-1.24375 -0.88,-2.25 -1.965,-2.25 -1.085,0 -1.96375,1.00625 -1.96375,2.25" /><path
       style="fill:#404040;fill-opacity:1;fill-rule:nonzero;stroke:none"
       id="path156"
       inkscape:connector-curvature="0"
       d="m 223.05237,477.3875 c 11.92125,3.8775 24.5325,6.355 37.0375,7.10125 12.52125,0.74625 30.22625,-0.97625 34.55125,-15.1575 0.17125,-0.56375 -2.49625,-0.1075 -2.7225,0.635 -5.06125,16.5975 -27.73625,14.04375 -41.16875,12.09125 -8.59,-1.2475 -17.21625,-3.21375 -25.4775,-5.89875 -0.645,-0.21 -3.10125,0.9425 -2.22,1.22875" /></g></svg>