<?xml version="1.0" encoding="UTF-8" standalone="no"?>
<!-- Created with Inkscape (http://www.inkscape.org/) -->

<svg
   xmlns:dc="http://purl.org/dc/elements/1.1/"
   xmlns:cc="http://creativecommons.org/ns#"
   xmlns:rdf="http://www.w3.org/1999/02/22-rdf-syntax-ns#"
   xmlns:svg="http://www.w3.org/2000/svg"
   xmlns="http://www.w3.org/2000/svg"
   xmlns:sodipodi="http://sodipodi.sourceforge.net/DTD/sodipodi-0.dtd"
   xmlns:inkscape="http://www.inkscape.org/namespaces/inkscape"
   version="1.1"
   width="548.96777"
   height="120.7155"
   id="svg2"
   xml:space="preserve"
   inkscape:version="0.48.5 r10040"
   sodipodi:docname="TrainSet.svg"><sodipodi:namedview
     pagecolor="#ffffff"
     bordercolor="#666666"
     borderopacity="1"
     objecttolerance="10"
     gridtolerance="10"
     guidetolerance="10"
     inkscape:pageopacity="0"
     inkscape:pageshadow="2"
     inkscape:window-width="1600"
     inkscape:window-height="837"
     id="namedview281"
     showgrid="false"
     inkscape:zoom="5.0586573"
     inkscape:cx="553.08695"
     inkscape:cy="26.44384"
     inkscape:window-x="-8"
     inkscape:window-y="-8"
     inkscape:window-maximized="1"
     inkscape:current-layer="svg2"
     fit-margin-top="0"
     fit-margin-left="0"
     fit-margin-right="0"
     fit-margin-bottom="0" /><metadata
     id="metadata8"><rdf:RDF><cc:Work
         rdf:about=""><dc:format>image/svg+xml</dc:format><dc:type
           rdf:resource="http://purl.org/dc/dcmitype/StillImage" /><dc:title></dc:title></cc:Work></rdf:RDF></metadata><defs
     id="defs6"><clipPath
       id="clipPath16"><path
         d="m 0,0 425.201,0 0,422.252 L 0,422.252 0,0 z"
         inkscape:connector-curvature="0"
         id="path18" /></clipPath><radialGradient
       cx="0"
       cy="0"
       r="1"
       fx="0"
       fy="0"
       id="radialGradient24"
       gradientUnits="userSpaceOnUse"
       gradientTransform="matrix(0,-295.7468,-243.06883,0,212.6001,211.12598)"
       spreadMethod="pad"><stop
         id="stop26"
         style="stop-color:#ffffff;stop-opacity:1"
         offset="0" /><stop
         id="stop28"
         style="stop-color:#bfb291;stop-opacity:1"
         offset="1" /></radialGradient><clipPath
       id="clipPath36"><path
         d="m 0,422.252 425.2,0 L 425.2,0 0,0 0,422.252 z"
         inkscape:connector-curvature="0"
         id="path38" /></clipPath></defs><path
     d="M 0,64.80475 C 0,74.746 6.0525,82.801 13.51875,82.801 c 7.465,0 13.52,-8.055 13.52,-17.99625 0,-9.93875 -6.055,-17.995 -13.52,-17.995 C 6.0525,46.80975 0,54.866 0,64.80475"
     inkscape:connector-curvature="0"
     id="path84"
     style="fill:#a3421e;fill-opacity:1;fill-rule:nonzero;stroke:none" /><path
     d="m 24.26876,37.88825 49.355,0 0,-20.78625 c 0,-6.25 5.0675,-11.3175 11.31625,-11.3175 l 63.50125,0 c 6.25125,0 11.3175,5.0675 11.3175,11.3175 l 0,69.1575 c 0,6.25 -5.06625,11.3175 -11.3175,11.3175 l -5.825,0 c -0.25625,0.01875 -0.515,0.04 -0.775,0.04 l -117.5725,0 c -6.24875,0 -11.315,-5.0675 -11.315,-11.3175 l 0,-37.095 c 0,-6.25 5.06625,-11.31625 11.315,-11.31625"
     inkscape:connector-curvature="0"
     id="path88"
     style="fill:#523c2c;fill-opacity:1;fill-rule:nonzero;stroke:none" /><path
     d="m 68.83175,6.98 c 0,3.8525 3.12375,6.97625 6.97875,6.97625 l 84.205,0 c 3.855,0 6.98,-3.12375 6.98,-6.97625 0,-3.85625 -3.125,-6.98 -6.98,-6.98 l -84.205,0 c -3.855,0 -6.97875,3.12375 -6.97875,6.98"
     inkscape:connector-curvature="0"
     id="path92"
     style="fill:#a3421e;fill-opacity:1;fill-rule:nonzero;stroke:none" /><path
     d="m 5.80201,92.70512 c 0,3.90625 3.165,7.0725 7.07125,7.0725 l 146.02125,0 c 3.9075,0 7.0725,-3.16625 7.0725,-7.0725 0,-3.90625 -3.165,-7.0725 -7.0725,-7.0725 l -146.02125,0 c -3.90625,0 -7.07125,3.16625 -7.07125,7.0725"
     inkscape:connector-curvature="0"
     id="path100"
     style="fill:#a3421e;fill-opacity:1;fill-rule:nonzero;stroke:none" /><path
     d="m 88.82563,89.983 c 0,16.9725 13.76,30.7325 30.7325,30.7325 16.97125,0 30.73,-13.76 30.73,-30.7325 0,-16.9725 -13.75875,-30.73125 -30.73,-30.73125 -16.9725,0 -30.7325,13.75875 -30.7325,30.73125"
     inkscape:connector-curvature="0"
     id="path108"
     style="fill:#57868b;fill-opacity:1;fill-rule:nonzero;stroke:none" /><path
     d="m 101.45263,89.983 c 0,9.99875 8.105,18.1025 18.105,18.1025 9.99875,0 18.10375,-8.10375 18.10375,-18.1025 0,-9.9975 -8.105,-18.10375 -18.10375,-18.10375 -10,0 -18.105,8.10625 -18.105,18.10375"
     inkscape:connector-curvature="0"
     id="path112"
     style="fill:#a3421e;fill-opacity:1;fill-rule:nonzero;stroke:none" /><path
     d="m 44.30538,107.70512 c 0,7.18375 5.82375,13.01 13.01,13.01 7.185,0 13.01,-5.82625 13.01,-13.01 0,-7.18625 -5.825,-13.0125 -13.01,-13.0125 -7.18625,0 -13.01,5.82625 -13.01,13.0125"
     inkscape:connector-curvature="0"
     id="path116"
     style="fill:#57868b;fill-opacity:1;fill-rule:nonzero;stroke:none" /><path
     d="m 49.97188,107.70512 c 0,4.05375 3.2875,7.34375 7.34375,7.34375 4.055,0 7.345,-3.29 7.345,-7.34375 0,-4.05625 -3.29,-7.34625 -7.345,-7.34625 -4.05625,0 -7.34375,3.29 -7.34375,7.34625"
     inkscape:connector-curvature="0"
     id="path120"
     style="fill:#a3421e;fill-opacity:1;fill-rule:nonzero;stroke:none" /><path
     d="m 13.50338,107.70512 c 0,7.18375 5.82625,13.01 13.0125,13.01 7.185,0 13.00875,-5.82625 13.00875,-13.01 0,-7.18625 -5.82375,-13.0125 -13.00875,-13.0125 -7.18625,0 -13.0125,5.82625 -13.0125,13.0125"
     inkscape:connector-curvature="0"
     id="path124"
     style="fill:#57868b;fill-opacity:1;fill-rule:nonzero;stroke:none" /><path
     style="fill:#a3421e;fill-opacity:1;fill-rule:nonzero;stroke:none"
     id="path146"
     inkscape:connector-curvature="0"
     d="m 86.60788,53.09587 60.8275,0 0,-32.06625 -60.8275,0 0,32.06625 z" /><path
     style="fill:#523c2c;fill-opacity:1;fill-rule:nonzero;stroke:none"
     id="path148"
     inkscape:connector-curvature="0"
     d="m 29.23913,46.80962 27.6625,0 0,-35.21 -27.6625,0 0,35.21 z" /><path
     d="m 23.42038,11.836 c 0,2.47375 2.00625,4.48 4.48,4.48 l 30.18125,0 c 2.4725,0 4.4775,-2.00625 4.4775,-4.48 0,-2.475 -2.005,-4.48 -4.4775,-4.48 l -30.18125,0 c -2.47375,0 -4.48,2.005 -4.48,4.48"
     inkscape:connector-curvature="0"
     id="path152"
     style="fill:#a3421e;fill-opacity:1;fill-rule:nonzero;stroke:none" /><path
     d="m 19.46288,107.70512 c 0,4.05375 3.28875,7.34375 7.34375,7.34375 4.055,0 7.34375,-3.29 7.34375,-7.34375 0,-4.05625 -3.28875,-7.34625 -7.34375,-7.34625 -4.055,0 -7.34375,3.29 -7.34375,7.34625"
     inkscape:connector-curvature="0"
     id="path156"
     style="fill:#a3421e;fill-opacity:1;fill-rule:nonzero;stroke:none" /><path
     d="m 151.33439,60.22455 c 0,2.95875 2.3975,5.35875 5.35625,5.35875 l 37.8675,0 c 2.95875,0 5.35625,-2.4 5.35625,-5.35875 0,-2.96 -2.3975,-5.35875 -5.35625,-5.35875 l -37.8675,0 c -2.95875,0 -5.35625,2.39875 -5.35625,5.35875"
     inkscape:connector-curvature="0"
     id="path144-7"
     style="fill:#a3421e;fill-opacity:1;fill-rule:nonzero;stroke:none" /><path
     d="m 191.30295,94.06363 c 0,6.72375 5.45,12.17375 12.1725,12.17375 l 69.49125,0 c 6.7225,0 12.17375,-5.45 12.17375,-12.17375 l 0,-45.1425 c 0,-6.72375 -5.45125,-12.175 -12.17375,-12.175 l -69.49125,0 c -6.7225,0 -12.1725,5.45125 -12.1725,12.175 l 0,45.1425 z"
     inkscape:connector-curvature="0"
     id="path280"
     style="fill:#523c2c;fill-opacity:1;fill-rule:nonzero;stroke:none" /><path
     d="m 187.6045,43.38012 c 0,3.8375 3.11,6.94875 6.94875,6.94875 l 86.5475,0 c 3.83875,0 6.94875,-3.11125 6.94875,-6.94875 0,-3.8375 -3.11,-6.95 -6.94875,-6.95 l -86.5475,0 c -3.83875,0 -6.94875,3.1125 -6.94875,6.95"
     inkscape:connector-curvature="0"
     id="path284"
     style="fill:#a3421e;fill-opacity:1;fill-rule:nonzero;stroke:none" /><path
     d="m 193.68739,99.55462 c 0,3.59875 2.83588,6.51625 6.33233,6.51625 l 76.40395,0 c 3.49776,0 6.33233,-2.9175 6.33233,-6.51625 0,-3.5975 -2.83457,-6.51375 -6.33233,-6.51375 l -76.40395,0 c -3.49645,0 -6.33233,2.91625 -6.33233,6.51375"
     inkscape:connector-curvature="0"
     id="path96-1"
     style="fill:#a3421e;fill-opacity:1;fill-rule:nonzero;stroke:none" /><path
     d="m 240.99419,107.7055 c 0,7.18375 5.825,13.01 13.01125,13.01 7.18375,0 13.00875,-5.82625 13.00875,-13.01 0,-7.18625 -5.825,-13.0125 -13.00875,-13.0125 -7.18625,0 -13.01125,5.82625 -13.01125,13.0125"
     inkscape:connector-curvature="0"
     id="path164-9"
     style="fill:#57868b;fill-opacity:1;fill-rule:nonzero;stroke:none" /><path
     d="m 246.66132,107.7055 c 0,4.05375 3.2875,7.34375 7.34375,7.34375 4.05625,0 7.34375,-3.29 7.34375,-7.34375 0,-4.05625 -3.2875,-7.34625 -7.34375,-7.34625 -4.05625,0 -7.34375,3.29 -7.34375,7.34625"
     inkscape:connector-curvature="0"
     id="path168-8"
     style="fill:#a3421e;fill-opacity:1;fill-rule:nonzero;stroke:none" /><path
     d="m 210.19407,107.7055 c 0,7.18375 5.825,13.01 13.01125,13.01 7.185,0 13.0075,-5.82625 13.0075,-13.01 0,-7.18625 -5.8225,-13.0125 -13.0075,-13.0125 -7.18625,0 -13.01125,5.82625 -13.01125,13.0125"
     inkscape:connector-curvature="0"
     id="path172-2"
     style="fill:#57868b;fill-opacity:1;fill-rule:nonzero;stroke:none" /><path
     d="m 216.15232,107.7055 c 0,4.05375 3.2875,7.34375 7.34375,7.34375 4.05625,0 7.34375,-3.29 7.34375,-7.34375 0,-4.05625 -3.2875,-7.34625 -7.34375,-7.34625 -4.05625,0 -7.34375,3.29 -7.34375,7.34625"
     inkscape:connector-curvature="0"
     id="path176-5"
     style="fill:#a3421e;fill-opacity:1;fill-rule:nonzero;stroke:none" /><path
     d="m 275.58166,60.22455 c 0,2.95875 2.3975,5.35875 5.35625,5.35875 l 37.8675,0 c 2.95875,0 5.35625,-2.4 5.35625,-5.35875 0,-2.96 -2.3975,-5.35875 -5.35625,-5.35875 l -37.8675,0 c -2.95875,0 -5.35625,2.39875 -5.35625,5.35875"
     inkscape:connector-curvature="0"
     id="path144"
     style="fill:#a3421e;fill-opacity:1;fill-rule:nonzero;stroke:none" /><path
     d="m 318.03501,82.476 c 0,6.79375 5.5075,12.3025 12.30375,12.3025 l 58.1,0 c 6.795,0 12.30375,-5.50875 12.30375,-12.3025 l 10.84,-43.1025 c 0,-6.795 -5.50875,-12.3025 -12.30375,-12.3025 l -79.78125,0 c -6.795,0 -12.3025,5.5075 -12.3025,12.3025 l 10.84,43.1025 z"
     inkscape:connector-curvature="0"
     id="path80"
     style="fill:#523c2c;fill-opacity:1;fill-rule:nonzero;stroke:none" /><path
     d="m 317.15238,94.6855 c 0,3.59875 2.71,6.51625 6.05125,6.51625 l 73.0125,0 c 3.3425,0 6.05125,-2.9175 6.05125,-6.51625 0,-3.5975 -2.70875,-6.51375 -6.05125,-6.51375 l -73.0125,0 c -3.34125,0 -6.05125,2.91625 -6.05125,6.51375"
     inkscape:connector-curvature="0"
     id="path96"
     style="fill:#a3421e;fill-opacity:1;fill-rule:nonzero;stroke:none" /><path
     d="m 298.60625,31.4775 c 0,3.59875 2.9175,6.51625 6.515,6.51625 l 109.19125,0 c 3.5975,0 6.515,-2.9175 6.515,-6.51625 0,-3.59875 -2.9175,-6.515 -6.515,-6.515 l -109.19125,0 c -3.5975,0 -6.515,2.91625 -6.515,6.515"
     inkscape:connector-curvature="0"
     id="path104"
     style="fill:#a3421e;fill-opacity:1;fill-rule:nonzero;stroke:none" /><path
     d="m 361.45475,107.7055 c 0,7.18375 5.825,13.01 13.01125,13.01 7.18375,0 13.00875,-5.82625 13.00875,-13.01 0,-7.18625 -5.825,-13.0125 -13.00875,-13.0125 -7.18625,0 -13.01125,5.82625 -13.01125,13.0125"
     inkscape:connector-curvature="0"
     id="path164"
     style="fill:#57868b;fill-opacity:1;fill-rule:nonzero;stroke:none" /><path
     d="m 367.12188,107.7055 c 0,4.05375 3.2875,7.34375 7.34375,7.34375 4.05625,0 7.34375,-3.29 7.34375,-7.34375 0,-4.05625 -3.2875,-7.34625 -7.34375,-7.34625 -4.05625,0 -7.34375,3.29 -7.34375,7.34625"
     inkscape:connector-curvature="0"
     id="path168"
     style="fill:#a3421e;fill-opacity:1;fill-rule:nonzero;stroke:none" /><path
     d="m 330.65463,107.7055 c 0,7.18375 5.825,13.01 13.01125,13.01 7.185,0 13.0075,-5.82625 13.0075,-13.01 0,-7.18625 -5.8225,-13.0125 -13.0075,-13.0125 -7.18625,0 -13.01125,5.82625 -13.01125,13.0125"
     inkscape:connector-curvature="0"
     id="path172"
     style="fill:#57868b;fill-opacity:1;fill-rule:nonzero;stroke:none" /><path
     d="m 336.61288,107.7055 c 0,4.05375 3.2875,7.34375 7.34375,7.34375 4.05625,0 7.34375,-3.29 7.34375,-7.34375 0,-4.05625 -3.2875,-7.34625 -7.34375,-7.34625 -4.05625,0 -7.34375,3.29 -7.34375,7.34625"
     inkscape:connector-curvature="0"
     id="path176"
     style="fill:#a3421e;fill-opacity:1;fill-rule:nonzero;stroke:none" /><path
     d="m 398.92516,60.22455 c 0,2.95875 2.3975,5.35875 5.3575,5.35875 l 37.86625,0 c 2.95875,0 5.3575,-2.4 5.3575,-5.35875 0,-2.96 -2.39875,-5.35875 -5.3575,-5.35875 l -37.86625,0 c -2.96,0 -5.3575,2.39875 -5.3575,5.35875"
     inkscape:connector-curvature="0"
     id="path140"
     style="fill:#a3421e;fill-opacity:1;fill-rule:nonzero;stroke:none" /><path
     d="m 446.17526,82.476 c 0,6.79375 5.50875,12.3025 12.3025,12.3025 l 58.10125,0 c 6.795,0 12.3025,-5.50875 12.3025,-12.3025 l 10.84,-43.1025 c 0,-6.795 -5.5075,-12.3025 -12.3025,-12.3025 l -79.7825,0 c -6.79375,0 -12.30125,5.5075 -12.30125,12.3025 l 10.84,43.1025 z"
     inkscape:connector-curvature="0"
     id="path128"
     style="fill:#523c2c;fill-opacity:1;fill-rule:nonzero;stroke:none" /><path
     d="m 445.29151,94.6855 c 0,3.59875 2.71,6.51625 6.05125,6.51625 l 73.01375,0 c 3.34125,0 6.05,-2.9175 6.05,-6.51625 0,-3.5975 -2.70875,-6.51375 -6.05,-6.51375 l -73.01375,0 c -3.34125,0 -6.05125,2.91625 -6.05125,6.51375"
     inkscape:connector-curvature="0"
     id="path132"
     style="fill:#a3421e;fill-opacity:1;fill-rule:nonzero;stroke:none" /><path
     d="m 426.74526,31.4775 c 0,3.59875 2.91625,6.51625 6.51625,6.51625 l 109.19,0 c 3.59875,0 6.51625,-2.9175 6.51625,-6.51625 0,-3.59875 -2.9175,-6.515 -6.51625,-6.515 l -109.19,0 c -3.6,0 -6.51625,2.91625 -6.51625,6.515"
     inkscape:connector-curvature="0"
     id="path136"
     style="fill:#a3421e;fill-opacity:1;fill-rule:nonzero;stroke:none" /><path
     d="m 492.53575,107.7055 c 0,7.18375 5.82625,13.01 13.01125,13.01 7.18375,0 13.00875,-5.82625 13.00875,-13.01 0,-7.18625 -5.825,-13.0125 -13.00875,-13.0125 -7.185,0 -13.01125,5.82625 -13.01125,13.0125"
     inkscape:connector-curvature="0"
     id="path184"
     style="fill:#57868b;fill-opacity:1;fill-rule:nonzero;stroke:none" /><path
     d="m 498.20288,107.7055 c 0,4.05375 3.28875,7.34375 7.34375,7.34375 4.05625,0 7.34375,-3.29 7.34375,-7.34375 0,-4.05625 -3.2875,-7.34625 -7.34375,-7.34625 -4.055,0 -7.34375,3.29 -7.34375,7.34625"
     inkscape:connector-curvature="0"
     id="path188"
     style="fill:#a3421e;fill-opacity:1;fill-rule:nonzero;stroke:none" /><path
     d="m 461.73613,107.7055 c 0,7.18375 5.82375,13.01 13.01125,13.01 7.185,0 13.00875,-5.82625 13.00875,-13.01 0,-7.18625 -5.82375,-13.0125 -13.00875,-13.0125 -7.1875,0 -13.01125,5.82625 -13.01125,13.0125"
     inkscape:connector-curvature="0"
     id="path192"
     style="fill:#57868b;fill-opacity:1;fill-rule:nonzero;stroke:none" /><path
     d="m 467.69438,107.7055 c 0,4.05375 3.2875,7.34375 7.34375,7.34375 4.05625,0 7.34375,-3.29 7.34375,-7.34375 0,-4.05625 -3.2875,-7.34625 -7.34375,-7.34625 -4.05625,0 -7.34375,3.29 -7.34375,7.34625"
     inkscape:connector-curvature="0"
     id="path196"
     style="fill:#a3421e;fill-opacity:1;fill-rule:nonzero;stroke:none" /></svg>