<?xml version="1.0" encoding="UTF-8" standalone="no"?>
<!-- Created with Inkscape (http://www.inkscape.org/) -->

<svg
   xmlns:dc="http://purl.org/dc/elements/1.1/"
   xmlns:cc="http://creativecommons.org/ns#"
   xmlns:rdf="http://www.w3.org/1999/02/22-rdf-syntax-ns#"
   xmlns:svg="http://www.w3.org/2000/svg"
   xmlns="http://www.w3.org/2000/svg"
   xmlns:sodipodi="http://sodipodi.sourceforge.net/DTD/sodipodi-0.dtd"
   xmlns:inkscape="http://www.inkscape.org/namespaces/inkscape"
   version="1.1"
   width="1062.5"
   height="793.06287"
   id="svg2"
   xml:space="preserve"
   inkscape:version="0.48.5 r10040"
   sodipodi:docname="ValleyVector.svg"><sodipodi:namedview
     pagecolor="#ffffff"
     bordercolor="#666666"
     borderopacity="1"
     objecttolerance="10"
     gridtolerance="10"
     guidetolerance="10"
     inkscape:pageopacity="0"
     inkscape:pageshadow="2"
     inkscape:window-width="1600"
     inkscape:window-height="837"
     id="namedview4136"
     showgrid="false"
     fit-margin-top="0"
     fit-margin-left="0"
     fit-margin-right="0"
     fit-margin-bottom="0"
     inkscape:zoom="0.76134604"
     inkscape:cx="333.68358"
     inkscape:cy="361.21081"
     inkscape:window-x="-8"
     inkscape:window-y="-8"
     inkscape:window-maximized="1"
     inkscape:current-layer="svg2" /><metadata
     id="metadata8"><rdf:RDF><cc:Work
         rdf:about=""><dc:format>image/svg+xml</dc:format><dc:type
           rdf:resource="http://purl.org/dc/dcmitype/StillImage" /></cc:Work></rdf:RDF></metadata><defs
     id="defs6"><clipPath
       id="clipPath16"><path
         d="M 0,0 850,0 850,612 0,612 0,0 z"
         inkscape:connector-curvature="0"
         id="path18" /></clipPath><linearGradient
       x1="0"
       y1="0"
       x2="1"
       y2="0"
       id="linearGradient24"
       gradientUnits="userSpaceOnUse"
       gradientTransform="matrix(850,0,0,-850,0,306)"
       spreadMethod="pad"><stop
         id="stop26"
         style="stop-color:#efe8b6;stop-opacity:1"
         offset="0" /><stop
         id="stop28"
         style="stop-color:#efe6b5;stop-opacity:1"
         offset="0.99438202" /><stop
         id="stop30"
         style="stop-color:#efe6b5;stop-opacity:1"
         offset="1" /></linearGradient><clipPath
       id="clipPath38"><path
         d="M 0,612 850,612 850,0 0,0 0,612 z"
         inkscape:connector-curvature="0"
         id="path40" /></clipPath><clipPath
       id="clipPath16-1"><path
         d="M 0,0 850,0 850,612 0,612 0,0 z"
         inkscape:connector-curvature="0"
         id="path18-7" /></clipPath><linearGradient
       x1="0"
       y1="0"
       x2="1"
       y2="0"
       id="linearGradient24-4"
       gradientUnits="userSpaceOnUse"
       gradientTransform="matrix(850,0,0,-850,0,306)"
       spreadMethod="pad"><stop
         id="stop26-0"
         style="stop-color:#efe8b6;stop-opacity:1"
         offset="0" /><stop
         id="stop28-9"
         style="stop-color:#efe6b5;stop-opacity:1"
         offset="0.99438202" /><stop
         id="stop30-4"
         style="stop-color:#efe6b5;stop-opacity:1"
         offset="1" /></linearGradient><clipPath
       id="clipPath38-8"><path
         d="M 0,612 850,612 850,0 0,0 0,612 z"
         inkscape:connector-curvature="0"
         id="path40-8" /></clipPath><clipPath
       clipPathUnits="userSpaceOnUse"
       id="clipPath6153"><rect
         style="fill:#39b93a;fill-opacity:1;stroke:none"
         id="rect6155"
         width="1039.9836"
         height="127.40593"
         x="-964.23871"
         y="481.17319" /></clipPath></defs><g
     transform="matrix(1.25,0,0,-1.25,1.5021301e-6,765)"
     id="g10"><g
       id="g12"><g
         clip-path="url(#clipPath16)"
         id="g14"><g
           id="g20"><g
             id="g22"><path
               d="M 0,0 850,0 850,612 0,612 0,0 z"
               inkscape:connector-curvature="0"
               id="path32"
               style="fill:url(#linearGradient24);stroke:none" /></g></g></g></g><g
       id="g34"><g
         clip-path="url(#clipPath38)"
         id="g36"><g
           transform="translate(828.1338,242.2334)"
           id="g42"><path
             d="m 0,0 c 0,-40.763 -34.08,-73.81 -76.113,-73.81 -42.038,0 -76.116,33.047 -76.116,73.81 0,40.762 34.078,73.807 76.116,73.807 C -34.08,73.807 0,40.762 0,0"
             inkscape:connector-curvature="0"
             id="path44"
             style="fill:#bdcd2f;fill-opacity:1;fill-rule:nonzero;stroke:none" /></g><g
           transform="translate(809.4951,241.8613)"
           id="g46"><path
             d="m 0,0 c 0,-31.204 -26.086,-56.499 -58.263,-56.499 -32.176,0 -58.262,25.295 -58.262,56.499 0,31.202 26.086,56.495 58.262,56.495 C -26.086,56.495 0,31.202 0,0"
             inkscape:connector-curvature="0"
             id="path48"
             style="fill:#e1e33a;fill-opacity:1;fill-rule:nonzero;stroke:none" /></g><g
           transform="translate(744.0537,123.2412)"
           id="g50"><path
             d="M 0,0 8.847,177.885 12.572,0 0,0 z"
             inkscape:connector-curvature="0"
             id="path52"
             style="fill:#8d5516;fill-opacity:1;fill-rule:nonzero;stroke:none" /></g><g
           transform="translate(748.7539,217.7305)"
           id="g54"><path
             d="M 0,0 -35.016,52.738 -0.418,-8.4 0,0 z"
             inkscape:connector-curvature="0"
             id="path56"
             style="fill:#8d5516;fill-opacity:1;fill-rule:nonzero;stroke:none" /></g><g
           transform="translate(728.8857,245.3301)"
           id="g58"><path
             d="M 0,0 -24.811,0 1.15,-1.975 0,0 z"
             inkscape:connector-curvature="0"
             id="path60"
             style="fill:#8d5516;fill-opacity:1;fill-rule:nonzero;stroke:none" /></g><g
           transform="translate(730.165,244.6055)"
           id="g62"><path
             d="M 0,0 4.108,23.17 1.479,-2.135 0,0 z"
             inkscape:connector-curvature="0"
             id="path64"
             style="fill:#8d5516;fill-opacity:1;fill-rule:nonzero;stroke:none" /></g><g
           transform="translate(754.9834,201.7725)"
           id="g66"><path
             d="M 0,0 40.097,33.858 0.082,-3.935 0,0 z"
             inkscape:connector-curvature="0"
             id="path68"
             style="fill:#8d5516;fill-opacity:1;fill-rule:nonzero;stroke:none" /></g><g
           transform="translate(767.2412,212.124)"
           id="g70"><path
             d="M 0,0 4.668,25.479 1.665,1.406 0,0 z"
             inkscape:connector-curvature="0"
             id="path72"
             style="fill:#8d5516;fill-opacity:1;fill-rule:nonzero;stroke:none" /></g><g
           transform="translate(770.4971,212.4131)"
           id="g74"><path
             d="M 0,0 26.392,-0.445 -1.361,-1.286 0,0 z"
             inkscape:connector-curvature="0"
             id="path76"
             style="fill:#8d5516;fill-opacity:1;fill-rule:nonzero;stroke:none" /></g><g
           transform="translate(753.9648,250.4082)"
           id="g78"><path
             d="M 0,0 26.326,23.834 0.054,-2.624 0,0 z"
             inkscape:connector-curvature="0"
             id="path80"
             style="fill:#8d5516;fill-opacity:1;fill-rule:nonzero;stroke:none" /></g><g
           transform="translate(764.6719,260.1025)"
           id="g82"><path
             d="M 0,0 3.95,15.783 1.229,1.114 0,0 z"
             inkscape:connector-curvature="0"
             id="path84"
             style="fill:#8d5516;fill-opacity:1;fill-rule:nonzero;stroke:none" /></g><g
           transform="translate(762.3613,256.1865)"
           id="g86"><path
             d="M 0,0 14.15,-0.184 -1.065,-1.073 0,0 z"
             inkscape:connector-curvature="0"
             id="path88"
             style="fill:#8d5516;fill-opacity:1;fill-rule:nonzero;stroke:none" /></g><g
           transform="translate(202.3584,155.4824)"
           id="g90"><path
             d="m 0,0 c 0,-20.071 -16.78,-36.343 -37.477,-36.343 -20.699,0 -37.478,16.272 -37.478,36.343 0,20.07 16.779,36.342 37.478,36.342 C -16.78,36.342 0,20.07 0,0"
             inkscape:connector-curvature="0"
             id="path92"
             style="fill:#bdcd2f;fill-opacity:1;fill-rule:nonzero;stroke:none" /></g><g
           transform="translate(193.1807,155.2998)"
           id="g94"><path
             d="m 0,0 c 0,-15.364 -12.844,-27.82 -28.687,-27.82 -15.844,0 -28.688,12.456 -28.688,27.82 0,15.363 12.844,27.817 28.688,27.817 C -12.844,27.817 0,15.363 0,0"
             inkscape:connector-curvature="0"
             id="path96"
             style="fill:#e1e33a;fill-opacity:1;fill-rule:nonzero;stroke:none" /></g><g
           transform="translate(160.9585,96.8926)"
           id="g98"><path
             d="M 0,0 4.357,87.588 6.191,0 0,0 z"
             inkscape:connector-curvature="0"
             id="path100"
             style="fill:#8d5516;fill-opacity:1;fill-rule:nonzero;stroke:none" /></g><g
           transform="translate(163.2729,143.418)"
           id="g102"><path
             d="M 0,0 -17.241,25.968 -0.206,-4.137 0,0 z"
             inkscape:connector-curvature="0"
             id="path104"
             style="fill:#8d5516;fill-opacity:1;fill-rule:nonzero;stroke:none" /></g><g
           transform="translate(153.4902,157.0068)"
           id="g106"><path
             d="M 0,0 -12.217,0 0.567,-0.972 0,0 z"
             inkscape:connector-curvature="0"
             id="path108"
             style="fill:#8d5516;fill-opacity:1;fill-rule:nonzero;stroke:none" /></g><g
           transform="translate(154.1206,156.6504)"
           id="g110"><path
             d="M 0,0 2.022,11.408 0.728,-1.051 0,0 z"
             inkscape:connector-curvature="0"
             id="path112"
             style="fill:#8d5516;fill-opacity:1;fill-rule:nonzero;stroke:none" /></g><g
           transform="translate(166.3403,135.5605)"
           id="g114"><path
             d="M 0,0 19.743,16.671 0.04,-1.937 0,0 z"
             inkscape:connector-curvature="0"
             id="path116"
             style="fill:#8d5516;fill-opacity:1;fill-rule:nonzero;stroke:none" /></g><g
           transform="translate(172.376,140.6572)"
           id="g118"><path
             d="M 0,0 2.299,12.545 0.82,0.692 0,0 z"
             inkscape:connector-curvature="0"
             id="path120"
             style="fill:#8d5516;fill-opacity:1;fill-rule:nonzero;stroke:none" /></g><g
           transform="translate(173.979,140.7988)"
           id="g122"><path
             d="M 0,0 12.995,-0.219 -0.67,-0.633 0,0 z"
             inkscape:connector-curvature="0"
             id="path124"
             style="fill:#8d5516;fill-opacity:1;fill-rule:nonzero;stroke:none" /></g><g
           transform="translate(165.8389,159.5078)"
           id="g126"><path
             d="M 0,0 12.963,11.735 0.027,-1.292 0,0 z"
             inkscape:connector-curvature="0"
             id="path128"
             style="fill:#8d5516;fill-opacity:1;fill-rule:nonzero;stroke:none" /></g><g
           transform="translate(171.1108,164.2812)"
           id="g130"><path
             d="M 0,0 1.945,7.771 0.606,0.549 0,0 z"
             inkscape:connector-curvature="0"
             id="path132"
             style="fill:#8d5516;fill-opacity:1;fill-rule:nonzero;stroke:none" /></g><g
           transform="translate(169.9736,162.3525)"
           id="g134"><path
             d="M 0,0 6.967,-0.09 -0.524,-0.528 0,0 z"
             inkscape:connector-curvature="0"
             id="path136"
             style="fill:#8d5516;fill-opacity:1;fill-rule:nonzero;stroke:none" /></g><g
           transform="translate(666.7246,419.7959)"
           id="g138"><path
             d="m 0,0 c 0,-94.884 -76.919,-171.802 -171.802,-171.802 -94.885,0 -171.803,76.918 -171.803,171.802 0,94.883 76.918,171.803 171.803,171.803 C -76.919,171.803 0,94.883 0,0"
             inkscape:connector-curvature="0"
             id="path140"
             style="fill:#f4ecc5;fill-opacity:1;fill-rule:nonzero;stroke:none" /></g><g
           transform="translate(632.0479,418.4121)"
           id="g142"><path
             d="m 0,0 c 0,-76.694 -62.173,-138.865 -138.865,-138.865 -76.695,0 -138.867,62.171 -138.867,138.865 0,76.694 62.172,138.867 138.867,138.867 C -62.173,138.867 0,76.694 0,0"
             inkscape:connector-curvature="0"
             id="path144"
             style="fill:#f7f1d9;fill-opacity:1;fill-rule:nonzero;stroke:none" /></g><g
           transform="translate(549.0391,328.5049)"
           id="g146"><path
             d="m 0,0 c 0,-70.567 -58.996,-127.776 -131.766,-127.776 -72.773,0 -131.767,57.209 -131.767,127.776 0,70.567 58.994,127.773 131.767,127.773 C -58.996,127.773 0,70.567 0,0"
             inkscape:connector-curvature="0"
             id="path148"
             style="fill:#a6b93a;fill-opacity:1;fill-rule:nonzero;stroke:none" /></g><g
           transform="translate(516.7715,327.8608)"
           id="g150"><path
             d="m 0,0 c 0,-54.019 -45.159,-97.808 -100.861,-97.808 -55.705,0 -100.862,43.789 -100.862,97.808 0,54.016 45.157,97.804 100.862,97.804 C -45.159,97.804 0,54.016 0,0"
             inkscape:connector-curvature="0"
             id="path152"
             style="fill:#bdcd2f;fill-opacity:1;fill-rule:nonzero;stroke:none" /></g><g
           transform="translate(403.4824,122.5098)"
           id="g154"><path
             d="M 0,0 15.317,307.95 21.766,0 0,0 z"
             inkscape:connector-curvature="0"
             id="path156"
             style="fill:#8d5516;fill-opacity:1;fill-rule:nonzero;stroke:none" /></g><g
           transform="translate(411.6191,286.0879)"
           id="g158"><path
             d="M 0,0 -60.616,91.298 -0.724,-14.543 0,0 z"
             inkscape:connector-curvature="0"
             id="path160"
             style="fill:#8d5516;fill-opacity:1;fill-rule:nonzero;stroke:none" /></g><g
           transform="translate(377.2241,333.8647)"
           id="g162"><path
             d="M 0,0 -42.952,0 1.993,-3.416 0,0 z"
             inkscape:connector-curvature="0"
             id="path164"
             style="fill:#8d5516;fill-opacity:1;fill-rule:nonzero;stroke:none" /></g><g
           transform="translate(379.4399,332.6123)"
           id="g166"><path
             d="M 0,0 7.112,40.11 2.56,-3.696 0,0 z"
             inkscape:connector-curvature="0"
             id="path168"
             style="fill:#8d5516;fill-opacity:1;fill-rule:nonzero;stroke:none" /></g><g
           transform="translate(422.4043,258.4609)"
           id="g170"><path
             d="M 0,0 69.413,58.613 0.141,-6.811 0,0 z"
             inkscape:connector-curvature="0"
             id="path172"
             style="fill:#8d5516;fill-opacity:1;fill-rule:nonzero;stroke:none" /></g><g
           transform="translate(443.625,276.3809)"
           id="g174"><path
             d="M 0,0 8.081,44.107 2.882,2.436 0,0 z"
             inkscape:connector-curvature="0"
             id="path176"
             style="fill:#8d5516;fill-opacity:1;fill-rule:nonzero;stroke:none" /></g><g
           transform="translate(449.2607,276.8809)"
           id="g178"><path
             d="M 0,0 45.688,-0.77 -2.356,-2.225 0,0 z"
             inkscape:connector-curvature="0"
             id="path180"
             style="fill:#8d5516;fill-opacity:1;fill-rule:nonzero;stroke:none" /></g><g
           transform="translate(420.6406,342.6587)"
           id="g182"><path
             d="M 0,0 45.575,41.261 0.094,-4.544 0,0 z"
             inkscape:connector-curvature="0"
             id="path184"
             style="fill:#8d5516;fill-opacity:1;fill-rule:nonzero;stroke:none" /></g><g
           transform="translate(439.1768,359.4404)"
           id="g186"><path
             d="M 0,0 6.84,27.323 2.129,1.928 0,0 z"
             inkscape:connector-curvature="0"
             id="path188"
             style="fill:#8d5516;fill-opacity:1;fill-rule:nonzero;stroke:none" /></g><g
           transform="translate(435.1777,352.6597)"
           id="g190"><path
             d="M 0,0 24.497,-0.317 -1.844,-1.856 0,0 z"
             inkscape:connector-curvature="0"
             id="path192"
             style="fill:#8d5516;fill-opacity:1;fill-rule:nonzero;stroke:none" /></g><g
           transform="translate(157.4136,233.7598)"
           id="g194"><path
             d="m 0,0 c 0,-34.906 -29.183,-63.205 -65.178,-63.205 -35.997,0 -65.178,28.299 -65.178,63.205 0,34.905 29.181,63.202 65.178,63.202 C -29.183,63.202 0,34.905 0,0"
             inkscape:connector-curvature="0"
             id="path196"
             style="fill:#bdcd2f;fill-opacity:1;fill-rule:nonzero;stroke:none" /></g><g
           transform="translate(141.4526,233.4414)"
           id="g198"><path
             d="m 0,0 c 0,-26.721 -22.338,-48.382 -49.891,-48.382 -27.554,0 -49.891,21.661 -49.891,48.382 0,26.719 22.337,48.378 49.891,48.378 C -22.338,48.378 0,26.719 0,0"
             inkscape:connector-curvature="0"
             id="path200"
             style="fill:#e1e33a;fill-opacity:1;fill-rule:nonzero;stroke:none" /></g><g
           transform="translate(85.4141,131.8643)"
           id="g202"><path
             d="M 0,0 7.577,152.326 10.767,0 0,0 z"
             inkscape:connector-curvature="0"
             id="path204"
             style="fill:#8d5516;fill-opacity:1;fill-rule:nonzero;stroke:none" /></g><g
           transform="translate(89.439,212.7773)"
           id="g206"><path
             d="M 0,0 -29.984,45.161 -0.358,-7.193 0,0 z"
             inkscape:connector-curvature="0"
             id="path208"
             style="fill:#8d5516;fill-opacity:1;fill-rule:nonzero;stroke:none" /></g><g
           transform="translate(72.4253,236.4111)"
           id="g210"><path
             d="M 0,0 -21.246,0 0.986,-1.69 0,0 z"
             inkscape:connector-curvature="0"
             id="path212"
             style="fill:#8d5516;fill-opacity:1;fill-rule:nonzero;stroke:none" /></g><g
           transform="translate(73.5215,235.791)"
           id="g214"><path
             d="M 0,0 3.518,19.841 1.267,-1.828 0,0 z"
             inkscape:connector-curvature="0"
             id="path216"
             style="fill:#8d5516;fill-opacity:1;fill-rule:nonzero;stroke:none" /></g><g
           transform="translate(94.7739,199.1123)"
           id="g218"><path
             d="M 0,0 34.335,28.993 0.069,-3.369 0,0 z"
             inkscape:connector-curvature="0"
             id="path220"
             style="fill:#8d5516;fill-opacity:1;fill-rule:nonzero;stroke:none" /></g><g
           transform="translate(105.2705,207.9766)"
           id="g222"><path
             d="M 0,0 3.998,21.817 1.426,1.204 0,0 z"
             inkscape:connector-curvature="0"
             id="path224"
             style="fill:#8d5516;fill-opacity:1;fill-rule:nonzero;stroke:none" /></g><g
           transform="translate(108.0581,208.2236)"
           id="g226"><path
             d="M 0,0 22.6,-0.381 -1.166,-1.101 0,0 z"
             inkscape:connector-curvature="0"
             id="path228"
             style="fill:#8d5516;fill-opacity:1;fill-rule:nonzero;stroke:none" /></g><g
           transform="translate(93.9014,240.7598)"
           id="g230"><path
             d="M 0,0 22.544,20.41 0.046,-2.247 0,0 z"
             inkscape:connector-curvature="0"
             id="path232"
             style="fill:#8d5516;fill-opacity:1;fill-rule:nonzero;stroke:none" /></g><g
           transform="translate(103.0703,249.0615)"
           id="g234"><path
             d="M 0,0 3.383,13.516 1.053,0.954 0,0 z"
             inkscape:connector-curvature="0"
             id="path236"
             style="fill:#8d5516;fill-opacity:1;fill-rule:nonzero;stroke:none" /></g><g
           transform="translate(101.0923,245.708)"
           id="g238"><path
             d="M 0,0 12.117,-0.157 -0.912,-0.919 0,0 z"
             inkscape:connector-curvature="0"
             id="path240"
             style="fill:#8d5516;fill-opacity:1;fill-rule:nonzero;stroke:none" /></g><g
           transform="translate(850,158.5869)"
           id="g242"><path
             d="M 0,0 C 0,0 -157.857,-1.103 -257.312,-158.587 L 0,-158.587 0,0 z"
             inkscape:connector-curvature="0"
             id="path244"
             style="fill:#9aa530;fill-opacity:1;fill-rule:nonzero;stroke:none" /></g><g
           transform="translate(0,158.5869)"
           id="g246"><path
             d="M 0,0 C 0,0 166.217,-1.103 270.939,-158.587 L 0,-158.587 0,0 z"
             inkscape:connector-curvature="0"
             id="path248"
             style="fill:#9aa530;fill-opacity:1;fill-rule:nonzero;stroke:none" /></g><path
           d="m 0,0 850.06,0.734 c -538.846,282.029 -845.728,0 -845.728,0 L 0,0 z"
           inkscape:connector-curvature="0"
           id="path250"
           style="fill:#a6b939;fill-opacity:1;fill-rule:nonzero;stroke:none" /><g
           transform="translate(659.7158,522.9702)"
           id="g252"><path
             d="m 0,0 c -8.51,-3.782 -33.091,-9.455 -37.82,2.836 -4.726,13.237 24.584,12.291 31.203,7.564 -7.566,0.946 -32.147,16.073 -32.147,25.527 0,11.345 24.581,9.454 32.147,9.454 0,-2.835 0,-3.781 -0.946,-5.672 -16.073,25.527 56.726,38.763 47.27,6.619 -4.727,16.071 25.527,19.853 36.873,19.853 14.183,-0.945 31.201,-15.127 17.963,-30.254 8.512,37.818 86.036,2.836 38.763,-14.181 21.745,1.89 32.144,-17.963 14.182,-32.145 -7.563,-5.673 -29.307,-13.236 -38.76,-6.619 -5.673,3.782 -10.403,13.236 -0.947,15.128 6.616,-19.855 -18.911,-27.418 -34.037,-26.473 -11.346,0 -32.144,17.018 -11.346,18.908 C 54.835,-31.199 -6.617,-30.253 -0.946,-1.89 L 0,0 z"
             inkscape:connector-curvature="0"
             id="path254"
             style="fill:#ffffff;fill-opacity:1;fill-rule:nonzero;stroke:none" /></g><g
           transform="translate(63.3477,457.5156)"
           id="g256"><path
             d="m 0,0 c 58.631,0 116.687,-0.575 175.318,0.575 24.142,0.574 1.724,11.496 -9.197,12.646 -8.048,0.574 -9.772,-1.15 -13.221,5.173 -1.724,3.449 -0.575,7.472 -2.299,10.921 -3.449,5.174 -10.347,8.623 -15.52,11.497 C 119.561,49.434 95.419,53.458 85.647,35.638 73.576,48.859 53.458,56.332 42.536,37.938 27.591,56.906 -29.315,33.914 -6.897,16.095 -11.496,10.347 -20.693,9.771 -25.866,2.874 -19.543,-0.575 -6.897,1.724 1.15,1.724 L 0,0 z"
             inkscape:connector-curvature="0"
             id="path258"
             style="fill:#ffffff;fill-opacity:1;fill-rule:nonzero;stroke:none" /></g><g
           transform="translate(189.5205,581.3574)"
           id="g260"><path
             d="m 0,0 c 2.732,5.075 16.394,11.71 17.956,2.732 3.122,3.123 21.858,10.149 21.468,3.123 7.806,1.562 16.394,1.952 23.42,-2.342 2.342,-1.561 8.197,-5.074 4.294,-7.806 6.245,0 22.249,-1.171 24.981,-8.588 1.951,-5.074 -3.123,-8.587 -7.806,-9.368 9.757,-10.149 -35.131,-15.613 -35.131,-1.562 -3.513,-6.245 -12.491,-10.148 -19.126,-11.71 -7.807,-1.951 -7.416,0.391 -12.881,3.514 -4.294,2.732 -21.469,3.903 -19.517,13.271 -5.465,-4.294 -19.907,5.074 -16.784,12.881 2.341,5.855 12.1,4.294 17.174,4.294 L 0,0 z"
             inkscape:connector-curvature="0"
             id="path262"
             style="fill:#ffffff;fill-opacity:1;fill-rule:nonzero;stroke:none" /></g><g
           transform="translate(60.0337,0)"
           id="g264"><path
             d="M 0,0 723.351,0 C 352.017,164.785 101.729,61.669 0,0"
             inkscape:connector-curvature="0"
             id="path266"
             style="fill:#bdcc2f;fill-opacity:1;fill-rule:nonzero;stroke:none" /></g><path
           d="m 781.816,0 68.243,0 0,0.734 -68.243,0 0,-0.734 z"
           inkscape:connector-curvature="0"
           id="path268"
           style="fill:#a6b939;fill-opacity:1;fill-rule:nonzero;stroke:none" /></g></g></g><g
     id="g5998"
     transform="matrix(1.0216507,0,0,1,985.11515,218.29071)"
     clip-path="url(#clipPath6153)"
     style="stroke:#000000;stroke-opacity:1;stroke-width:0.08904126;stroke-miterlimit:4;stroke-dasharray:none"><g
       transform="translate(-1285.8461,-131.91532)"
       style="stroke:#000000;stroke-opacity:1;stroke-width:0.08904126;stroke-miterlimit:4;stroke-dasharray:none"
       id="g13639"><path
         style="fill:#ece1c7;fill-opacity:1;fill-rule:nonzero;stroke:#000000;stroke-opacity:1;stroke-width:0.08904126;stroke-miterlimit:4;stroke-dasharray:none"
         id="path12"
         inkscape:connector-curvature="0"
         d="m 1456.8246,697.35378 -534.49625,0 0,-22.0737 534.49625,0 0,22.0737 z" /><path
         style="fill:#d0c8b9;fill-opacity:1;fill-rule:nonzero;stroke:#000000;stroke-opacity:1;stroke-width:0.08904126;stroke-miterlimit:4;stroke-dasharray:none"
         id="path14"
         inkscape:connector-curvature="0"
         d="m 1456.8246,678.59008 -534.49625,0 0,-3.31 534.49625,0 0,3.31 z" /><path
         style="fill:#d0c8b9;fill-opacity:1;fill-rule:nonzero;stroke:#000000;stroke-opacity:1;stroke-width:0.08904126;stroke-miterlimit:4;stroke-dasharray:none"
         id="path16"
         inkscape:connector-curvature="0"
         d="m 1456.8246,697.35378 -534.49625,0 0,-3.3112 534.49625,0 0,3.3112 z" /><path
         d="m 955.85465,696.80048 0,-6.07 -14.35,0 0,6.07 -6.3463,0 0,9.3825 27.0425,0 0,-9.3825 -6.3462,0 z"
         inkscape:connector-curvature="0"
         id="path20"
         style="fill:#585d6e;fill-opacity:1;fill-rule:nonzero;stroke:#000000;stroke-opacity:1;stroke-width:0.08904126;stroke-miterlimit:4;stroke-dasharray:none" /><path
         d="m 1017.112,696.80048 0,-6.07 -14.3475,0 0,6.07 -6.34875,0 0,9.3825 27.04375,0 0,-9.3825 -6.3475,0 z"
         inkscape:connector-curvature="0"
         id="path24"
         style="fill:#585d6e;fill-opacity:1;fill-rule:nonzero;stroke:#000000;stroke-opacity:1;stroke-width:0.08904126;stroke-miterlimit:4;stroke-dasharray:none" /><path
         d="m 1078.373,696.80048 0,-6.07 -14.35,0 0,6.07 -6.345,0 0,9.3825 27.04,0 0,-9.3825 -6.345,0 z"
         inkscape:connector-curvature="0"
         id="path28"
         style="fill:#585d6e;fill-opacity:1;fill-rule:nonzero;stroke:#000000;stroke-opacity:1;stroke-width:0.08904126;stroke-miterlimit:4;stroke-dasharray:none" /><path
         d="m 1139.6278,696.80048 0,-6.07 -14.3487,0 0,6.07 -6.3438,0 0,9.3825 27.04,0 0,-9.3825 -6.3475,0 z"
         inkscape:connector-curvature="0"
         id="path32-1"
         style="fill:#585d6e;fill-opacity:1;fill-rule:nonzero;stroke:#000000;stroke-opacity:1;stroke-width:0.08904126;stroke-miterlimit:4;stroke-dasharray:none" /><path
         d="m 1200.8888,696.80048 0,-6.07 -14.3487,0 0,6.07 -6.3463,0 0,9.3825 27.0438,0 0,-9.3825 -6.3488,0 z"
         inkscape:connector-curvature="0"
         id="path36"
         style="fill:#585d6e;fill-opacity:1;fill-rule:nonzero;stroke:#000000;stroke-opacity:1;stroke-width:0.08904126;stroke-miterlimit:4;stroke-dasharray:none" /><path
         d="m 1262.1499,696.80048 0,-6.07 -14.3513,0 0,6.07 -6.345,0 0,9.3825 27.0413,0 0,-9.3825 -6.345,0 z"
         inkscape:connector-curvature="0"
         id="path40-2"
         style="fill:#585d6e;fill-opacity:1;fill-rule:nonzero;stroke:#000000;stroke-opacity:1;stroke-width:0.08904126;stroke-miterlimit:4;stroke-dasharray:none" /><path
         d="m 1323.4059,696.80048 0,-6.07 -14.3462,0 0,6.07 -6.345,0 0,9.3825 27.0375,0 0,-9.3825 -6.3463,0 z"
         inkscape:connector-curvature="0"
         id="path44-7"
         style="fill:#585d6e;fill-opacity:1;fill-rule:nonzero;stroke:#000000;stroke-opacity:1;stroke-width:0.08904126;stroke-miterlimit:4;stroke-dasharray:none" /><path
         d="m 1384.6645,696.80048 0,-6.07 -14.3475,0 0,6.07 -6.3487,0 0,9.3825 27.0437,0 0,-9.3825 -6.3475,0 z"
         inkscape:connector-curvature="0"
         id="path48-7"
         style="fill:#585d6e;fill-opacity:1;fill-rule:nonzero;stroke:#000000;stroke-opacity:1;stroke-width:0.08904126;stroke-miterlimit:4;stroke-dasharray:none" /><path
         d="m 1445.9266,696.80048 0,-6.07 -14.35,0 0,6.07 -6.3475,0 0,9.3825 27.0438,0 0,-9.3825 -6.3463,0 z"
         inkscape:connector-curvature="0"
         id="path52-9"
         style="fill:#585d6e;fill-opacity:1;fill-rule:nonzero;stroke:#000000;stroke-opacity:1;stroke-width:0.08904126;stroke-miterlimit:4;stroke-dasharray:none" /><path
         style="fill:#ece1c7;fill-opacity:1;fill-rule:nonzero;stroke:#000000;stroke-opacity:1;stroke-width:0.08904126;stroke-miterlimit:4;stroke-dasharray:none"
         id="path54"
         inkscape:connector-curvature="0"
         d="m 1946.6996,697.35378 -534.4925,0 0,-22.0737 534.4925,0 0,22.0737 z" /><path
         style="fill:#d0c8b9;fill-opacity:1;fill-rule:nonzero;stroke:#000000;stroke-opacity:1;stroke-width:0.08904126;stroke-miterlimit:4;stroke-dasharray:none"
         id="path56-55"
         inkscape:connector-curvature="0"
         d="m 1946.6996,678.59008 -534.4925,0 0,-3.31 534.4925,0 0,3.31 z" /><path
         style="fill:#d0c8b9;fill-opacity:1;fill-rule:nonzero;stroke:#000000;stroke-opacity:1;stroke-width:0.08904126;stroke-miterlimit:4;stroke-dasharray:none"
         id="path58"
         inkscape:connector-curvature="0"
         d="m 1946.6996,697.35378 -534.4925,0 0,-3.3112 534.4925,0 0,3.3112 z" /><path
         d="m 1445.7277,696.80048 0,-6.07 -14.345,0 0,6.07 -6.3512,0 0,9.3825 27.0475,0 0,-9.3825 -6.3513,0 z"
         inkscape:connector-curvature="0"
         id="path62"
         style="fill:#585d6e;fill-opacity:1;fill-rule:nonzero;stroke:#000000;stroke-opacity:1;stroke-width:0.08904126;stroke-miterlimit:4;stroke-dasharray:none" /><path
         d="m 1506.9899,696.80048 0,-6.07 -14.3512,0 0,6.07 -6.3463,0 0,9.3825 27.0412,0 0,-9.3825 -6.3437,0 z"
         inkscape:connector-curvature="0"
         id="path66"
         style="fill:#585d6e;fill-opacity:1;fill-rule:nonzero;stroke:#000000;stroke-opacity:1;stroke-width:0.08904126;stroke-miterlimit:4;stroke-dasharray:none" /><path
         d="m 1568.2472,696.80048 0,-6.07 -14.3487,0 0,6.07 -6.3438,0 0,9.3825 27.0388,0 0,-9.3825 -6.3463,0 z"
         inkscape:connector-curvature="0"
         id="path70"
         style="fill:#585d6e;fill-opacity:1;fill-rule:nonzero;stroke:#000000;stroke-opacity:1;stroke-width:0.08904126;stroke-miterlimit:4;stroke-dasharray:none" /><path
         d="m 1629.5057,696.80048 0,-6.07 -14.3475,0 0,6.07 -6.345,0 0,9.3825 27.04,0 0,-9.3825 -6.3475,0 z"
         inkscape:connector-curvature="0"
         id="path74"
         style="fill:#585d6e;fill-opacity:1;fill-rule:nonzero;stroke:#000000;stroke-opacity:1;stroke-width:0.08904126;stroke-miterlimit:4;stroke-dasharray:none" /><path
         d="m 1690.7655,696.80048 0,-6.07 -14.3487,0 0,6.07 -6.3463,0 0,9.3825 27.0413,0 0,-9.3825 -6.3463,0 z"
         inkscape:connector-curvature="0"
         id="path78"
         style="fill:#585d6e;fill-opacity:1;fill-rule:nonzero;stroke:#000000;stroke-opacity:1;stroke-width:0.08904126;stroke-miterlimit:4;stroke-dasharray:none" /><path
         d="m 1752.0252,696.80048 0,-6.07 -14.3488,0 0,6.07 -6.3449,0 0,9.3825 27.04,0 0,-9.3825 -6.3463,0 z"
         inkscape:connector-curvature="0"
         id="path82"
         style="fill:#585d6e;fill-opacity:1;fill-rule:nonzero;stroke:#000000;stroke-opacity:1;stroke-width:0.08904126;stroke-miterlimit:4;stroke-dasharray:none" /><path
         d="m 1813.2838,696.80048 0,-6.07 -14.3512,0 0,6.07 -6.345,0 0,9.3825 27.0412,0 0,-9.3825 -6.345,0 z"
         inkscape:connector-curvature="0"
         id="path86"
         style="fill:#585d6e;fill-opacity:1;fill-rule:nonzero;stroke:#000000;stroke-opacity:1;stroke-width:0.08904126;stroke-miterlimit:4;stroke-dasharray:none" /><path
         d="m 1874.5436,696.80048 0,-6.07 -14.3487,0 0,6.07 -6.3488,0 0,9.3825 27.0438,0 0,-9.3825 -6.3463,0 z"
         inkscape:connector-curvature="0"
         id="path90"
         style="fill:#585d6e;fill-opacity:1;fill-rule:nonzero;stroke:#000000;stroke-opacity:1;stroke-width:0.08904126;stroke-miterlimit:4;stroke-dasharray:none" /><path
         d="m 1935.8034,696.80048 0,-6.07 -14.3512,0 0,6.07 -6.3438,0 0,9.3825 27.0388,0 0,-9.3825 -6.3438,0 z"
         inkscape:connector-curvature="0"
         id="path94"
         style="fill:#585d6e;fill-opacity:1;fill-rule:nonzero;stroke:#000000;stroke-opacity:1;stroke-width:0.08904126;stroke-miterlimit:4;stroke-dasharray:none" /><path
         style="fill:#ece1c7;fill-opacity:1;fill-rule:nonzero;stroke:#000000;stroke-opacity:1;stroke-width:0.08904126;stroke-miterlimit:4;stroke-dasharray:none"
         id="path96-40"
         inkscape:connector-curvature="0"
         d="m 843.71085,697.35258 -534.4962,0 0,-22.0738 534.4962,0 0,22.0738 z" /><path
         style="fill:#d0c8b9;fill-opacity:1;fill-rule:nonzero;stroke:#000000;stroke-opacity:1;stroke-width:0.08904126;stroke-miterlimit:4;stroke-dasharray:none"
         id="path98"
         inkscape:connector-curvature="0"
         d="m 843.71085,678.58878 -534.4962,0 0,-3.3087 534.4962,0 0,3.3087 z" /><path
         style="fill:#d0c8b9;fill-opacity:1;fill-rule:nonzero;stroke:#000000;stroke-opacity:1;stroke-width:0.08904126;stroke-miterlimit:4;stroke-dasharray:none"
         id="path100-3"
         inkscape:connector-curvature="0"
         d="m 843.71085,697.35258 -534.4962,0 0,-3.3113 534.4962,0 0,3.3113 z" /><path
         d="m 342.74005,696.79978 0,-6.07 -14.35,0 0,6.07 -6.345,0 0,9.3813 27.0412,0 0,-9.3813 -6.3462,0 z"
         inkscape:connector-curvature="0"
         id="path104-41"
         style="fill:#585d6e;fill-opacity:1;fill-rule:nonzero;stroke:#000000;stroke-opacity:1;stroke-width:0.08904126;stroke-miterlimit:4;stroke-dasharray:none" /><path
         d="m 403.99735,696.79978 0,-6.07 -14.3462,0 0,6.07 -6.3488,0 0,9.3813 27.0425,0 0,-9.3813 -6.3475,0 z"
         inkscape:connector-curvature="0"
         id="path108-2"
         style="fill:#585d6e;fill-opacity:1;fill-rule:nonzero;stroke:#000000;stroke-opacity:1;stroke-width:0.08904126;stroke-miterlimit:4;stroke-dasharray:none" /><path
         d="m 465.25905,696.79978 0,-6.07 -14.35,0 0,6.07 -6.3463,0 0,9.3813 27.0413,0 0,-9.3813 -6.345,0 z"
         inkscape:connector-curvature="0"
         id="path112-2"
         style="fill:#585d6e;fill-opacity:1;fill-rule:nonzero;stroke:#000000;stroke-opacity:1;stroke-width:0.08904126;stroke-miterlimit:4;stroke-dasharray:none" /><path
         d="m 526.51385,696.79978 0,-6.07 -14.3487,0 0,6.07 -6.345,0 0,9.3813 27.0412,0 0,-9.3813 -6.3475,0 z"
         inkscape:connector-curvature="0"
         id="path116-9"
         style="fill:#585d6e;fill-opacity:1;fill-rule:nonzero;stroke:#000000;stroke-opacity:1;stroke-width:0.08904126;stroke-miterlimit:4;stroke-dasharray:none" /><path
         d="m 587.77425,696.79978 0,-6.07 -14.3487,0 0,6.07 -6.345,0 0,9.3813 27.0425,0 0,-9.3813 -6.3488,0 z"
         inkscape:connector-curvature="0"
         id="path120-8"
         style="fill:#585d6e;fill-opacity:1;fill-rule:nonzero;stroke:#000000;stroke-opacity:1;stroke-width:0.08904126;stroke-miterlimit:4;stroke-dasharray:none" /><path
         d="m 649.03575,696.79978 0,-6.07 -14.3512,0 0,6.07 -6.345,0 0,9.3813 27.0412,0 0,-9.3813 -6.345,0 z"
         inkscape:connector-curvature="0"
         id="path124-2"
         style="fill:#585d6e;fill-opacity:1;fill-rule:nonzero;stroke:#000000;stroke-opacity:1;stroke-width:0.08904126;stroke-miterlimit:4;stroke-dasharray:none" /><path
         d="m 710.29125,696.79978 0,-6.07 -14.3462,0 0,6.07 -6.3438,0 0,9.3813 27.0363,0 0,-9.3813 -6.3463,0 z"
         inkscape:connector-curvature="0"
         id="path128-2"
         style="fill:#585d6e;fill-opacity:1;fill-rule:nonzero;stroke:#000000;stroke-opacity:1;stroke-width:0.08904126;stroke-miterlimit:4;stroke-dasharray:none" /><path
         d="m 771.55055,696.79978 0,-6.07 -14.3475,0 0,6.07 -6.3488,0 0,9.3813 27.0438,0 0,-9.3813 -6.3475,0 z"
         inkscape:connector-curvature="0"
         id="path132-7"
         style="fill:#585d6e;fill-opacity:1;fill-rule:nonzero;stroke:#000000;stroke-opacity:1;stroke-width:0.08904126;stroke-miterlimit:4;stroke-dasharray:none" /><path
         d="m 832.81155,696.79978 0,-6.07 -14.3488,0 0,6.07 -6.3475,0 0,9.3813 27.0438,0 0,-9.3813 -6.3475,0 z"
         inkscape:connector-curvature="0"
         id="path136-8"
         style="fill:#585d6e;fill-opacity:1;fill-rule:nonzero;stroke:#000000;stroke-opacity:1;stroke-width:0.08904126;stroke-miterlimit:4;stroke-dasharray:none" /><path
         style="fill:#ece1c7;fill-opacity:1;fill-rule:nonzero;stroke:#000000;stroke-opacity:1;stroke-width:0.08904126;stroke-miterlimit:4;stroke-dasharray:none"
         id="path138"
         inkscape:connector-curvature="0"
         d="m 1333.5859,697.35258 -534.49255,0 0,-22.0738 534.49255,0 0,22.0738 z" /><path
         style="fill:#d0c8b9;fill-opacity:1;fill-rule:nonzero;stroke:#000000;stroke-opacity:1;stroke-width:0.08904126;stroke-miterlimit:4;stroke-dasharray:none"
         id="path140-58"
         inkscape:connector-curvature="0"
         d="m 1333.5859,678.58878 -534.49255,0 0,-3.3087 534.49255,0 0,3.3087 z" /><path
         style="fill:#d0c8b9;fill-opacity:1;fill-rule:nonzero;stroke:#000000;stroke-opacity:1;stroke-width:0.08904126;stroke-miterlimit:4;stroke-dasharray:none"
         id="path142"
         inkscape:connector-curvature="0"
         d="m 1333.5859,697.35258 -534.49255,0 0,-3.3113 534.49255,0 0,3.3113 z" /><path
         d="m 832.61365,696.79978 0,-6.07 -14.345,0 0,6.07 -6.3513,0 0,9.3813 27.0475,0 0,-9.3813 -6.3512,0 z"
         inkscape:connector-curvature="0"
         id="path146"
         style="fill:#585d6e;fill-opacity:1;fill-rule:nonzero;stroke:#000000;stroke-opacity:1;stroke-width:0.08904126;stroke-miterlimit:4;stroke-dasharray:none" /><path
         d="m 893.87525,696.79978 0,-6.07 -14.3512,0 0,6.07 -6.345,0 0,9.3813 27.0412,0 0,-9.3813 -6.345,0 z"
         inkscape:connector-curvature="0"
         id="path150"
         style="fill:#585d6e;fill-opacity:1;fill-rule:nonzero;stroke:#000000;stroke-opacity:1;stroke-width:0.08904126;stroke-miterlimit:4;stroke-dasharray:none" /><path
         d="m 955.13265,696.79978 0,-6.07 -14.35,0 0,6.07 -6.3425,0 0,9.3813 27.04,0 0,-9.3813 -6.3475,0 z"
         inkscape:connector-curvature="0"
         id="path154"
         style="fill:#585d6e;fill-opacity:1;fill-rule:nonzero;stroke:#000000;stroke-opacity:1;stroke-width:0.08904126;stroke-miterlimit:4;stroke-dasharray:none" /><path
         d="m 1016.3917,696.79978 0,-6.07 -14.3475,0 0,6.07 -6.34495,0 0,9.3813 27.03995,0 0,-9.3813 -6.3475,0 z"
         inkscape:connector-curvature="0"
         id="path158"
         style="fill:#585d6e;fill-opacity:1;fill-rule:nonzero;stroke:#000000;stroke-opacity:1;stroke-width:0.08904126;stroke-miterlimit:4;stroke-dasharray:none" /><path
         d="m 1077.6515,696.79978 0,-6.07 -14.3488,0 0,6.07 -6.3462,0 0,9.3813 27.0412,0 0,-9.3813 -6.3462,0 z"
         inkscape:connector-curvature="0"
         id="path162"
         style="fill:#585d6e;fill-opacity:1;fill-rule:nonzero;stroke:#000000;stroke-opacity:1;stroke-width:0.08904126;stroke-miterlimit:4;stroke-dasharray:none" /><path
         d="m 1138.9101,696.79978 0,-6.07 -14.3475,0 0,6.07 -6.345,0 0,9.3813 27.04,0 0,-9.3813 -6.3475,0 z"
         inkscape:connector-curvature="0"
         id="path166"
         style="fill:#585d6e;fill-opacity:1;fill-rule:nonzero;stroke:#000000;stroke-opacity:1;stroke-width:0.08904126;stroke-miterlimit:4;stroke-dasharray:none" /><path
         d="m 1200.1698,696.79978 0,-6.07 -14.3512,0 0,6.07 -6.345,0 0,9.3813 27.0412,0 0,-9.3813 -6.345,0 z"
         inkscape:connector-curvature="0"
         id="path170"
         style="fill:#585d6e;fill-opacity:1;fill-rule:nonzero;stroke:#000000;stroke-opacity:1;stroke-width:0.08904126;stroke-miterlimit:4;stroke-dasharray:none" /><path
         d="m 1261.4296,696.79978 0,-6.07 -14.35,0 0,6.07 -6.3475,0 0,9.3813 27.0438,0 0,-9.3813 -6.3463,0 z"
         inkscape:connector-curvature="0"
         id="path174"
         style="fill:#585d6e;fill-opacity:1;fill-rule:nonzero;stroke:#000000;stroke-opacity:1;stroke-width:0.08904126;stroke-miterlimit:4;stroke-dasharray:none" /><path
         d="m 1322.6881,696.79978 0,-6.07 -14.3512,0 0,6.07 -6.3438,0 0,9.3813 27.04,0 0,-9.3813 -6.345,0 z"
         inkscape:connector-curvature="0"
         id="path178"
         style="fill:#585d6e;fill-opacity:1;fill-rule:nonzero;stroke:#000000;stroke-opacity:1;stroke-width:0.08904126;stroke-miterlimit:4;stroke-dasharray:none" /></g></g></svg>